<?xml version="1.0" standalone="no"?>
<!DOCTYPE svg PUBLIC "-//W3C//DTD SVG 1.1//EN" "http://www.w3.org/Graphics/SVG/1.1/DTD/svg11.dtd" >
<svg xmlns="http://www.w3.org/2000/svg">
<metadata></metadata>
<defs>
<font id="handy_sans_condensedistressed" horiz-adv-x="960" >
<font-face units-per-em="2048" ascent="1479" descent="-569" />
<missing-glyph horiz-adv-x="512" />
<glyph horiz-adv-x="0" />
<glyph horiz-adv-x="682" />
<glyph unicode=" "  horiz-adv-x="512" />
<glyph unicode="&#x09;" horiz-adv-x="512" />
<glyph unicode="&#xa0;" horiz-adv-x="512" />
<glyph unicode="!" horiz-adv-x="561" d="M236 1479h90q83 0 80 -84l-35 -881q-1 -38 -23.5 -59t-60.5 -21h-13q-38 0 -60.5 21t-23.5 59l-34 881q-3 84 80 84zM365 1386q-7 0 -15 -8q-6 -6 -6 -12q0 -13 6 -16q2 -4 15 -4q10 0 14 4q6 6 6 16q0 6 -6 12q-8 8 -14 8zM244 238h73q20 0 41 -7q7 -7 7 -10 q0 -5 -5 -10l-14 -14q-12 -12 12 -20q11 -3 23 -3q16 0 16 -16v-74q0 -84 -80 -84h-73q-40 0 -62 22t-22 62v74q0 80 84 80zM246 49q-10 0 -10 -6t10 -6q8 0 8 6t-8 6z" />
<glyph unicode="&#x22;" horiz-adv-x="780" d="M256 1499h10q23 0 31.5 -12.5t-0.5 -34.5l-66 -160q-9 -22 -0.5 -34.5t31.5 -12.5q62 0 62 -61v-99q0 -81 -82 -81h-78q-82 0 -82 81v107q0 48 27 100l98 178q17 29 49 29zM631 1499h10q23 0 31.5 -12.5t-0.5 -34.5l-66 -160q-9 -22 -0.5 -34.5t31.5 -12.5q50 0 59 -39 q0 -4 2 -8q0 -16 -8 -27q-16 -18 -19.5 -32t1.5 -19l4 -4l12 -6q10 -3 10 -16v-9q0 -81 -82 -81h-77q-82 0 -82 81v107q0 49 26 100l99 178q17 29 49 29zM516 1229l-10 -6q2 -2 4 -2h6q6 0 6 4q0 7 -6 4zM537 1229q-3 -3 0 -10q2 -3 6.5 -7.5t5.5 -3.5l4 4q3 1 3.5 5.5 t-1.5 5.5q-3 3 -10 5t-8 1zM573 1214h-2h-2v-2l2 -4l2 2v4zM637 1198q-9 3 -16 -4q-1 -3 2 -10q6 -6 12 -6q9 -3 18 0q12 0 15 6q6 6 2 8h-13q-2 0 -9.5 3t-10.5 3zM160 1169l-2 2q-3 3 -6 0l-2 -10l6 -4l6 2q0 8 -2 10zM623 1171q-11 0 -11 -6t11 -6q10 0 10 6t-10 6z M215 1135h-4q-1 -1 1 -2t3 0v2zM125 1110l4 4v2q-1 3 -4 4v-10zM150 1116q-2 1 -4.5 1t-4 -1.5t-0.5 -3.5l2 -2v-2q4 -4 9 -4q2 0 4.5 1t3.5 2.5t0 2.5q-3 6 -10 6zM152 1079v-6q2 0 4 4q0 6 -4 2zM156 1069q0 -10 2 -12q12 0 16 2l4 2l-6 4q-4 2 -10 3.5t-6 0.5zM129 1061 q0 4 -4 0q0 -2 -1 -4l-1.5 -3t0.5 -1t3.5 3t2.5 5z" />
<glyph unicode="#" horiz-adv-x="962" d="M754 1479h22q87 0 78 -86l-33 -283q-4 -31 11.5 -48.5t46.5 -17.5h4q59 0 59 -59v-45q0 -63 -59 -63h-29q-57 0 -63 -58l-19 -151q-5 -31 9.5 -48.5t45.5 -17.5h2q60 0 60 -59v-13q0 -10 -7 -19.5t-18 -12.5q-34 -14 -26 -54q0 -4 -2 -6q-4 -4 -7 -4h-28q-58 0 -64 -57 l-35 -299q-9 -78 -86 -78h-24q-87 0 -78 86l33 283q4 30 -11.5 47.5t-46.5 17.5h-83q-58 0 -64 -57l-35 -299q-9 -78 -86 -78h-26q-87 0 -78 86l33 283q4 30 -11.5 47.5t-46.5 17.5h-8q-29 0 -46.5 17.5t-17.5 46.5v45q0 59 64 59h37q57 0 63 57l17 152q4 32 -11.5 49 t-46.5 17h-8q-29 0 -46 17t-17 46v45q0 59 63 59h37q58 0 64 58l36 301q9 76 86 76h23q87 0 78 -86l-33 -283q-4 -31 11 -48.5t46 -17.5h84q58 0 64 58l37 301q9 76 86 76zM823 997l-2 -4q3 -5 6 -2q1 4 1 7.5t-5 -1.5zM852 985q-4 3 -10 2.5t-6 -6.5q0 -11 10 -6q12 4 6 10 zM145 983q-3 3 -8 0q-2 -1 -5.5 -2t-4.5 -2q-4 -4 -6 -8t4 -10q3 -3 8 -3q4 2 6 6.5t6 8.5q5 5 0 10zM178 969q-5 5 -8 0q-4 -4 0 -8t8 0q5 3 0 8zM541 877h-82q-58 0 -64 -58l-18 -151q-4 -31 11 -48.5t46 -17.5h82q58 0 64 57l18 152q4 31 -11 48.5t-46 17.5zM885 487 q4 -4 4 -8q-5 -32 -37 -41h-2l27 49q4 4 8 0zM254 82q-12 0 -8 -14q1 -4 3.5 -6.5t4.5 -3.5l2 -1l-4 -6q-3 -8 4 -8q4 0 5 2t0 6.5t-1 5.5q1 1 4.5 5t3.5 6q0 14 -14 14z" />
<glyph unicode="$" horiz-adv-x="888" d="M438 1636h66q82 0 82 -73v-7q0 -62 65 -92q125 -58 170 -192q3 -10 -6 -15q-20 -7 -25 -21t3 -40q2 -7 -2 -20q-7 -10 -19 -13q-1 0 -4.5 -1t-5.5 -1l-55 -10q-35 -6 -57.5 7t-45.5 46q-51 66 -127 66q-52 0 -87.5 -36t-35.5 -87q0 -48 26.5 -100t68.5 -102t92.5 -103 t101.5 -110.5t93 -116.5t68.5 -129.5t26.5 -141.5q0 -247 -178 -328q-35 -16 -51 -37t-16 -57v-8q0 -82 -82 -82h-66q-82 0 -82 78v8q0 36 -16 57t-51 35q-36 13 -70 37q-33 23 -33 59q-1 3 -2 10t-2 9t-3 4.5t-9 5.5t-16 -8l-2 -2q-2 -2 -9 -2q-6 0 -6 4q-54 69 -76 164 q-9 39 9 63.5t57 32.5l68 14q38 9 59.5 -7t34.5 -56q20 -61 66.5 -95t107.5 -34q52 0 87.5 36t35.5 87q0 59 -26.5 117.5t-68.5 109t-92.5 101.5t-101.5 104t-93 108.5t-68.5 123.5t-26.5 139q0 249 180 329q35 15 51 37t16 58q0 77 82 77zM203 1325q-15 0 -15 -12 q0 -10 15 -10q14 0 14 10q0 12 -14 12zM201 1294q-8 -8 -8 -14q0 -10 6 -16q2 -2 16 -2q10 0 14 4q7 7 7 14q0 8 -9 12q-2 3 -12.5 4t-13.5 -2zM825 1243q4 -4 4 -6q3 -32 -18 -53q-2 -2 -4 0q-1 0 -2 1t-2 1q-5 38 14 55q2 2 8 2zM223 1047l4 10q0 9 -6 0q-8 5 -12 1 q-1 -2 0 -3l6 -13q3 5 8 5zM242 1010h-5h1q4 -4 4 0zM279 997q-1 -1 -3 -2.5l-4 -3t-2 -2.5l-2 -10l4 2h2q2 -2 3.5 -0.5t1.5 4.5v12zM360 961h-4q-1 0 -2 -2.5l-2 -5t-2 -3.5l4 -4l8 2q0 -4 5 -6q0 1 6 1t6 1q-4 6 -6 6q-7 4 -11 0q2 2 -2 11zM324 922l6 -2v4q1 1 -0.5 1.5 t-3.5 0.5zM432 801l2 -4h2q1 -1 2.5 0t3.5 0q2 0 5.5 3.5t3.5 4.5q0 2 -13 2zM455 756l-11 4q-4 -2 -4 -4l6 -8q5 -2 7 0zM520 729l-2 2q-2 -4 -2 -8h4v6zM451 713q-2 -2 -2 -4l2 -4l4 4zM645 653q-4 4 -8 0v-8q0 -1 3.5 -1t4.5 1v8zM545 627l-4 -2q3 -3 6 0l2 2h-4z M553 621h-2q2 -5 6 -7l-2 4zM541 618l2 -2l-2 -2l4 -4v2q2 2 0.5 4t-4.5 2zM541 592q-2 -2 0 -4l6 -4l-2 6q0 2 -4 2zM635 584h-6q-3 1 -5.5 -1.5t-2.5 -4.5q1 1 10 -3q0 1 2 4t2 5zM563 573v-4l2 -2q8 0 0 4q-1 4 -4 4zM524 530q-1 3 -3.5 2.5t-0.5 -2.5q-3 2 -4 2l2 -2 q0 -6 6 0zM641 498h-12q2 -4 2 -6l6 -9q1 0 3.5 2.5t2.5 3.5zM686 463q-5 3 -8 0q1 0 2.5 -1t3.5 -1q2 -2 2 2zM698 430q-2 4 -2 0h-4l2 -2q4 0 4 2zM791 375q-3 2 -13.5 -0.5t-13.5 -5.5q-4 -8 -4 -15q4 -12 8 -14q2 -2 5 -2t6.5 1t4.5 1q11 4 13 8q6 6 2 14q0 9 -8 13z M686 373q0 -2 -1 -3.5t-1 -2.5q2 3 2 4v2zM330 104l-4 -2q0 -2 4 -2q2 0 2 2t-2 2zM354 84q-20 0 -20 -10q0 -5 6.5 -9t13.5 -4t12 4t5 9q0 10 -17 10zM319 68q-10 0 -10 -7q0 -4 10 -4q11 0 11 4q0 7 -11 7z" />
<glyph unicode="%" horiz-adv-x="1312" d="M344 1499q113 0 168 -85t55 -240q0 -160 -52 -245t-171 -85q-202 0 -221 262q0 26 12 47q5 7 8 32.5t-2 45.5q-16 29 -10 61q40 207 213 207zM961 1479h73q23 0 31 -13.5t-2 -35.5l-485 -969q-11 -20 -31 -33q-13 -6 -22.5 -13.5t-12.5 -11.5l-4 -4q-12 -11 14 -20 q4 0 8 -4q0 -6 -2 -8l-168 -336q-16 -31 -47 -31h-73q-23 0 -31 13.5t2 35.5l702 1399q15 31 48 31zM342 1389q-27 0 -44.5 -16.5t-26.5 -48t-12 -66.5t-3 -84q0 -51 3 -87.5t12 -69t26.5 -49t44.5 -16.5t44.5 16.5t25.5 49.5t11 68.5t3 87.5q0 50 -3 84t-11 66.5 t-25.5 48.5t-44.5 16zM905 1268l-10 -2q0 -2 4.5 -4.5t5.5 -1.5q1 -1 4 2q0 6 -4 6zM836 1130v11h-5q-3 -7 -2 -8q0 -2 2 -3t5 0zM760 1016q-4 2 -4 0v-6l6 2zM803 1016q-6 0 -8 -6q0 -4 6 -4l8 2q1 1 0 3.5t-3 4t-3 0.5zM713 965l-2 4l-2 -8zM729 922l-4 6q-8 -2 -12 -2 l4 -6h8zM762 879l-4 4l-4 -4q-1 -1 0 -3.5t2.5 -5.5t1.5 -4zM635 786q-1 -1 -4.5 -2.5t-6 -3.5t-1.5 -4q0 -2 4.5 -2.5t5.5 0.5l6 4q1 6 1 7t-5 1zM594 688q-3 0 -8 -10q6 -6 8 -6q-2 0 -8 -6v-4l2 -3l4 2q5 2 6 1l6 6l-8 4q1 0 4 6q-1 1 -4 6zM578 684q0 -8 4 -8l8 -6l2 4 v2l-1 2q-1 2 -3 2q-1 4 -5 5t-5 -1zM967 637q113 0 168 -85.5t55 -240.5q0 -159 -52 -244t-171 -85t-171.5 85t-52.5 244q0 155 55 240.5t169 85.5zM563 584l2 -2q4 0 4 2l-6 2v-2zM965 526q-27 0 -44.5 -16.5t-26.5 -48t-12 -66.5t-3 -84q0 -51 3 -87t12 -68.5t26.5 -49 t44.5 -16.5t44.5 16t25.5 49t11 68.5t3 87.5q0 50 -3 84t-11 66.5t-25.5 48.5t-44.5 16z" />
<glyph unicode="&#x26;" horiz-adv-x="1220" d="M528 1497q73 0 131 -22t95.5 -60t60.5 -79t37 -89q7 -32 -8 -53q-10 -14 -11 -24.5t3 -14.5l4 -4q4 -3 20 -8q8 -4 8 -10q0 -96 -59 -194t-162 -210q-36 -39 -10 -86q56 -92 115 -164q40 -46 84 4q34 43 49 64q53 75 114 14l50 -49q54 -54 18 -115q-8 -16 -27 -43 t-22 -32q-40 -57 -4 -74q6 -3 18.5 -8.5t18.5 -8.5q67 -27 67 -94v-71q0 -42 -23.5 -63t-62.5 -11q-117 28 -229 114q-183 -126 -375 -126q-145 -1 -232.5 85t-95.5 216q0 15 15 22q1 0 3 1t3 1q4 8 6.5 30t-2.5 42v4q-13 16 -6 39q21 74 74 145q51 68 124 152 q-120 235 -120 411q0 96 39.5 179.5t116.5 136.5t175 53zM532 1307q-58 0 -83.5 -50t-22.5 -129q3 -48 41 -143q14 -34 39.5 -38.5t48.5 24.5q73 90 84 168q9 73 -20 120.5t-87 47.5zM340 1239q0 -8 2 -10q0 -1 2 -1t2 1q3 6 0 6q0 2 -2.5 3.5t-3.5 0.5zM657 930q-8 0 -8 -2 q-5 -2 -2 -8h6q6 7 4 10zM561 864l-2 -2l-2 -2l4 -2q3 3 0 6zM371 827q-2 6 -6 0q-5 -4 -7 -7.5t-1 -5.5l1 -1q3 -2 7 -2.5t4 0.5q2 2 2.5 7.5t-0.5 8.5zM543 811h4q2 0 1.5 2t-3.5 2zM524 797l6 6q-6 0 -6 -2h-2q0 -1 -1 -2t-1 -2q0 -4 4 0zM594 774h-2q-1 1 -2.5 -0.5 t-1.5 -3.5l2 -2l2 2zM336 758q-2 0 -2 -2q18 -14 21 -22t-3 -32h2q29 30 24.5 40t-42.5 16zM524 745q0 -4 2 -4l6 -2l-4 2v2q-1 0 -2 1t-2 1zM528 688l-2 -2h4q2 -2 2 0l-2 2h-2zM539 664h-7l-2 -9q5 -4 9 -6q2 2 2 4zM492 614h-3q3 -3 7 -2zM285 594l-2 -2l-4 -4l-3 -10 q3 -1 7 1.5t4 4.5l2 8zM608 592q-8 0 -8 -4l8 -4q6 0 6 4q-3 7 -6 4zM352 553h-4q-1 0 -3.5 -4t-2.5 -6q0 -4 2 -4l6 2q0 -4 4 -6q7 -7 11 -5q0 8 -3 11q-6 6 -10 2q2 6 0 8v2zM944 549q-14 0 -14 -12q0 -4 4.5 -7.5t9.5 -3.5t9.5 3.5t4.5 7.5q0 12 -14 12zM545 541l-2 -2 q-3 -1 -2 -4h4v6zM942 518q-8 -8 -8 -14q0 -11 6 -17q2 -2 16 -2q11 0 15 4q6 6 6 15q0 8 -8 12q-2 3 -13 4t-14 -2zM334 518q-6 0 -2 -8q0 -4 1 -5t3 1l10 10q-3 6 -12 2zM545 516l-4 -4q5 0 6 2q2 2 -2 2zM340 504v-6h2q0 -4 6 -4q2 0 5.5 1t4.5 1q0 8 -10 8h-8zM465 498 q-6 0 -14 -19q-3 -8 -15 -12q-34 -11 -53 -57q-37 -85 6 -146q49 -74 172 -14q29 15 32.5 38t-18.5 48l-75 94q-13 16 -19 37q-10 31 -16 31zM578 428l-7 8q-4 -2 -4 -4v-8q1 -3 4 -2zM604 434l-2 -2q-1 -2 0 -4h2q2 2 2 4t-2 2zM733 387q-4 0 -6 -2l-6 -10q4 -2 8 0 q3 -2 7.5 -0.5t4.5 4.5zM805 336l-6 -6q0 -4 2 -6h6l4 10q-4 2 -6 2zM782 305l-2 -8l2 -2q4 2 4 4zM764 279h4q2 0 0.5 2t-4.5 2v-4zM827 272l-8 -4q0 -2 3.5 -4.5t4.5 -1.5q7 0 7 6q-4 7 -7 4zM854 231l4 -8h6q0 1 -1 3t-1 3zM741 223q0 8 -4 0q0 -2 3 -2q1 1 1 2z" />
<glyph unicode="'" horiz-adv-x="487" d="M215 1479h57q37 0 61.5 -25.5t22.5 -62.5l-16 -342q-1 -34 -24.5 -56t-57.5 -22h-29q-34 0 -57.5 22t-24.5 56l-16 342q-2 37 22.5 62.5t61.5 25.5zM260 1446l-10 -6q2 -2 4 -2h6q6 0 6 4q0 7 -6 4zM281 1446q-3 -3 0 -10q2 -4 6.5 -8t5.5 -3l4 5q3 1 3.5 5t-1.5 5 q-3 3 -10 5.5t-8 0.5zM317 1432h-2h-2v-2l2 -5l2 2v5zM219 1178l-2 2q-3 3 -6 0l-2 -11l6 -4l6 2q0 9 -2 11zM184 1118l4 4v2q-1 3 -4 4v-10zM209 1124q-2 1 -4 1t-3.5 -1.5t-0.5 -3.5l2 -2v-2q4 -4 8 -4q2 0 4.5 1t3.5 2.5t0 2.5q-3 6 -10 6zM211 1087v-6q1 -1 2.5 0.5 t1.5 3.5q0 6 -4 2zM215 1077q0 -10 2 -12q12 0 16 2l5 2l-7 4q-4 2 -10 3.5t-6 0.5zM188 1069q0 4 -4 0q0 -2 -1 -4l-1.5 -3t0.5 -1t3.5 3t2.5 5zM205 1016h-4q-1 -2 1 -3t3 1v2z" />
<glyph unicode="(" horiz-adv-x="534" d="M371 1499h39q44 0 56 -26.5t-11 -69.5q-185 -340 -185 -741q0 -402 185 -742q23 -43 11 -69.5t-56 -26.5h-39q-65 0 -97 55q-99 170 -153.5 373t-54.5 410t54.5 409t153.5 373q32 55 97 55zM340 1456l-4 -2q0 -2 4 -2q2 0 2 2t-2 2zM365 1436q-21 0 -21 -11q0 -4 6.5 -8 t14.5 -4q16 0 16 12q0 11 -16 11zM330 1419q-11 0 -11 -6q0 -4 11 -4q10 0 10 4q0 6 -10 6zM268 201q-6 0 -6 -4h4q2 0 2 4zM274 195q-1 0 -10 -9q-2 -3 -2.5 -7.5t0.5 -4.5l17 -6l16 -4q0 -2 2 -2l2 2h2l2 2q-4 6 -8 10q-2 2 -7 6.5t-8.5 8.5t-5.5 4zM268 106l4 -2 q1 -1 4.5 -2.5t6 -2t2.5 0.5l-4 4q-9 5 -11 5zM287 86l4 -2q4 0 2 2l-6 2v-2zM260 33l-8 -4q-3 0 -2.5 -3.5t2.5 -5.5q0 -3 3.5 -4.5t6.5 0.5q9 9 -2 17zM317 25l2 4l-7 -2h1zM307 8h-16q-8 0 -8 -4t4 -12t16 0q9 5 7 13q0 3 -3 3zM408 -80q-3 2 -13.5 -0.5t-13.5 -5.5 q-4 -8 -4 -14q4 -13 8 -15q2 -2 5 -2t6.5 1t4.5 1q10 3 13 9q6 6 2 14q0 8 -8 12z" />
<glyph unicode=")" horiz-adv-x="534" d="M164 1499q64 0 96 -55q100 -171 154.5 -373t54.5 -409q0 -264 -90 -523q-3 -10 -8 -12q-34 -36 -29 -57v-2q7 -10 0 -23q-45 -103 -82 -166q-32 -55 -96 -55h-29q-49 0 -64 26.5t9 69.5q184 339 184 742q0 402 -184 741q-4 6 -8 18q-4 15 4 25q8 8 22 8q27 -5 49 35 q3 10 17 10zM135 1499q2 0 4 -2q0 -4 -2 -4q-22 -28 -53 -20q-2 0 -6 4q0 6 2 8q21 14 55 14zM315 309q-21 0 -14 -24q2 -5 6 -9.5t7 -5.5l3 -2l-6 -10q-6 -14 6 -14q5 0 7.5 2.5t2.5 5.5t-0.5 8.5t-0.5 7.5q1 2 7.5 8t6.5 9q0 24 -25 24z" />
<glyph unicode="*" horiz-adv-x="856" d="M428 1479q39 0 60.5 -32t13.5 -77q-13 -72 -21 -129q-3 -25 10.5 -34.5t36.5 1.5q39 18 113 58q40 23 76.5 12.5t48.5 -47.5q12 -38 -13 -67.5t-73 -35.5q-49 -5 -131 -16q-26 -3 -32 -18.5t11 -34.5q73 -73 99 -96q35 -34 37.5 -73t-29.5 -61q-34 -23 -70 -8t-55 58 l-55 118q-11 25 -27 25t-27 -25l-55 -118q-19 -43 -55 -58t-68 8q-33 24 -30.5 62.5t38.5 71.5q41 39 95 96q19 19 13 34.5t-32 18.5q-11 1 -29.5 4t-33.5 5t-29 3q-28 3 -43 29q-15 23 -20 23t-9 -11q-3 -8 -14 -12q-14 -3 -20 6q-33 30 -19 72q12 37 48.5 47.5t76.5 -12.5 q74 -40 113 -58q23 -11 36.5 -1.5t10.5 34.5q-9 65 -21 129q-8 45 13.5 77t60.5 32zM315 893q-6 0 -6 -4t6 -4q7 0 7 4t-7 4z" />
<glyph unicode="+" horiz-adv-x="1220" d="M584 1120h65q82 0 82 -82v-317h307q82 0 82 -82v-55q0 -82 -82 -82h-307v-318q0 -82 -82 -82h-65q-82 0 -82 82v318h-307q-82 0 -82 82v55q0 82 82 82h307v317q0 82 82 82z" />
<glyph unicode="," horiz-adv-x="446" d="M180 242h78q82 0 82 -82v-107q0 -47 -27 -100l-98 -178q-17 -29 -49 -29h-10q-23 0 -31.5 12.5t0.5 34.5l65 160q9 22 1 34.5t-31 12.5q-29 0 -45.5 21.5t-16.5 60.5v78q0 82 82 82zM231 164q-4 -4 0 -17q5 -8 17 -4q6 3 6.5 9.5t-2.5 9.5q-8 12 -21 2zM215 131 q-2 4 -7.5 3.5t-8.5 -3.5q-13 -9 -6 -16q4 -4 10 -4l2 -2q20 0 24 6q0 3 -10 10q0 2 -4 6z" />
<glyph unicode="-" horiz-adv-x="753" d="M174 727h406q37 0 60.5 -23.5t23.5 -60.5v-22q0 -37 -23.5 -60.5t-60.5 -23.5h-406q-37 0 -60.5 23.5t-23.5 60.5v22q0 37 23.5 60.5t60.5 23.5z" />
<glyph unicode="." horiz-adv-x="446" d="M190 242h66q37 0 60.5 -23.5t23.5 -60.5v-74q0 -37 -23.5 -60.5t-60.5 -23.5h-66q-37 0 -60.5 23.5t-23.5 60.5v74q0 37 23.5 60.5t60.5 23.5zM145 188q-11 0 -8 -14q1 -4 3.5 -6.5t4.5 -3.5h2l-4 -6q-3 -8 4 -8q3 0 4 1.5t1.5 3t0 5t-0.5 4.5q1 2 4.5 5t3.5 5 q0 14 -15 14z" />
<glyph unicode="/" horiz-adv-x="528" d="M438 1499h54q44 0 66.5 -36t8.5 -83l-403 -1345q-16 -55 -74 -55h-39q-51 0 -77.5 35t-12.5 83l404 1346q16 55 73 55zM528 1399l-8 -8l-18 -5l-4 -4q2 -2 10 -2q20 7 20 11q0 1 1 3q0 5 -1 5zM463 1399l-8 -6q0 -2 -2.5 -5.5l-5 -7t-1.5 -4.5q0 -1 4.5 0t9.5 3.5t7 4.5 q10 5 2 9zM438 1370q-1 -1 -2.5 -2t-2.5 -2t-1 -2q2 -2 8 -4h19l-2 2h-11q0 3 -3 5.5t-5 2.5zM385 1331q-6 0 -6 -4h4q2 0 2 4zM391 1325q-2 0 -10 -8q-2 -3 -2.5 -7.5t0.5 -4.5l16 -7l17 -4q0 -2 2 -2l2 2h2l2 2q-4 7 -8 11q-2 2 -7 6.5t-8.5 8t-5.5 3.5zM424 1249l-2 2 q-4 4 -10 -2q0 -1 -0.5 -4.5t0 -5t2.5 -0.5zM436 1235h-14q-1 -1 -3.5 -5t-3 -5.5t0.5 -3.5q0 -3 8 -1.5t10 3.5q4 11 2 12zM479 1229q-2 -3 -0.5 -4t4.5 2q2 2 -1 4t-3 -2zM362 1210q-6 6 -6 -4q-2 -3 -2.5 -11.5t0.5 -10.5q5 -5 11 -2q3 3 2 14t-5 14zM371 1153l-9 -4 q-3 0 -2.5 -3t2.5 -5q0 -3 4 -4.5t7 0.5q9 9 -2 16zM428 1145l2 4l-7 -2h1zM418 1128h-17q-8 0 -8 -4t4 -12t17 0q9 5 7 13q0 3 -3 3zM344 1069l4 -2q1 -1 4 -2.5t5.5 -2t2.5 0.5l-4 4q-8 4 -10 4zM362 1049l5 -2q4 0 2 2l-7 2v-2zM371 973h-2q-5 0 -7 -2t1 -8t6 -7 q6 -6 14 -2l6 4q3 2 1 5t-9 8zM326 969h-9q-2 0 -4 -2v-4q0 -7 9 -11h6q2 0 2 4q-1 1 -2 6.5t-2 6.5zM68 131l-4 3q-23 4 -29 -7q-8 -14 -17 -43t-2 -33t24 15.5t17 31.5q0 5 2.5 13t5 14t3.5 6z" />
<glyph unicode="0" horiz-adv-x="999" d="M498 1501q101 0 181 -36t128 -95.5t73 -131t25 -148.5v-246q0 -18 -8 -29q-15 -26 -2 -51q14 -29 10 -33v-346q0 -73 -26.5 -144t-75.5 -129.5t-129 -95t-176 -36.5t-174.5 36.5t-127.5 96t-75.5 132t-26.5 148.5v690q0 128 70 240q28 41 80 51q4 0 8 4q4 9 8 37 q0 9 8 17q98 69 230 69zM287 1276l-4 -2v-4l6 4zM500 1272q-44 0 -77 -19.5t-50 -50t-25 -60.5t-8 -59v-686q0 -38 13.5 -78t52 -74t94.5 -34q42 0 74.5 19.5t50 49.5t26 60t8.5 57v686q0 64 -41 126.5t-118 62.5zM295 1204v4q-6 0 -6 -4v-8zM205 1176q-1 0 -2 -2 q-1 -1 -1 -1.5t-1 -1.5v3q0 2 -4 2q-2 -3 0 -5q1 0 2 -1t2 -1v-4h6l6 6l-2 3q-6 6 -6 2zM274 1167q-2 0 -6 -4l6 -4l5 2v2l2 2q-5 2 -7 2zM147 1118q-4 0 -4 -4l2 -12h2l3 12zM264 1081l2 -2l4 2q-2 2 -6 2v-2zM215 1067q-7 3 -10 0q-2 0 -3.5 -4.5t-0.5 -5.5l2 -2q2 0 4 2 l2 4q6 3 6 6zM293 1055q-2 0 -4 -2q0 -4 2 -2zM188 1036q-1 0 -3.5 -4t-2.5 -6q2 -2 4 0q7 7 7 8q-3 2 -5 2zM291 989q0 -6 4 -6v4zM215 950q-1 -1 -2.5 -2t-2.5 -2t-1 -2l-4 4h-4l2 -8l2 -2q4 4 4 6q0 -2 4 -2q6 0 6 4t-4 4zM143 936q-2 -2 -2 -4l-4 -6l4 2q2 2 2 4v4z M774 932q-10 0 -10 -8q0 -6 10 -6t10 6q0 8 -10 8zM238 856q-1 2 -9 -4q0 -4 4 -4q3 -4 7 0q0 8 -2 8zM229 834h-4l-4 -5h4l2 2q2 1 2 3zM287 766l-4 -2v-4l6 4zM137 737q0 2 -2 0v-12h4q2 0 2 6t-4 6zM295 694v4q-6 0 -6 -4v-8zM201 662v2q0 2 -4 2q-2 -2 0 -4q1 0 2 -1.5 t2 -1.5v-4h6l6 7l-2 2q-6 6 -6 2zM274 657q-3 0 -6 -6l6 -2l5 2v2q2 0 2 2q-5 2 -7 2zM147 608q-4 0 -4 -4l2 -12h2l3 12zM264 573v-2l2 -2l4 2q-2 2 -6 2zM215 557h-2q-4 4 -8 0q-2 0 -3.5 -4.5t-0.5 -5.5l2 -2q2 0 4 2l2 2q6 6 6 8zM293 545q-1 0 -2 -1t-2 -1v-2q0 -2 2 0 zM188 526q-1 0 -3.5 -4t-2.5 -6q2 -2 4 0q7 7 7 8q-3 2 -5 2zM291 479q0 -6 4 -6v4zM731 469h-2q0 1 -1 0t-1 -2l2 -6q2 -2 6 -2q2 2 2 4q-2 4 -4 4zM836 467v-4v-4v-4l4 2q0 1 2 4t2 4l-2 2h-6zM713 440v4q-1 0 -3.5 -2t-2.5 -4v-6zM215 440q-1 -1 -2.5 -2t-2.5 -2t-1 -2 l-4 4h-4l2 -8l2 -2q4 4 4 6q0 -2 4 -2q6 0 6 4t-4 4zM840 430l-4 -2v-4q4 -4 6 -4t2.5 3t-0.5 5q-4 4 -4 2zM143 426l-2 -4l-4 -6l4 2q2 2 2 4v4zM805 401q0 10 -8 0q0 -4 2 -4h4q0 2 2 4zM733 406q-4 4 -8 -5q-2 -2 -0.5 -4.5t4.5 -1.5l6 4l2 2q-2 5 -4 5zM244 350 q-1 0 -13 -6q0 -1 -2 -4.5t-2 -5.5q0 -8 4 -12q3 -5 13 -5q5 0 10 5q4 2 4 12q0 6 -4 10q-6 6 -10 6zM748 328l-5 4q-6 0 -6 -2l4 -4q1 -2 4 -2t3 2v2zM809 270h2h4q0 2 -4 2zM756 260h10l2 2h-4q-4 2 -8 2v-4zM709 223q0 -4 4 -4q-3 4 -4 4zM633 184q-6 0 -6 -4q-1 0 -2 1 t-2 1v2h-2q-1 -2 -3 -2l3 -8q2 -2 2 0q4 0 4 4h4l6 2q0 4 -4 4zM731 156l-8 -6l-2 -5h6q8 1 8 5q0 6 -4 6zM606 143v4q-2 -2 -4 -2q0 -2 2 -2h2z" />
<glyph unicode="1" horiz-adv-x="925" d="M455 1479h69q20 0 35 -6q8 -3 11.5 -11.5t0.5 -15.5q-7 -18 -2 -21q5 0 17 -6q4 0 6 2l4 4l4 2q4 0 4 -4q4 -16 4 -26v-1311q0 -37 -23.5 -61.5t-60.5 -24.5h-78q-37 0 -60.5 24.5t-23.5 61.5v266q0 32 29 45l6 2q11 7 -4 41q-3 10 -16 13q-15 4 -15 18v551q0 80 -81 80 h-35q-37 0 -60.5 24.5t-23.5 61.5v18q0 52 55 72q117 45 170 154q23 47 68 47zM575 1407q-6 0 -14 -8q-6 -6 -6 -13q0 -13 6 -16q2 -4 14 -4q11 0 15 4q6 6 6 16q0 7 -6 13q-8 8 -15 8zM483 1063v-4q-2 -2 2 -6q13 0 13 4t-4 4q-1 1 -4 2t-5 1t-2 -1zM473 1055l-2 -2l-4 -2 q5 -5 6 -4l4 6q0 2 -2 2h-2zM520 981h-2h-6v-6h4q4 0 4 4v2zM481 963q-6 0 -6 -2l2 -5l2 -8q4 8 4 10zM496 915q-7 0 -7 -2l5 -6l2 2l4 4q0 2 -4 2zM520 913q-2 -2 -2 -4l-2 -8l2 -2l6 2v4l-2 4zM522 846q-2 0 -2.5 -4t0.5 -6l4 -2l4 4v4q-4 4 -6 4zM526 735l-2 4 q-2 -2 -2 -4l2 -2q2 0 2 2zM539 618l-2 3q-2 0 -5 -3v-4q0 -6 5 -6q4 0 4 4q-2 4 -2 6zM477 582v-2q0 -3 4 -7q11 0 11 5q-1 4 -5 4q-5 4 -8 2zM475 328q-2 -2 0 -2q0 -2 2.5 -4.5t3.5 -2.5l2 3v4q-2 2 -8 2zM455 326q-1 2 -6 2t-5 -2l2 -7l11 3l2 2q-2 2 -4 2zM483 293v-4 l9 -6v2l-3 4q-4 4 -6 4zM510 287h-4q-4 0 -4 -4l4 -2l6 4zM514 233v-4l4 -8l2 10q0 5 -2 5zM555 207q-2 0 -2 -2q-4 -4 -4 -8l2 -2l6 6v4zM446 201l-2 -2q0 -4 5 -9h2q5 0 2 3q0 6 -2 6q-3 0 -5 2zM541 190h-4l-7 -4l7 -4l2 2zM551 174v2q-3 2 -6.5 2t-3.5 -2q2 -2 2 -6h4z M555 158q-1 -2 -1 -6t1 -5h4l4 3l-2 4q0 4 -6 4zM403 145q-3 2 -13 -0.5t-13 -5.5q-4 -8 -4 -14q4 -12 8 -14q2 -2 5 -2t6.5 1t4.5 1q11 4 13 8q6 6 2 14q0 7 -9 12zM457 90q-2 -2 -6 -2q0 -1 -1 -2t-1 -2q2 -4 4 -4q2 -2 6 2q4 8 -2 8z" />
<glyph unicode="2" horiz-adv-x="980" d="M494 1499q192 0 294.5 -103.5t102.5 -260.5q0 -88 -16 -147.5t-64 -127.5l-145 -201q-20 -29 -54 -49q-11 -7 -19.5 -14t-11.5 -10l-3 -4q-8 -4 -3 -9q11 -28 -4 -49l-127 -178q-31 -41 -15.5 -70.5t67.5 -29.5h309q37 0 59.5 -22.5t22.5 -59.5v-78q0 -37 -23 -61.5 t-59 -24.5h-629q-37 0 -61.5 24.5t-24.5 61.5v109q0 51 29 90l446 620q40 57 60 104t20 107q0 52 -42.5 99t-108.5 47q-69 0 -113.5 -46t-44.5 -100v-31q0 -37 -23 -61.5t-59 -24.5h-78q-37 0 -61.5 24.5t-24.5 61.5v54q4 36 35 45q4 0 4 4q5 7 8 30.5t-2 41.5l-2 2 q-13 22 0 47q46 88 138 139t223 51zM260 1087q-14 0 -14 -12q0 -10 14 -10t14 10q0 12 -14 12zM258 1057q-8 -8 -8 -15q0 -10 6 -16q2 -2 16 -2q11 0 15 4q6 6 6 14q0 9 -8 13q-2 3 -13 4t-14 -2zM641 831v3q0 2 -4 0h-1q-1 -1 -1 -3q4 -2 6 0zM623 776l-7 -2q-2 0 -2 -4 t2 -6v-4q6 0 7 2q0 1 2 6t2 6q-4 0 -4 2zM602 768h-12q0 -8 2 -8q0 -4 8 -4q4 1 4 5.5t-2 6.5zM537 725q1 0 2.5 -1.5t3 -2.5t2.5 0v2q-2 0 -4 1.5t-4 0.5zM584 690q-2 2 -4 0l2 -2zM504 678l-2 -10q6 0 6 4q0 2 -1.5 4.5t-2.5 1.5zM530 633v-2l2 -2q3 -5 7 -6h2q-4 8 -6 10 h-5zM524 608h-10q-4 -4 0 -4q1 0 3 -1.5t3.5 -2.5t1.5 0q2 -2 2 2v6zM446 602q-6 0 -8 -2l-6 -6q10 0 14 4q4 0 0 4zM420 537q-4 -5 0 -9q0 1 1 3.5t1 3.5zM395 512v-2v-6q0 -5 4 -6q2 2 2 10q0 5 -2 6zM332 461l-2 4l-1 -2q1 -1 3 -2zM303 406q1 0 -2 -7l10 -4l8 2 q-2 0 -6 2q0 4 -8 7q-2 1 -2 0zM856 123q-3 2 -13.5 -0.5t-13.5 -5.5q-4 -8 -4 -15q4 -11 9 -14q2 -2 5 -2t6.5 1t4.5 1q10 3 12 8q6 6 2 15q0 8 -8 12z" />
<glyph unicode="3" horiz-adv-x="1015" d="M481 1499q148 0 242 -63q27 -20 27 -52q0 -15 10.5 -24t34.5 -17q25 -7 34 -28q48 -94 48 -223q0 14 -6 2q-5 -11 -3 -13q1 -1 4 2q-8 -10 -10 -17t0 -9l2 -2l4 -2q9 -5 9 -11q-4 -88 -22.5 -135t-55.5 -82q-44 -41 4 -77q54 -40 79 -108t25 -196q0 -249 -95.5 -358 t-317.5 -109q-120 0 -207 43t-135 117q-8 7 2 17q13 11 6.5 22t-23.5 14q-17 4 -24 23q-19 59 -19 115q0 37 23.5 60.5t60.5 23.5h78q37 0 60.5 -23.5t23.5 -60.5q0 -41 42.5 -80t115.5 -39q100 0 133 52t33 183q0 96 -52 143t-170 56q-36 3 -59 26t-23 58v82 q0 35 23.5 56.5t60.5 23.5q112 7 149.5 45t37.5 131q0 104 -37 153.5t-115 49.5q-58 0 -93.5 -43t-35.5 -99q0 -28 -23.5 -45.5t-60.5 -17.5h-78q-37 0 -60.5 24.5t-23.5 61.5v2q0 146 103.5 247t273.5 101zM770 1391q6 0 8 -2q13 -13 25 -31v-4q-2 -2 -6 -2q-23 12 -29 32 q0 5 2 7zM741 1233q-3 -1 -4 -4q4 -4 8 -4q7 0 7 4l-2 2h-2q0 2 -7 2zM700 1174v-5q0 -2 2 0l3 5h-5zM178 1163q-7 3 -22 -4q-2 -5 4 -14q8 -8 16 -8q12 -3 25 0q15 0 18 8q8 8 2 10h-16q-1 0 -12 4t-15 4zM727 1130q-1 0 -3.5 -4t-2.5 -6l-2 -4q4 2 6 2q11 5 8 8q0 4 -6 4z M160 1128q-15 0 -15 -8t15 -8q12 0 12 8t-12 8zM754 1100q-2 0 -2 -4q10 -4 12 -4h2l-2 2h-4zM705 1067h-3h-2q1 -2 7 -4q1 1 -2 4zM758 1024l2 -4q0 -8 6 -8q3 3 0 6l-8 10v-4zM739 973q0 -4 4 -4q2 0 0 2t-4 2zM428 848q-1 2 -9 0.5t-9 -4.5q-4 -4 -4 -10l6 -11 q3 -3 10 -1q1 1 2 1q7 0 10 6q4 4 0 11q0 8 -6 8zM784 645h-4l-2 -2q0 -6 2 -4zM838 584q-2 0 -2 -2l2 -9h4q0 1 1 3.5t1 3.5q-4 4 -6 4zM821 567h-14l-4 -2l6 -4v-4q0 -6 2 -8h2v-2q4 0 4 2v8q-2 2 -4 2h8v8zM725 524q-6 -6 -4 -6q6 2 6 4t-2 2zM739 492l-2 -3q0 -2 4 -2v2 zM748 487l-7 -2l-4 -2q0 -6 4 -6q0 -1 1.5 -1.5t3.5 0.5t4 3q2 1 1.5 4.5t-3.5 3.5zM723 463q-6 -6 -6 -8l2 -9q4 0 4 13v4zM768 403l-2 3h-6q-2 0 -3.5 -3t-0.5 -4q2 -2 8 -2q5 0 6 4q0 1 -2 2zM793 342q-2 0 -2 -4v-10h6q4 2 4 4q-2 2 -2 4l-4 4zM752 322l-2 -3 q0 -8 4 -10q3 -1 9.5 -0.5t6.5 2.5q0 4 -4 8q-13 6 -14 5v-2zM137 311q-6 0 -14 -8q-6 -6 -6 -12q0 -14 6 -17q2 -4 14 -4q11 0 15 4q6 6 6 17q0 6 -6 12q-8 8 -15 8zM741 295q0 -2 2 -4q0 -8 5 -8l2 10q0 8 -9 2zM707 229h-5q-6 0 -6 -4q0 -2 1.5 -3.5t2.5 -0.5l9 6z M801 217q0 -2 2 -2l2 -2v2q0 6 -4 2zM784 205q-2 0 -3.5 -3.5t-0.5 -4.5q0 -3 1 -4t3 0h7v6q0 6 -7 6zM723 195l-4 -5q-8 0 -8 -4q0 -2 2 -2t6 3t4 6v2zM782 184h-6q-7 -7 -6 -8l8 -2q2 0 2 4zM700 160v-4q2 -2 2 0q4 4 -2 4zM662 117q1 -3 4 -4v2q-4 4 -4 2zM698 115 q-2 0 -5 -2.5t-3 -3.5l-2 -3q0 -3 6 0l11 3q-6 6 -7 6zM516 92v-2q0 -2 2 0v4zM643 61h-8q2 -4 2 -6q2 -2 4 0q4 0 4 2l2 2q-2 0 -4 2z" />
<glyph unicode="4" horiz-adv-x="901" d="M567 1479h117q31 0 52.5 -16t27.5 -44q6 -19 0 -37q-3 -8 -11.5 -29.5t-11.5 -29.5q-3 -6 0 -12q4 -8 11 -8q16 -6 16 -25v-803q29 0 48.5 -23.5t19.5 -60.5v-61q0 -38 -17 -61t-51 -23v-129q0 -15 -16 -23q-39 -13 -27 -61q3 -9 -2 -18.5t-14 -10.5q-16 -4 -25 -4h-78 q-37 0 -60.5 24.5t-23.5 61.5v158h-405q-37 0 -60.5 24.5t-23.5 61.5v86q0 53 14 86l455 936q18 41 65 41zM578 1434q-6 0 -15 -9q-6 -6 -6 -12q0 -13 6 -16q2 -4 15 -4q10 0 14 4q6 6 6 16q0 6 -6 12q-9 9 -14 9zM645 1034q-3 2 -5.5 -1t-2.5 -7q-1 -2 0 -4.5t3 -3.5t3 0 l8 8q2 4 0 4q0 4 -6 4zM657 997h-2q-1 1 -4 -2l2 -12q4 -2 6 -2h5q2 0 2 4q0 6 -4 10zM473 881l-88 -181q0 -6 -8 -6t-10 4q-3 7 -7 7q-9 -1 -11.5 -27.5t3.5 -36.5v-2q4 -4 0 -8l-51 -109q-9 -22 -0.5 -35.5t31.5 -13.5h153q37 0 37 47v350q0 32 -18 35.5t-31 -24.5z M631 903l8 2q-1 1 -5 1t-5 -1zM647 899q-4 0 -6 -2q0 -2 2 0h2q2 0 2 2zM635 883l2 4q-4 0 -12 -8q-1 -1 -1 -4t1 -3q4 2 6 2l2 -2h6q-5 5 -6 5v4zM678 854q-2 0 -2 -4l14 -4l2 1l-2 1l-4 2q-4 4 -8 4zM688 827q-8 0 -8 -4v-4h6q4 4 4 6q2 2 -2 2zM659 721q0 -2 1.5 -6.5 t1.5 -5.5q2 -2 4.5 -3t3.5 1l2 2v2q0 4 -4 8q-1 1 -3 2t-4 1t-2 -1zM664 692q-2 -2 -2 -4t2 -2h2zM215 623q0 -1 -2 -3v-2q6 0 6 3q0 2 -4 2zM168 612v4q-3 3 -6 0l-8 -4q0 -2 2 -4q0 -2 2 -2.5t4 0.5q1 0 2 1t2 1q0 -6 4 -6q0 1 1 3t1 3q-4 0 -4 4zM227 604h-2q0 -2 -2 -4 l8 -2q7 0 7 4v2l2 2q0 2 -9 2zM166 541v4q-2 0 -4 -2h-2l-4 -4q-6 -3 -6 -7q2 -4 10 -4q10 10 6 13zM629 528l-4 -8h2l4 2v2q0 4 -2 4zM154 516q-4 4 -4 0l-7 -8q2 -2 4 -2t4.5 3.5t2.5 6.5zM100 508l2 8q-2 -4 -4 -4q0 -1 -1 -2t-1 -2l2 -6q2 4 2 6zM252 496v-4q1 0 2 -3 q1 1 0.5 4t-2.5 3zM193 426q-6 3 -9 0v-8q0 -1 2 -1t4.5 1t2.5 2q3 3 0 6zM182 344l-2 10q-2 2 -4 0l-4 -4h-4q-8 0 -8 -4t6 -4q2 0 8 6l2 -4h6zM731 215q-10 0 -10 -6t10 -6q8 0 8 6t-8 6zM766 86h2q0 -36 -23 -59q-2 -2 -6 -2q-4 4 -4 6q-3 21 4 32.5t27 22.5z" />
<glyph unicode="5" horiz-adv-x="1030" d="M264 1477h541q41 0 66.5 -27.5t21.5 -67.5l-2 -24q-4 -12 -14 -12q-6 -2 -11.5 -4t-9.5 -5t-4.5 -6.5t2.5 -7.5l2 -2q12 -12 12 -31q0 -18 -16 -28q-22 -15 -47 -15h-387l-41 -338q38 38 102 66.5t131 28.5q141 0 219.5 -92t94.5 -238q16 -134 2 -252q0 -6 -5.5 -11 t-11.5 -5q-10 0 -13.5 -27t3.5 -37q13 -16 6 -37q-80 -325 -399 -325q-191 0 -297.5 106t-106.5 264q0 29 23.5 47.5t60.5 18.5h78q37 0 60.5 -22.5t23.5 -59.5v20q0 -54 44.5 -99.5t115.5 -45.5q67 0 106.5 43t53.5 102q33 130 10 293q-8 57 -51 102.5t-109 45.5 q-56 0 -106.5 -39t-61.5 -86q-2 -11 -23 -18t-53 -7q-14 0 -24.5 9t-13.5 22v4q-1 2 -3 4.5t-9 5t-15 -7.5l-16 -16q-11 -15 -25 -4q-40 26 -37 79q5 55 51 662q3 34 25.5 54t56.5 20zM258 1296h-8q0 -1 -1 -3t-1 -3q0 2 -2 4q0 2 -4 2v-6q1 0 3 -1t3 -1v-4q4 -4 8 0l4 8 q0 2 -2 4zM238 1214q-8 -8 -5 -12t5 -2q5 11 4 12zM317 1047q-3 0 -6 -7v-2q-1 -2 1 -2t5 2l2 -2l5 2l-2 2h2v4l-6 3h-1zM270 971q-5 3 -10 -2q-2 -2 -2.5 -6.5t0.5 -6.5q2 -2 6 2l4 5q5 5 2 8zM285 915h-9q-4 0 -4 -6q-1 0 -3 1t-3 1h-2q0 -2 -2 -2q0 -2 2.5 -5t3.5 -3h2 q2 0 2 6h7q6 6 6 8zM246 881l2 2q-4 4 -4 0l-2 -2h4zM295 786q-1 0 -4.5 -3t-3.5 -5q-1 -1 0.5 -3.5t3.5 -2.5q8 0 8 4q0 10 -4 10zM768 696h-4q-2 0 -2 -2l-1 -1l3 1zM788 680v-6q0 -3 5 -8q2 -2 4.5 -3t3.5 1q3 7 -2 12q-1 3 -5.5 4.5t-5.5 -0.5zM817 641q0 -4 4 -6l10 -4 q0 2 -2 4l-2 2q-4 4 -10 4zM791 635q-3 0 -3 -2q0 -6 5 -6q0 6 -2 8zM780 606q0 -10 2 -10l15 2l4 4q-2 2 -6 2q-3 2 -9 2.5t-6 -0.5zM850 492q-2 -2 2 -11q8 -8 12 -4h2l2 4q3 3 -2 8q-2 2 -6 3t-7 1t-3 -1zM813 477h-4q-2 -2 -2 -6l4 -4q4 -4 4 2zM840 455q-11 0 -11 -4 q-3 0 1 -1l4 -1l2 -3q5 0 8 3q0 2 -1.5 4.5t-2.5 1.5zM829 446q0 -7 5 -12q0 -4 4 -4l4 4l-4 4q-4 8 -9 8zM756 436l-4 -4l2 -4v-14l2 -4l2 2q6 6 4 8l-4 -2l-2 8q2 2 2 10h-2zM778 434q-4 0 -2 -2l2 -2v4zM791 420l-5 4q-4 0 -4 -2v-10l4 -2l5 -2q0 1 1 2t1 2q0 6 -2 8z M793 393q-4 -1 -7 -4l5 -4h6q3 0 5 2.5t1 3.5q-4 2 -10 2zM788 385h-2q-2 0 -6 -4q-3 -3 -2 -6.5t4 -3.5l9 4l4 4q0 3 -7 6z" />
<glyph unicode="6" horiz-adv-x="1019" d="M498 1499q160 0 257.5 -78t125.5 -204q9 -39 -17 -67t-67 -28h-95q-45 0 -69 56q-16 40 -51.5 66t-83.5 26q-126 0 -148 -148q-18 -125 0 -250q29 46 98.5 89t153.5 43q169 3 256 -144q13 -24 -6 -43l-4 -4q-6 -7 1 -12.5t21 -7.5q20 -3 27 -25q12 -43 18 -94 q18 -165 0 -330q-8 -74 -35 -138t-75 -116.5t-124 -82.5t-173 -30q-192 0 -292.5 116.5t-111.5 320.5q-18 326 0 653q13 251 148 358q17 14 35 11q39 -4 45 16q3 23 22 29q62 18 144 18zM256 1292l-2 4q-6 2 -8 0q0 -1 -1 -3t-1 -3l-2 4q0 2 -4 2v-6q1 0 3 -1t3 -1v-4 q4 -4 8 0zM293 1253l-8 -4q0 -2 2 0zM307 1249l-4 -12q4 0 8 4q2 3 -2 8h-2zM281 1237l2 4l-7 -2v-2h5zM233 1214q-8 -8 -4 -12q3 -3 4 -2l5 12q-3 2 -5 2zM330 1202v-2l6 -4l2 2q0 4 -2 4h-6zM305 1198l-2 -2q0 -6 4 -6l2 -2l2 2v8h-6zM289 1167l-8 -8q-4 -4 0 -4q6 0 6 4z M195 1102h-2l-3 -15q0 -4 3 -4q2 3 2 7q1 2 1 7t-1 5zM258 1047q-1 0 -6 -5v-2q-1 -3 0.5 -3.5t7.5 -0.5l4 2l-2 2h2v4l-5 3h-1zM211 971q-5 3 -10 -2q-2 -2 -2.5 -6.5t0.5 -6.5l4 -2l2 2v2l4 5q5 5 2 8zM225 915h-8q-4 0 -4 -6l-6 2q-1 0 -2 -1t-2 -1l6 -8h2l2 6h6q6 6 6 8 zM510 795q-60 0 -107 -47t-53 -101q-18 -146 0 -293q7 -56 49 -100.5t111 -44.5h2l2 -6q8 -14 18 -12t17 14q10 14 20 16q42 18 68 55.5t33 77.5q18 147 0 293q-7 57 -50.5 102.5t-109.5 45.5zM860 653l2 -4l4 4h-6zM758 610q-13 -6 -13 -8l-4 -4l9 -2q16 0 16 4 q-1 1 -2.5 3.5t-3 4.5t-2.5 2zM854 608l-6 2q0 -1 -2 -3t-2 -3l4 -8l4 -4l2 6v10zM850 457l2 -4l2 -2l2 2l-2 2h-2zM797 434l-4 4q-1 2 -4 2t-3 -2q-2 -2 -2 -5t2 -3h13q0 2 -2 4zM811 428l-4 -4q-4 -4 0 -12q1 -3 8.5 -5.5t9.5 -0.5q0 8 -2 12q-10 10 -12 10zM768 406l-6 6 q-2 2 -2 -2v-9l6 -2q0 1 1 3.5t1 3.5zM784 377l-4 -6l4 -4q9 -9 11 -9q0 11 -4 15q-2 4 -7 4zM754 358h-2q-7 4 -11 0q-6 -6 -4 -8q9 -4 13 0q4 2 6 6zM838 334l-4 4l-7 -2v-6q0 -1 2.5 -3.5t4.5 -2.5t3.5 4.5t0.5 5.5zM836 319h-11q-2 -2 -2 -4l2 -8q2 -2 6 2q7 7 5 10z M772 272h6l-4 17zM817 289l-4 -2v-2h6v4h-2zM238 201q-5 0 -10 -3.5t-5 -9.5q0 -10 15 -10q14 0 14 10q0 13 -14 13zM770 193l-4 2q-8 -9 -8 -11q0 -4 2 -2l2 4q8 4 8 7zM236 170q-9 -9 -9 -14q0 -11 6 -17q2 -2 17 -2q10 0 14 4q6 6 6 15q0 8 -8 12q-2 3 -12.5 4t-13.5 -2z " />
<glyph unicode="7" horiz-adv-x="989" d="M199 1479h579q37 0 60.5 -22.5t23.5 -59.5v-35q0 -55 -14 -90l-17 -47q-3 -6 -8 -6q-5 -3 -10 2l-8 8q-10 -1 -13 -27.5t5 -36.5q8 -16 2 -30l-393 -1086q-19 -49 -72 -49h-58q-53 0 -80 39t-8 88l86 229q3 19 25 23q2 0 6 4t4 23q3 54 25 116l233 633q15 43 -2.5 68.5 t-62.5 25.5h-303q-37 0 -60.5 24.5t-23.5 61.5v62q0 37 23.5 59.5t60.5 22.5zM788 1415q-6 0 -14 -8q-6 -6 -6 -12q0 -14 6 -17q2 -4 14 -4q11 0 15 4q6 6 6 17q0 6 -6 12q-8 8 -15 8zM180 1341q-3 2 -13 -0.5t-13 -5.5q-4 -8 -4 -14q4 -12 8 -14q2 -2 5 -2t6.5 1t4.5 1 q10 3 12 8q6 6 2 14q0 8 -8 12zM616 872q-4 4 -8 0v-4q-1 -1 1 -2q1 -1 1.5 -2t1.5 -2v2h4h2v2h3q0 2 2 2q0 4 -7 4zM547 819q-3 3 -10 0q-1 0 -9 -8q1 -2 2.5 -3.5t1.5 -2.5l3 2h2l6 6q4 0 4 6zM532 764q-4 0 -6 -4l-2 4h-6q-1 0 -1 -2.5t1 -5t2 -2.5q0 -4 4 0l2 6l6 -4 l9 6q-4 4 -9 2zM489 745v-2h3h2q2 2 -1 3q-2 0 -4 -1zM588 725l-4 -2q3 -3 4 -2q4 4 0 4zM512 709l-4 -2q0 -2 4 -2h6l-4 2zM565 668l-2 -2h2q1 1 5 3l1 1zM506 639q-10 -4 -10 -6q0 -8 4 -8q6 0 6 2q4 4 0 12zM547 618l-6 -10v-4q4 0 4 6q2 1 3 3t0.5 3.5t-1.5 1.5z M512 557l-2 -2l6 -2q4 4 2 4h-6zM414 489h-11q1 -2 3 -4q0 -2 1.5 -3.5t2.5 -0.5h6q-3 -5 0 -8q5 5 4 6q-1 0 -1 1q0 3 -1 5q0 4 -1 5t-3 -1zM467 477l-6 -2q1 0 3 -1q3 -2 3 -1q4 0 2 2zM471 457h-2v-2q-2 0 2 -4q1 -2 2 -2q6 0 6 2l4 2v2q0 1 -8 4zM385 422l-4 -2 q-6 0 -6 -4q-3 -6 6 -6q2 0 7 3.5t5 4.5q-2 2 0 4h-8zM367 401l-7 -8q-4 -4 0 -4q1 1 3.5 2.5l5 3t2.5 2.5q-2 4 -4 4zM371 303q-1 0 -2 -1.5t-2 -3.5t-2 -3q10 -2 12 0q3 3 0 6q-6 6 -6 2zM334 236l-6 4q-9 0 -9 -4q5 -5 7 -5q1 -3 8 2q0 -4 2 -4h2q3 0 3.5 3.5t-1.5 5.5 l-4 2zM326 211h-2q0 -4 2 -2l4 2l-4 2v-2zM244 121l-4 -6q6 -12 10 -4l2 13q-2 2 -8 -3zM295 100q-9 5 -20 3.5t-11 -11.5q0 -9 7 -11.5t12 1.5q20 7 12 18z" />
<glyph unicode="8" horiz-adv-x="1001" d="M498 1501q40 0 73 -3.5t73.5 -14.5t72 -30t62.5 -52t52 -77.5t33.5 -110t12.5 -146.5q-3 -108 -33 -168t-96 -115q80 -45 119.5 -123t39.5 -212v-52q-4 -8 -10 -8q-9 -1 -11.5 -27t3.5 -36q2 -2 2 -4q8 -13 4 -35q-26 -161 -119.5 -234t-275.5 -73q-221 0 -313.5 109.5 t-92.5 359.5q0 134 40 212t120 123q-68 55 -98 115t-31 168q0 140 35 225q13 37 51 43q4 0 8 4q4 7 8 39q0 26 25 47q88 73 246 76zM606 1403l-4 -8q2 0 2 -2h6l2 4l4 -2q2 0 2 2t-2 2l-4 2zM512 1389v-3h6q6 6 4 9l-2 2l-4 2l-10 2zM711 1389q-1 0 -1 -1.5t1 -3.5h4 q0 5 -4 5zM487 1382q0 4 -4 0v-2l2 -4zM557 1364l-2 14q-2 0 -4 -2l2 -18q4 0 4 6zM672 1364l-2.5 -2.5t0.5 -1.5h4l2 2zM737 1356q-2 0 -3.5 -1.5t-0.5 -2.5q4 -4 8 -4q7 0 7 4l-3 2h-2q0 2 -6 2zM817 1309q-3 2 -13 -0.5t-13 -5.5q-5 -10 -5 -15q4 -11 9 -14q2 -2 5 -2 t6.5 1t4.5 1q10 3 12 8q6 6 2 14q0 9 -8 13zM700 1296l-4 -2q0 -4 2 -2zM500 1272q-129 0 -129 -203q0 -43 12 -78v-4q-2 -2 -4 -2q-7 1 -7 -6t5 -12q0 -4 6 -4q11 -3 23 -15q35 -47 94 -47q62 0 95.5 45t35.5 123q-3 203 -131 203zM723 1253q-1 0 -3.5 -4t-2.5 -6l-2 -4 q4 2 6 2q11 5 8 8q0 4 -6 4zM756 1219l-6 4q-2 0 -2 -4q10 -5 12 -5q3 0 0 3zM700 1190h-4l6 -4q4 4 -2 4zM229 1165q-2 2 -8 -4h2zM246 1161h-2q-1 -2 -2 -6t-2 -6q4 0 8 4q1 1 0.5 4.5t-2.5 3.5zM219 1153l-6 -2v-2h4zM754 1147l2 -4q4 -6 6 -6q4 0 0 4q-4 6 -8 6z M702 1116l-2 -2q0 -1 -2 -2h9zM266 1114v-2l6 -4l2 2q0 4 -8 4zM248 1110h-6l-2 -2q0 -6 4 -6l2 -2q2 0 2 2v8zM735 1096q0 -4 4 -4q2 0 2 2q-1 0 -3 1t-3 1zM788 1081l-6 -6q2 -2 4 -2l2 2h3q6 0 2 4q0 2 -1.5 2.5t-3.5 -0.5zM225 1079l-8 -8q-4 -4 0 -4q6 0 6 4zM711 1008 q-3 3 -5 -5q-1 -2 -1 -4q-2 -3 0.5 -6t5.5 -2q1 2 3.5 4.5t2.5 3.5q1 2 2 5q0 4 -8 4zM795 987l-2 8q-5 0 -5 -12l3 -4l6 2q0 2 -2 6zM725 971h-2q-4 4 -4 -2l2 -13q4 -2 6 -2h4q2 2 2 4q0 7 -4 11zM827 942l-4 -2q-2 0 -2 -4q2 -2 2 -6l2 -2q2 0 4 2l1 4q2 5 1 6q-2 2 -4 2 zM268 655q-7 -3 0 -14q3 -10 15 -2q4 1 4.5 6t-2.5 8q-2 5 -8 5.5t-9 -3.5zM500 639q-73 0 -117.5 -54.5t-44.5 -138.5q0 -119 36 -177t126 -58q44 0 72 8.5t50.5 33t32 71.5t9.5 122q0 88 -40.5 140.5t-123.5 52.5zM252 627q-2 4 -7 3t-7 -3q-12 -8 -7 -17q2 -2 9 -2l4 -4 q18 0 20 6q0 6 -8 11q0 2 -4 6zM246 225q-2 -2 -2 -4l4 -6h2v-2q2 0 4 2l-2 8q-2 2 -6 2zM233 211l-2 -10q1 -4 2 -4l3 6q0 8 -3 8zM262 201q-6 0 -4 -2v-2h2q0 -2 4 -2q2 0 3.5 1.5t0.5 2.5q-4 2 -6 2zM246 176q-4 -4 -4 -6l-2 -2q0 -1 3 -2q1 -1 1.5 -1t1.5 -1q4 0 4 6 q2 4 -2 6q-1 1 -2 0zM367 170q-1 0 -4 -3t-3 -5q0 -6 5 -6l4 2q2 2 2 4q0 8 -4 8zM221 160v4h-6l-4 -2v-2q-2 0 -2 -2q4 -2 6 -2t6 4zM319 162q0 -2 -2 -4l-2 -11q2 0 11 9v4z" />
<glyph unicode="9" horiz-adv-x="1013" d="M506 1501q278 0 366 -239q9 -21 -4 -43q-8 -13 -8.5 -22.5t2.5 -12.5l4 -4q36 -22 39 -62l4 -51q18 -327 0 -655q-11 -205 -106 -318.5t-287 -113.5q-160 0 -257.5 78t-125.5 204q0 4 2 4l2 2q31 3 41.5 15.5t5.5 40.5q0 13 9 22q7 10 20 10h98q47 0 70 -55 q16 -39 51 -64.5t84 -25.5q126 0 148 147q18 125 0 250q-29 -46 -98.5 -88.5t-153.5 -42.5q-282 0 -314 391q-9 104 0 209q12 130 62 230q3 6 10 6t10 -6v-2l14 5q13 7 13 17l-2 8q-5 13 -1 29t15 27q104 110 287 110zM504 1272q-68 0 -110.5 -45t-49.5 -101 q-18 -146 0 -292q7 -57 50.5 -102.5t109.5 -45.5q60 0 107 47t53 101q18 146 0 292q-7 57 -49 101.5t-111 44.5zM281 1257q-7 -2 -7 -4q-2 -2 2 -2q6 5 5 6zM297 1251l-6 -12q4 0 8 4q3 8 -2 8zM270 1243q-6 0 -6 -2q3 -3 6 0v2zM188 1223h-8q-2 0 -2 -4l-2 2l-4 2 q-3 -3 0 -6q2 -3 4 -3q0 -4 2 -4q3 -3 6 2l6 9q-2 0 -2 2zM326 1206l-9 -2v-2q4 -4 9 -4q2 2 2 4q-2 2 -2 4zM299 1200h-4h-2l-2 -2q0 -2 4 -6h2l2 -2q2 0 2 2zM698 1176q-14 0 -14 -13q0 -10 14 -10q15 0 15 10q0 6 -5 9.5t-10 3.5zM270 1157l6 4v10zM696 1145 q-8 -8 -8 -15q0 -10 6 -16q2 -2 17 -2q10 0 14 4q6 6 6 14q0 9 -8 13q-2 3 -13 4t-14 -2zM168 1141q-1 0 -3.5 -5.5t-2.5 -7.5q4 -4 6 0q0 1 2 5.5t2 5.5q-2 2 -4 2zM731 1135q-2 -1 -4.5 -4t-3.5 -3q0 -1 -1 -3t-1 -3q1 0 4 -2t4 -2q4 0 8 8q2 7 -3 10q-2 1 -3 -1z M774 1124q-3 0 0 -6l10 -8q0 2 -2 4v4q-5 9 -8 6zM268 1118h4q2 4 0 4zM713 1106l2 -4q6 3 6 4h-8zM745 1098h-4l-2 -2q-3 -3 2 -13l4 -4q1 -1 3 -0.5t2 2.5l2 13q-5 4 -7 4zM750 1075l-2 -2q1 -3 4 -2q2 1 -2 4zM809 1067h-8q-4 0 -4 -4q1 -3 4 -4zM829 1055l-8 -2 q0 -1 2.5 -3.5t3.5 -2.5q2 0 2 2q5 0 5 6h-5zM246 1049q-4 0 -4 -5l-2 -2v-2q0 -3 6 0l4 -2q0 2 2 2v4q2 1 2 3zM129 1016v14q-2 0 -4 -2l-2 -14q0 -4 2 -4q4 0 4 6zM846 1024q-2 0 -3.5 -3.5t-0.5 -4.5q0 -4 4 -4l4 2v4q0 6 -4 6zM840 1012h-13q0 -6 4 -6q0 -2 1.5 -2 t3.5 2l4 4v2zM731 999h-2q-2 0 -2 -2l4 -2q2 2 0 2v2zM815 993v-2l-4 -2q0 -2 2 -2q1 0 2 1t2 1v4h-2zM715 987q-6 0 -6 -4q8 0 8 2q2 2 -2 2zM811 981l-4 -2q0 -4 2 -6l4 -8q2 2 2 12q0 4 -4 4zM201 971l-2 2q-7 0 -9 -2t-2.5 -7.5t0.5 -7.5l2 -2q3 0 3 2l2 2l2 5q4 4 4 8z M205 918q-4 -4 -4 -9l-4 2h-2l-2 -2q2 -6 4 -8q4 -4 4 0q0 1 1 3t1 3q2 0 4 2q2 0 4.5 2.5t1.5 3.5zM268 897l2 -4q4 -2 4 0t-2.5 3.5t-3.5 0.5zM850 895l-2 2q-2 0 -4 -2q-6 -6 -6 -8q2 -4 4 -4l6 2v4q2 2 2 6zM723 881q-5 0 -8 -7l-2 -10l10 10q3 7 0 7zM774 872v5 q-2 1 -7 1t-7 -1q-3 -3 -2 -3h6q4 -2 10 -2zM211 854q-4 2 -4 0h-2l-2 -2q2 -2 4 0zM770 844h-6q-2 -6 -4 -8q0 -2 4 -2q1 1 3 2t3.5 2t1.5 2zM272 840q-4 -2 -4 -4v-2q6 3 4 6zM170 831l-2 5q-6 0 -6 -2v-7q6 -6 8 -6v10zM719 821q-6 6 -6 0q4 -4 8 -4q0 4 -2 4zM856 819 v-4q0 -2 4 -2v6h-4zM745 797q-4 -9 0 -13q0 -3 3.5 -5.5t5.5 -0.5v2l2 4q0 7 -2 9q-6 6 -9 4zM723 791q-3 -3 -4 -5h4l2 2q0 3 -2 3zM223 786l-8 -8q0 -3 6 -6q6 0 6 4q0 10 -4 10zM270 774v10q-4 -4 -4 -12v-4q2 0 3.5 2.5t0.5 3.5zM860 766h-4q-2 -4 -2 -6q2 -6 4 -6 q4 0 4 2zM868 745l-2 -6q4 0 4 2zM170 725h-2l-2 -14l2 -4q4 0 4 6q0 12 -2 12zM262 715l-4 -2q0 -4 4 0q2 2 0 2zM846 707v-5l2 -10q3 -3 6 0q2 4 2 6t-2 4q-4 4 -4 5h-4zM868 688l-2 -8l4 8h-2zM772 659l4 -2q4 -2 5.5 -2.5t2.5 0.5q4 4 -2 4l-12 3zM743 582q-1 0 -1 -3.5 t1 -3.5l-2 -2q0 -2 3 -5t4 -3q6 0 14 8l2 5h-16q0 4 -5 4zM741 555l-4 -4q0 -6 2 -8l2 -2h2q0 -1 1.5 -1t3.5 1l2 10q-1 0 -3.5 1t-3.5 1zM848 537l-2 -2q0 -5 2 -5l2 -2v4zM715 530q-1 -1 -2 -3.5t-1 -4.5t1 -2l4 2v4q0 3 -2 4zM797 520h-4q-2 0 0 -2q4 0 4 2zM752 494h-13 q-2 0 -4 -2t-3 -4t1 -3h2l2 -2q7 0 11 2q2 0 3.5 4t0.5 5zM713 465q-8 -8 -4 -8q2 0 5 2.5t3 3.5q0 2 -4 2zM799 457h-13q0 -2 2 -4v-2l5 -2q3 -3 6 0q4 4 0 8zM719 453q-1 0 -3.5 -2.5t-2.5 -4.5q0 -10 2 -10q4 9 4 13q4 4 0 4zM745 449l-6 -7q-4 -4 -2 -4l6 -6q6 0 9 8 q2 3 -1 6.5t-6 2.5zM762 428h-4l-2 -4q0 -1 2 -4t2 -4q4 0 4 2q0 10 -2 10zM809 418q0 -6 2 -10t5.5 -8t4.5 -3h2l4 2q3 7 0 13q-1 3 -8.5 5.5t-9.5 0.5zM739 414h-2q-1 -1 0 -1.5t4 -0.5l1 1q0 1 -3 1zM780 403l-2 -14q3 -7 6 -4l4 2q0 4 -2 6q-1 7 -6 10zM838 395 q-2 0 -3.5 -3.5t-0.5 -6.5l4 -4l6 2v6q0 6 -6 6zM719 352q0 4 -2 0l-2 -2q1 0 2 1t2 1zM166 342l6 2q2 -2 2 -6q3 -41 -29 -55q-3 -1 -10 2q-2 0 -2.5 2.5t0.5 3.5q3 34 33 51zM817 309q-4 0 -4 -2l-2 -2h4l4 2q0 2 -2 2zM834 272v9q-1 2 -7 -2q-2 0 -4.5 -4t-1.5 -5 q6 -6 10 -2q3 2 3 4zM330 266v4q-3 -1 -4 -4v-2zM197 254l-4 -2q0 -2 4 -2q2 0 2 2t-2 2zM221 233q-20 0 -20 -10q0 -5 6.5 -8.5t13.5 -3.5q17 0 17 12q0 10 -17 10zM186 217q-10 0 -10 -6q0 -4 10 -4q11 0 11 4q0 6 -11 6zM350 199l4 -6h2v-3l4 3q0 8 -2 8l-4 2zM340 188 l-2 -10q0 -4 2 -4l2 6q0 8 -2 8zM369 178q-6 0 -4 -2l2 -2l4 -2q6 0 6 4q-2 2 -8 2zM352 154l-4 -4l-2 -5l6 -4q3 0 6 6q0 2 -1 4t-2.5 3t-2.5 0zM317 139l-2 -4q5 -2 7 -2q6 0 6 4v2q1 3 0 3.5t-6 -1.5z" />
<glyph unicode=":" horiz-adv-x="446" d="M190 893h66q37 0 60.5 -23.5t23.5 -60.5v-74q0 -37 -23.5 -60.5t-60.5 -23.5h-66q-37 0 -60.5 23.5t-23.5 60.5v74q0 37 23.5 60.5t60.5 23.5zM143 788q-6 0 -14 -8q-6 -6 -6 -12q0 -13 6 -16q2 -4 14 -4q11 0 15 4q6 6 6 16q0 6 -6 12q-8 8 -15 8zM190 283h66 q37 0 60.5 -23.5t23.5 -60.5v-74q0 -37 -23.5 -60.5t-60.5 -23.5h-66q-37 0 -60.5 23.5t-23.5 60.5v74q0 37 23.5 60.5t60.5 23.5zM160 221q-9 3 -15 0q-11 -5 -12 -8q-3 -7 0 -14q1 -5 7 -10t10 -5q0 -1 -3 -4q-2 -2 -6 -10q-6 -12 11 -12q13 0 8 16l-4 10q7 2 12 13 q4 11 2 14q-3 7 -10 10z" />
<glyph unicode=";" horiz-adv-x="450" d="M180 893h70q82 0 82 -82v-78q0 -82 -82 -82h-70q-82 0 -82 82v78q0 82 82 82zM152 811l-11 -6q2 -2 4 -2h7q6 0 6 4q0 7 -6 4zM172 811q-3 -3 0 -10q2 -3 6.5 -7t5.5 -3l4 4q3 1 3.5 5t-1.5 5q-3 3 -9.5 5t-8.5 1zM287 690h-2h-2v-2l2 -4l2 2v4zM184 283h78q82 0 82 -82 v-107q0 -47 -27 -100l-98 -178q-17 -29 -49 -29h-10q-23 0 -31.5 12.5t0.5 34.5l66 160q9 22 0.5 34.5t-31.5 12.5q-29 0 -45.5 16t-16.5 45v99q0 82 82 82zM170 231q-14 0 -14 -12q0 -10 14 -10t14 10q0 12 -14 12zM168 201q-8 -8 -8 -15q0 -10 6 -16q2 -2 16 -2q11 0 15 4 q6 6 6 14q0 9 -8 13q-2 3 -13 4t-14 -2zM279 125l-3 2q-3 3 -6 0l-2 -10l6 -4l7 2q0 8 -2 10zM244 66l4 4v2q-1 3 -4 4v-10zM268 72q-3 2 -6 0.5t-2 -4.5l2 -2v-3q4 -4 8 -4q2 0 4.5 1.5t4 3t0.5 2.5q-3 6 -11 6zM270 35v-6q1 -1 2.5 0.5t1.5 3.5q0 6 -4 2zM274 25 q0 -11 2 -13q13 0 17 2l4 2l-6 4q-4 2 -10.5 4t-6.5 1zM248 16q0 4 -4 0q0 -2 -1 -4l-1.5 -3t0.5 -1t3.5 3t2.5 5zM168 -156h-4q-2 -2 0 -3t4 1v2z" />
<glyph unicode="&#x3c;" horiz-adv-x="1179" d="M164 823l817 357q43 18 69.5 0t26.5 -64v-57q0 -68 -63 -94l-606 -263l606 -262q63 -26 63 -94v-57q0 -46 -26.5 -64t-69.5 0l-817 357q-62 27 -62 94v53q0 67 62 94zM969 1112q-8 0 -8 -4q0 -6 8 -6t8 6q0 4 -8 4zM188 707q-14 0 -14 -13q0 -10 14 -10q15 0 15 10 q0 6 -5 9.5t-10 3.5zM186 676q-8 -8 -8 -14q0 -11 6 -17q2 -2 17 -2q10 0 14 4q6 6 6 15q0 8 -8 12q-2 3 -13 4t-14 -2z" />
<glyph unicode="=" horiz-adv-x="1228" d="M184 834h852q82 0 82 -82v-27q0 -82 -82 -82h-852q-82 0 -82 82v27q0 82 82 82zM1047 791q-4 -4 0 -11q3 -6 10 -2q3 1 3.5 5t-1.5 5q-5 10 -12 3zM1036 770q-3 7 -10 0q-9 -5 -4 -10q2 -2 6 -2l2 -2q12 0 14 4q0 3 -6 6q0 2 -2 4zM184 424h852q82 0 82 -82v-27 q0 -82 -82 -82h-852q-82 0 -82 82v27q0 82 82 82zM178 346q-3 3 -8 0q-2 -1 -5.5 -2t-4.5 -2q-4 -4 -6 -8t4 -10q2 -2 8 -2q4 2 6 6t6 8q5 5 0 10zM211 332q-5 5 -8 0q-4 -4 0 -8t8 0q5 3 0 8z" />
<glyph unicode="&#x3e;" horiz-adv-x="1179" d="M201 1180l817 -357q59 -26 59 -94v-53q0 -68 -59 -94l-111 -47q-5 -4 -20 0q-9 3 -13 14v4q-1 2 -3 4.5t-9 5t-16 -7.5q-31 -29 -35 -51q0 -12 -14 -19l-596 -260q-43 -19 -71 -0.5t-28 64.5v57q0 66 66 94l606 262l-606 263q-66 28 -66 94v57q0 46 28 64.5t71 -0.5z M227 1069q1 -1 1.5 0.5t1 4.5t1.5 5q0 1 -2.5 3.5t-3.5 2.5q-6 -2 -2 -6q-1 -1 0.5 -5.5t3.5 -4.5zM162 1059h12q1 5 0 5q-2 0 -4 -1l-2 2q-2 0 -4.5 -1.5t-1.5 -4.5zM375 1051l2 4l-2 2q-3 1 -6.5 -3t-3.5 -7zM309 1008l4 8q-6 4 -6 8q-2 0 -2 -4l-4 -8zM395 967l6 -4 q1 -1 2 1t0 3q-1 0 -4 4zM403 952l3 4q-2 1 -3.5 0.5t-1.5 -2.5h-2zM473 938q4 -1 4 4q-7 14 -12 10v-8l7 -6h1zM336 928q1 0 0 1t-2 3.5t0 5.5l-8 4q-2 2 -3 0.5t-1 -4.5q0 -1 -1 -4q0 -8 3 -8q3 -2 4.5 -1.5t4 2t3.5 1.5zM618 911h5q0 -1 8 7q-1 2 -7.5 3.5t-7.5 2.5 q-4 -4 -4 -9l-2 -2l-8 5v2v-9q4 -6 4 -10q2 1 5.5 1t4.5 1v2zM684 920l-4 2v-2l-1 -6l1 1l2 -2zM618 920q-1 0 -0.5 -2l1 -4t-0.5 -3h-4l2 -6h-8l-2 2l4 6l2 -2v4l2 2q3 4 4 3zM440 897q6 -2 2 2zM582 852v6q4 0 -4 4l-7 6v-12l7 -8zM752 858h-2l-2 -4q0 -4 4 0v4zM807 844 h4v2v2l-4 -2v-2zM825 809l-4 -6q1 -1 4 2v4zM840 801h4l-8 6l-7 -4q-2 -6 0 -6l2 2l3 -4q2 0 3.5 -1.5t2.5 -3.5v-2q-2 0 -4 11zM834 803q0 -4 2 -4h-5q1 3 3 4zM887 776v6l-2 -2l-2 -2zM1040 731h7q-1 6 -5 6l-4 -4zM938 719q1 1 4 0h2l-2 4q-4 0 -4 -4z" />
<glyph unicode="?" horiz-adv-x="849" d="M416 1499q368 0 368 -405q0 -67 -20.5 -124.5t-51 -96t-68 -81.5t-70.5 -81.5t-58.5 -96.5t-32.5 -125q-5 -37 -27 -60t-57 -23h-59q-37 0 -61 25t-23 63q6 101 37 185t71.5 138.5t80.5 100.5t67 93.5t27 96.5q0 63 -27 109q-12 23 -18 49q0 8 -2 10q-1 2 -2.5 4.5 t-8.5 5.5t-16 -8q-14 -11 -31 -8q-3 0 -9 1t-9 1q-38 0 -74.5 -19.5t-60.5 -56.5q-30 -56 -80 -47l-66 12q-37 6 -57 35t-10 64q34 112 124 175.5t224 63.5zM111 1270q-5 0 -10 -3.5t-5 -9.5q0 -10 15 -10q14 0 14 10q0 13 -14 13zM109 1239q-9 -9 -9 -14q0 -11 6 -17 q2 -2 17 -2q10 0 14 4q6 6 6 15q0 8 -8 12q-2 3 -12.5 4t-13.5 -2zM504 840v12q-4 0 -4 -2l-6 -8q0 -4 4 -4t6 2zM510 842l-2 -4l2 -4l2 2l2 4q-2 2 -4 2zM453 836l-7 -2l3 -5l2 -10q4 4 4 12zM477 807h-4q-8 0 -8 -4l6 -4h-2q-2 0 -4 -2h2h4v2q2 0 4 2q2 4 2 6zM518 768 l-4 -4l2 -2l2 2v4zM424 750l-4 -2v-9l2 -2l6 8q0 5 -4 5zM424 657l-4 2q-8 4 -8 0q-4 -4 4 -4h10q0 2 -2 2zM401 594h-4q0 -2 -4 -6l2 -6h6v12zM383 571q-2 0 -2 -6q-2 -2 -2 -10h6q4 2 4 4v4l-4 6zM338 238h70q37 0 60.5 -22.5t23.5 -59.5v-70q0 -37 -23.5 -61.5 t-60.5 -24.5h-70q-37 0 -60.5 24.5t-23.5 61.5v70q0 37 23.5 59.5t60.5 22.5zM430 61q-9 3 -16 -4q-2 -3 2 -10q6 -6 12 -6q9 -3 18 0q12 0 15 6q6 6 2 8l-2 -1h-4.5t-5.5 1q-2 0 -10 3t-11 3zM416 35q-10 0 -10 -6t10 -6t10 6t-10 6z" />
<glyph unicode="@" horiz-adv-x="1488" d="M780 1499q153 0 284.5 -55.5t218.5 -147t136 -210t49 -244.5q0 -98 -24.5 -179.5t-65 -135t-89 -93t-100.5 -60.5t-94.5 -30.5t-76.5 -9.5q-43 0 -77.5 34.5t-41.5 86.5q-41 -49 -101.5 -87t-127.5 -38q-63 0 -115 23.5t-85.5 60t-57 82.5t-33.5 90.5t-10 85.5 q0 90 25 168.5t65.5 132.5t92.5 92.5t105.5 57t104.5 18.5q126 0 205 -105l2 8q17 68 88 74q40 4 60.5 -17.5t17.5 -64.5l-33 -506q1 -2 0 -11.5t6 -21t22 -12.5q45 0 91 57t74 140.5t28 159.5q0 92 -35.5 176.5t-101.5 152.5t-171.5 109t-234.5 41q-158 0 -292 -78 t-211.5 -212t-77.5 -292q0 -119 46 -227t123.5 -185.5t185 -123t226.5 -45.5q204 0 359 123q48 37 104 34h55q47 -2 58 -33t-25 -69q-105 -109 -248 -171t-303 -62q-155 0 -295.5 59.5t-242.5 161t-162 242.5t-60 296q0 154 60 294.5t162 242.5t242.5 162.5t295.5 60.5z M756 963q-66 -4 -115.5 -52t-71.5 -114t-18 -133q6 -77 53 -124.5t113 -43.5q65 5 114 52.5t70 113t17 133.5q-6 76 -52 124t-110 44zM1233 213l-4 3q-24 6 -29 -7q-8 -14 -16.5 -43t-1.5 -33t24 15.5t17 31.5q0 5 2 13t4.5 14t3.5 6z" />
<glyph unicode="A" horiz-adv-x="983" d="M430 1481l119 -2q49 -2 73.5 -22t36.5 -71l101 -434q1 -5 -0.5 -13t-1.5 -13.5t4 -7.5q1 -2 -0.5 -11.5t2.5 -11.5q4 -4 7.5 -10t4.5 -11l2 -4l178 -759q11 -45 -15 -78t-73 -33h-67q-28 0 -49 16.5t-27 42.5l-27 113q-15 72 -90 72h-229q-75 0 -90 -72l-29 -113 q-6 -27 -27 -43t-49 -16h-67q-46 0 -72 32.5t-16 78.5l288 1263q26 110 113 107zM360 1329l-4 -4v-6h4q2 0 4 3.5t1 4.5zM461 1243q-11 0 -15 -4q0 -5 5 -2zM430 1229q-4 0 -4 -6q6 -6 8 -4zM420 1227q-11 4 -14 -2q-1 -1 -2.5 -5.5l-2.5 -7.5t0 -4q1 -2 10 -0.5t9 4.5 q8 8 0 15zM612 1208q-6 0 -14 -8q-6 -6 -6 -12q0 -14 6 -17q2 -4 14 -4q11 0 15 4q6 6 6 17q0 6 -6 12q-8 8 -15 8zM453 1202l-7 -8q0 -1 3 -4l12 6v6h-8zM373 1200q-6 -6 -4 -8q0 -3 2.5 -6t5.5 -2q2 4 2 14q-3 5 -6 2zM473 1196l-2 2q-2 -2 -4 -2v-2zM399 1182h-2l-6 -6h6 zM420 1182q-6 -4 -6 -6h-2q-4 -4 -4 -7q4 -2 6 2q6 4 6 11zM434 1176q-10 -3 -14 -5q0 -4 2 -6l12 -4q2 0 4 2.5t2 3.5zM373 1163q-2 -2 -2.5 -7.5t2.5 -8.5q12 -6 16 -6q-2 0 -2.5 -4t0.5 -7v-4l6 -2q2 0 15 13q0 8 -2 8h-13q0 6 -6 10zM389 1120l-2 -4q0 -2 6 -2t6 2l-6 4 h-4zM358 1026l-2 -4q-6 0 -6 -10q0 -13 6 -19q4 0 9.5 7t5.5 12q0 4 -1 9l-1 5h-11zM602 563l-65 275q-9 39 -30 53.5t-41.5 0t-29.5 -53.5l-61 -275q-12 -51 16 -76q12 -8 17 -18q5 -9 14 0q2 1 6 2t6 2h96q43 0 62 24.5t10 65.5zM313 868q-1 0 -2 1t-2.5 1t-3.5 -2h-2 q-1 -1 2 -4q8 1 8 4zM332 809q-4 0 -4 -2q-3 -3 0 -6q0 -6 4 -2q6 0 2 8zM365 791h-3q1 -1 2 -3q3 -3 3 -2q1 4 -2 5zM313 752l-2 14q-6 0 -10 -6q-3 -2 -7 -8t-1 -7q12 -6 16 -2t4 9zM264 618q-5 -2 -11.5 -6.5t-6.5 -7.5l6 -6q0 -8 12 -4q4 2 8 6.5t6 8.5t1 5q-2 4 -15 4z M193 606q-1 0 -2 -1t-0.5 -3t2.5 -4l10 -18v12q-2 8 -4.5 11.5t-5.5 2.5zM299 563q-4 0 -10 -4.5t-6 -7.5v-8q1 -6 4 -6l12 4q0 2 4 10q0 12 -4 12zM270 526l-12 -6q-2 -2 -2 -4t2 -2q6 0 8 2zM135 242q-14 0 -14 -13q0 -10 14 -10q15 0 15 10q0 6 -5 9.5t-10 3.5zM133 211 q-8 -8 -8 -14q0 -11 6 -17q2 -2 16 -2q11 0 15 4q6 6 6 15q0 8 -8 12q-2 3 -13 4t-14 -2z" />
<glyph unicode="B" horiz-adv-x="999" d="M207 1477h336q143 0 232 -102.5t89 -284.5q0 -79 -4 -95q-2 -14 -7.5 -22t-6.5 -17q0 -5 -4 -10t-4 -8q0 -2 1 -6t1 -6q3 -9 0 -17q-16 -44 -49 -82q-26 -29 -24.5 -50t32.5 -46q52 -44 75 -115t23 -202q0 -207 -87 -310.5t-235 -103.5h-368q-37 0 -60.5 23.5t-23.5 60.5 v39q0 8 6 14q8 13 6 25v14q0 1 -1 2.5t-2.5 3.5t-2.5 4q-6 6 -6 15v1192q0 37 23.5 60.5t60.5 23.5zM256 1409q-6 0 -6 -4q-2 -1 -1.5 -4.5t3.5 -3.5q2 1 5 5l3 5q-1 3 -4 2zM485 1247h-34q-82 0 -82 -82v-211q0 -2 -2 -4q-5 -2 -5 -6.5t5 -7.5q2 -2 4 -6t4 -6q1 -3 1 -14.5 t3 -16.5q4 -4 10 -8.5t13 -8.5t13.5 -3.5t8.5 6.5h2q8 -2 25 -2h34q67 0 100 43t33 143q0 180 -133 184zM680 1155h-10q-6 0 -8 -2q-5 -3 -5 -8q0 -3 5 -8q2 -2 8 -2.5t8 0.5q6 6 6 10q0 6 -4 10zM678 1130q-10 0 -10 -6q0 -8 10 -8q8 0 8 8q0 6 -8 6zM231 1102 q-2 -1 -4 -2.5t-3.5 -2.5t-2.5 -1l2 -9h4q4 -4 11 -2q10 5 10 11q0 3 -7 5.5t-10 0.5zM266 1083v-4q2 -4 4 -4v8h-4zM260 1075q-6 0 -6 -4l4 -8q-3 0 -6 -8v-13q10 0 10 7v12q6 0 8 2l2 2v4q0 1 -5 3.5t-7 2.5zM203 1040l2 7q0 2 -4 -1q-2 -1 -2 -2v-2zM205 1034q-1 0 -1 -2 t1 -4.5t2 -3.5h2l2 2l-2 4q-3 4 -4 4zM238 1024q0 2 -3 0q-3 -1 1 -4q2 -2 2.5 -1t-0.5 5zM199 1006l-13 -7v-6h7q6 3 6 13zM256 1004q-10 0 -10 -5v-6l6 -8q0 1 1 1.5t2 2t1 4.5v11zM252 844l-2 -2l4 -4l2 2q-1 3 -4 4zM207 788q-8 0 -12 -2l-2 -2q6 -2 8 0zM197 692v-2 q-1 -1 4 -6l4 4zM258 668l6 -11q2 -1 4 -1t2 1q-2 5 -2 7zM262 659h-4q-4 0 -4 -2q0 -4 6 -4l2 2v4zM498 647h-47q-82 0 -82 -82v-254q0 -82 82 -82h47q65 0 103 52.5t38 160.5q0 106 -39 155.5t-102 49.5zM242 618q-6 6 -9 0l-16 -14l12 2q6 3 10 7t3 5zM750 600 q-7 0 -7 -6l-2 -8q2 0 5.5 3.5t3.5 6.5q4 4 0 4zM772 535q-2 0 -2 -3q0 -4 2 -4t2 3t-2 4zM774 502q-2 2 -4 2t-2 -2v-4q0 -2 4 -6l6 -1v1q0 6 -4 10zM178 483q-8 3 -14 0q-11 -5 -12 -8q-4 -7 0 -14q1 -6 7 -10.5t9 -4.5q0 -2 -2 -4t-6 -10q-6 -12 10 -12q13 0 8 16l-4 10 q7 2 12 13q4 11 2 14q-3 7 -10 10zM750 422l-2 -2q-2 -2 0 -2q3 3 2 4zM291 397q-4 0 0 -4l8 -6l-2 4q-4 6 -6 6zM246 371l-4 2q-8 0 -4 -4h6zM776 362q-12 0 -12 -2q0 -8 4 -8l10 4l4 4q-2 0 -6 2zM266 317q-4 0 -4 -2q-2 -2 0 -4q2 -6 4 -6l4 -2h2q0 -1 1 0t1 2l-2 10 q-1 0 -3 1t-3 1zM256 297q-4 -4 -8 -4l-2 -4l6 -6q5 0 8 6q2 3 0.5 6t-4.5 2zM240 227l-7 -4q9 0 9 2t-2 2zM238 166q0 -2 2 -4t4 -2v4q-6 6 -6 2zM289 150q-3 -3 -2 -3h6q4 -4 8 -4v4q-3 3 -12 3zM297 125l-6 -6q-1 0 0 -1t2 -1h8v4z" />
<glyph unicode="C" horiz-adv-x="1069" d="M526 1499q101 0 181 -36t128.5 -95.5t73.5 -131.5t25 -149q0 -26 -23.5 -42.5t-60.5 -16.5h-78q-37 0 -60.5 23.5t-23.5 60.5q0 39 -44 98.5t-116 59.5q-44 0 -77 -19.5t-50 -50t-24.5 -60.5t-7.5 -59v-133q0 -1 -2 -4t-2 -4l-5 -7q-4 -7 -4 -24q0 -3 -5 -10t-5 -10 q1 -4 6 -10t6 -9q11 -29 11 -47v-428q0 -27 8.5 -57t25.5 -60t49.5 -49.5t75.5 -19.5q55 0 93.5 34t52.5 74t14 78v31q0 37 23.5 60.5t60.5 23.5h78q37 0 60.5 -23.5t23.5 -60.5v-43q0 -75 -39 -172q-11 -26 -29.5 -48t-31.5 -31l-13 -9l-12 -6q-11 -8 -14.5 -26t-8.5 -23 q-110 -88 -260 -88q-96 0 -174.5 36t-127.5 95t-75 131.5t-26 148.5v690q0 59 16 121q1 1 2.5 2t2.5 2t1 2q1 3 2.5 12.5t2.5 12.5q41 117 137.5 191.5t238.5 74.5zM803 1274q-8 0 -8 -10q0 -11 8 -11t8 11q0 10 -8 10zM780 1272q-4 0 -12 -4v-13q0 -6 2 -10q4 -4 10 -4 q2 0 8 6q2 2 3 10t0 9q-1 0 -5 3t-6 3zM272 932l-2 6h-6q0 -4 2 -4q4 -4 6 -2zM203 928h-6q-2 -4 -2 -8l8 2v6zM299 922l6 -7q4 3 4 5l-4 2h-6zM248 854h-2q-2 -2 -2 -6t6 -10q3 0 4.5 4t-0.5 6q0 2 -1 4.5t-1 3.5zM270 813h-2h-4v-4q6 0 6 4zM274 797q-4 0 -4 -4q0 -2 2 -2 h2q3 0 0 6zM319 766l-8 6q-6 -2 -6 -6q-2 -3 2 -4q8 0 12 4zM299 770q-2 0 -2 -2l-2 -2q8 4 4 4zM297 748q-1 2 -3.5 1t-2.5 -4l-2 -8q8 0 8 2q4 7 0 9zM272 707l2 6q0 8 -4 0q-11 -1 -10 -4q7 -7 8 -7zM303 711l-6 -4q-2 0 -2 -2q2 -2 2 0q6 4 6 6zM248 684 q-1 -3 -0.5 -3.5t2.5 1.5zM285 676h-9v-6h5zM211 670h-2q-4 0 -6 -2q1 -1 1 -3q2 -4 3 -1zM213 647l2 -6h2l2 2l-4 2q0 1 -2 2zM205 637q-1 0 -1.5 -2t0.5 -5t3 -5q0 -4 2 -2q2 6 0 6q-1 2 -2 5q-2 4 -2 3zM238 602q-2 -2 0 -6l6 -8v6q0 8 -6 8zM203 588q-6 0 -6 -2l2 -2v-2 l6 4q2 2 -2 2zM258 586q0 2 -4.5 2t-7.5 -2q-4 -4 0 -4l2 2h4q5 -3 8 0q2 2 -2 2zM250 586l-4 -2q-1 -1 -3 -2t-3.5 -2t-1.5 -2q0 -2 5 -2t7 2q6 0 2 4zM238 580l-5 -5q3 -2 5 -2h6zM199 526q-4 0 -4 -4v-8l10 -2h10v2l2 2l-6 4q-9 9 -12 6zM279 522l-3 -4l-8 -6h2q3 0 7 2 t4 4v4q-1 1 -2 0zM190 512q-3 3 -8 0q-2 -1 -5.5 -2t-4.5 -2q-4 -4 -6 -8q-2 -5 4 -11q2 -2 8 -2q4 2 6 6.5t6 8.5q5 5 0 10zM223 498q-5 5 -8 0q-1 -2 -1 -5t1 -4q4 -4 8 0q6 3 0 9zM813 442q-4 0 -2 -2q-4 -4 0 -4q3 -3 6 0q0 1 -2 3t-2 3zM745 430h-4q-2 -2 -2 -8l9 4z M844 426v-4l6 -2q4 0 4 2l-2 4h-8zM223 391q-2 3 -8.5 1t-9.5 -5q-2 -2 -2.5 -4.5t-0.5 -4t-1 -1.5l4 -4l2 2q4 -4 10 4q6 3 6 12zM248 391l-2 -2q-4 0 4 -4q0 -4 2 0l-2 6h-2zM258 381q-2 1 -8 0.5t-8 -2.5q-2 -6 0 -8l6 -2q-4 -5 0 -9q-2 -4 4 -12q1 -1 3 0.5t3.5 4.5 t1.5 5q-1 2 -8 9q1 0 2 1.5t2 3.5t2 3l2 2zM827 377l2 -2l5 2l-5 2zM793 358l-2 -2q-3 -3 -3 -6q3 -6 7 -10q7 7 4 12l-2 6h-4zM823 352l-10 2q0 -6 2 -8t10 -2q-2 -4 0 -6v-2h4l7 8q0 4 -2 4l-7 -2q0 4 -4 6zM211 322l-2 4q0 2 -2 0.5t-2 -4.5l2 -3zM250 324q0 1 -2 -2 q3 -3 4 -2t-2 4zM217 317q-3 -1 1 -5t5 -1h2l2 2l-8 2zM809 313l2 -2l4 4l-2 2zM276 315q-1 0 -4.5 -4t-3.5 -6l4 -6l9 -2q4 4 0 8zM817 299v-2v-4h2q3 3 -2 6zM225 287l-8 -11l2 -4q3 0 5 2t3 2q-1 1 -1 3.5v5t-1 2.5zM856 274q-6 0 -6 -4q-3 -6 2 -6q12 0 12 4q0 1 -3 3.5 t-5 2.5zM844 272q-2 0 -2 -2v-2q4 4 2 4zM842 250q-2 2 -4 2t-2 -2l-2 -8q0 -1 2 -1.5t4 0.5t2 3q3 3 0 6zM817 209l2 8q-2 2 -6 0q-2 0 -5.5 -2.5t-2.5 -3.5q6 -6 8 -6zM844 211h-2l-2 -2q0 -2 1 -2l1 2l6 4zM829 178l-6 -2l-2 -2h4zM356 172v2q0 8 -4 0q-1 0 -2 -2l4 -2z M754 172l-4 -2q0 -6 2 -4l4 6h-2zM340 104q0 3 -7 -4q-1 -1 -1 -2l-2.5 -2.5t0.5 -1.5q6 0 8 2q0 2 2 7v1z" />
<glyph unicode="D" horiz-adv-x="1015" d="M207 1479h323q163 0 263 -104.5t100 -276.5v-494q0 -31 -8 -55l-6 -31q-3 -22 5.5 -48.5t8.5 -39.5v-41q-9 -174 -108.5 -281.5t-254.5 -107.5h-323q-37 0 -60.5 24.5t-23.5 61.5v57q0 8 10 18t10 13q2 5 -9 37t-11 45v1141q0 37 23.5 59.5t60.5 22.5zM756 1294 q-11 -4 -11 -6l3 -6h4q2 -5 10 -2q10 5 10 10q-1 3 -7 4.5t-9 -0.5zM287 1290q-7 0 -11 -4t-4 -8q0 -8 4 -12q2 -2 11 -2l8 2q4 4 4 12q0 4 -4 8t-8 4zM791 1276v-4q2 -4 4 -4v8h-4zM778 1266l4 -9q-5 -5 -6 -8v-12q5 -5 10 4v14q2 -1 5 -1t4 1l2 2v5q0 1 -3 2.5l-6 3 t-4 2.5zM475 1249h-24q-63 0 -78 -49q-13 -35 -11 -61q7 -28 7 -52v-774q0 -40 21 -62t61 -22h24q76 0 124 46t48 120v695q0 72 -47.5 115.5t-124.5 43.5zM727 1235l2 4q0 3 -4 1q-2 -1 -2 -3v-2h4zM729 1229q-1 -1 -1 -5.5t1 -4.5h6l-2 6q-1 1 -2 3zM762 1217q-2 2 -4.5 0 t0.5 -3q3 -3 4.5 -1.5t-0.5 4.5zM283 1200q-3 0 -6.5 -4.5t-2.5 -7.5q1 -2 13 -14q-1 1 -2.5 0t-2.5 -3t-1 -4l-2 -4l4 -4q1 -1 7.5 0.5t8.5 3.5q6 6 2 6l-10 7q5 5 0 12zM723 1200l-14 -6v-6h8q6 3 6 12zM780 1196q-10 0 -10 -4v-6l6 -6l4 6v10zM152 1159q-2 -1 -11 -10 l17 2l2 4q-2 2 -4.5 2.5t-3.5 1.5zM281 1147q-1 1 -4 1t-3 -1q-5 -3 -2 -6q0 -9 7 -6q2 2 2 12zM236 1059l-3 -4q-5 3 -8 -6q-2 -4 -2 -17q4 -1 10.5 2.5t8.5 7.5t2 13zM299 1057l-2 -2q0 -2 6 -2q4 0 4 2l-4 2h-4zM334 1057q-8 0 -12 -2v-6l10 -5q6 0 6 5zM176 1049l-2 -2 q5 -5 8 -3q0 8 -6 5zM303 1049l-2 -2l-4 -7h6v9zM780 1034l-4 4l-2 -2l2 -4h2zM328 999q-6 -4 -6 -6h-3q-4 -4 -4 -6q3 -3 6 0q1 0 1 2q6 4 6 10zM268 997h-4l-2 -6l2 -2q2 0 4.5 2.5t1.5 3.5q1 1 0 1zM723 977l8 4q0 1 -5.5 1t-6.5 -1l-2 -2q0 -2 2.5 -2.5t3.5 0.5z M301 899v-2q1 0 3 -2h1q0 4 -4 4zM336 899q-2 0 -5 -3.5t-3 -6.5q-2 -6 -1 -7.5t5 -0.5q18 9 18 10q0 3 -5 5.5t-9 2.5zM283 895h-2q-5 0 -5 -2q0 -3 3 -6q4 -4 4 0q4 0 0 8zM324 864q-3 2 -7.5 1.5t-5.5 -3.5q-1 -1 -2 -4.5t-1 -6.5t1 -3q1 -1 4 -1t7 1.5t4 3.5q6 6 0 12z M276 809l-2 14q-6 0 -10 -6q-4 -2 -7.5 -7.5t-0.5 -6.5q12 -6 16 -2t4 8zM180 811q-2 0 -3 -2.5t-0.5 -5t1.5 -2.5l2 -2h4l-2 8q-1 4 -2 4zM326 799q-6 0 -7 -2h-2q-1 -1 2 -4q7 4 7 6zM299 778l-10 -4q-1 -2 -1 -4t1 -2q4 0 6 2zM215 766q-6 0 0 -6l10 -19v13q-3 15 -10 12 zM168 760l2 -4l4 2q2 0 -0.5 2.5t-3.5 1.5zM788 680q-6 0 -14 -8q-6 -6 -6 -13q0 -13 6 -16q2 -4 14 -4q11 0 15 4q6 6 6 16q0 7 -6 13q-8 8 -15 8zM276 586l-4 6h-4q0 -4 2 -4q0 -2 2 -2.5t4 0.5zM205 578v2h-4l-2 -7zM313 573l-4 5q-4 -1 -6 -5l6 -4q4 2 4 4zM287 528 l-2 -2h6l-2 2h-2zM250 508v-2q-2 0 -2 -6l4 -8q6 0 6 10q0 2 -1 4.5t-1 3.5zM272 506q0 -8 2 -10l11 -2q-1 0 -1 -2t1 -3v-4h4l6 9q0 6 -2 4h-6l-6 4zM272 467h-4l-2 -2l2 -2q3 0 4 2v2zM279 449h-5q0 -5 2 -5q1 -1 3 0q1 0 1 2t-1 3zM223 440h-4h-2q1 -2 3.5 -2t2.5 2z M315 424q-1 2 -3.5 0.5t-2.5 -4.5q-2 -4 2 -4q11 0 13 2q0 1 -3.5 3.5t-5.5 2.5zM303 424q-4 0 -4 -2v-2h2q4 4 2 4zM211 408l2 4q-4 0 -4 -2h-2zM301 401q-6 0 -6 -2l-4 -8q10 0 10 2q4 4 0 8zM274 358l-2 9q-8 -1 -8 -5q0 -2 2 -4t4 -2q4 0 4 2zM252 336q0 -2 -2 0 q0 -4 2 0zM289 328h-8q-2 -2 0 -4h4zM645 188l-2 -4q3 -5 6 -2q1 4 1 7.5t-5 -1.5zM674 176q-4 3 -10.5 2.5t-6.5 -6.5q0 -12 11 -6q12 4 6 10z" />
<glyph unicode="E" horiz-adv-x="942" d="M782 1249h-329q-84 0 -84 -80v-208q0 -40 22 -62t62 -22h276q37 0 59.5 -22.5t22.5 -59.5v-62q0 -37 -23 -61.5t-59 -24.5h-276q-84 0 -84 -80v-254q0 -40 22 -62t62 -22h329q37 0 59.5 -22.5t22.5 -59.5v-61q0 -37 -23 -61.5t-59 -24.5h-573q-37 0 -61.5 24.5 t-24.5 61.5v1051q0 20 5 36t5 44q0 14 -5 30t-5 45v105q0 36 24.5 59t61.5 23h573q37 0 59.5 -22.5t22.5 -59.5v-62q0 -37 -23 -61.5t-59 -24.5zM350 1376l-2 2q-6 0 -6 -4l2 -2l2 2zM227 1360v-12q1 0 11 10v8h-5l-2 -2q-4 0 -4 -4zM367 1296q6 -6 6 0q-1 1 -1.5 3l-1 4 t-1.5 2q-1 1 -7 -5zM231 1288l5 6q-1 2 -3 4l-4 -4q0 -4 2 -6zM330 1284l-4 2l-2 -4q0 -2 3.5 -6t4.5 -4h4l2 8q4 -2 6 2l8 6q-2 2 -6 2.5t-6 -0.5l-6 -8q1 1 -0.5 1.5t-3.5 0.5zM240 1286v-3q-1 -4 0 -3l8 6h-2q0 2 -2 2t-4 -2zM309 1274v-2v4l-6 4h-6l2 -6q-2 0 -4 -4 q1 -1 -1 -4l1 -2q0 -2 2.5 -2t3.5 2l2 8q2 0 6 2zM270 1268l-2 -4l6 -2v2zM346 1266q2 2 0 2h-4v-2q-2 -2 2 -2q2 0 2 2zM221 1260v6q-4 -4 -6 -4l2 -2q1 1 3 0h1zM330 1260l-2 2h-2v-2l4 -3v3zM299 1243q0 -4 6 2q0 4 -10 4q-2 0 -6 -4l4 -4q4 -2 6 2zM287 1202l-8 2 q2 2 -1 3q-1 0 -2 -1l-7 -1l1 -1q-2 -4 2 -6l2 2l7 -4q6 0 8 2q0 2 -2 4zM227 1198l6 -2l-4 8l-4 -2q0 -1 1 -2t1 -2zM225 1128l4 2l-4 5v-7zM213 1065v4q2 2 -2 2h-2q-2 -2 2 -6h2zM188 1071q-4 -4 0 -4q2 -2 2.5 1t-2.5 3zM338 995v6l-2 -4zM186 991q10 -10 11 -10 q4 0 4 10q-6 6 -11 4q-6 0 -4 -4zM170 975q2 0 5 1.5t4.5 3.5t0.5 3l-12 6q-4 0 -4 -4l-2 -12q6 0 8 2zM158 889v-4l4 4v2zM193 877v2l-7 -2q4 -3 7 0zM272 877l-6 -7q1 -2 3.5 -3t4.5 -0.5t2 1.5q5 0 5 9q-1 1 -4 1t-5 -1zM358 805q7 7 7 16q0 6 -7 13q-8 8 -14 8t-14 -8 q-6 -6 -6 -13q0 -13 6 -16q2 -4 14 -4q10 0 14 4zM377 838v-4h4l4 6zM238 817h2l2 2l-2 2q-2 -2 -2 -4zM195 817l8 -4h4l-4 6zM604 799l-4 4q0 -2 2 -2v-2q0 -2 2 -2q2 2 0 2zM567 801q-4 -4 0 -8l8 -2q0 8 -2 8zM631 788v-8l4 4zM768 784q-1 0 -3 1l-1 -1h4l4 -10l2 -2v4 q-1 1 -2 3t-2 3.5t-2 1.5zM602 776l-6 4v-6q0 -8 4 -8q6 6 6 8q-2 2 -4 2zM711 766q-3 0 -3.5 -4.5t1.5 -7.5h2l4 -6l2 -5q2 3 2 7l2 4l-2 -2h-2v6q-3 3 -4 2h-2v8q-2 0 0 -2zM707 754h-7q-6 -3 -6 -6q2 -2 4 2zM662 731l-5 -2l-2.5 -2.5t0.5 -1.5q7 2 7 4v2zM766 725 l-6 -12l4 -4q6 1 6 2l2 8v10h-2q0 -2 -4 -4zM637 717q1 1 2.5 1.5l1.5 0.5l-6 4q-2 -2 2 -6zM672 721l-8 -4q8 0 10 2q4 0 2 2q0 1 -2 1t-2 -1zM709 719q-2 0 -2 -2q0 -4 2 -4q0 -4 2 0q2 2 -2 6zM254 653v-8q4 -4 6 -8l4 4l-4 10q-4 2 -6 2zM264 606v2q1 2 0.5 4t-2.5 2 l-2 -2v-4zM287 530h4q1 0 4.5 4.5t3.5 6.5q0 6 -2 8l-6 -4q-1 1 -2.5 4t-3.5 4q-8 7 -11 6q-2 -1 -2 -6t2 -8q9 0 13 -4q-1 1 -1 -1q-1 -3 1 -8v-2zM246 522l4 -6v6l-2 2zM268 270h11q0 6 -5 11q-6 0 -6 -5q-2 -2 -2 -4t2 -2zM174 258v2q-1 2 -3.5 3.5t-4.5 1.5t-2 -1l6 -4 l-2 -2h6zM739 168q-4 -4 -4 -14q0 -3 7.5 -12t11.5 -9q10 0 16 4q6 6 6 17q0 3 -1.5 5t-4.5 4t-4 3q-4 8 -12 8q-9 0 -15 -6zM729 133q-10 -10 0 -20q13 -8 21 0q6 5 -5 16q-10 10 -16 4z" />
<glyph unicode="F" horiz-adv-x="942" d="M209 1479h573q37 0 59.5 -22.5t22.5 -59.5v-62q0 -37 -23 -61.5t-59 -24.5h-329q-84 0 -84 -80v-208q0 -40 22 -62t62 -22h276q37 0 59.5 -22.5t22.5 -59.5v-62q0 -37 -23 -61.5t-59 -24.5h-227q-17 0 -17 10q0 7 -4 7q-3 0 -9.5 -3t-6.5 -6q-13 -8 -27 -8 q-32 0 -50.5 -22.5t-18.5 -57.5v-47q-3 3 -7 -4q-2 -4 -1.5 -12t4.5 -8l4 4v-283l4 -2q0 -4 -2 -6h-2v-86q0 -5 -7 -8q-10 -5 -6 -16q3 -10 11 -3q2 2 2 0v-10q0 -37 -23 -61.5t-59 -24.5h-78q-37 0 -61.5 24.5t-24.5 61.5v895q0 4 15.5 13t15.5 24q0 8 -7.5 22t-13.5 13h-2 q-8 4 -8 10v346q2 0 4 -2v16q8 25 30 40.5t52 15.5zM596 1442q-21 0 -21 -10q0 -11 21 -11q16 0 16 11q0 10 -16 10zM285 1298q0 -10 2 -12l10 -2q-4 0 0 -8v-2h4l6 8q0 6 -2 6h-6q0 4 -4 6zM291 1262h-2q-1 -2 -2 -5h2l2 3v2zM184 1251h-2q-2 0 -6 -4t-4 -10q9 0 12 6 q1 1 2 3q1 3 2 3zM199 1239v-2q0 -2 6 -2q6 6 4 6zM231 1186l2 -2l5 -4v4zM246 1145v-10h4q3 6 2 6q0 3 -2 4.5t-4 -0.5zM154 1135l-11 4q3 -7 8.5 -10.5t10.5 -0.5zM215 1130v5l-2 -2q-2 -3 -2 -5zM256 1063q-4 0 -4 -2v-8q1 -3 4 -2l4 4q-2 6 -4 8zM188 1014q-2 0 -3.5 -2 t1.5 -2q6 0 2 4zM209 1010q-2 0 -2 -6l2 -3q2 1 2 3q4 4 0 4zM184 993l-4 2q-9 -7 -9 -8q0 -2 9 -8h2v2q2 4 2 12zM186 956h-12q0 -6 6 -8q2 -3 5.5 -5t4.5 -1q5 10 3 12q-4 4 -7 2zM305 819q-6 0 -8 -4q3 -6 6 -6l10 2q0 2 -3.5 5.5t-4.5 2.5zM190 811l-2 -2q-4 0 1 -2h4z M279 795q2 -2 2 -4l2 -3q1 0 1 1.5t-1 1.5q-1 3 -4 4zM207 793q-1 1 -10 -7q0 -8 4 -8q6 -6 6 0v15zM246 741l-6 -4q-4 -4 0 -4h6v8zM287 555l-6 -10q2 -2 4 -2l10 2v6zM303 518v4h-6q1 0 1 -1l0.5 -0.5t2.5 -0.5zM332 479q-6 0 -6 -4l4 -6q-5 -5 -6 -8l-2 -10q8 0 12 4v12 q6 0 8 2l2 2v4q0 4 -12 4zM297 444l-2 -4l4 -2l2 4l-2 4zM340 371q-6 0 -2 -4l6 -2zM195 362h-7l-4 -8l11 2v6zM305 313l-2 -2q0 -4 2 -4q2 2 0 4v2zM338 305q-6 0 -6 -6q0 -2 2 -2l4 6h2zM270 158q1 -1 -2 -4l-2 -2v-5q2 -2 3 1l-1 2q2 2 2 8zM182 143q-3 3 -8 0 q-2 -1 -5.5 -2t-4.5 -2q-4 -4 -6 -8t4 -10q2 -2 8 -2q3 2 4.5 3.5t3 4.5t4.5 6q5 5 0 10zM215 129q-5 5 -8 0q-4 -4 0 -8t8 0q5 3 0 8z" />
<glyph unicode="G" horiz-adv-x="1071" d="M526 1499q81 0 149.5 -24t115.5 -64t80.5 -93t49 -111.5t15.5 -119.5q0 -26 -23.5 -42.5t-60.5 -16.5h-78q-37 0 -61.5 15t-24.5 38q0 38 -15 80t-53.5 76.5t-91.5 34.5q-44 0 -77 -19.5t-50 -50t-24.5 -60.5t-7.5 -59v-16q-1 0 -3 -0.5t-5 -4.5t1 -13q5 -5 7 -5v-124 q-4 -8 -4 -13q4 -4 4 -10v-500q0 -27 8.5 -57t25.5 -60t49.5 -49.5t75.5 -19.5q55 0 93.5 34t52.5 74t14 78v54q0 38 -39 38h-31q-37 0 -61.5 24.5t-24.5 61.5v35q0 36 24.5 59t61.5 23h234q37 0 59.5 -22.5t22.5 -59.5v-524q0 -37 -23.5 -60.5t-60.5 -23.5q-11 0 -27 57 q-6 27 -47 -2q-108 -77 -250 -77q-96 0 -174.5 36.5t-127.5 96t-75 132t-26 148.5q0 8 8 4q2 0 10 -4q3 26 -8 29q-10 3 -10 10v658q0 76 26 148t75 131t127.5 94.5t174.5 35.5zM371 1423q-7 0 -15 -8q-6 -6 -6 -12q0 -14 6 -17q2 -4 15 -4q10 0 14 4q6 6 6 17q0 6 -6 12 q-8 8 -14 8zM793 1239h-5q0 -4 3 -4q1 -3 4 -2zM725 1225v2h-4q-4 -4 -4 -8zM829 1225q-4 0 -6 -4l6 -4q3 2 5 2zM160 1024l-10 -10l16 2v6q-1 1 -3 1t-3 1zM184 913l-2 -2q5 -4 8 -2q0 7 -6 4zM311 913l-2 -2l-4 -6l6 2v6zM348 901v-4q-2 -5 2 -10t8.5 -5.5t8.5 3.5l-15 16 h-4zM336 864q-6 -4 -6 -6h-2q-4 -4 -4 -6q4 -2 6 2q6 4 6 10zM276 862h-4l-2 -6l2 -2q2 0 5 2.5t2 3.5q0 2 -3 2zM332 729q-3 2 -7.5 1.5t-5.5 -3.5l-4 -14q1 -2 9 -0.5t8 4.5q6 6 0 12zM285 674l-2 14q-7 0 -11 -6q-4 -2 -7.5 -7.5t-0.5 -6.5q10 -5 17 -2q4 4 4 8zM188 676 q-2 0 -3 -2.5t-0.5 -5t1.5 -2.5l2 -2h5l-3 8q-1 4 -2 4zM334 664q-6 0 -6 -2h-2q-2 -2 2 -5q7 4 6 7zM307 643l-10 -4q-1 -1 -1 -3.5t1 -2.5q4 0 6 2zM223 633q-1 0 -2 -1t-0.5 -3t2.5 -4l8 -19l2 12q-3 15 -10 15zM176 625l2 -4l4 2q3 3 -2 4q-2 1 -4 0v-2zM881 403 q-15 0 -11 -18q1 -5 4 -8.5t6 -4.5l3 -1l-4 -9q-3 -10 4 -10q5 0 6.5 2.5t0.5 9t-1 7.5q1 3 5.5 7t4.5 7q0 18 -18 18z" />
<glyph unicode="H" horiz-adv-x="1103" d="M819 1479h78q37 0 60.5 -23.5t23.5 -60.5v-1311q0 -37 -23.5 -60.5t-60.5 -23.5h-78q-37 0 -60.5 23.5t-23.5 60.5v481q0 82 -82 82h-202q-82 0 -82 -82v-346q0 -7 -4.5 -27.5t-2.5 -29.5q7 -25 7 -47v-31q0 -37 -23.5 -60.5t-60.5 -23.5h-78q-37 0 -60.5 23.5 t-23.5 60.5v1311q0 37 23.5 60.5t60.5 23.5h78q37 0 60.5 -23.5t23.5 -60.5v-437q0 -81 82 -81h194q1 0 15.5 -1.5t26 -1t15.5 4.5q20 7 33 26q11 11 12.5 24.5t-4.5 16.5q-8 15 -8 76v373q0 37 23.5 60.5t60.5 23.5zM276 1417q-4 0 -2 -2q-4 -4 0 -4q4 -5 7 -2 q0 2 -2.5 4.5t-2.5 3.5zM211 1401l-2 4q-1 0 -2 -1t-2 -1l-2 -6zM317 1397l-2 4q-6 0 -8 -2l6 -6q4 0 4 4zM883 1397h-4q-3 3 -7 -2q-1 -1 0 -2l2 -4l7 2zM907 1364q-4 4 -4 0q-3 0 -1 -4q1 -1 3 -2l2 -2q3 3 2 4q0 4 -2 4zM168 1343q-6 0 -14 -8q-7 -7 -7 -12q0 -13 7 -16 q2 -4 14 -4q10 0 14 4q6 6 6 16q0 6 -6 12q-8 8 -14 8zM815 1229l-3 -2q-3 -2 -3 -4l-4 -15q9 0 12 2q2 0 5.5 2.5t5.5 5t1 3.5q-8 8 -14 8zM926 1200l2 2h-6q0 -4 4 -2zM850 1161q-6 2 -8 0l-4 -8l10 4q3 1 2 4zM791 1014l-9 -2q-8 2 -16 2q-3 -6 2 -6q1 -1 5 -1t10 1t8 2 q3 3 2 4h-2zM930 903q-1 -1 -6 -2t-8 -2.5t-3 -3.5q0 -1 -1 -3q0 -5 1 -5l7 8l16 2l2 4q-2 2 -8 2zM373 760q-21 0 -21 -6q-1 -1 4 -5t9 -6q2 0 6 3t4 6q5 8 -2 8zM348 739l2 2h-4q-6 -6 -2 -6t4 4zM346 717q-1 1 -4.5 0.5t-7 -2.5t-2.5 -4q-6 -5 2 -13q10 0 10 4q1 1 2 5 t1 7t-1 3zM190 713l-4 -4q5 -2 9 0v2zM201 709l4 -7q1 -4 4 -6q1 2 0.5 7.5t-2.5 5.5l-2 2zM319 705q0 -2 2 -3t3 0h2q-7 7 -7 3zM311 629l-6 -8l12 2q1 1 1 3.5t-1 2.5h-6zM236 608l4 -12q7 -15 12 -10q6 6 -2 8zM879 211q-11 0 -11 -8q0 -6 11 -6q10 0 10 6q0 8 -10 8z " />
<glyph unicode="I" horiz-adv-x="561" d="M244 1479h78q37 0 59 -22.5t22 -59.5v-400q0 -20 -14 -34q-8 -8 -8 -21q2 -30 8 -55q3 -17 10 -27q4 -12 4 -22v-752q0 -37 -22.5 -61.5t-58.5 -24.5h-78q-37 0 -61.5 24.5t-24.5 61.5v1311q0 36 24.5 59t61.5 23zM350 1176l-4 2q-2 1 -6 -2v-5h6zM356 1139q-1 0 -2 -1.5 t-0.5 -3.5t2.5 -4l2 -2q4 0 2 2q4 4 0 7q0 6 -4 2zM223 1047q-4 0 -10 -3l-6 -12q0 -5 10 -2q2 -1 6 -1t7.5 1.5t2.5 3.5q-7 13 -10 13zM311 981q-2 -2 2 -2h2q-1 0 -3 2h-1zM213 969l12 -2q4 4 4 6l-8 2zM203 702h-21q0 -1 -1.5 -3t-2 -3.5t1.5 -1.5l8 4l17 -2l4 2 q0 1 -3 2q-2 1 -3 2zM319 549q-4 -4 -2 -6q0 -2 9.5 -5t13.5 -3q3 3 2 4h-2l-8 2q-8 8 -13 8zM365 322q-13 8 -21 0q-6 -6 4 -17t17 -4q4 5 3.5 11.5t-3.5 9.5zM340 301q-10 0 -16 -4q-7 -7 -7 -16q0 -3 1.5 -5t5 -4.5t4.5 -3.5q4 -8 12 -8t14 6q4 4 4 15q0 3 -7 11.5 t-11 8.5z" />
<glyph unicode="J" horiz-adv-x="585" d="M301 1479h78q37 0 60.5 -22.5t23.5 -59.5v-19q0 -10 -6 -21.5t-6 -21.5q0 -47 4 -57q0 -2 4 -12t4 -25v-944q-6 -122 -96.5 -209.5t-216.5 -87.5h-60q-37 0 -60.5 24.5t-23.5 61.5v61q0 37 23.5 59.5t60.5 22.5h10q51 0 84 35t33 86v1047q0 37 23.5 59.5t60.5 22.5z M389 1346q-8 3 -14 0q-11 -6 -13 -9q-4 -7 0 -14q1 -5 7 -9.5t10 -4.5q0 -2 -2 -4q-1 -1 -6 -11q-6 -12 10 -12q13 0 8 16l-4 11q7 2 12 12q4 11 2 14q-4 8 -10 11zM406 745q-9 0 -13 -2q0 -4 2 -6l11 -4q2 0 6 4zM377 735h-2l-4 -6h6v6zM401 688q-6 -4 -6 -6h-2 q-4 -4 -4 -6q4 -2 6 2zM272 256l-2 -2q1 0 3 -2h1q4 4 -2 4zM307 256q-3 0 -6.5 -3.5t-3.5 -6.5q-1 -6 0 -8t6 0q1 1 9.5 4.5t9.5 5.5q0 2 -6 5t-9 3zM252 252h-2q-4 0 -2 -2q-2 -2 2 -6q0 -4 4 0q3 1 -2 8zM295 221q-9 3 -12 -2q-1 -1 -2.5 -4.5t-2 -6.5t0.5 -3 q1 -2 8.5 -0.5t7.5 4.5q3 6 0 12zM295 156q-4 2 -6 -2h-2q0 -2 1.5 -3t2.5 -1q6 6 4 6zM270 135l-12 -4q-2 -1 -2 -3.5t2 -2.5q6 0 8 2z" />
<glyph unicode="K" horiz-adv-x="868" d="M688 1470h55q60 0 88 -44.5t0 -98.5l-204 -412q-26 -53 -6 -108l256 -686q19 -51 -9 -90t-82 -39h-71q-52 0 -72 51l-147 432q-14 38 -38.5 40.5t-43.5 -34.5l-33 -65q-25 -49 -25 -101v-57q0 -3 -2 -7.5t-2 -8.5q1 -2 -1.5 -8.5t-0.5 -12.5q11 -22 4 -33 q-13 -22 -10 -26q12 -18 12 -47v-37q0 -37 -23.5 -61.5t-60.5 -24.5h-77q-37 0 -60.5 24.5t-23.5 61.5v1311q0 36 23.5 58.5t60.5 22.5h77q37 0 60.5 -22.5t23.5 -58.5v-338q0 -26 13 -43q2 -3 12 -23q6 -10 12 -4l6 6q6 2 11 13.5t6 13.5l205 416q19 40 67 40zM207 1036 q-3 3 -8 0q-2 -1 -6 -2t-5 -2q-4 -4 -6 -8t4 -10q2 -2 9 -2q4 2 6.5 6t5.5 8q5 5 0 10zM240 1022q-6 6 -9 0q-4 -4 0 -8q5 -4 9 0q5 3 0 8zM483 975h-6q0 -4 2 -6q4 -4 13 -4q0 2 -2 4.5t-4 4.5zM494 731l-7 2l-4 -4h2zM326 713q-3 0 -1 -4l3 -2h2q0 2 -1.5 4.5t-2.5 1.5z M516 700q-8 2 -12 -2q6 -2 8 0l2 -2h6q-1 4 -4 4zM336 657l-2 -4l4 -2h6l-2 4q-2 3 -6 2zM365 559q-7 -3 -9 -8q4 -12 11 -8q1 0 4.5 1.5t6 3.5t1.5 3q0 2 -6.5 5.5t-7.5 2.5zM309 485h-6q0 -4 6 -4h2q1 1 -0.5 2t-1.5 2zM229 324h-4q-1 1 -1 0q-1 -3 1 -5l2 -2zM233 270 l-4 -4q-6 -4 -4 -6q3 -1 7 2t4 6zM258 229h-8l-10 -10l2 -2q3 -2 8 -2q13 -6 16 0q-1 1 -1.5 5t-2 6.5t-4.5 2.5zM211 217l-6 -6q-9 -15 -4 -18q3 0 6 6zM258 180l12 -2q3 3 2 4l-8 2zM819 72l-2 -4q3 -5 6 -2q1 4 1 7.5t-5 -1.5zM848 59q-4 3 -10.5 2.5t-6.5 -6.5 q0 -11 11 -6q12 4 6 10z" />
<glyph unicode="L" horiz-adv-x="784" d="M195 1479h77q37 0 60.5 -23.5t23.5 -60.5v-1084q0 -82 82 -82h230q37 0 60.5 -23.5t23.5 -60.5v-61q0 -37 -23.5 -60.5t-60.5 -23.5h-473q-37 0 -60.5 23.5t-23.5 60.5v1311q0 37 23.5 60.5t60.5 23.5zM180 1407q-7 -5 -4 -10l13 -1q4 1 -3 7zM160 1382q-10 0 -12 -6 t2 -10q2 -8 6.5 -11.5t9.5 1.5q7 8 5.5 17t-11.5 9zM262 1098l-16 -4l-2 -2q2 -2 8 -2q16 5 18 10v6zM319 737q-18 0 -24 -4q-1 -1 -1 -3.5t1 -2.5l12 4q11 -4 15 0q0 6 -3 6zM256 387l-10 -4q-2 -1 -2 -3.5t2 -2.5q6 0 8 2zM289 319l4 15q-8 0 -12 -4q-5 -2 -9.5 -6 t-1.5 -5q2 -3 7 -6t8 0q4 0 4 6zM668 225q-14 0 -24.5 -5.5t-10.5 -12.5q0 -6 11 -11.5t24 -5.5q10 0 18 5.5t8 11.5q0 7 -7.5 12.5t-18.5 5.5zM197 180l-2 -4q0 -4 4 -4q2 -2 4 -2q2 1 1.5 5t-3.5 5h-4zM227 145l-2 -4l4 -2q0 1 3.5 3t3.5 3l-5 2z" />
<glyph unicode="M" horiz-adv-x="1372" d="M1026 1473h152q37 0 60.5 -23.5t23.5 -60.5v-1311q0 -37 -23.5 -60.5t-60.5 -23.5h-78q-37 0 -60.5 23.5t-23.5 60.5v620q0 14 -9.5 20.5t-20 2t-13.5 -18.5l-162 -649q-6 -27 -27 -43t-49 -16h-102q-28 0 -49 16t-27 43l-160 649q-5 20 -24 18t-19 -24v-618 q0 -37 -23.5 -60.5t-60.5 -23.5h-77q-37 0 -60.5 23.5t-23.5 60.5v1024q0 28 10 61q1 8 -0.5 16t-1.5 15q-1 5 -1.5 14t-2.5 27.5t-3 29.5t-1 9v115q0 37 23.5 60.5t60.5 23.5h143q28 0 49 -16.5t27 -43.5l198 -784v-21q0 -22 12.5 -44t12.5 -27q10 -30 30.5 -45t41 -5 t28.5 48l215 878q6 27 27 43.5t49 16.5zM225 1307q-10 0 -10 -9q0 -6 10 -6q11 0 11 6q0 9 -11 9zM1159 1278v-6h2l4 8zM1210 1276q-4 2 -6 -2q-6 -4 -8 -10q6 4 6 6h2q1 1 2.5 2t2.5 2t1 2zM266 1219l-6 4q-1 0 -7 -5.5t-7 -5.5q-4 -8 0 -8l12 -2q0 -6 4 -10q12 -12 14 -10 t2.5 7.5t-2.5 8.5q-8 8 -14 8q2 0 2.5 4t-0.5 7zM283 1157l-2 -4q6 -6 8 -4q3 0 5 2.5t1 3.5q-2 2 -12 2zM252 1120l-6 2q-2 -4 -2 -8q4 -8 10 -8zM1116 1118l-2 2q-1 1 -4.5 -0.5t-3.5 -3.5l2 -4l4 2zM1212 1071q-1 1 -4 1t-6.5 -1.5t-3.5 -3.5q-6 -6 0 -12q9 -4 12 2 q1 1 2 4.5t1 6.5t-1 3zM250 1022v4h-6q-4 -2 -4 -4h10zM426 1020q-2 0 -4 -2l-2 -10l4 -4l8 6q-4 8 -6 10zM1108 1008q-6 -6 -6 -7l-2 -14q9 0 12 2q4 2 8.5 6.5t1.5 5.5q-2 3 -7 6t-7 1zM317 995l-4 2l-6 -4v-4l6 2zM328 987q-3 3 -10.5 3t-10.5 -3l-8 -8l4 -8l4 2 q2 -4 10 0q11 11 11 14zM1149 983q-4 0 -6 -4v-8l8 8q4 4 -2 4zM1210 977q-6 -4 -6 -6q7 0 8 2v2q1 1 0 1t-2 1zM289 956q-3 0 -5 -2t-1 -4q6 0 6 4v2zM352 928l-6 6q-4 -4 0 -8q5 -8 8 -8q-2 8 -4 8zM379 911l-2 -2q-2 -1 -0.5 -3.5t4.5 -2.5h2l2 4q-2 4 -6 4zM387 899v-6 l2 2l4 8zM1233 723q-6 0 -14 -8q-7 -7 -7 -13q0 -12 7 -16q2 -4 14 -4q10 0 14 4q6 6 6 16q0 7 -6 13q-8 8 -14 8zM670 303q-6 0 -6 -10q7 -7 12 -4q2 0 6 4.5t4 5.5q-2 2 -8 4t-8 0zM573 236l-4 -5q-2 -2 1.5 -2.5t4.5 2.5l3 2zM815 211q-8 8 -8 0v-23q3 0 14 11q4 7 -6 12 zM680 186v2q-2 -2 -4 -2q0 -8 4 0zM616 170l-6 -2q-6 -4 -4 -6t6 -0.5t4 4.5l2 2zM690 145q-6 0 -8 -4l-6 -12q4 -4 12 0q2 -1 5.5 -0.5t6.5 2.5t2 4q-2 3 -6.5 7t-5.5 3zM721 106l4 -10l6 -2q0 6 -2 8zM653 98l-18 -6l12 -2q15 0 15 6q0 5 -9 2zM788 84q0 -4 3 -6v-2 q1 -1 4 2q-4 9 -7 6z" />
<glyph unicode="N" horiz-adv-x="1095" d="M811 1479h78q37 0 60.5 -22.5t23.5 -59.5v-572q0 -13 -10 -26q-11 -14 -13.5 -24t0.5 -13l4 -4q19 -13 19 -35v-637q0 -37 -23.5 -61.5t-60.5 -24.5h-168q-56 0 -72 53l-235 719q-5 17 -16 22.5t-20 -3t-9 -27.5v-678q0 -37 -23.5 -61.5t-60.5 -24.5h-78 q-37 0 -60.5 24.5t-23.5 61.5v190q0 9 2 13q4 13 6 53t-2 72q-6 34 -6 67v916q0 37 23.5 59.5t60.5 22.5h147q25 0 45 -14.5t27 -39.5l256 -809q8 -26 26.5 -23.5t18.5 30.5v774q0 37 23.5 59.5t60.5 22.5zM289 1407q-6 0 -6 -6l-2 -15q7 0 12 5q6 0 10 7q2 2 0 3 q-1 3 -6.5 5.5t-7.5 0.5zM391 1184q-4 4 -4 0q-3 0 -1 -4q1 -1 3 -2l2 -2q3 3 2 4q4 4 -2 4zM211 1116q-5 2 -12 0q-2 -1 -7 -2t-6 -2t-4 -5t-4 -7q-4 -8 6 -13q2 -2 11 -2q5 2 7.5 7.5t8.5 11.5t0 12zM252 1098q-8 8 -10 0q-2 -2 -2 -6t2 -5t5 -1t5 1q4 2 3.5 5.5t-3.5 5.5 zM350 1032q-4 2 -6 -2q-5 -1 -8 -8l8 6v-2q6 3 6 6zM193 930l-5 -4l4 -2l3 2h2zM203 926l2 -8q1 -1 2 -4l2 -1q3 1 2 7t-4 6l-2 2zM311 846l-6 -8l12 2q2 2 2 6h-8zM236 823l4 -10q9 -12 14 -10q0 7 -4 8zM260 743l-20 -8q0 -8 2 -8l10 -2q0 -6 6 -10q2 -2 7 -5.5t5 -2.5 q1 0 2.5 2.5t1.5 6t-2 5.5q-2 1 -5 3t-5.5 3.5t-3.5 1.5l2 10v4zM279 680q-8 -4 -3 -4q7 -7 7 -4q2 0 4.5 1t3.5 2.5t0 2.5q-4 2 -12 2zM248 643l-6 2q-2 -2 -2 -8q0 -3 4 -5.5t6 -2.5zM690 451q-16 0 -20 -7q0 -4 12 -10q8 0 12 8q3 9 -4 9zM668 430v2h-4q-6 -6 -2 -6 q6 0 6 4zM664 408q-2 2 -8.5 -1t-6.5 -6q-3 -7 2 -12q11 0 13 4v15zM639 395q-1 -1 0 -2t2 0h2q-3 3 -4 2zM750 193q-7 -10 0 -23q8 -13 22 -6q7 4 8.5 11.5t-2.5 10.5q-12 20 -28 7zM727 147q-5 11 -22 0q-6 -5 -9 -12t0 -10q4 -6 15 -6l4 -4q26 0 30 10q0 6 -12 12 q0 4 -6 10z" />
<glyph unicode="O" horiz-adv-x="1056" d="M526 1501q101 0 181 -36t128.5 -95.5t73.5 -131t25 -148.5v-428q0 -23 -12 -41q-9 -18 -9 -27q3 -17 13 -33q8 -13 8 -33v-143q0 -73 -26.5 -144t-76 -129.5t-129.5 -95t-176 -36.5t-174.5 36.5t-127.5 96t-75 132t-26 148.5v203q0 23 12 41q0 8 -6 20q-6 15 -6 31v395 q0 76 26 149.5t75 134t127.5 97.5t174.5 37zM528 1272q-44 0 -77 -19.5t-50 -50t-24.5 -60.5t-7.5 -59v-686q0 -27 8.5 -57t25.5 -60t49.5 -49.5t75.5 -19.5q55 0 93.5 34t52.5 74t14 78v686q0 37 -14 78q-2 4 -4 12t-2 9v6q0 18 -19 33l-8 2l-14 8q-41 41 -99 41zM197 1102 h-7q-2 0 -2 -12q0 -6 7 -3q2 3 4 3q18 -4 18 0q-4 8 -8 8q-1 1 -4.5 -1t-5.5 -5q0 8 -2 8v2zM805 932q-10 0 -10 -8q0 -6 10 -6t10 6q0 8 -10 8zM201 893q-3 1 -9 1t-6 -1h4l5 -2q10 -3 10 0q-1 2 -4 2zM303 856v-4h2l2 4h-4zM305 657q-2 -8 0 -10q0 -2 2 -2q4 2 4 8 q-2 1 -3.5 2.5t-2.5 1.5zM807 643q-2 0 -8 -6q0 -4 4 -4q2 0 2 2zM186 569q0 -1 -3 -5t-3 -5q0 -2 2 -2l8 -6q3 0 3 3.5t-3 4.5q0 10 -4 10zM330 545v2q-7 0 -11 -4q-3 -3 -3 -10t3 -7q5 0 9 6l4 11zM180 535v-9l2 -4v8zM199 496v10q-2 0 -2 -4q-2 0 -2 -4zM225 440 l-2.5 -2.5t0.5 -1.5q2 -2 19 -2q0 4 -2 4zM274 350l-12 -6q0 -1 -2 -4.5t-2 -5.5q0 -8 4 -12q2 -5 12 -5q6 0 11 5q4 2 4 12q0 6 -4 10q-6 6 -11 6z" />
<glyph unicode="P" d="M207 1473h352q164 0 244 -112t80 -364q0 -255 -82.5 -365t-241.5 -110h-102q-82 0 -82 -80v-84q0 -28 -8 -47l2 -12q6 -3 6 -10v-209q0 -37 -23.5 -61.5t-60.5 -24.5h-84q-37 0 -60.5 24.5t-23.5 61.5v1311q0 37 23.5 59.5t60.5 22.5zM506 1243h-49q-82 0 -82 -80v-153 q0 -69 -10 -154v-8q5 -23 12 -33q9 -63 80 -63h49q65 0 98 57t33 188q0 35 18 70q-7 35 -20 35q-3 -3 -6 4q-22 137 -123 137zM315 971l-2 2q-2 0 -4 -2l-2 -8l2 -2v-3q0 -4 4 0l6 7q0 2 -4 6zM240 913q-2 3 -11 3t-12 -3q-3 -1 -2 -3.5t4 -2.5l19 -2q2 0 2.5 3.5t-0.5 4.5z M272 836q-2 -2 -2 -6.5t2 -4.5l2 -2q2 0 2 2v6q-1 5 -4 5zM293 803v-10q0 -5 4 -5q2 0 2.5 3t-0.5 4zM285 762q-6 0 -2 -8q1 -1 2.5 -4l3 -6t2.5 -3q8 8 8 13q0 2 -4 6q-1 0 -3.5 1t-4 1.5t-2.5 -0.5zM645 721q-5 5 -12 0q-2 -1 -6.5 -2t-5.5 -2l-4 -3q-4 -3 -5 -5 q-4 -8 6 -13q2 -2 11 -2q5 2 7.5 7.5t8.5 9.5q5 5 0 10zM686 707q-7 7 -10 0q-2 -1 -2 -5t2 -6t5 -2t5 2q4 2 3.5 5.5t-3.5 5.5zM313 696l-6 4q-12 4 -12 -2q0 -3 6 -4h16l-2 2h-2zM274 643v-4v-4q5 2 5 4v2q-3 2 -5 2zM410 596l-7 -4q-2 -2 -2 -6q1 -1 6 0.5t5 3.5 q0 4 -2 6zM303 567h-4q-2 2 -8 -4q-6 -12 -2 -16q3 -1 8.5 2t7.5 6q4 8 2 10t-4 2zM291 532q-5 0 -8 -6q0 2 -9 6q-14 0 -14 -2t2.5 -6t5.5 -4q11 0 15 4l2 -8l2 -2h6q4 4 4 14q-3 7 -6 4zM242 518q-2 0 -3.5 -1.5t-0.5 -2.5q2 -1 6 2q0 4 -2 2zM199 516q-2 0 -2 -2l-2 -6 q4 0 4 4v4zM147 371h-4l-2 -6q2 -5 4 -5l2 2v9zM156 180q-9 0 -9 -10q0 -8 9 -8q8 0 8 8q0 10 -8 10zM156 156q-6 -6 -6 -13q0 -8 4 -12q1 -2 10 -2q6 0 8 2q4 8 4 12q0 5 -6 11q0 3 -6 4t-8 -2z" />
<glyph unicode="Q" horiz-adv-x="1011" d="M526 1501q101 0 181 -36t128.5 -95.5t73.5 -131t25 -148.5v-263q0 -20 -8 -36q-3 -6 -4.5 -16.5t0.5 -19t8 -7.5h4v-363q0 -133 -76 -240q-11 -15 -6 -28q16 -53 63 -74q50 -24 50 -63v-95q0 -42 -29 -65q-51 -32 -123 0q-117 43 -172 147q-12 25 -41 21q-38 -6 -74 -6 q-121 0 -209.5 53t-138.5 143q-7 17 2 29q13 17 9.5 24.5t-27.5 12.5q-16 4 -19 16q-20 61 -20 133v690q0 76 26 149.5t75 134t127.5 97.5t174.5 37zM332 1264l-8 8q-8 3 -13 0l-8 -6q-4 -8 0 -15q4 -12 12 -12q0 -2 -2 -4q-1 -1 -2 -4.5t-2 -5.5q-3 -4 0 -7.5t8 -3.5t7 6 t0 9l-5 10q7 2 11 10q2 6 2 15zM528 1272q-44 0 -77 -19.5t-50 -50t-24.5 -60.5t-7.5 -59v-686q0 -27 8.5 -57t25.5 -60t49.5 -49.5t75.5 -19.5q55 0 93.5 34t52.5 74t14 78v686q0 64 -41.5 126.5t-118.5 62.5zM758 1022l-4 4q-4 4 -4 -2l2 -4h6v2zM801 967l2 -4q1 0 2 1 t2 1q2 2 2 8zM866 944l-8 -8l2 -4l8 2q0 -4 4 -6l9 -4q0 9 -2 10l-9 2q2 4 0 6v2h-4zM872 920q-3 0 -4.5 -5t0.5 -8l4 -6l5 2v2q2 0 2 6zM264 817q-4 2 -6 -2q4 -4 6 -4q1 -1 2 0q0 6 -2 6zM213 774v-2h4l2 2l-2 2zM252 713q-10 0 -12 -2q0 -1 2 -3.5t4 -2.5q4 -4 8 4 q4 4 -2 4zM250 694v-4q4 -2 4 0v4h-4zM209 680v-4q0 -2 4 2zM223 651h8q2 2 0 2l-4 2zM203 633l2 -2l4 2q0 6 -2 6zM215 618q-4 0 -4 -2l-2 -8q0 -3 6 0q3 0 6 1.5t2 4.5q-4 4 -8 4zM229 598v8q-1 2 -8 -4q-3 -3 0 -6q6 0 8 2zM227 569l2 4q-4 2 -4 0q-6 -6 -4 -6l4 2h2z M158 233q12 -12 10 -24q0 -2 -2 -2t-2 2q-2 3 -5 10t-5 10q0 2 4 4zM807 -53l-6 -6q7 -7 18 -4q1 2 2 4.5t-0.5 7t-13.5 -1.5zM889 -72q-13 5 -30 3.5t-17 -9.5q0 -16 28 -10q26 6 23 12q0 2 -4 4z" />
<glyph unicode="R" d="M207 1479h352q164 0 244 -111.5t80 -363.5q0 -307 -129 -414q-27 -24 -19 -55l133 -414q15 -48 -11 -84.5t-77 -36.5h-63q-56 0 -72 53l-131 410q-24 67 -80 67q-59 0 -59 -81v-363q0 -37 -23.5 -61.5t-60.5 -24.5h-84q-37 0 -60.5 24.5t-23.5 61.5v948q0 13 6 19l2 2 q1 3 1 9t-1 7l-2 2q-6 6 -6 17v307q0 37 23.5 59.5t60.5 22.5zM207 1419l2 4q0 2 -3 2.5t-3 -2.5l-2 -2zM358 1407q-9 4 -12 -2q-1 0 -2.5 -3t-2 -6t0.5 -3q2 -2 9 -1.5t7 3.5q6 6 0 12zM664 1376q-5 0 -13 -8q0 -1 -2 -4.5t-2 -5.5q0 -15 4 -15q2 -4 13 -4q6 0 10 4 q4 2 4 15q0 6 -4 10q-4 8 -10 8zM315 1337l7 13q-5 5 -13 0q-4 0 -9.5 -3t-4.5 -6q10 -10 12 -10q7 3 8 6zM367 1343q-7 -2 -7 -4l-2 2q-1 -1 -2.5 -2t-2.5 -2t-1 -2q2 -1 4 -1t2 1q9 5 9 8zM336 1325l-2 -2h6q0 6 -4 2zM272 1298q-2 -3 -0.5 -4t4.5 2q2 2 -1 4t-3 -2z M336 1284h-10q-5 -3 -2 -6q4 -2 6 0zM211 1276h-2q-1 1 -4.5 -0.5t-3.5 -3.5q0 -4 0.5 -6.5t3.5 -1.5zM506 1249h-49q-82 0 -82 -80v-327q0 -40 21 -62t61 -22h49q64 0 97.5 57.5t33.5 188.5t-33 188t-98 57zM215 1237q-1 -1 1.5 -5.5t4.5 -4.5h2l4 2l-6 6q-6 6 -6 2z M201 1221q-1 0 -0.5 -8t2.5 -13q1 -4 4 -4q2 2 2.5 6t-0.5 6zM199 1139l-9 -2q-2 -5 0 -7v-2q1 -1 6 2.5t7 6.5q0 2 -4 2zM186 1038l-10 -6l-6 -6q-4 -4 -4 -8l4 -8l2 -2q2 -3 4 -4q5 -5 10 -5q4 -2 13 -2q8 0 12 2q2 0 12 5q4 4 4 6l4 8q0 4 -4 8l-6 6q-8 4 -10 4 q-4 2 -12 2h-13zM324 1020l-15 -6l-4 -4q2 -2 10 -2q2 2 6 4.5t7 4.5t2 3v3v5zM522 680h-4q-5 -5 -2 -8l6 4v4zM188 633q-1 0 -2 -1t-0.5 -3t2.5 -4l9 -17v13q-2 7 -4 10t-5 2zM223 608q-5 4 -24 -2q-1 -4 0 -4h10q12 -4 16 0q0 5 -2 6zM207 604l-8 -2q-1 -1 -4.5 -3 t-6.5 -4t-2 -3l11 -1q6 0 8 1q9 0 6 6zM662 598l-3 4q-4 2 -6 0v-2l4 -4q5 0 5 2zM184 594q-1 -1 -2.5 -2t-2.5 -2t-1 -2q2 -2 8 -4h19l-2 2h-10q0 3 -3.5 5.5t-5.5 2.5zM629 578q-2 0 -2 -3q0 -4 2 -4q0 -1 2 -1t2 1zM676 561q-2 0 -2 -3.5t2 -4.5q4 -4 8 -4q-2 0 -2 -6v-2 l2 -2l8 8q0 4 -2 4h-6q0 4 -2 6t-6 4zM682 506v-2q6 0 4 2v2zM586 485v-2q-2 0 -2 -6l2 -8q6 0 6 10q0 2 -1 4.5t-1 3.5zM614 395v-2h2q5 0 5 2h-7zM598 393v-4h2q2 2 0 4h-2zM602 385l-2 2q-2 -2 -4 -2q0 -8 2 -6zM641 371h-4l-2 -2l2 -2zM592 356l2 4q-4 2 -4 0v-2z M580 348q0 -4 2 -2q2 0 0 2q-1 3 -2 0zM575 340l5 8h-7q-2 0 -4.5 -1t-3.5 -2.5t0 -2.5l6 -6zM596 340q-3 3 -8 -2q-2 -4 2 -6q10 0 10 2q2 0 -2 4q-1 2 -2 2zM811 164q-6 0 -8 -2l-2 -8q8 0 8 2q5 5 2 8zM190 121q-3 3 -12 0q-3 -1 -9.5 -2t-8.5 -2l-10 -11q-2 -4 6 -12 q4 -4 14 -4q8 3 11.5 9t8.5 10q12 6 0 12zM246 102q-2 3 -6.5 3.5t-6.5 -3.5q-8 -4 0 -8q1 -3 6 -3t7 3q11 3 0 8zM782 47l-4 -2q-2 -2 -2 -4q2 0 2 2z" />
<glyph unicode="S" horiz-adv-x="899" d="M475 1499q134 0 224 -63.5t124 -175.5q10 -35 -10 -64t-57 -35l-66 -12q-51 -9 -80 45q-24 37 -60.5 56.5t-74.5 19.5q-52 0 -86.5 -35.5t-34.5 -87.5q0 -61 38.5 -123.5t111.5 -140.5q10 -10 14 -29q0 -12 11 -25.5t24 -13.5q23 -10 31 -18q114 -121 179.5 -229 t65.5 -224q0 -176 -94 -270t-274 -94q-165 0 -267.5 85t-134.5 230q-7 32 11.5 58t52.5 34l67 14q72 15 99 -67q20 -57 69 -94q9 -4 9 -15q0 -18 16 -20q2 0 10 8q33 0 68 -4q52 0 87.5 36t35.5 87q0 59 -26.5 117.5t-68.5 109t-93 101.5t-102 104t-93 108.5t-68.5 123.5 t-26.5 139q0 47 11 108q7 22 16 25l8 6l6.5 6.5t3 4.5t2 6.5t3.5 8.5q3 7 8 13.5t8 13.5q0 2 1 7.5t1 8.5q0 29 10 41q89 115 291 115zM250 1294q-7 -4 0 -14q8 -5 22 -2q7 1 9 6t-2 8q-15 10 -29 2zM227 1268q-5 6 -22 0q-4 -2 -6.5 -5.5t-3 -6t1.5 -3.5q4 -2 14 -2l4 -4 q27 0 31 6q0 6 -13 9q0 2 -6 6zM788 1245q-6 0 -8 -2t-2 -8l2 -6q4 -4 8 -4q3 0 7 4t4 6q0 4 -4 8q-5 2 -7 2zM324 938l-7 -4v-4h5q5 5 2 8zM381 911l-6 -8q0 -6 2 -6l6 2q0 -4 4 -6l8 -4q1 1 1 5t-1 5l-10 2q1 0 1 2.5t-1 3.5v2zM387 885q-4 0 -4 -11l4 -6h4v4q2 0 2.5 2 t-0.5 3q0 8 -6 8zM457 778l-2 4q-4 2 -6 0v-2l4 -4q4 0 4 2zM424 758q-2 0 -2 -2q0 -4 2 -4q0 -2 2 -2t2 2zM471 741q-1 0 -1 -3.5t1 -4.5q4 -4 8 -4q-2 0 -2 -6v-2l2 -2l8 8q0 4 -2 4h-6q0 4 -2 6t-6 4zM477 686v-2q6 0 4 2v2zM745 401l-8 5l4 -7q4 0 4 2zM700 385v2h-4 l-2 -2h6zM696 362l-2 3q-4 -1 -4 -3l2 -2h2zM190 309q-26 0 -26 -16q0 -5 8 -9.5t18 -4.5q7 0 14 4.5t7 9.5q0 16 -21 16z" />
<glyph unicode="T" horiz-adv-x="888" d="M109 1479h669q37 0 60.5 -23.5t23.5 -60.5v-62q0 -37 -23.5 -60.5t-60.5 -23.5h-129q-82 0 -82 -82v-8q0 -15 -10 -20q-12 -7 -12 -27q0 -6 2 -10v-2q20 -26 20 -66v-950q0 -37 -23.5 -60.5t-60.5 -23.5h-77q-37 0 -60.5 23.5t-23.5 60.5v1083q0 82 -82 82h-131 q-37 0 -60.5 23.5t-23.5 60.5v62q0 37 23.5 60.5t60.5 23.5zM729 1356q5 5 0 10q-3 3 -8 0q-2 -1 -5.5 -2t-4.5 -2q-4 -4 -6 -8q-2 -5 4 -11q2 -2 8 -2q4 2 6 6.5t6 8.5zM762 1343q6 3 0 9q-5 5 -8 0q-4 -4 0 -9q4 -4 8 0zM510 1108q-8 -3 -15.5 -10.5t-7.5 -12.5q0 -8 9 -8 q7 0 12 12q1 2 2 3q6 6 2 15q-1 2 -2 1zM383 1038q4 9 0 13q-9 3 -12 0q-1 -1 -2.5 -5t-2 -7t0.5 -3q1 -2 8.5 -1.5t7.5 3.5zM479 635q6 0 8 4l5 12q-4 4 -11 0q-12 0 -15 -5q0 -2 1 -3q10 -10 12 -8zM530 637q9 5 9 8l-9 -4q-6 0 -6 -4q0 -1 2 -1t4 1zM449 598q3 3 -3 4 l-2 -2q-2 -4 1 -4q2 0 4 2zM494 580q6 -2 8 0l6 6h-12q-4 -4 -2 -6zM383 578h-2q-3 2 -10 -5q1 -1 1.5 -3.5t1 -4t1.5 -0.5zM397 530l-4 7l-6 2q-1 -1 0.5 -6t3.5 -5h4zM379 498q2 2 2.5 6t-0.5 6t-3.5 6t-3.5 5.5t-1 0.5q-1 0 -1.5 -3.5t0.5 -8.5t3 -8q0 -3 1.5 -4.5 t2.5 0.5zM412 186q10 0 10 4q0 7 -10 7q-11 0 -11 -7q0 -4 11 -4zM502 70v12q-2 6 -4.5 9.5t-5.5 2.5q-1 0 -2 -1t-0.5 -3t2.5 -4zM434 70q2 2 -2 2l-10 -2q0 -5 2 -7q1 -2 3.5 -1t4.5 3.5t2 4.5zM528 63q4 4 -2 7q0 1 -8.5 0.5t-13.5 -2.5l-2 -5l-13 -8q-1 -1 -2.5 -2 t-2.5 -2t-1 -2q3 -2 9 -4h18l-2 2h-10q0 4 -2 4q12 0 14 2q10 0 4 6v4q10 -3 14 0zM492 55l4 -4l-7 2z" />
<glyph unicode="U" horiz-adv-x="1028" d="M745 1479h78q37 0 59.5 -22.5t22.5 -59.5v-455q0 -36 -24 -57l-4 -8l8 -29q0 -8 8 -12l1 -1q-2 1 -3 1q14 -8 14 -25v-483q0 -70 -25.5 -132t-73.5 -110.5t-123.5 -77t-168.5 -28.5q-124 0 -214.5 49.5t-133.5 127t-43 171.5v174q0 6 4 14l4 10q0 7 -4 15t-4 14v842 q0 36 24.5 59t61.5 23h78q37 0 59.5 -22.5t22.5 -59.5v-1043q0 -57 40 -100t105 -43q66 0 105.5 43t39.5 100v1043q0 36 24.5 59t61.5 23zM754 1376l-2 -2q-2 0 -2 -6t6 -12q6 3 6 14l-2 8zM834 1356q0 -6 2 -8t10 -2q-2 0 -2 -3t2 -4v-2l4 -2l6 8q0 7 -2 7l-6 -2q0 4 -4 6 q-1 0 -3.5 1t-4 1.5t-2.5 -0.5zM805 1317l-2 -4q0 -1 2.5 -1t3.5 1q4 0 4 2l-6 2h-2zM702 1290v4q-4 0 -6 -2q-4 0 -4 -8zM186 1276q0 -4 2 -4h2q-3 4 -4 4zM807 1270h-4l-2 -4l4 -2q4 2 4 4zM729 1264v-2l-2 -5l2 3v4zM829 1231q-1 1 -2 0t0 -2v-4q1 -1 4 -1t5 1q-6 6 -7 6 zM219 1221q-5 5 -8 0l-8 -7v-4h8h10q0 11 -2 11zM301 1202h-8q-9 -5 -6 -8t8 0l8 4q-2 2 -2 4zM190 1192q0 1 -2 1.5t-4.5 -0.5t-3.5 -3v-6q-4 0 -4 4q-2 2 -6 2q-2 -2 -1.5 -5t3.5 -3q0 -4 8 -4v-4q5 -3 10 2l5 14q-3 0 -5 2zM193 1135q-5 0 -8.5 -1t-0.5 -4q0 -6 9 -10 q1 -1 4.5 -0.5t3.5 2.5v6q-7 7 -8 7zM856 1096l-14 2l-8 -2q2 -7 10 -9zM180 1087v7l-4 -7h4zM805 1030q-10 0 -10 -6q0 -4 8 -4v-2q0 -19 6 -19h12l15 11l-4 4q-4 4 -9 4l-10 4l2 2q0 6 -10 6zM813 1022q-8 0 -10 -2q8 0 10 2zM250 1010q-1 0 -4.5 -3.5t-3.5 -5.5l-2 -8 l6 -2v2q4 0 4 6v11zM270 969l-6 -4l8 -4l2 2q0 2 -4 6zM705 956v-8q0 -8 2 -8q10 0 6 16h-8zM299 950l-2 -4l6 -2v2zM702 895l3 -2q0 -1 2.5 -2t5 -0.5t2.5 4.5h-13zM313 815q-6 0 -6 -4l8 -6q3 1 2 4q0 6 -4 6zM272 807h-2q0 -2 2 -4t4 0q3 0 3 2t-7 2zM242 725v-12h8l10 4 q0 3 -6 6q-5 3 -7.5 3.5t-4.5 -1.5zM254 686q0 8 -4 0q0 -2 3 -3q1 -1 1 1v2zM776 670v10l-12 -6v-4h12zM848 645l-6 -10q0 -6 2 -6h8q0 -5 4 -11h10q2 0 2 5t-2 6q-10 6 -10 0v16h-8zM256 635l2 4q0 1 -2 1t-2 -1h-2zM817 625v-7q2 0 3 2t1 4v1h-4zM856 614q0 -2 -2 -9 t-2 -11l4 -4l4 2l6 2v8q0 2 -4.5 6t-5.5 6zM272 596q-1 2 -5 1.5t-5 -3.5q-7 -4 -2 -6q1 0 4 -1.5t6 -2.5t4 0t0.5 2.5t-1 3.5t-1 3.5t-0.5 2.5zM307 575l-2 -8q1 -3 4 -2l2 4zM289 457q-3 2 -4 -2q2 -2 4 0v2zM207 303q-3 3 -12 0q-3 -1 -10 -2t-9 -2l-10 -10q-3 -4 6 -13 q4 -4 14 -4q8 3 12.5 9t8.5 10q12 6 0 12zM262 285q-2 3 -6 3.5t-6 -3.5q-3 -1 -3 -4t3 -5q2 -3 6 -3t6 3q12 3 0 9zM289 256l-2 -8l8 -6q2 2 2 4l-2 10h-6z" />
<glyph unicode="V" horiz-adv-x="1005" d="M827 1479h70q47 0 73 -33t15 -78l-123 -516q-4 -8 -8 -12l-4 -4q-24 -22 -30.5 -38.5t-1.5 -21.5l5 -6l4 -2q14 -7 11 -20l-162 -689q-6 -27 -27 -43t-49 -16h-194q-28 0 -49 16.5t-27 42.5l-307 1309q-11 45 15 78t73 33h69q28 0 49 -17t27 -43l223 -946q0 -8 4 -16 q-13 -40 -4 -43q7 -4 21.5 11.5t19.5 29.5q7 14 8 18l224 946q6 26 26.5 43t48.5 17zM199 1411q-9 3 -15 0q-11 -5 -12 -8q-4 -7 0 -14q1 -6 7 -10.5t9 -4.5q0 -2 -2 -4t-6 -10q-6 -12 10 -12q14 0 9 16l-4 10q7 2 12 12q4 11 2 15q-3 7 -10 10zM123 1354l-6 6 q-2 0 -2.5 -4.5t0.5 -7.5q4 -4 4 -7l4 2v3q3 3 0 8zM160 1243h2q2 0 2 6q-6 6 -8 4zM199 1233l-4 4l-5 -2zM215 1208q-4 4 -4 -2q-2 -2 -2 -6q4 -4 6 -2v10zM172 1206q-2 0 -2 -2q2 -4 4 -4l2 2v2q0 2 -4 2zM881 1196q-8 6 -11 -2q0 -18 2 -20q3 -1 8 2.5t7 7.5q0 9 -6 12z M227 1196h-8q-2 -6 -2 -10h4l8 4zM178 1178h4q2 0 2 2l-2 2zM756 1130q-4 0 -8 -4l-7 -14h13q11 1 14 6q-2 3 -6 7.5t-6 4.5zM786 1090l5 -11q1 -1 3.5 -1t2.5 1q0 4 -2 6zM854 1067q0 -5 2 -6q1 -3 4 0q-4 6 -6 6zM186 1026v12q-4 0 -8 -4q-3 0 -6 -3.5t-2 -6.5q4 -4 12 -4 q0 2 4 6zM190 1016l-4 2q-2 0 -2 -2t2 -4h2zM197 961q-2 2 -4.5 0t0.5 -3q4 -4 4 3zM289 948l-6 6q-5 0 -7 -2l3 -8q6 -2 10 -2q2 4 0 6zM213 940q-1 0 -3.5 -3t-2.5 -5q-3 -3 6 -8q6 -3 6 4q-1 1 -2 4t-2 5.5t-2 2.5zM268 885l-4 8q0 1 -2 1t-2 -1v-4zM254 827q-4 0 -4 -4 q8 0 4 4zM330 803l-4 2q-1 0 -5 -4t-4 -6v-7h9q0 -4 4 -8q1 0 3.5 -1.5t4.5 -2.5t2 0q2 0 2 4.5t-2 7.5q-5 5 -10 5q2 4 0 8v2zM297 717h-4q-4 -2 -4 -4l2 -2l4 2zM297 707h-2q-1 -1 -1 -4t1 -3q0 1 1 2t1 3v2zM362 631l5 8q0 1 -4.5 1t-4.5 -1q-3 -1 -3.5 -4t1.5 -4t4 -1 t2 1zM268 559q-4 4 -4 0q-9 -5 -6 -8l4 4q6 3 6 4zM590 152q-5 0 -10 -3.5t-5 -9.5q0 -10 15 -10q14 0 14 10q0 13 -14 13zM588 121q-8 -8 -8 -15q0 -10 6 -16q2 -2 16 -2q10 0 14 4q7 7 7 14q0 8 -9 13q-2 3 -12.5 4t-13.5 -2z" />
<glyph unicode="W" horiz-adv-x="1380" d="M1180 1479h71q44 0 70 -31.5t18 -75.5l-262 -1309q-6 -29 -26.5 -46t-51.5 -17h-137q-31 0 -53.5 18.5t-26.5 49.5l-75 526q-4 25 -19.5 35t-31 0t-19.5 -35l-78 -526q-4 -31 -26.5 -49.5t-53.5 -18.5h-137q-31 0 -51.5 17t-26.5 46l-176 883q0 4 2 4q32 34 36.5 50 t-17.5 24q-40 16 -50 57l-57 291q-8 44 18 75.5t70 31.5h72q30 0 51 -17t27 -47l149 -753q4 -19 14.5 -25.5t20.5 1t12 26.5l66 475q3 29 24 47q6 6 6 20q0 1 -3 14.5t-5 20.5q-7 18 -4 37l19 131q5 31 26.5 50.5t52.5 19.5h105q31 0 53 -19.5t27 -50.5l102 -745 q2 -19 12 -26.5t20.5 -1t14.5 25.5l23 116q7 26 18 49q8 11 10 25t-2 22q-5 13 -2 21l103 520q6 30 27 47t51 17zM166 1337q-6 0 -14 -8q-7 -7 -7 -12q0 -13 7 -17q2 -4 14 -4q10 0 14 4q6 6 6 17q0 6 -6 12q-8 8 -14 8zM670 1202v-2q0 -4 4 -4q6 4 6 6h-10zM709 1159h2l6 2 l-4 2zM698 1100q-2 -2 -4 -2q0 -2 2 -4q4 0 6 2v2q-2 2 -4 2zM680 1085q-3 3 -10 -4l-4 -6l4 -4l2 2q3 -3 6 2q4 8 2 10zM752 1055l-11 -2q-4 -4 0 -4q6 -3 7 -2q2 0 3.5 3.5t0.5 4.5zM754 1014l6 -10q2 0 4 2v8q-2 4 -4 4zM76 1012h4q17 -17 8 -45l-2 -2q-2 0 -2 2z M723 987v2h-2l-2 -4zM764 924q-2 0 -8 -6q-4 -4 -4 -11q0 -10 4 -14q0 -4 8 -4q4 0 8 4q4 8 4 14q0 3 -4 11q-6 6 -8 6zM748 815q-2 1 -6.5 0.5t-6.5 -2.5q-2 -1 -1.5 -4t3.5 -4q0 -3 1.5 -4t2.5 2zM764 788q-1 -2 -0.5 -4t2.5 -2q8 0 0 4zM748 711h-7l-10 -9q0 -4 8 -4 q1 -2 7 -2t6 2q-1 2 -1.5 5t-1 5.5t-1.5 2.5zM743 709q3 3 3 1q1 -3 -1 -3q-3 -1 -3.5 -0.5t1.5 2.5zM745 709v-4q0 -3 3 -1q2 1 2 3zM358 606q1 -1 0.5 -3t1.5 -3v-2q2 -2 5 2q0 3 -2.5 5.5t-4.5 0.5zM831 567l-6 -8q0 -4 2 -4q4 4 4 6v6zM1067 459v-2h4q2 0 2 2h-6z M1055 457q-4 0 -4 -2l2 -4q2 0 2 6zM1051 442l4 7q-1 1 -6 -3q0 -6 2 -4zM1096 434h-6l-3 -2q3 -2 5 -2zM1030 403l2 9q-4 0 -6 -2q-8 -1 -8 -4q7 -7 8 -7zM1049 403q-3 3 -9 -2q-3 -6 2 -6h13q0 2 -2.5 5t-3.5 3zM547 395l-8 -4l-7 -14h13q2 0 4.5 0.5l5 1t4 2t0.5 2.5 q-6 12 -12 12zM461 256q-8 5 -8 -2q0 -20 2 -21q1 -1 12 9q4 8 -6 14zM326 229l2 2q-6 -1 -6 -2q0 -4 4 0zM932 199l-6 -9q8 -8 18 -2l2 6t-0.5 8.5t-13.5 -3.5zM1014 176q-14 7 -30.5 5.5t-16.5 -11.5t10.5 -12t17.5 2q24 3 24 11q-2 3 -5 5zM367 150l6 -11q4 -4 4 0 q2 4 0 6z" />
<glyph unicode="X" horiz-adv-x="940" d="M766 1479h47q57 0 85 -43t3 -97l-248 -542l-4 -6q-7 -22 -28 -19q-5 0 -9 -4q-2 -2 -2 -8v-19q1 -2 2 -6t2 -6q16 -27 33 -41q4 -2 8 -10l246 -539q25 -54 -3 -96.5t-85 -42.5h-47q-49 0 -68 43l-200 440q-10 25 -26.5 25t-27.5 -25l-200 -440q-19 -43 -68 -43h-47 q-57 0 -85 42.5t-3 96.5l248 545q23 56 0 111l-168 366v10q3 7 8 9q1 0 2 0.5t3.5 2.5t3.5 4.5t-0.5 7t-6.5 9.5q-9 12 -18 21q-33 27 -47 61l-25 53q-25 54 3 97t85 43h47q49 0 68 -43l200 -441q11 -25 27.5 -25t26.5 25l200 441q19 43 68 43zM129 1413q-6 0 -14 -8 q-6 -6 -6 -12q0 -14 6 -17q2 -4 14 -4q10 0 14 4q7 7 7 17q0 5 -7 12q-8 8 -14 8zM774 1313l6 12q-5 5 -12 0q-3 2 -9 -1.5t-5 -6.5q1 -1 4 -3.5t5.5 -4t4.5 -0.5q4 0 6 4zM827 1319q-8 -2 -8 -4l-2 2l-6 -6q4 -4 8 0q8 5 8 8zM793 1300l6 -2q0 5 -6 2zM733 1274 q-3 -3 -2 -4t4 2q2 2 0 4q-1 1 -1.5 0.5t-0.5 -2.5zM797 1260h-13q-4 -4 -2 -7q5 -2 9 0zM209 1212h-4q-6 0 -6 -2q1 -2 1 -4v-3t1 -1zM260 1171v7l-4 -9zM309 1118q0 2 -1 0t-1 -4l-2 -6q2 -2 6 -2q0 10 -2 12zM270 1100h2l2 6zM322 1092l10 -7q2 5 2 9t-2 0l-8 2z M244 1077l2 -4l4 -2q0 -2 3 1q0 2 1 3q2 0 5.5 2t4.5 2q-2 2 -16 2zM309 1034v-6q0 -2 1 -2l1 2l2 4l-2 2h-2zM362 938q-8 0 -10 -8q0 -4 6 -4l5 1q7 0 8 1q-1 2 -9 10zM412 889q-1 -1 -3 -1t-3 -1q0 -1 2 -2q4 0 4 4zM449 750q0 2 -2 0q1 -2 2 -2q2 -2 2.5 -0.5t-2.5 2.5z M459 729v12q-1 -1 -3.5 -1t-4.5 -1q-11 -5 -11 -10q1 -2 4.5 -3.5t6 -1.5t2.5 1q2 0 6 4zM539 717q-5 2 -7 -2v-8l7 6q1 0 1 2t-1 2zM492 678v-4l4 4l-2 2zM510 561l-14 -6l-2 -4q4 -4 8 0q16 5 16 10v3q1 3 0.5 4.5t-2.5 0.5zM301 547h-4q-4 4 -8 -4q1 -1 1.5 -3.5t1 -4 t1.5 -0.5zM305 508q-3 -2 -0.5 -6t4.5 -4h4l2 2l-6 6q-6 6 -4 2zM289 492q0 -15 2 -21q3 -7 6 -4l1 3q1 3 1 6t-2 5zM719 479q-3 -6 0 -18q5 -8 18 -2q4 1 4.5 7t-2.5 9q-2 5 -8 6.5t-12 -2.5zM702 444q-3 4 -9 3.5t-9 -3.5q-5 -3 -7 -9t1 -9q4 -2 10 -2l4 -4q21 0 25 6 q0 7 -10 10q-1 4 -5 8zM348 432q-3 0 -2 -4l2 -2l10 -18v12q-2 6 -4.5 9.5t-5.5 2.5zM383 408q-1 1 -5 1t-10 -1t-8 -2l-3 -6l1 1q0 -2 -12 -8q-1 -1 -2.5 -2t-2.5 -2t-1 -2q2 -2 8 -4h17l-3 2h-10v4q11 0 15 2q7 0 4 6v4q11 -3 14 0q4 4 -2 7zM369 401h-11l11 5v-5z M348 393l4 -4l-6 2zM238 229l-25 -8q-6 -4 0 -12l2 -4q23 12 25 16q2 8 -2 8zM94 121q-5 2 -12 0q-2 -1 -6.5 -2t-5.5 -2t-4.5 -5.5t-4.5 -7.5q-3 -7 7 -12q2 -2 10 -2q5 2 7.5 7.5t8.5 11.5t0 12zM135 102q-7 8 -10 0q-1 -2 -1 -5t1 -5t5 -2t5 2q4 2 3.5 5t-3.5 5z" />
<glyph unicode="Y" horiz-adv-x="917" d="M754 1479h47q57 0 84 -43t2 -97l-189 -415q-7 -11 -14 -13l-8 -8q-24 -22 -30.5 -38t-1.5 -21l5 -6q8 -4 4 -13l-49 -104q-22 -51 -22 -103v-532q0 -37 -23 -61.5t-59 -24.5h-78q-37 0 -61.5 24.5t-24.5 61.5v412q0 4 4 12q6 12 6 18l8 33l1 1q0 1 -3 1q-16 6 -16 25v30 q0 48 -23 101l-280 620q-25 54 3 97t85 43h47q49 0 68 -43l198 -435q10 -25 26.5 -25t26.5 25l199 435q19 43 68 43zM143 1327q-3 3 -12 0q-3 -1 -9.5 -3.5t-8.5 -4.5q-5 -2 -11 -12q-1 -5 -0.5 -7.5t4 -6.5t3.5 -5q4 -4 14 -4q6 4 8.5 6.5t4.5 8t7 10.5q9 9 0 18zM199 1303 q-2 3 -6.5 3.5t-6.5 -3.5q-8 -7 0 -15q2 -3 7 -3t6 3q10 5 0 15zM182 1174l2 -5q-2 -2 2 -6q8 -4 13 -4q2 3 0 8.5t-6 6.5l-7 4zM209 1075l-4 2l-4 -4q0 -2 2.5 -5t3.5 -3zM246 1075l2 -6l2 4l-2 2h-2zM397 961h-6l-8 -5q0 -6 8 -6l8 6q2 -4 4 -4l3 -2l2 2v13l-5 2zM393 909 l-2 -2l2 -4q2 2 2 4l2 4zM426 877l-2 -5l2 -4v2q1 1 2 4zM469 866l-2 -4q4 -4 6 -4l4 4q-1 1 -4 2t-4 2zM516 776v-6h2l2 6h-4zM492 772h-3q-2 0 -4 -4q0 -5 4 -6zM459 717q0 -4 6 -10q2 -1 3.5 -2t2.5 -2t2 -1l2 5l-2 2q0 4 -4 6q-2 2 -10 2zM498 705v4h-2q-2 -2 -2 -4h4z M543 592q-15 0 -11 -19q1 -5 4 -8.5t6 -4.5l3 -1l-4 -8q-3 -10 4 -10q5 0 6.5 2t0.5 8t-1 8q1 3 5.5 7t4.5 7q0 19 -18 19zM526 588q4 -8 6 -10q5 0 3 2q3 6 0 6q-5 6 -9 2zM498 580q0 2 -2 2t-4 -2h-3q0 -2 3 -2q2 -2 4 0q2 0 2 2zM543 555l-8 -2q-3 0 -3 -6l9 -2q4 6 4 8 t-2 2zM504 485q-2 -2 0 -4h2q2 3 -2 4zM483 354q-8 0 -4 -4l10 -10q2 0 3 4.5t0 5.5q0 3 -4 4.5t-5 -0.5zM471 328q-3 0 -3 -1t3 -1q2 -2 2 2h-2zM532 190h-8l-2 -4q4 -2 6 -2zM461 162q-2 -2 -2.5 -6t0.5 -6q1 0 3 -1.5t3 -1.5l12 3q0 4 -6 8q0 2 -4.5 4.5t-5.5 -0.5z M477 88l-2 4l-2 -4v-2z" />
<glyph unicode="Z" horiz-adv-x="921" d="M475 498l-104 -219q-11 -22 -3 -36t31 -14h351q37 0 59 -22.5t22 -59.5v-61q0 -37 -22.5 -61.5t-58.5 -24.5h-574q-37 0 -61.5 24.5t-24.5 61.5v152q0 12 6 24l31 64q18 38 53 59q4 4 4 12q-3 37 17 78l340 701q5 10 18 14q2 4 2 10q0 4 -1 11.5t-1 11.5q0 26 -33 26 h-350q-37 0 -61.5 24.5t-24.5 61.5v62q0 36 24.5 59t61.5 23h574q37 0 59 -22.5t22 -59.5v-152q0 -16 -6 -28l-256 -527q-20 -41 -55 -61q-7 -5 -14 -19q-8 -24 -8 -51q0 -30 -17 -61zM758 1421q-22 0 -15 -24q2 -5 6 -9.5t7 -5.5l4 -2l-6 -10q-6 -14 6 -14q5 0 7 2.5t2 5.5 t-0.5 8.5t-0.5 7.5q1 2 7.5 8t6.5 9q0 24 -24 24zM270 1399l6 12q-5 5 -12 0q-4 0 -9.5 -2.5t-4.5 -5.5q5 -10 14 -10l2 2q3 2 4 4zM291 1386l-2 -2h6q0 6 -4 2zM231 1358q2 2 -0.5 4t-3.5 -2q-2 -3 -0.5 -4t4.5 2zM426 1346h-12q-4 -4 -2 -7q4 -2 6 0zM725 1161 q-6 -6 -2 -8l12 4v2q0 2 -10 2zM713 1126q-3 0 -4.5 -4t0.5 -6l2 -2l4 -2v10q-1 4 -2 4zM676 1110q0 -8 2 -8l3 2q3 2 4.5 4t0.5 4l4 14q-3 0 -14 -16zM618 1069h-2q0 -3 6 -4.5t9 0.5q4 0 0 4q-8 4 -10 4q-3 0 -3 -4zM571 934l-2 2q-1 2 -4 -4q1 -1 0 -5l2 -1zM600 922 l-4 2v-6zM518 899q-2 0 -2 -10l4 -6h4v2q3 2 -2 12zM549 872l-4 5q-4 -1 -4 -3l4 -2v-2zM475 768q-2 -2 0 -2q0 -2 4 -6q2 0 2 2t-4 6h-2zM510 756q0 -9 -2 -11l6 -2q5 5 2 7q-1 1 -2 3t-2 3t-2 0zM498 721q-2 1 -2 -1t2 -5l4 -2l8 2q-2 4 -4 4zM440 678q-2 0 -3 -1t1 -3z M289 563q-1 0 -2 -1t-0.5 -3t2.5 -4l10 -16v12q-2 6 -4.5 9.5t-5.5 2.5zM326 532q0 6 -2 7q-19 0 -23 -2l-4 -5l-10 -10q0 -2 7.5 -2t12.5 2q7 0 4 6l-2 4q14 -3 17 0zM299 532h-2h2zM336 410h8q2 2 6 4.5t7 4.5t3 3q-1 1 -1 6l-1 2l-6 -8l-14 -6zM309 143q6 3 6 13 q0 4 -6 10t-12 6l-12 -6q-6 -6 -6 -10q0 -10 6 -13q2 -4 12 -4q12 0 12 4z" />
<glyph unicode="[" horiz-adv-x="579" d="M158 1479h303q61 0 61 -54q0 -53 -61 -53h-119q-63 0 -63 -59v-74q0 -12 -5 -22l-2 -5q-5 -9 -5.5 -28.5t3.5 -28.5q9 -12 9 -29v-1112q0 -29 17 -46t46 -17h119q61 0 61 -53q0 -54 -61 -54h-303q-40 0 -62 22t-22 62v570q0 17 10 30q4 8 6.5 30t-2.5 42q-14 35 -14 64 v735q0 80 84 80zM260 1423l-8 -8l-19 -4l-4 -4q2 -2 11 -2q20 7 20 10q0 1 1 3q0 5 -1 5zM195 1423l-9 -6q0 -2 -2.5 -5.5t-4.5 -6.5t-1 -4q0 -1 4.5 0t9.5 3.5t7 4.5q9 5 2 8zM170 1395q-1 -1 -2.5 -2t-2.5 -2t-1 -2q2 -3 8 -5h18l-2 2h-10q0 3 -3 6t-5 3zM158 1307 q-2 6 -6 0q-5 -4 -7 -8t-1 -5l1 -2q3 -2 7 -2.5t4 0.5q2 2 2.5 8t-0.5 9zM123 1237q-2 0 -2 -2q18 -14 21 -21.5t-3 -31.5h2q29 30 24.5 39.5t-42.5 15.5zM160 338q-6 0 -6 -4h4q2 0 2 4zM166 332q-2 0 -10 -8q-2 -3 -2.5 -8t0.5 -5l16 -6l16 -4q0 -2 2 -2l2 2h3l2 2 q-5 6 -9 10l-6.5 6.5t-8 8.5t-5.5 4zM160 244l4 -2q1 -1 4 -2.5t5.5 -2t2.5 0.5l-4 4q-8 4 -10 4zM178 223l4 -2q4 0 2 2l-6 2v-2zM178 70l-8 -4q-3 0 -2.5 -3.5t2.5 -5.5q0 -3 3.5 -4.5t6.5 0.5q9 9 -2 17zM236 61l2 5q-6 -1 -7 -3zM225 45h-16q-8 0 -8 -4t4 -12t16 0 q9 5 7 13q0 3 -3 3z" />
<glyph unicode="\" horiz-adv-x="546" d="M33 1499h53q71 0 92 -67l158 -529q9 -34 6 -69q-4 -37 12 -37q4 1 9.5 -2.5t7.5 -8.5l213 -714q13 -43 -5.5 -67.5t-62.5 -24.5h-53q-71 0 -92 67l-408 1360q-12 43 7 67.5t63 24.5zM109 1460q-5 0 -9 -4q0 -1 -1 -3t-1 -3q0 -6 2 -8t9 -2q1 0 3 1t3 1q2 2 2 8q0 4 -2 6 q-4 4 -6 4zM25 1432q-6 0 -15 -9q-6 -6 -6 -12q0 -13 6 -16q2 -4 15 -4q10 0 14 4q6 6 6 16q0 6 -6 12q-9 9 -14 9zM326 836q-4 -4 0 -11q3 -6 12 -2q3 1 3.5 5.5t-1.5 5.5q-2 4 -6.5 5t-7.5 -3zM315 813q-3 9 -12 0q-9 -5 -4 -10q2 -2 6 -2l2 -2q15 0 17 4q0 3 -7 6 q0 2 -2 4z" />
<glyph unicode="]" horiz-adv-x="575" d="M244 1479h178q80 0 80 -82v-1440q0 -6 -6 -6q-9 -1 -12 -27.5t5 -36.5q3 -9 -2 -16q-24 -27 -65 -27h-303q-62 0 -62 54q0 53 62 53h119q59 0 59 61v1299q0 61 -59 61h-119q-62 0 -62 53q0 54 62 54q19 0 22 -17l6 -8q15 -9 29 -11t19 5q17 31 49 31zM348 1448l-8 -8 l-18 -4l-5 -4q2 -2 11 -2q20 7 20 10q0 1 1 3q0 5 -1 5zM283 1448l-9 -6q0 -2 -2.5 -5.5t-4.5 -7t-1 -4.5q0 -1 4.5 0.5t9.5 4t7 4.5q9 4 2 8zM258 1419q-1 -1 -2.5 -2t-2.5 -2t-1 -2q2 -2 8 -4h19l-3 2h-10q0 3 -3 5.5t-5 2.5zM399 1380q-6 0 -6 -4h4q2 0 2 4zM406 1374 q-3 0 -11 -8q-2 -3 -2.5 -7.5t0.5 -4.5l17 -6l16 -5q0 -2 2 -2l2 2h2l2 3q-4 6 -8 10l-6.5 6.5l-8 8t-5.5 3.5zM399 1286l4 -2q1 -1 4.5 -2.5t6 -2t2.5 0.5l-4 4q-9 4 -11 4zM418 1266l4 -2q4 0 2 2l-6 2v-2zM377 1139l-8 -4q-3 0 -2.5 -3.5t2.5 -5.5q0 -3 3.5 -4.5t6.5 0.5 q9 9 -2 17zM434 1130l2 5l-7 -2h1zM424 1114h-16q-9 0 -9 -4t4 -12t17 0q9 5 7 13q0 3 -3 3zM418 -37l-4 -2q0 -2 4 -2q2 0 2 2t-2 2zM442 -57q-20 0 -20 -11q0 -4 6 -8t14 -4q17 0 17 12q0 11 -17 11zM408 -74q-11 0 -11 -6q0 -4 11 -4q10 0 10 4q0 6 -10 6z" />
<glyph unicode="^" horiz-adv-x="1224" d="M547 1479h110q68 0 97 -62l358 -749q20 -43 3 -70t-64 -27h-72q-67 0 -96 62l-281 618l-262 -616q-27 -64 -94 -64h-72q-47 0 -64.5 27t1.5 70l340 749q29 62 96 62zM541 1413l-2 -4l2 -2v2q1 0 1 2t-1 2zM522 1362l4 -2q3 0 1 4q-1 1 -3 2zM510 1354q-6 -2 -6 -4l-4 -2 q0 -8 4 0zM573 1323l-2 2q-4 0 -4 -4l2 -2l2 2zM504 1294q0 -2 2 -2q6 -6 6 -2q-2 2 -4 2q-2 2 -4 2zM723 1145l-2 -2q-2 0 -4 -4q-2 -2 -2 -11q3 0 6.5 3t3.5 6q2 2 2 8h-4zM791 1102v4h-5q-1 0 -3.5 -4t-2.5 -6q0 -6 2 -6l6 2q0 -4 5 -7l10 -4q0 11 -2 13l-10 2q2 4 0 6z M772 1071q-5 -5 -2 -10q0 -3 1 -4t3 0q10 10 10 12q-2 2 -12 2zM778 1055v-4l2 -2q0 -2 6 -2q3 -1 7 -0.5t4 2.5t-4 4t-7 2h-8zM887 979q0 1 -4 1t-4 -1q-5 -5 -2 -8q1 -1 3.5 -1t2.5 1q3 1 4 8zM911 834q-3 0 -6 -3l-6 -10q0 -6 8 -2q13 0 13 4q-6 11 -9 11zM983 780l-6 -4 q0 -6 2 -6h6q2 6 4 8q-4 2 -6 2zM961 750l-3 -7l3 -4l4 4zM942 723l4 2q2 0 0.5 1.5t-4.5 0.5v-4zM1006 719l-9 -6q0 -2 4 -3.5t5 -0.5q6 0 6 6q-4 4 -6 4zM180 680q-3 2 -13 -0.5t-13 -5.5q-4 -8 -4 -15q4 -12 8 -14q2 -2 5 -2t6.5 1t4.5 1q10 3 12 8q6 6 2 15q0 8 -8 12z M1032 678l4 -10h6q0 2 -1 3.5t-1 2.5zM920 668q0 3 -2 3t-3 -3q0 -3 4 -2q2 0 1 2z" />
<glyph unicode="_" horiz-adv-x="1024" d="M41 -154h942q41 0 41 -41v-20q0 -41 -41 -41h-942q-41 0 -41 41v20q0 41 41 41z" />
<glyph unicode="`" horiz-adv-x="354" d="M80 1520h72q65 0 98 -58l86 -149q19 -32 6.5 -53t-49.5 -21h-43q-43 0 -76 33l-139 147q-37 40 -23.5 70.5t68.5 30.5zM256 1376q-6 0 -14 -8q-6 -6 -6 -12q0 -14 6 -17q2 -4 14 -4q10 0 14 4q6 6 6 17q0 6 -6 12q-8 8 -14 8z" />
<glyph unicode="a" horiz-adv-x="964" d="M492 1122q99 0 182.5 -42t130.5 -117q9 -14 6 -17q-6 -6 -6 -12q0 -13 6 -16l2 -5q21 -6 25 -16q14 -54 14 -96v-594q0 -51 6 -119q5 -42 -14 -65t-60 -23h-82q-23 0 -38 20.5t-24 41t-19 20.5q-6 0 -26 -16t-44.5 -35t-68 -35t-91.5 -16q-144 0 -232.5 72t-88.5 218 q0 69 20 126.5t51.5 96.5t76.5 69t89.5 47t96.5 28.5t90.5 15.5t78.5 6q41 0 41 43q-3 119 -31 174.5t-96 55.5q-99 0 -127 -103q-11 -38 -31 -56.5t-55 -18.5h-65q-42 0 -64 22.5t-16 63.5q25 138 123 210t240 72zM684 991q-1 -1 -6 -0.5t-10 -1.5q0 -2 4 -6l-2 -6 q1 0 3 -2h3q11 11 8 16zM608 973l4 2l-4 2v-4zM705 924l4 -6l4 6q-3 5 -6 2zM242 901v-6h2l2 6h-4zM215 897l-2 2q-4 0 -4 -6l2 -2q3 -5 4 -2v8zM184 842q-1 -1 1 -5t5 -6l7 -4l2 4l-2 3q2 2 -2 6q-4 2 -11 2zM223 831v3h-4q-2 -3 -2 -5h4zM772 655q-6 0 -6 -10q7 -7 12 -4 q2 0 6 4.5t4 5.5q-2 2 -8 4t-8 0zM676 588l-4 -4q-2 -2 1.5 -2.5t4.5 2.5l2 2zM719 522l-6 -4q-3 0 -5 -2t1 -2q1 -2 5.5 -0.5t4.5 4.5l2 2zM584 471h-31q-129 0 -201.5 -39.5t-72.5 -122.5q0 -64 38.5 -101.5t92.5 -37.5q84 0 139.5 68t62.5 190q3 43 -28 43zM756 451 l-19 -7l13 -2q14 0 14 7q0 5 -8 2zM166 369q0 -2 2 -6t2 -5l4 2q0 7 -2 7q0 2 -2 2.5t-4 -0.5zM129 362v-2v-2q3 -3 6 0q2 0 0 2q0 2 -6 2zM731 340q-8 0 -4 -4q10 -10 12 -10t2 10q-4 7 -10 4zM172 334v-6l6 -2l6 8q-2 2 -4 2zM719 313q-2 0 -2 -1l2 -1q2 0 2 3zM143 266 q-2 -2 0 -4h2q0 6 -2 4zM727 203q0 -8 2 -10l10 -3q-2 -4 0 -6v-2h4q1 0 9 8l-2 5h-9q0 2 -4 4q-7 6 -10 4zM180 168q-5 2 -10 0l-5 -2.5t-4.5 -2.5t-2.5 -3q-4 -2 -8 -13q-2 -7 4 -18q4 -4 10 -4q5 4 8.5 11.5t7.5 13.5q4 9 0 18zM698 162v-2q0 -2 4 -2l5 2l-5 2h-4z M219 143q-2 3 -5 3.5t-5 -3.5q-3 -7 0 -14q1 -3 5 -3t5 3q5 5 0 14zM696 113l2 -2q4 2 4 4q0 1 -2 2zM723 78l-2 -2q0 -4 2 -4q0 -2 2.5 -2.5t3.5 0.5q-2 4 -6 8z" />
<glyph unicode="b" horiz-adv-x="978" d="M195 1479h73q80 0 80 -82v-385q41 47 101.5 78.5t128.5 31.5q202 0 270 -272q6 -26 -10 -49q-12 -16 -14 -27.5t2 -15.5l3 -4l11 -6q31 -14 34 -46q7 -96 7 -163q0 -51 -3.5 -100.5t-12.5 -106t-23.5 -105.5t-38.5 -95.5t-54.5 -79.5t-74.5 -52.5t-96 -19.5 q-70 0 -134 35.5t-96 76.5v-10q0 -82 -80 -82h-73q-40 0 -62 21t-22 61v1071q0 6 4 14t6.5 27.5t-0.5 36.5q-2 0 -2 2q-8 11 -8 29v135q0 40 22 61t62 21zM193 1366q-11 0 -11 -12q0 -13 11 -13q10 0 10 13q0 12 -10 12zM162 1331v-4l4 -4l4 2l-2 6h-6zM137 1305h-2 q0 -7 2 -7q4 -2 4 0zM190 1284l-6 6q-2 -2 -2 -5t2 -5l6 -4v-4l3 -4l8 8q0 4 -2 4h-6q-1 2 -3 4zM190 1233v-2q2 0 4 1.5t1 2.5v2zM244 1137l2 6q-1 -1 -2 -1q-2 -1 -2 -3t2 -2zM143 1098l2 -2l5 2l-5 2zM215 1077q-5 3 -8 0l-2 -8q1 -1 4.5 -1t3.5 1q2 2 2 8zM186 963 l-4 -5l-2 -2h2zM498 932q-67 0 -99.5 -49t-42.5 -142q0 -2 -1 -4.5t-1 -3.5q-8 -14 -16.5 -43t-1.5 -33q14 -8 14 -24v-86q0 -59 1.5 -99t6 -87.5t14.5 -78t26 -57.5t41 -40t59 -13t59 13t41 40.5t25.5 57t14 78t6 87.5t1.5 99q0 63 -1.5 104t-6 90.5t-14 79.5t-25.5 58 t-41 40.5t-59 12.5zM268 854v-4h2l4 6zM244 852h-2q-4 0 -4 -6q1 -1 2 -3l2 -1zM211 797q0 -7 6 -13q4 -2 8 -2l2 4l-2 2q0 3 -4 5q-4 4 -10 4zM252 784l-2 2h-2l-2 -2h6zM287 666q-1 2 -3.5 2t-2.5 -2q0 -9 4 -9h4q0 7 -2 9zM244 659l-2 -2q0 -2 2 -2h4l2 2q0 2 -6 2z M299 631l-4 4l-8 -4q-1 0 -1 -2t1 -2l6 -2zM258 565q-4 -4 0 -4v-2q2 1 2 3.5t-2 2.5zM236 432q-5 0 -6 -2l1 -2q10 -10 11 -10q3 1 3.5 6t-1.5 6q0 6 -8 2zM223 408q-3 -2 -3 -3.5t3 -1.5t2 4zM285 268h-9q-2 -2 -2 -4q5 -2 7 -2zM213 242q-2 -3 -2.5 -8t0.5 -5q4 -4 6 -4 l12 2q0 5 -6 9q0 2 -4.5 4.5t-5.5 1.5zM229 166l-2 4q0 2 -1 0t-1 -4v-2zM588 115l-6 -9q8 -8 18 -2l2 6t-0.5 8.5t-13.5 -3.5zM670 92q-14 7 -30.5 5.5t-16.5 -11.5t10.5 -12t17.5 2q24 3 24 11q0 3 -5 5z" />
<glyph unicode="c" horiz-adv-x="946" d="M487 1120q79 0 144 -26.5t107 -71.5t68.5 -96.5t39.5 -110.5q7 -39 -14.5 -62.5t-63.5 -23.5h-63q-56 0 -76 45q1 6 1 13t-0.5 11.5t-1.5 8.5l-1 4q-1 4 0 13.5t0 17.5q-3 8 -23.5 26t-23.5 21q-33 41 -91 41q-90 0 -121.5 -89t-31.5 -286q0 -71 1.5 -114.5t6 -93 t14 -77.5t25.5 -53.5t41 -36t59 -10.5q103 0 133 117q11 38 31.5 56.5t57.5 18.5h61q43 0 62.5 -23.5t11.5 -64.5q-12 -64 -33 -112.5t-60 -92t-104.5 -66.5t-155.5 -23q-106 0 -182 40t-121 117t-65.5 179.5t-20.5 238.5q0 176 40 300t128 194.5t221 70.5zM465 1049 q1 2 -2 1q-6 -1 -12 -1v-7l2 -4l2 2q2 -2 2.5 -1.5t-0.5 3.5q8 -3 8 7zM485 1030l-2 -4h9q4 4 2 8zM596 1018l2 -2l6 2l-6 4zM393 1008v6q-6 -6 -2 -10h4q0 1 2 2zM270 977q2 -2 2 -8l2 4q1 1 -1 2q-1 1 -1.5 1t-1.5 1zM625 967q-1 1 -2.5 -1.5t-1.5 -4.5q-4 4 -9 4v-2 l-6 -5q1 -1 4 -2.5t5 -3.5t1 -4q1 1 3 1t3.5 0.5t0.5 2.5l2 4q0 2 6 5l8 4q-3 4 -8 4.5t-6 -2.5zM565 958l-4 -4l6 -2q6 6 4 6h-6zM289 956q-2 -2 -2.5 -5.5t-1.5 -4.5h4q2 2 8 2q-8 4 -8 8zM305 952l-2 -6q2 -8 4 -8t2 4l2 6l-1 1zM350 932l-2 -8q0 -2 2 -2q4 0 0 4v6z M205 899q-14 0 -10 -25q1 -5 4 -9t5 -5l3 -2l-4 -10q-3 -14 4 -14q5 0 6.5 3t0.5 11t-1 10q1 3 5.5 8t4.5 8q0 25 -18 25zM201 723l-6 -2q-3 0 2 -3l4 -1v6zM141 555q5 -5 6 -4l3 1v1q-1 3 -4.5 3.5t-4.5 -1.5zM199 524l-2 2q-1 2 -5 0.5t-4 -4.5l2 -2h7zM297 477 q-1 2 -8.5 0.5t-7.5 -4.5q-6 -6 0 -12q9 -3 12 2zM141 426v-8l2 -7v1q3 0 4.5 5t-0.5 7l-2 2h-4zM190 414q-3 0 -6 -6l-2 -15q9 0 13 4q7 0 11 8q1 2 -1 3q-1 3 -7 5.5t-8 0.5zM231 389q-4 0 -6 -2v-10l8 8q2 3 -2 4zM293 383q-6 -4 -4 -6q4 -2 6 2v2q2 2 -2 2zM164 371 l2 -11q2 -8 3.5 -11.5t4.5 -2.5q1 0 2 1t0.5 3t-2.5 4zM760 287q-3 0 -15 -6q-6 -6 -6 -11q0 -11 6 -14q2 -4 15 -4q10 0 14 4q6 6 6 14q0 5 -6 11q-12 6 -14 6z" />
<glyph unicode="d" horiz-adv-x="978" d="M715 1479h73q80 0 80 -80v-598q0 -6 -4 -6q-2 -2 -6 -2q-4 -1 -4 -7t2 -12t0 -12q-8 -17 6 -31q6 -3 6 -8v-639q0 -84 -80 -84h-73q-29 0 -47.5 13t-23.5 28t-8 28t-5 13q-6 0 -45 -33q-93 -69 -185 -69q-72 0 -128 38t-88 95.5t-52.5 136t-27.5 148.5t-7 143q0 88 8 166 t29 156.5t54 134.5t87.5 91t124.5 35q100 0 183 -65q20 -17 33.5 -11.5t13.5 31.5v320q0 80 84 80zM819 1298q-8 3 -14 0q-11 -5 -12 -8q-3 -7 0 -14q1 -5 6.5 -9.5t9.5 -4.5q0 -3 -2 -5t-6 -10q-6 -12 10 -12q13 0 8 16l-4 11q7 2 12 12q4 11 2 14q-3 7 -10 10zM303 1008 q-24 -16 -24 -19q0 -4 8 -7t14 -3q13 6 10 18q2 8 0 10t-8 1zM328 1001q-2 -1 -1 -3.5t5 -2.5h2q-4 6 -6 6zM276 985l-4 2q-2 2 -6 -0.5t-4 -5.5l2 -4l8 2zM485 934q-73 0 -105 -58t-40 -169q0 -5 -4 -13q-8 -4 -12 -2q-11 0 -17 2h-2v-2q0 -14 2 -30q31 -88 31 -113 q0 -60 1.5 -99t6 -87.5t14 -78t25.5 -57t41 -40.5t59 -13t59 13t41 40t26 57.5t14.5 78t6 87.5t1.5 99q0 63 -1.5 104t-6 90.5t-14.5 80t-26 58t-41 40t-59 12.5zM303 928q-1 2 -3.5 0.5t-2.5 -4.5q-2 -2 -3.5 -5.5t-1.5 -6.5t1 -3q6 7 6 9l2 2q5 5 2 8zM266 907 q-2 2 -10 -0.5t-8 -5.5q-7 -7 0 -14q10 -3 14 4q1 1 2.5 5t2 7t-0.5 4zM713 678q-2 0 -2 -4q0 -3 2 -5t2 1q2 2 -2 8zM748 633q0 -8 2 -10l12 -11l-6 19q-1 3 -4 3.5t-4 -1.5zM762 608q-6 -12 -2 -20q8 -4 10 -4l18 2q0 8 -8 14q-2 4 -9.5 8t-8.5 0zM754 451q-6 3 -6 0 q-2 -2 -3 -5q0 -2 3.5 -2.5t5.5 0.5l2 5q0 4 -2 2zM801 287l-2 -4h10q10 1 8 2q0 3 -3.5 4.5t-7 1.5t-3.5 -2zM186 291q-14 0 -14 -12q0 -4 4.5 -7.5t9.5 -3.5t10 3.5t5 7.5q0 12 -15 12zM793 272q-6 6 -11 -2l-16 -12l12 2q7 1 12 5t3 7zM184 260q-8 -8 -8 -14q0 -11 6 -17 q2 -2 17 -2q10 0 14 4q6 6 6 15q0 8 -8 12q-2 3 -13 4t-14 -2zM797 221l2 -8q2 -5 6 2q1 3 0 6l-2 2z" />
<glyph unicode="e" horiz-adv-x="956" d="M487 1120q76 0 137.5 -25.5t99.5 -64.5t65.5 -93t40.5 -103.5t20 -104.5q8 -57 8 -129v-51q-3 -80 -86 -80h-352q-41 0 -63 -22t-19 -62q9 -99 42.5 -157t108.5 -58q107 0 134 117q18 75 86 75h55q42 0 62.5 -23.5t13.5 -64.5q-24 -152 -105 -223t-248 -71 q-106 0 -182 40t-121 117t-65.5 179.5t-20.5 238.5q0 176 40 300t128 194.5t221 70.5zM530 1063q-8 0 -8 -4q6 0 6 2zM623 1026l2 -2q4 -4 12 0q0 2 1 6q-1 6 -3 6zM502 1026h-13q-3 -3 -2 -6v-10q7 0 9 4q3 2 6 6.5t0 5.5zM559 1024l2 -2q1 3 0 4t-2 -2zM559 1018h-2l-2 -4 h2l4 2zM336 1014l2 -4q5 0 2 6zM631 1004l14 2q3 1 2 4l-8 2zM600 1008q-4 -5 -4 -7h-2q-4 -4 -4 -6q4 -2 6 2q2 1 3.5 4t1.5 5t-1 2zM498 1006q-4 4 -9 -2q0 -6 3 -9h10q-2 11 -4 11zM659 985q-4 1 -6 -6q3 -5 6 -2q3 0 3 4q1 1 0 2.5t-3 1.5zM575 969l-2 -8q0 -8 5 -3 q4 4 2 5q0 6 -5 6zM616 944l-2 2q0 -1 -2 -3v-1q4 -4 4 2zM762 934v-4h6q-1 0 -1 1q-1 2 -3 1zM489 930q-133 0 -149 -187q-4 -40 17 -62t63 -22h129q40 0 62 22.5t18 61.5q-19 187 -140 187zM207 893q0 -8 6 -2h2q-1 2 -3 3t-3.5 0.5t-1.5 -1.5zM264 862l-4 2 q-2 2 -4.5 0.5t-1.5 -4.5q0 -1 2 -2h4zM225 743q-14 0 -14 -12q0 -10 14 -10q15 0 15 10q0 12 -15 12zM223 713q-8 -8 -8 -15q0 -10 6 -16q2 -2 17 -2q10 0 14 4q6 6 6 14q0 9 -8 13q-2 3 -13 4t-14 -2zM766 627q-2 2 -9 0.5t-7 -4.5q-2 -1 -1.5 -5.5t3.5 -7.5q9 -4 12 2 q0 1 1 5t1.5 6.5t-0.5 3.5zM575 608h-6q-2 -2 -0.5 -4t4.5 -2h2v6zM612 575v-8q1 -7 2 -6q3 0 3.5 5.5t-1.5 6.5l-2 2h-2zM662 563q-7 0 -7 -6l-2 -14q8 0 11 4q8 0 12 8q1 1 0 2q-10 10 -14 6zM702 539q-6 0 -6 -2l-2 -11l11 9q-1 3 -3 4zM762 532q-2 -2 -3.5 -4t-0.5 -2 q5 0 6 2l2 2q0 2 -4 2zM635 520v-10q3 -14 10 -14q4 4 0 8zM248 514q-8 -6 -8 -8q-3 -12 0 -12q2 2 6.5 3t8 2t3.5 3q2 2 0 3.5t-5.5 4t-4.5 4.5zM227 473q-7 10 -10 0l-4 -12q14 0 14 2q3 7 0 10zM227 215l4 12q-1 0 -2 0.5t-3 0.5t-5 -1q-10 -1 -14 -6l12 -10q1 1 3 1.5 t3.5 1t1.5 1.5zM264 213l10 8q-8 0 -8 -6h-2q-4 0 -4 -2q4 -2 4 0zM719 156q-5 0 -14 -9q-7 -7 -7 -12q0 -13 7 -16q2 -4 14 -4q10 0 14 4q6 6 6 16q0 6 -6 12q-9 9 -14 9z" />
<glyph unicode="f" horiz-adv-x="653" d="M434 1479h94q82 0 82 -82v-25q0 -76 -37 -82q-10 0 -34 -4q-43 -8 -74 -42.5t-31 -78.5v-22q0 -41 41 -41h53q82 0 82 -82v-27q0 -82 -82 -82h-53q-41 0 -41 -41v-788q0 -82 -82 -82h-73q-82 0 -82 82v788q0 41 -41 41h-54q-82 0 -82 82v27q0 82 82 82h54q41 0 41 41v90 q0 105 69.5 175.5t167.5 70.5zM297 975v2h-4l-4 -8zM348 895v-2q-2 0 -2 -6l8 -10q4 0 4 12q-2 4 -2 8zM309 684h-4q-4 0 -4 -2q0 -8 2 -6zM311 657q-1 0 -0.5 -2t1.5 -4l1 -2h2l4 4l-6 2zM301 647q0 -10 2 -14l2 -2q4 6 0 8zM301 592q-8 0 -8 -4q0 -2 2 -2q2 -1 6 2v4z M295 522q-1 0 -6 -8v-6l12 -2h12l2 2l-4 6q-3 1 -6.5 3t-6 3.5t-3.5 1.5zM358 432q-2 -2 0 -4l7 -10v8q0 6 -7 6zM383 414q0 3 -7.5 3t-8.5 -3q-2 -2 0 -2h16q2 2 0 2zM373 414l-6 -2q-1 -1 -6 -4l-3 -2q-1 -1 5 -2q5 -1 10 -1q2 2 2 7zM356 406l-4 -3q0 -2 6 -2l11 -2v2h-9 q0 5 -4 5zM272 348q-6 6 -14 0q-3 -2 -10.5 -4t-9.5 -4q-11 -11 -13 -14q-4 -9 8 -21q4 -4 17 -4q8 4 12 13t10 16q10 8 0 18zM338 322q-11 11 -16 0q-8 -8 0 -17q8 -8 16 0q10 7 0 17z" />
<glyph unicode="g" horiz-adv-x="841" d="M340 1124q94 0 184 -67q21 -16 29 -11.5t16 31.5t82 27h74q80 0 80 -82v-832q0 -16 -14 -34l-17 -17q-16 -16 -16 -28q0 -10 7.5 -15.5t16 -8t16 -11.5t7.5 -23v-92q0 -48 -12.5 -97t-42 -99.5t-72.5 -89.5t-111 -64t-151 -25q-90 0 -157.5 23t-106.5 63.5t-59.5 87 t-26.5 101.5q-3 23 52.5 28.5t108.5 -2.5q58 -7 105 -67q32 -43 88 -43q39 0 68.5 18.5t43.5 42t23 53t10.5 45.5t1.5 25v66q0 26 -13.5 31.5t-33.5 -11.5q-83 -65 -180 -65q-70 0 -124.5 35t-87.5 91t-54 134.5t-29 156.5t-8 166q0 29 4 80.5t8.5 90t5.5 38.5 q1 7 14.5 17.5t8.5 25.5q-1 3 0 9t0 10q-7 27 2 51q74 237 260 237zM297 1069q-6 0 -14 -8q-7 -7 -7 -12q0 -13 7 -17q2 -4 14 -4q10 0 14 4q6 6 6 17q0 6 -6 12q-8 8 -14 8zM422 932q-34 0 -59 -13t-41 -40t-26 -57.5t-14.5 -78t-6 -87.5t-1.5 -99q0 -63 1.5 -104t6 -90.5 t14.5 -80t26 -58t41 -40t59 -12.5t59 12.5t41 40.5t25.5 58t14 79.5t6 90.5t1.5 104q0 60 -1.5 99t-6 87.5t-14 78t-25.5 57t-41 40.5t-59 13zM616 913l-2 -4q-6 0 -6 -8v-16q12 0 17 14v12zM719 786l-2 -8q1 -1 4.5 -0.5t3.5 2.5q2 2 2 6h-8zM702 750l5 6q-2 2 -7 0 q-8 0 -8 -4q4 -4 8 -4q2 0 2 2zM727 752h-2l-2 -2h2l6 4zM696 645v-14q4 0 2 4zM698 504q-2 0 -3.5 -2t1.5 -4q-1 -3 -0.5 -8t2.5 -5v9l2 2q0 6 -2 8zM672 467l-2 4q-4 4 -4 -2l-4 -4h6zM649 385l-14 -4q0 -2 4.5 -7.5t7.5 -4.5q3 -1 6.5 1t3.5 5q0 10 -8 10zM178 358 q-8 0 -8 -2v-12q-6 0 -10 -6q-1 -1 -3 -4.5t-3 -6.5t0 -3q0 -1 2.5 -2t6 -0.5t5.5 2.5q6 12 6 16q0 -2 3.5 -2.5t6.5 0.5h4l2 6q0 2 -12 14zM176 324l2 -9l4 4l-4 7zM215 326q-2 0 -2 -7q5 -4 8 -2zM160 309h-6q-3 -8 0 -8q2 -3 5 -4t5 2zM137 301v-4q-2 -2 2 -6q1 -1 2 0 q1 -1 1 1l1 1v4zM694 301q-2 -2 -2 -4l6 -10q7 0 9 2v8q-9 4 -13 4zM729 244l-4 -8q0 -3 2 -5q1 -1 2.5 1t3.5 4.5t4 3.5l-2 6zM705 225q-3 0 -5.5 -4.5t-1.5 -7.5q0 -9 7 -6q1 1 5.5 4.5t7 6.5t1.5 5q0 2 -6.5 2.5t-7.5 -0.5zM649 -160q-3 3 -12 0q-3 -2 -9 -4t-7 -4 q-5 -2 -11 -12q-4 -7 6 -17q4 -4 15 -4q6 3 9.5 10.5t8.5 12.5q9 9 0 18zM702 -184q-9 9 -12 0q-3 -2 -3 -7t3 -6q4 -8 12 0q4 2 3.5 6.5t-3.5 6.5z" />
<glyph unicode="h" horiz-adv-x="952" d="M586 1122q57 0 102.5 -19.5t72 -52.5t44 -67.5t25 -73.5t10 -61t2.5 -39v-725q0 -37 -23.5 -60.5t-60.5 -23.5h-70q-37 0 -60.5 23.5t-23.5 60.5v676v18.5t-5 40.5t-15 51.5t-33 41t-55 18.5q-48 0 -95 -21q-53 -23 -53 -96v-729q0 -37 -23.5 -60.5t-60.5 -23.5h-69 q-37 0 -60.5 23.5t-23.5 60.5v1311q0 37 23.5 60.5t60.5 23.5h69q37 0 60.5 -23.5t23.5 -60.5v-297q0 -74 68 -31q80 55 170 55zM285 1380q6 3 6.5 9.5t-2.5 9.5q-3 5 -10 6t-13 -4q-8 -4 0 -17q6 -12 19 -4zM238 1339q22 0 24 9q0 5 -10 10q0 4 -4 8q-2 4 -8.5 3.5 t-8.5 -3.5q-6 -3 -8.5 -9t0.5 -9q5 -5 10 -5zM688 993q-2 2 -5 2.5t-3 -2.5l6 -2zM735 965l-2 2q-2 0 -4.5 -1.5t-1.5 -2.5l2 -5l4 3zM643 893l-2 4h-4q-2 0 -0.5 -2.5t4.5 -1.5h2zM678 864l2 -8q1 -4 2 -4q3 0 3.5 4t-1.5 6l-2 2h-4zM731 836q14 7 12 12q-14 7 -16 6l-6 -6 v-14q0 -5 10 2zM762 815l10 8q0 6 -2 6q-6 -2 -6 -4zM199 809v2l-6 -2l4 -2zM713 786q1 0 1 3t-1 6l-11 16v-12q2 -6 5 -10t6 -3zM213 768l-2 -8q-5 0 -6 -2l-8 -6l4 -2q4 -1 6 0l6 8q-1 -2 1 -3t3 1l2 -2l2 4q2 1 -4 8zM295 711l6 4q0 4 -2 4h-4q-2 -4 -2 -8h2zM158 670h4 q0 4 -2 4l-6 4zM246 670q0 -2 2.5 -3.5t3.5 -0.5l-2 8h-4v-4zM207 674l-2 -2q-1 0 0 -1t2 -1q2 -2 2 0v2zM213 623q0 -5 10 -5l6 5v4l-2 2q-3 3 -6 0q-8 0 -8 -6zM233 584q7 0 7 4q-1 1 -3 3.5t-3.5 4.5t-2.5 2q-4 0 -4 -8q0 -2 2.5 -4t3.5 -2zM197 399l6 -6v4zM176 387 q1 1 3 2q1 0 1.5 0.5t-0.5 1.5l-6 2h-2q0 -2 4 -6zM193 377v2q1 1 -1 2.5t-4 1.5l2 -4zM184 356q0 2 -2 0q-1 -1 2 -2l1 -1zM209 332q4 4 4 6q-1 1 -2.5 3t-2.5 3t-1 0q-2 0 -3.5 -3.5t-0.5 -4.5q0 -4 6 -4zM193 322l2 -3q2 3 0 5v2zM225 307q4 0 4 4q0 2 -2 2t-4 -2v-2z M209 289q4 4 0 4q-6 6 -6 4l2 -4zM279 289h-7q3 -3 4 -2h3v2zM188 254h9q0 4 -4 6q-7 8 -11 4v-8q3 -3 6 -2zM682 240q8 0 8 6q0 4 -8 4t-8 -4q0 -6 8 -6z" />
<glyph unicode="i" horiz-adv-x="454" d="M195 1479h75q82 0 82 -82v-37q0 -82 -82 -82h-75q-82 0 -82 82v37q0 82 82 82zM197 1102h71q37 0 60.5 -22.5t23.5 -59.5v-268q0 -3 -1.5 -5.5t-4.5 -6.5t-4 -7q-7 -16 -6 -31t8 -22q8 -12 8 -21v-573q0 -37 -23.5 -61.5t-60.5 -24.5h-71q-37 0 -60.5 24.5t-23.5 61.5 v934q0 37 23.5 59.5t60.5 22.5zM207 950q6 6 6 17q0 6 -6 12q-8 8 -14 8q-7 0 -15 -8q-6 -6 -6 -12q0 -14 6 -17q2 -4 15 -4q10 0 14 4zM281 717h10q11 4 14 9.5t-3 7.5t-17 -1q-12 -6 -10 -14q1 -4 6 -2zM174 483q-4 -6 2 -6q14 0 14 6l-7 4h-1q-4 0 -8 -4zM272 371v-2 q2 -2 4 0q0 2 -2 6zM293 317l-2 -10q10 0 10 2q3 5 0 8q-1 0 -2.5 1t-3 1t-2.5 -2zM274 281l-8 -2q-2 2 -5.5 -1t-2.5 -6q4 -4 8 -4q6 0 6 2zM301 270q2 2 4 6q-2 -4 -4 -4l-2 -2h2zM287 236h-11v-7h7zM199 229l-4 -2q1 -4 2 -4l6 4zM213 199l-6 2l-2 2q-1 -1 -0.5 -3.5 t2.5 -2.5h4zM199 184l-4 9q0 -11 2 -17q0 -2 2 -2q0 1 1 3t1 4t-2 3zM233 154q-1 0 -1 -3t1 -4l7 -12v8q0 11 -7 11zM195 135v2q-9 0 -9 -6q2 -2 5.5 -0.5t3.5 4.5zM258 131q2 0 2 2t-2 2h-16l-2 -4l-7 -4h-2q0 -2 -1 -3.5t-1 -2.5l4 -2h13v2h-8v2h8q4 0 4 8q8 -4 8 0z M248 131h-6l6 4v-4zM242 131zM238 123h-7q0 2 2 4zM211 55l-6 4q-3 0 -9 4.5t-8 4.5l-4 -9v-8h21q0 -2 2 0h4v4zM283 63l-7 -6l-10 -6v-2h6q1 1 3.5 2.5l5 3t2.5 2.5v6z" />
<glyph unicode="j" horiz-adv-x="493" d="M231 1479h80q82 0 82 -82v-37q0 -82 -82 -82h-80q-81 0 -81 82v37q0 82 81 82zM233 1102h70q37 0 60.5 -23.5t23.5 -60.5v-1059q0 -52 -16 -106.5t-49 -108t-92 -94.5t-136 -56q-39 -9 -67.5 18t-26.5 69v38q2 43 57 66q30 13 50.5 40.5t28.5 57.5t11 48t3 28v1059 q0 37 23 60.5t60 23.5zM313 946q-4 -1 -2 -4q3 -6 6 -6q9 0 9 6q-8 4 -13 4zM342 702q-10 0 -14 -8q0 -14 2 -16q-6 0 -8 -4l-5 -2v-6q7 -7 19 -7q6 3 6 7l-6 10q4 0 6 10v16zM221 487q0 -4 6 -4l2 2q-4 4 -8 2zM285 420q-7 -7 0 -21q2 -2 4.5 -3.5t4 -2.5t1.5 -2l6 6v4 q2 2 -2 11q-8 8 -14 8zM326 387l-4 -2q-2 -1 -1.5 -6t3.5 -6q1 -1 4 2l2 6zM326 340l-13 -8q0 -3 6.5 -7.5t8.5 -2.5q10 0 10 10q-4 12 -12 8zM231 276l2 -8l9 2q2 0 -0.5 3.5t-5.5 2.5h-5zM295 211l-12 6q-19 4 -19 -4q0 -2 2.5 -3.5t5.5 -0.5zM303 127q-3 0 -4.5 -6.5 t0.5 -7.5l2 -2h4v10q3 6 1 8q-1 1 -3 -2zM121 -344q-10 0 -10 -8q0 -6 10 -6t10 6q0 8 -10 8z" />
<glyph unicode="k" horiz-adv-x="821" d="M588 616l186 -487q19 -51 -8 -90t-82 -39h-27q-52 0 -71 49l-111 305q-9 26 -26 27.5t-29 -23.5l-47 -96q-25 -49 -25 -100v-78q0 -37 -23.5 -60.5t-60.5 -23.5h-69q-37 0 -60.5 23.5t-23.5 60.5v1311q0 37 23.5 60.5t60.5 23.5h69q37 0 60.5 -23.5t23.5 -60.5v-559 q0 -31 17 -36t32 23l138 244q19 37 63 37h29q62 0 89.5 -46t-1.5 -102l-121 -229q-29 -53 -6 -111zM256 1196l4 -8h6q0 4 -2 6q0 1 -2 2t-4 1t-2 -1zM233 1159l3 2l-7 2l2 -4h2zM270 1020l-2 2l-4 -2l2 -2zM217 973l-8 -2l8 -8h8v4l-2 2q0 1 -6 4zM287 930h-4q-4 -4 -4 -6 q2 -2 4 -2l4 4q4 0 0 4zM274 909h-4l-2 -4q6 0 8 2q0 2 -2 2zM174 858q-6 4 -6 0t6 -4q1 -1 2 0q0 4 -2 4zM201 817l-2 2l-4 -4v-2l4 2zM199 764v6q1 1 -1 1t-3 1q-5 -2 -5 -4zM274 762h2q0 6 -2 6l-2 -2v-2zM348 666q5 0 5.5 4.5t-0.5 15t-1 14.5q10 20 10 23q0 35 -16 35 q-14 0 -10 -35q1 -8 4 -13.5t6 -7.5l2 -2l-4 -16q-5 -18 4 -18zM160 729l8 -4q2 1 2 5t-2 5q-1 0 -5.5 1.5t-6.5 0.5q4 2 0 6l2 2l-6 3l-5 -9v-2q0 -4 3 -2h6q-2 0 4 -6zM279 684v6q2 0 4 2q8 8 4 8q-6 2 -8 0q-5 -5 -5 -8q-2 2 -6 0h-2q0 -2 3 -5.5t3 -4.5q7 0 7 2z M322 590h4q-1 0 -2 1.5t-2 0.5h-3q0 -2 3 -2zM178 559v-6q1 0 2 -1q4 -2 4 1l-4 6h-2zM193 506l2 2q-1 2 -5 2q-2 2 -4 0q-8 0 -4 -4l8 -8q2 0 3 3.5t0 4.5zM190 510l3 -4q-5 0 -5 2q-2 0 -1 1t3 1zM293 496q0 2 -4 6q-4 -4 -4 -6l4 -9q2 0 3.5 4t0.5 5zM567 471l-6 8 q4 2 4 6l2 2l-2 2l-12 -2l-2 -6l2 2q2 0 2 -2v-2h-4l2 -2h4q-2 -2 0 -6l4 -10q6 6 6 10zM178 479l-4 2q-2 -2 0 -4h2zM496 481l2 -2l6 -2l-2 4h-6zM227 463l-2 6q-2 2 -2 0q-2 -2 0 -2zM514 440q2 2 2 11q0 4 -4 0q-5 -5 -2 -5q-2 -2 -0.5 -4t4.5 -2zM262 336v-10q6 0 2 4z M291 72q8 0 8 6t-8 6q-10 0 -10 -6t10 -6z" />
<glyph unicode="l" horiz-adv-x="462" d="M197 1479h69q37 0 60.5 -23.5t23.5 -60.5v-1311q0 -37 -23.5 -60.5t-60.5 -23.5h-69q-37 0 -60.5 23.5t-23.5 60.5v1311q0 37 23.5 60.5t60.5 23.5zM203 1012h-2l-8 -2l4 -2zM152 897l6 -14l6 2v6q-3 6 -12 6zM223 881h-8l-2 -11q-8 0 -10 -2l-10 -10q0 -2 4.5 -3.5 t7.5 -0.5q5 3 10 12q0 -2 2.5 -3.5t5.5 -0.5l2 -2l4 4q0 1 -3 8.5t-3 8.5zM303 768l-10 -2q-4 -8 -4 -14q4 -2 6 -2l10 8q4 4 -2 10zM221 754q-7 -2 -18 -13q1 -4 10 -7t14 -1q2 1 5.5 2.5t6 2.5t3.5 1l-4 11h-5q-3 7 -12 4zM207 754l-2 -2q-2 0 2 -4q4 -2 4 0l-2 4z M231 692q-6 0 -6 -14q0 -3 4 -6.5t7 -3.5q6 0 8 1.5t0 4.5q-9 18 -13 18zM252 659l-4 1v-1l-2.5 -2.5t0.5 -1.5q3 -7 6 -4v8zM207 649q2 -4 4 -4v-2l4 -4q4 4 0 4q-4 5 -8 6zM199 645l6 -12q6 0 6 2q0 6 -2 8zM152 641q-4 -5 -2 -8q4 0 4 6zM285 618l-2 3q-3 -1 -4 -3 q2 -2 4 0h2zM190 608q0 2 -2 0q-3 -1 0 -2q2 -2 2.5 -1.5t-0.5 3.5zM174 598l-2 -4q0 -4 6 -10q2 1 6 1.5t5.5 1.5t0.5 3zM268 588v-2l2 -2q0 3 -2 4zM233 524q0 3 -4 1q-1 -1 -2 -3v-4q2 -2 4 -2q5 0 5 4q4 4 -3 4zM195 512l-2 -2l2 -2h4v2zM213 500q-2 0 -4.5 -3.5 t-1.5 -4.5q0 -7 6 -7q7 4 4 7zM186 457q-2 -3 -2 -8t2 -7q3 -2 7 -2l10 2q0 5 -4 9q-9 9 -13 6zM199 383l-2 -2l2 -2q1 -1 2 1t0 3h-2zM180 113q-4 -4 0 -11q3 -6 10 -2q3 1 4 5.5t-1 5.5q-2 3 -6 4t-7 -2zM170 92q-3 7 -10 0q-9 -5 -4 -10q2 -2 6 -2l2 -2q12 0 14 4 q0 3 -6 6q0 2 -2 4z" />
<glyph unicode="m" horiz-adv-x="1454" d="M1085 1122q57 0 102.5 -19.5t72 -52.5t44 -67.5t25 -73.5t10 -61t2.5 -39v-528q0 -4 -1 -5t-4.5 -3t-6.5 -5q-12 -6 -12.5 -13.5t10.5 -10.5q14 -7 14 -39v-121q0 -37 -23.5 -60.5t-60.5 -23.5h-69q-37 0 -60.5 23.5t-23.5 60.5v676v18.5t-5.5 41t-15.5 52.5t-33 41.5 t-55 18.5q-65 0 -127 -35q-25 -17 -22 -51q2 -18 2 -37v-725q0 -37 -23.5 -60.5t-60.5 -23.5h-70q-37 0 -60.5 23.5t-23.5 60.5v676v18.5t-5 41t-15 52.5t-33 41.5t-55 18.5q-65 0 -123 -37q-25 -17 -25 -49v-762q0 -37 -23.5 -60.5t-60.5 -23.5h-69q-37 0 -60.5 23.5 t-23.5 60.5v811q0 55 -6 111q-3 41 21.5 68.5t64.5 27.5h73q52 0 74 -43q11 -21 20.5 -24.5t24.5 9.5l10 9q91 69 193 69q133 0 201 -108q20 -33 49 -4q48 48 115 80t128 32zM561 1038h-2q2 -3 6 -4q0 2 -1.5 3.5t-2.5 0.5zM590 1004q-8 0 -2 -9l2 -18l4 10q3 17 -4 17z M645 973l-10 4q-8 0 -4 -4t6 -4zM713 975l-2 -2q3 -6 6 -4q0 6 -4 6zM1266 895q-3 3 -9 0q-2 -1 -5.5 -2t-4.5 -2q-4 -4 -6 -8q-2 -5 4 -11q2 -2 8 -2q4 2 7 7t6 8q5 5 0 10zM1298 881q-5 5 -8 0q-4 -5 0 -9t8 0q6 3 0 9zM205 764l-10 -6l2 -4h6q2 2 2 10zM655 713 q-3 2 -13 -0.5t-13 -5.5q-4 -8 -4 -15q4 -12 8 -14q2 -2 5 -2t6.5 1t4.5 1q11 4 13 8q6 6 2 14q0 8 -9 13zM264 672q-2 2 -4 2t-2 -2l4 -6h4q0 6 -2 6zM246 629q-3 0 -5.5 -5t-0.5 -8q0 -2 1 -4.5t1 -3.5l6 2v2q5 0 2 6zM266 625l-10 -13q1 -1 2 -3q1 -3 2 -3l8 2q2 -4 6 -6 l13 -4q0 10 -4 12q-2 2 -13 2q2 0 2 4t-2 5v2zM219 616q-1 2 -3.5 2t-2.5 -2h6zM281 614h-5q-4 0 -4 -2l4 -2h3zM707 598l2 -6l6 2q3 1 4.5 6t-0.5 6zM260 551q-2 0 -4 -2l-2 -8q2 -2 6 0q8 1 8 4q-6 6 -8 6zM205 502l2 -2l4 2q0 6 -2 6zM266 502h-2q0 -2 2 -4q2 0 2 2t-2 2 zM262 485l-2 2q-2 -2 -2 -4h4v2zM276 475q-4 2 -4 0l-6 -6l10 2q2 4 0 4zM780 471q-8 4 -10 0q0 -4 6 -10q3 -2 4 2q4 8 0 8zM207 465l-2 -4q4 0 4 2h2zM213 449l2 -5h4q-2 7 -4 7zM791 438l4 4q-3 4 -7 0q-2 0 -2 -2zM207 412q-2 -2 -2 -9l4 -6q1 0 1 4.5t-1 6.5zM774 408 q-4 0 -4 -2l-4 -9q3 -3 8 0q4 -2 8 4q-7 7 -8 7zM758 385q-8 -4 -8 -16q4 -12 4 -13l8 2l2 4q6 0 2 9q0 6 -8 14zM242 371q1 1 2 -2q2 3 1.5 3t-3.5 -1zM778 354l-8 -12l2 -6l10 2q0 -4 6 -6q1 -1 4.5 -2.5t6 -2t2.5 0.5q0 10 -4 12l-13 2q2 0 2 3t-2 5v2zM233 322v-9 q4 -9 7 -8q8 0 0 4zM731 315l2 2q-1 1 -3.5 1t-2.5 -1q4 -4 4 -2zM719 301l-2 -4q0 -1 3 -1t3 1l2 2zM778 266h-4q-1 2 -4 -2l2 -2h4zM756 254q0 -1 2 -4q2 5 0 5q-1 0 -2 -1zM780 252h-2q-2 0 -2 -2t2 -4l2 -2q3 3 2 4q1 1 -2 4zM1284 236q-3 3 -5.5 2.5t-8 -3t-8.5 -2.5 q-11 0 -14.5 -14t1.5 -26q0 -14 10.5 -17.5t14.5 12.5q3 5 8.5 6.5t9.5 1t6.5 1.5t1.5 8q-1 3 -2.5 11.5t-4.5 13t-9 6.5zM719 219q-2 -6 0 -8q1 -1 3 -5l1 -1v12q0 6 -4 2zM717 205h2q1 -1 3.5 -0.5t2.5 2.5q0 8 -2 6zM727 170l-2 -2l4 -4l4 -2q1 1 -0.5 4.5t-3.5 3.5h-2z M793 154q-7 2 -9 0l-6 -7h13q4 5 2 7zM745 111v-11q1 -7 4.5 -11.5t6.5 -2.5q1 0 2 1t0.5 3t-2.5 4zM188 76q-9 3 -16 -4q-2 -4 2 -11q6 -6 12 -6q9 -3 19 0q11 0 14 6q7 7 2 9h-2q-2 -1 -4.5 -1t-5.5 1q-2 0 -10 3t-11 3zM174 49q-10 0 -10 -6t10 -6t10 6t-10 6z" />
<glyph unicode="n" d="M594 1122q57 0 102.5 -19.5t72 -52.5t44 -67.5t25 -73.5t10 -61t2.5 -39v-592q0 -4 -1 -5t-5 -2.5t-6 -2.5q-2 0 -4 -6l-3 -6q-9 -6 -7.5 -16t12.5 -13q14 -4 14 -19v-63q0 -37 -23.5 -60.5t-60.5 -23.5h-70q-37 0 -60.5 23.5t-23.5 60.5v676v18.5t-5 41t-15 52.5 t-33 41.5t-55 18.5q-65 0 -123 -37q-25 -17 -25 -49v-762q0 -37 -23.5 -60.5t-60.5 -23.5h-69q-37 0 -60.5 23.5t-23.5 60.5v811q0 47 -2 70q0 6 8 8.5t14.5 5.5t3.5 10q-3 9 -9 13.5t-11 5t-8.5 3t-3.5 9.5q3 36 27.5 59t60.5 23h73q60 0 78 -53q6 -19 12.5 -21.5 t20.5 10.5q39 34 96.5 59t114.5 25zM551 1038h-2q2 -3 6 -4q0 2 -1.5 3.5t-2.5 0.5zM709 954l-2 -2q3 -6 6 -4q0 6 -4 6zM158 948l-11 -2q-1 -1 -5.5 -1.5t-6.5 -2.5q-1 -2 -1 -7t1 -5l17 -6q4 -1 6 2t2 6q0 2 1.5 7t-1.5 5q0 4 -2 4zM293 877l-10 -13q1 -1 2 -3q1 -3 2 -3 l8 2q2 -4 6 -6l12 -4q0 10 -4 12q-2 2 -12 2q1 0 1 3t-1 5v2zM195 764l-11 -6l2 -4h7q2 2 2 10zM686 762q-7 0 -2 -8l2 -19l4 10q3 17 -4 17zM741 731l-10 4q-8 0 -4 -4t6 -4zM254 672q-2 2 -4 2t-2 -2l4 -6h4q0 6 -2 6zM236 629q-3 0 -5.5 -5t-1.5 -8q0 -2 1 -4.5t1 -3.5 l7 2v2q5 0 2 6zM209 616q-1 2 -3.5 2t-2.5 -2h6zM270 614h-4q-4 0 -4 -2l4 -2h2zM696 598l2 -6l7 2q3 1 4.5 6t-0.5 6zM250 551q-2 0 -4 -2l-2 -8q2 -2 6 0q8 1 8 4q-6 6 -8 6zM195 502l2 -2l4 2q0 6 -2 6zM256 502h-2q0 -2 2 -4q2 0 2 2t-2 2zM252 485l-2 2q-2 -2 -2 -4h4 v2zM266 475q-4 2 -4 0l-6 -6l10 2q2 4 0 4zM770 471q-8 4 -10 0q0 -4 6 -10q3 -2 4 2q4 8 0 8zM197 465l-2 -4q4 0 4 2h2zM203 449l2 -5h4q-2 7 -4 7zM780 438l4 4q-3 3 -6 0q-2 0 -2 -2zM197 412q-2 -2 -2 -9l4 -6q1 0 1 4.5t-1 6.5zM764 408q-4 0 -4 -2l-4 -9q3 -3 8 0 q4 -2 8 4q-7 7 -8 7zM748 385q-9 -5 -9 -16q4 -12 4 -13l9 2l2 4q6 0 2 9q0 6 -8 14zM231 371q1 1 2 -2l1 3zM223 322v-9q3 -11 6 -8q8 0 0 4zM721 315l2 2q-1 1 -3.5 1t-2.5 -1l2.5 -2.5t1.5 0.5zM709 301l-2 -4q0 -1 3 -1t3 1l2 2zM768 266h-4q-1 2 -4 -2l2 -2h4zM745 254 q-1 -1 1 -4t2 0q2 3 1 4t-4 0zM770 252h-2q-2 0 -2 -2t2 -4l2 -2q3 3 2 4q1 1 -2 4zM709 219q-2 -6 0 -8q1 -1 3 -5l1 -1v12q0 6 -4 2zM707 205h2q1 -1 3.5 -0.5t2.5 2.5q0 8 -2 6zM274 188l-8 -12l2 -6l11 2q0 -4 6 -6q1 -1 4 -2.5t5.5 -2t2.5 0.5q0 10 -4 12l-12 2 q1 0 1 3t-1 5v2zM717 170l-2 -2l4 -4l4 -2q1 1 -0.5 4.5t-3.5 3.5h-2zM782 154q-6 2 -8 0l-6 -7h12q4 5 2 7zM735 111v-11q2 -8 4.5 -11.5t5.5 -2.5q1 0 2 1t0.5 3t-2.5 4zM801 76q-3 2 -13.5 -0.5t-13.5 -5.5q-4 -8 -4 -15q4 -12 8 -14q2 -2 5 -2t7 1t5 1q10 3 12 8 q6 6 2 14q0 9 -8 13z" />
<glyph unicode="o" horiz-adv-x="974" d="M487 1120q198 0 294 -148.5t96 -416.5q0 -43 -3 -86q0 -10 -12 -14q-16 -10 -24 -41l4 -19q23 -36 16 -73q-66 -342 -371 -342q-106 0 -182 40t-121 117t-65.5 179.5t-20.5 238.5q0 176 40 300t128 194.5t221 70.5zM242 948q-15 0 -15 -12q0 -10 15 -10q14 0 14 10 q0 12 -14 12zM483 930q-38 0 -65 -20.5t-42.5 -52.5t-24.5 -83t-12 -101t-3 -118q0 -72 3 -123.5t12 -104t24.5 -85t42.5 -52.5t65 -20q47 0 77.5 28.5t45 85t20 119t5.5 152.5q0 67 -3 117.5t-12 101.5t-25 83t-43 52.5t-65 20.5zM733 926q-1 2 -3.5 2t-2.5 -2l4 -6h4 q0 6 -2 6zM240 918q-9 -9 -9 -15q0 -9 7 -16q2 -2 16 -2q10 0 14 4q6 6 6 14t-8 12q-2 3 -12.5 4.5t-13.5 -1.5zM715 883q-3 0 -5.5 -5t-0.5 -8q0 -2 1 -4.5t1 -3.5l6 2v2q5 0 2 6zM688 870q-2 2 -4 2t-2 -2h6zM750 868h-5q-4 0 -4 -2l4 -2h3zM209 770q-2 0 -4 -2l-2 -8 q2 -2 6 0q8 1 8 4q-6 6 -8 6zM215 721h-2q0 -2 2 -4q2 0 2 2t-2 2zM211 705l-2 2q-2 -3 -2 -5h4v3zM225 694q-4 2 -4 0l-6 -6l10 2q2 4 0 4zM729 526l-2 -2q3 -6 6 -4q0 6 -4 6zM797 479q-11 -5 -11 -18q0 -10 9 -13t12 5q2 2 4 0.5t6 -3.5t6 -1q11 5 11 12q0 13 -10.5 15 t-16.5 -3q-2 0 -4.5 3t-5.5 3zM193 471l2 -2l4 2q0 6 -2 6zM195 434l-2 -4q4 0 4 2h2zM201 418l2 -4h4q-2 6 -4 6zM195 381q-2 -2 -2 -8l4 -6q1 0 1 4.5t-1 5.5zM229 340q1 0 2 -2q1 3 1 3.5t-3 -1.5zM707 334q-7 0 -2 -8l2 -19l4 10q3 17 -4 17zM762 303l-10 4q-8 0 -4 -4 t6 -4zM221 291v-8q4 -8 6 -9q2 0 2 2l-2 3zM717 170l2 -6l6 2q3 1 4.5 6t-0.5 6zM272 158l-8 -13l2 -6l10 2q0 -4 7 -6q1 -1 4 -2.5t5.5 -2t2.5 0.5q0 10 -4 12l-12 2q1 0 1 3.5t-1 5.5v2zM653 119q-6 0 -14 -8q-6 -6 -6 -13q0 -13 6 -16q2 -4 14 -4q11 0 15 4q6 6 6 16 q0 7 -6 13q-8 8 -15 8z" />
<glyph unicode="p" horiz-adv-x="978" d="M578 1122q52 0 96 -19.5t74.5 -52.5t54.5 -79.5t38.5 -95.5t23.5 -105.5t12.5 -106t3.5 -100.5q0 -88 -8 -166t-29 -156.5t-54 -134.5t-87.5 -91t-124.5 -35q-83 0 -162 51q-31 22 -49.5 13.5t-18.5 -46.5v-291q0 -37 -23.5 -60.5t-60.5 -23.5h-69q-37 0 -60.5 23.5 t-23.5 60.5v1311q0 37 23.5 60.5t60.5 23.5h69q26 0 42 -11.5t21 -25.5t10 -28.5t11 -18.5t16.5 4.5t27.5 25t40 33t61.5 29t84.5 12.5zM598 1071l-2 2q-2 1 -6 1t-6 -1q-3 -12 0 -12zM477 1061q0 1 2 -2q2 3 1.5 4t-3.5 -2zM502 1055l-2 2q-4 -2 -4 -4l2 -2zM565 1055 l-8 -13q1 -3 4 -4q4 2 6 6zM516 1042q4 -4 6 -4v-2q4 -4 6 -2q4 4 -2 4q-1 2 -3.5 3.5t-4.5 1.5t-2 -1zM508 1020q-5 5 -8 0l-2 -2l2 -4q6 0 6 2q3 1 2 4zM532 1006h-4l-2 -7q6 -7 9 -4q0 2 -1.5 6t-1.5 5zM551 983q0 -1 -1 -3l1 -1q4 0 0 4zM653 971q-4 0 -4 -2l-2 -2h4 q3 1 2 4zM496 930q-34 0 -59 -13t-41 -40t-26 -57.5t-14.5 -78t-6 -87.5t-1.5 -99q0 -63 1.5 -104t6 -90.5t14.5 -80t26 -58t41 -40t59 -12.5t59 12.5t41 40.5t25.5 58t14 79.5t6 90.5t1.5 104q0 60 -1.5 99t-6 87.5t-14 78t-25.5 57t-41 40.5t-59 13zM303 803q-8 3 -14 0 q-12 -6 -13 -8q-4 -7 0 -15q1 -5 7 -9.5t10 -4.5q0 -2 -2 -4t-6 -10q-3 -6 0.5 -9.5t9.5 -3.5q14 0 8 17l-4 10q7 2 12 12q4 11 2 15q-3 7 -10 10zM252 485h-2l-2 -4l4 -2v6zM195 424h6l-2 2l-6 2zM209 418q-4 -4 -4 -8l4 -2q5 5 4 6q0 2 -1.5 3.5t-2.5 0.5zM252 369l-2 -2 t-2 -4t0 -5q0 -2 6 -8q-1 1 -6 -4v-2l2 -4q10 2 12 4v4l-6 4q2 2 2 8q-1 1 -2 3.5t-2 4.5t-2 1zM145 346l-2 -2q0 4 -6 -2q-2 -4 -2 -10q3 -3 10 4q1 2 2 3.5t2 2.5t1 2zM213 289l6 -8l2 2l2 10q-4 2 -6 2zM168 242l-6 8l-2 -6q4 -2 5.5 -2.5t2.5 0.5zM176 182h-4q0 -1 1 -2 t1 -2q2 -2 4 0zM172 154q-4 0 -2 -2q-2 -2 0 -5q2 -2 2 0q2 0 2 2.5t-2 4.5zM309 147q-2 2 -4 -2v-2q2 0 3.5 1.5t0.5 2.5zM184 115q-6 0 -2 -4q6 0 2 4zM264 106q-6 -6 -2 -6l10 -6v10q-1 3 -4 3.5t-4 -1.5zM174 82q0 2 -3 2t-5 -2q-8 -2 -4 -6q13 -7 14 -6q1 2 0.5 6 t-2.5 6zM645 76q-3 3 -10 0q-3 -2 -8 -3.5t-6 -2.5q-7 -7 -9 -11q-3 -9 6 -14q2 -2 11 -2q4 2 6 4t4 6t6 8q5 5 0 15zM150 72v-4q1 -2 4 2v2h-4zM688 55q-2 3 -5 3.5t-5 -3.5q-2 -1 -2 -5t2 -5t5 -1t5 1q4 2 3.5 5t-3.5 5zM244 -63q-2 -1 0 -3q-1 -2 -0.5 -4t2.5 -2v6 q0 3 -2 3zM201 -96l6 -4l4 2q-2 4 -4 4zM297 -106l-10 2q-2 -3 -2 -5l6 -8l6 2v9z" />
<glyph unicode="q" horiz-adv-x="978" d="M401 1122q105 0 191 -69q23 -16 30 -13.5t23 27.5q21 35 70 35h69q37 0 60.5 -23.5t23.5 -60.5v-1311q0 -37 -23.5 -60.5t-60.5 -23.5h-69q-37 0 -60.5 23.5t-23.5 60.5v291q0 38 -18.5 46.5t-49.5 -13.5q-79 -51 -162 -51q-70 0 -124.5 35t-87.5 91t-54 134.5t-29 156.5 t-8 166q0 51 3.5 100.5t12.5 106t23.5 105.5t38.5 95.5t54.5 79.5t74.5 52.5t96 19.5zM317 1036q-8 3 -14 0q-11 -5 -12 -8q-3 -7 0 -14q1 -6 7 -10.5t9 -4.5q0 -2 -2 -4t-6 -10q-6 -12 10 -12q13 0 8 16l-4 10q8 3 13 13q4 11 2 14q-3 6 -11 10zM483 932q-34 0 -59 -13 t-41 -40.5t-25.5 -58t-14 -78.5t-6 -87.5t-1.5 -99.5q0 -63 1.5 -104t6 -91t14 -80.5t25.5 -58t41 -40.5t59 -13t59 13t41 40.5t26 58.5t14.5 80t6 90.5t1.5 104.5q0 59 -1.5 99t-6 88t-14.5 78.5t-26 58t-41 40.5t-59 13zM297 909l-2 -2v-8l4 4zM250 768l-2 -2q-2 -2 -2 -5 t2 -3h4l2 6zM147 709l5 -4q0 -2 2 1q1 2 0 5l-2 2zM246 694q-6 0 -8 -4l-7 -12q4 -4 13 -2q4 0 9.5 2.5t4.5 5.5q-5 10 -12 10zM199 659v-6q1 -7 2 -6q1 -1 3 2q3 6 1 8l-2 2h-4zM725 635l-4 4l-4 -4l2 -2zM197 623q-2 1 -2 0q0 -5 4 -4q2 0 2 2zM682 594h-6q0 -2 1 -4.5 t1 -3.5q2 -4 10 -4zM225 588q-2 2 -3.5 -0.5t1.5 -5.5l2 -21l4 12q2 14 -4 15zM281 559l-13 4q-3 -1 -2 -4q2 -4 6 -4zM733 516q-4 2 -4 0l2 -4l2 -2l2 2q-2 2 -2 4zM739 485q-1 -2 -4 -5t-4 -5q-1 0 -3.5 1t-4.5 1l-4 2l-2 -6q4 -12 6 -14h6l2 4l4 -2q3 -5 13 -2q9 3 18 12 q-2 4 -14 8l2 2q-8 8 -15 4zM823 440l-10 -8q-3 -1 2 -8h10q4 10 4 14zM758 424q-6 1 -8 0t0 -6q8 -17 12 -17q6 0 6 15q0 2 -3.5 5t-6.5 3zM735 332l-6 12q-1 1 -3.5 0.5t-2.5 -2.5q0 -6 2 -6zM770 342q0 -6 2 -8q4 -4 4 0v6q0 2 -2 2.5t-4 -0.5zM803 342v-4l6 2 q-1 0 -2.5 1.5t-3.5 0.5zM715 324q-5 5 -5 1q0 -2 1 -3q2 -2 4.5 -0.5t-0.5 2.5zM756 299q-4 0 -4 -4q-4 -4 0 -4q1 -2 4 -1.5t4 3.5v4q0 2 -4 2zM717 293v-2q1 1 4 -2l2 2l-2 2h-4zM676 291q-4 -4 -2 -6v-2q3 1 3.5 4t-1.5 4zM731 289q-2 0 -1.5 -2t3.5 -2q1 -5 8 -6 q-4 4 -6 4l2 2q-4 4 -6 4zM735 244q-4 -4 -4 -6q2 -6 6 -9l4 9q0 6 -6 6zM793 244h-2q1 -1 1.5 -2.5l0.5 -1.5q4 4 0 4zM709 221q-1 -1 -5 -1.5t-6 -1.5t0 -3l15 -8l2 4q2 2 -6 10zM721 201l-12 -2q0 -5 6 -9q2 -2 5.5 -4t4.5 0q2 2 2.5 6.5t-0.5 6.5q-4 4 -6 2zM725 94 l-2 4q-2 0 -2.5 -2t0.5 -4h2zM795 -141q-4 4 -11 0q-3 -2 -8 -3.5t-6 -2.5q-5 -5 -8 -11q-3 -9 6 -14q2 -2 10 -2q4 2 6 4t4.5 6t6.5 8q5 5 0 15zM838 -162q-2 3 -5.5 3.5t-5.5 -3.5q-1 -2 -1 -5t1 -5t5 -2t6 2q4 2 3.5 5t-3.5 5z" />
<glyph unicode="r" horiz-adv-x="632" d="M195 1102h69q37 0 60.5 -23.5t23.5 -60.5q0 -3 -0.5 -10.5t-0.5 -12.5t0.5 -10.5t2 -9t4.5 -4.5q5 -2 19.5 18t46 50t72.5 44q39 13 69.5 -13.5t30.5 -70.5q0 -102 -41 -96q-14 4 -47 4q-64 0 -110 -50.5t-46 -117.5v-655q0 -37 -23.5 -60.5t-60.5 -23.5h-69 q-37 0 -60.5 23.5t-23.5 60.5v934q0 37 23.5 60.5t60.5 23.5zM283 1042q-15 0 -15 -12q0 -10 15 -10q14 0 14 10q0 12 -14 12zM281 1012q-9 -9 -9 -15q0 -9 7 -16q2 -2 16 -2q10 0 14 4q6 6 6 14q0 9 -8 13q-2 3 -12.5 4t-13.5 -2zM203 858l-2 -2q-1 -2 -1 -5t1 -3h4l2 6z M199 784q-7 0 -9 -4l-6 -12l2 -1q2 -1 4.5 -1t6.5 2q2 -1 5.5 -0.5t6.5 2.5t2 4q-2 3 -6.5 7t-5.5 3zM154 446l2 -4q2 -2 4 3v4l-2 2zM205 399v-8v-3q-1 -4 -0.5 -4.5t2.5 1.5q2 0 3.5 4.5t0.5 5.5l-2 2zM203 362l-2 -2q2 -2 6 -2q0 4 -4 4zM231 328q-2 0 -3.5 -3t1.5 -6 l2 -18l5 10q3 17 -5 17zM287 297l-13 4q-6 0 -2 -4q3 -4 7 -4zM158 147q-14 0 -24.5 -5.5t-10.5 -12.5q0 -6 11 -11t24 -5q10 0 18 5t8 11q0 7 -7.5 12.5t-18.5 5.5zM256 106h-2v-10l4 4z" />
<glyph unicode="s" horiz-adv-x="854" d="M451 1122q119 0 201.5 -62.5t109.5 -166.5q10 -39 -16 -67.5t-68 -28.5h-76q-48 0 -72 59q-13 35 -42.5 54.5t-67.5 19.5q-54 0 -87.5 -29t-33.5 -86q0 -20 12 -39.5t41 -42.5t51.5 -38.5t71 -46.5t70.5 -46q27 -18 37 -55q11 -31 32 -37q16 -4 31 -4q22 0 45 -19 q94 -97 94 -202q0 -149 -103.5 -227t-270.5 -78q-127 0 -227.5 64t-127.5 171q-9 37 17 63.5t67 26.5h88q48 0 68 -55q17 -36 51 -57t74 -21q57 0 95 31.5t38 95.5q0 26 -32 55.5t-81 56.5t-108.5 64.5t-112.5 76.5t-95 94.5t-54 115.5q-8 30 6 65q7 11 4 27q-1 5 0 11t0 12 q-8 25 2 59q66 186 369 186zM131 918h-10q-8 -3 -8 -15q0 -1 1 -2t1 -2q0 -2 6 -8h10q3 0 6 4t2 8v6q0 9 -8 9zM641 895l-6 12q-6 3 -6 0q0 -6 2 -8zM674 907q0 -2 1 -5.5t1 -4.5h4l2 6q-6 6 -8 4zM713 905q-2 2 -4 0h-2q0 -2 2 -2q3 -2 4 2zM618 887q-2 3 -3 2t1 -4 q0 -2 3 -1q3 2 -1 3zM662 862q-5 0 -5 -4q-4 -4 0 -4q5 -5 9 4q-2 4 -4 4zM623 856v-2l4 -2l2 2l-2 2h-4zM582 854q-5 -5 -4 -6l2 -2q5 5 2 8zM637 852q-1 0 -1 -2t1 -2q4 -5 8 -6l-4 6zM117 827v-2q0 -2 2.5 -4.5t3.5 -1.5l2 4l-2 4h-6zM182 774q-3 2 -9.5 2t-6.5 -2 q-4 -7 -2 -10l4 -12q0 1 1.5 1t3.5 2t3 5q6 3 7 12q1 2 -1 2zM301 692l-2 2q-1 2 -6 2t-6 -2q0 -2 -1 -6t-1 -6t2 -2zM180 682q-2 -2 0.5 -3.5t3.5 1.5q2 4 -1 3q-1 0 -3 -1zM205 676h-2q-1 2 -4 -2l2 -2h4v4zM268 676l-6 -12q-1 -2 -0.5 -4.5t2.5 -2.5q6 5 6 7zM219 664 l6 -5v-2q4 -4 6 -4q2 4 -2 6q-7 6 -10 5zM211 641q0 1 -3.5 1t-4.5 -1l-2 -4q1 0 2 -1t2 -1q2 -2 6 2q2 2 0 4zM236 627q-2 1 -3.5 0.5t-1.5 -2.5q-4 -4 0 -4q0 -3 2.5 -5t4.5 0q0 2 -1 6t-1 5zM356 592q0 -1 -1 -1q-2 -1 -3 -3l2 -2q6 6 2 6zM373 508v-6h4q3 0 2.5 3 t-2.5 3h-4zM442 506l7 -6q5 -3 6 -2q-2 8 -4 8h-9zM573 492l-12 -7q-4 -4 2 -4q4 -2 6 0zM473 477q-3 3 -6 0v-2q2 -1 6 2zM512 473q-2 -1 -1 -3.5t5 -2.5l14 -12l-4 10q-5 6 -8.5 8.5t-5.5 -0.5zM686 334h-2q0 -2 2 -4t4 -3l2 -1v6zM694 309q-8 3 -14 0q-11 -5 -12 -8 q-4 -7 0 -14q1 -6 7 -10.5t9 -4.5q0 -2 -2 -4t-6 -10q-6 -12 10 -12q13 0 8 16l-4 10q7 2 12 13q4 12 3 14q-3 6 -11 10zM471 76q-3 3 -10 0q-3 -2 -8.5 -3.5t-6.5 -2.5q-5 -5 -8 -11q-3 -9 6 -14q2 -2 11 -2q4 2 6 4t4 6t6 8q5 5 0 15zM514 55q-2 3 -5 3.5t-5 -3.5 q-2 -1 -2 -5t2 -5t5 -1t5 1q4 2 3.5 5t-3.5 5z" />
<glyph unicode="t" horiz-adv-x="641" d="M279 1354h69q37 0 59.5 -22.5t22.5 -59.5v-129q0 -43 43 -43h47q37 0 59.5 -22.5t22.5 -59.5v-23q0 -37 -23 -61.5t-59 -24.5h-47q-43 0 -43 -39v-24q0 -16 -9 -27.5t-9 -30.5q0 -17 9 -51t9 -41v-399q0 -38 28 -66t66 -28q34 0 56 -23.5t22 -60.5v-53q0 -30 -17 -51.5 t-46 -24.5q-72 -10 -123 -10q-62 0 -107 22.5t-69.5 62.5t-35.5 86t-11 101v67q0 12 6 27l4 8q2 11 2 13t-4 15t-6 21t-2 119v359q-3 28 -39 28h-48q-37 0 -61.5 24.5t-24.5 61.5v23q0 36 24.5 59t61.5 23h48q39 0 39 43v129q0 36 24.5 59t61.5 23zM283 1012q-3 -2 -3 -7.5 t3 -9.5q6 -12 18 -4q6 3 6.5 9.5t-2.5 9.5q-10 14 -22 2zM264 977q-2 4 -8 3.5t-8 -3.5q-6 -3 -8.5 -9.5t0.5 -9.5q4 -4 10 -4l4 -4q23 0 25 8q0 6 -11 11q0 4 -4 8zM283 805v6q-2 0 -5 -1t-4 -1q-4 -4 -4 -12zM338 764h-4q-3 -8 2 -8q5 -5 8 -2q0 10 -6 10zM350 739l-2 -4 h6l2 2l-4 2h-2zM317 618v-4q-4 0 -4 -8q5 -10 9 -14q4 1 7 7t1 11q0 2 -2 6t-2 5zM342 586l4 8h-8q-2 0 -5.5 -1.5t-2.5 -4.5q6 -6 8 -6q4 0 4 4zM285 559l4 4q0 1 -1.5 1.5t-3.5 -0.5t-3 -3zM334 524v-6l2 -6q8 -4 14 -4q-2 0 -2 -2t2 -4v-4h4q1 0 11 10q-3 6 -5 6l-8 -2 q0 5 -6 8zM334 518l2 -2q2 0 3.5 1.5t0.5 2.5q1 1 0 2h-2zM297 479h-6q1 -1 3.5 -1t2.5 1zM289 430q-1 -1 0.5 -5.5t3.5 -4.5h2l2 2l-4 6q-3 3 -4 2zM319 422q-1 -2 -1 -3q2 -4 4 1l-2 3zM344 408h-2q-2 0 -2 -2q0 -5 2 -5q0 -4 4 0q2 5 -2 7zM311 379q-1 0 -2 -1t-0.5 -3 t2.5 -4l11 -19v13q-3 14 -11 14zM283 358q-1 0 -1 -4.5t1 -7.5q0 -6 4 -2v8q-1 1 -3 4zM289 340h-2q-1 0 -3 -1t-3 -1l4 -6zM356 264l-12 -2q-4 -4 -2 -4l8 -2zM565 158q-6 0 -14 -8q-6 -6 -6 -13q0 -13 6 -16q2 -4 14 -4q11 0 15 4q6 6 6 16q0 7 -6 13q-8 8 -15 8z" />
<glyph unicode="u" horiz-adv-x="958" d="M848 96q3 -41 -21.5 -68.5t-64.5 -27.5h-74q-60 0 -78 53q-6 19 -12 21t-20 -11q-39 -34 -96.5 -58.5t-114.5 -24.5t-102.5 19.5t-72 52.5t-44 67.5t-25 73.5t-10 61t-2.5 39v725q0 37 23.5 60.5t60.5 23.5h69q37 0 60.5 -23.5t23.5 -60.5v-676v-10t1.5 -23.5t5 -33.5 t11.5 -35.5t19 -34t30 -24t42 -9.5q68 0 123 35q24 16 24 49v762q0 37 23.5 60.5t60.5 23.5h70q37 0 60.5 -23.5t23.5 -60.5v-811q0 -55 6 -111zM182 1022v-16q-2 0 0 -2v-3h2l4 5q0 2 3.5 6.5t3.5 5.5l-7 4h-6zM233 975h3v6h2v-6q0 -4 6 -4v-6h2v12l-2 2l-4 6q-1 0 -2 1 t-2 1l-3 -4v-8zM180 958v-4q1 -1 2 -3t2 -3.5t2 -1.5h4l-4 4l-4 8h-2zM664 836l2 -7q4 -2 8 2t4 13zM246 840q-5 0 -10 -3.5t-5 -9.5q0 -10 15 -10q14 0 14 10q0 13 -14 13zM272 780q7 7 7 15q0 7 -9 12q-2 3 -12.5 4t-13.5 -2q-8 -8 -8 -14q0 -11 6 -17q2 -2 16 -2 q10 0 14 4zM737 766q-6 6 -10 2q0 -6 6 -12q3 -2 4 2q4 8 0 8zM752 737h-4q-5 0 -5 -2l5 -2h2zM246 711q0 -7 2 -9q7 -7 10 0q0 2 -3 6t-3 5q-6 3 -6 -2zM719 657l2 2q4 4 2 11q0 3 -3 7.5t-5 4.5q-3 0 -5.5 -6.5t-0.5 -9.5q0 -2 1 -6t1 -5zM188 643q-4 -2 -4 -12l13 6v6h-9 zM727 598l-4 -8q3 -3 8 0q8 1 8 4q-7 7 -8 6q-4 0 -4 -2zM236 528q3 0 5.5 6.5t2.5 10.5q-4 8 -4 10l-9 -2l-2 -2q-2 -2 -2 -10q7 -13 9 -13zM262 518v-2q0 -2 2 -2t2 2q4 0 4 2l-4 2zM676 510l-2 -4q0 -2 3 -2t3 2l2 2zM735 498h-4q-1 2 -4 -2l2 -2h4zM244 487q0 -3 3 -5.5 t5 -2.5l4 4l4 9h-8q-8 -1 -8 -5zM745 467q1 -1 4.5 -2.5t6 -2t2.5 0.5q0 10 -4 12l-13 2q1 0 1 3.5t-1 4.5v2l-6 2l-8 -12l2 -6l10 2q0 -4 6 -6zM702 449v-11q1 -7 4.5 -11.5t6.5 -2.5q1 0 2 1t0.5 3t-2.5 4zM690 430q1 1 -0.5 5.5t-3.5 4.5h-2l-2 -2l4 -4q3 -4 4 -4z M737 430l2 2q1 3 -2 6q-2 2 -2 0q-3 -3 0 -6zM199 432l2 4q1 1 0 1l-6 -1v-2zM264 397h4l8 11q0 6 -2 6l-8 -2l-2 4q-2 3 -4 4l-12 4q-2 -1 -1.5 -6t3.5 -6q9 -5 12 -2v-9zM688 354l2 2h-6q4 -4 4 -2zM233 299v12q-2 8 -4.5 12t-5.5 3q-1 0 -2 -1.5t-0.5 -3.5t2.5 -4z M715 303q3 3 2 3.5t-4 -1.5q-2 -2 0 -4q1 -1 1.5 -0.5t0.5 2.5zM248 287h2q4 2 4 4l-2 2l-4 -2v-4zM680 221q2 0 2 5t-2 10q2 0 2 2q0 8 -2 6l-4 -8v-9q1 -1 3 -5zM735 225h13l2.5 2.5t-0.5 1.5l-9 2zM211 219l-4 4q-6 6 -4 2q-5 -3 1 -7q2 -1 3 -1h2zM258 207q2 0 2 2.5 t-2 3.5h-2q-4 0 -2 -2q-4 -4 2 -4h2zM831 150q4 1 5 6t-2 8q-2 5 -8 5.5t-9 -3.5q-7 -4 0 -14q3 -9 14 -2zM793 115q18 0 20 6q0 5 -8 10q0 2 -4 6q-2 4 -7.5 3t-7.5 -3q-10 -7 -6 -16q2 -2 8 -2z" />
<glyph unicode="v" horiz-adv-x="806" d="M635 1102h61q45 0 71 -33t17 -78l-215 -930q-6 -28 -26.5 -44.5t-48.5 -16.5h-183q-28 0 -48.5 16.5t-26.5 44.5l-213 930q-9 46 16.5 78.5t71.5 32.5h61q29 0 49.5 -17.5t26.5 -46.5l127 -624q4 -20 14.5 -27.5t20.5 0t14 27.5l135 626q4 28 25.5 45t50.5 17zM723 1057 q-14 0 -10 -21q1 -5 4 -8.5t5 -4.5l3 -1l-4 -8q-5 -13 4 -13q5 0 5.5 3t-0.5 9.5t-1 8.5q1 2 4 4.5t4.5 4.5t1.5 5q0 21 -16 21zM141 1020q-4 0 -12 -4q0 -1 -2 -4.5t-2 -5.5q0 -11 4 -11q2 -4 12 -4q9 0 13 4q6 3 6 11q0 4 -6 10q-8 4 -13 4zM168 805v2h-4q-4 0 -4 -2l6 -2 zM162 770q-4 -4 -4 -6v-8q1 -1 6 4q2 0 5 2.5t3 3.5zM109 754v-6q2 0 3 1t1 3v2h-4zM152 745q0 -1 -1 -5t-1 -7.5t2 -5.5q1 -3 2.5 -4.5t3 -2t2.5 -1.5l6 4l-2 2q7 7 0 10q-5 10 -12 10zM182 723l-2 -14q0 -7 4 -7l6 5q0 -2 9 -2q1 -1 6.5 -1t5.5 1q2 2 -0.5 6t-5.5 4 q-4 -2 -12 -2q1 4 -3 6l-2 2zM604 707l4 4q0 2 -3 2.5t-5 -0.5zM657 662h-4l4 -5q5 0 5 2zM180 629l4 -13q3 -4 8.5 -8t6.5 -2q4 8 -2 8zM621 612l-3 -12q12 -6 13 -6q-6 0 -2 -8l-2 -2l4 -2q2 0 7 3.5t5 4.5l2 6l-10 2q0 4 -4 6q-10 10 -10 8zM586 586q-6 0 -2 -8v-9 q-1 -4 -0.5 -6.5t1.5 -5.5t1 -4q7 0 14 14v11h-10q0 4 -4 8zM590 567v11q-2 0 -6 -7l2 -14zM602 549q0 1 -5 1t-5 -1q4 -8 6 -10q2 0 6 2l6 6q-4 4 -8 2zM201 522l-2 -4l4 -2l7 -2l-1 2q3 6 -4 6h-4zM270 477l-2 2q-2 0 -3.5 -1.5t-0.5 -2.5v-2l4 2zM223 471q-2 0 -2 -2v-2z M279 467q0 1 -1.5 1t-3.5 -1q-1 -4 5 -6h2q2 0 0 2q0 4 -2 4zM549 381h-2q-4 0 -6 -2q0 -4 2 -4q0 -2 4 -2q0 1 0.5 1.5t1 2t0.5 4.5zM291 369q-4 4 -6 -2q4 -7 6 2zM332 358l-13 -4q-1 -2 -1 -4t1 -2q5 -2 7 0zM469 326q0 -4 4 -4l2 2q-4 4 -6 2zM467 322q-2 -1 -2.5 -3.5 t0.5 -5t2 -2.5h4v6q-1 1 -3 4zM518 317h-4l-2 -2l2 -2h6zM274 293q3 -6 7 -10q0 -1 2 -2v8zM440 270q-2 -4 -2 -6q1 -1 1.5 -3t0.5 -3.5v-1.5l2 12v2q1 1 0.5 1t-2.5 -1zM293 264l-2 -2q-1 2 -3 0t-1 -4q1 -1 2 -3l2 -1zM449 182l-1 -2q2 -4 3 0q2 2 1.5 3.5t-3.5 -1.5z M451 121l12 -2q6 0 2 4q-4 2 -6 2zM383 117l2 -2h6l-2 6zM324 72q-9 0 -9 -4q0 -7 9 -7q8 0 8 7q0 4 -8 4z" />
<glyph unicode="w" horiz-adv-x="1280" d="M1118 1104h60q45 0 71 -33t17 -78l-215 -932q-6 -28 -27 -44.5t-49 -16.5h-123q-28 0 -49 16.5t-27 42.5l-141 609l-139 -607q-6 -28 -27 -44.5t-49 -16.5h-117q-28 0 -49 16.5t-27 44.5l-213 932q-9 46 16.5 78.5t71.5 32.5h60q29 0 50.5 -17.5t27.5 -46.5l116 -618 q4 -19 14.5 -26t21 0t14.5 26l118 618q6 29 27.5 46.5t50.5 17.5h76q29 0 50.5 -17.5t27.5 -46.5l118 -618q4 -19 14.5 -26t21 0t14.5 26l116 618q6 29 27.5 46.5t50.5 17.5zM176 1034q-10 5 -18 0q-14 -7 -15 -10q-3 -10 0 -20q1 -8 8.5 -14.5t12.5 -6.5q0 -2 -2 -6 q-4 -2 -8 -14q-3 -7 0.5 -12t11.5 -5q16 0 10 23l-6 14q6 3 16 18q4 15 2 19q-3 10 -12 14zM1137 924h-2q-2 0 -5 -2q0 -2 3 -2h2zM1085 893l-2 -2l4 -4q2 -2 4 -3t3 1q1 1 -0.5 4.5t-3.5 3.5h-5zM129 877q0 -11 4 -13h14q-3 0 0 -4l3 -2v-4h6q4 10 6 12q-3 6 -4 6l-8 -4 q0 3 -9 6q-1 0 -4 1t-5 2t-3 0zM1094 858h-7q1 -2 4 -2t3 2zM1116 856q-3 -3 -2 -4t4 2q2 2 0 4q-1 1 -1.5 0.5t-0.5 -2.5zM610 844l2 6q0 3 -4 1q-2 -1 -2 -3l-2 -2zM129 836l-8 -7q-4 9 -8 5q-1 0 -1.5 -1.5t0.5 -3.5t3 -4l4 -6q6 -12 10 -12q6 3 6 18q-1 1 -2 3t-2 3.5 t-1.5 2.5t-0.5 2zM125 821l2 -10l-8 10q-2 4 2 6v2zM1079 825q-1 -1 -1 -6t1 -6l2 -2q2 0 2 6zM152 805l2 8q-3 3 -9 0q-2 0 -5.5 -2.5t-2.5 -3.5q3 -6 10 -6zM592 793l-4 2q-1 0 -3 -2t-4 -5t-3 -4q0 -6 2 -6h8q0 -4 6 -6l-4 -2l4 -4h4v2q6 -6 6 -2q4 4 0 12q-8 4 -12 4 q2 5 0 9v2zM526 791l-2 -5q-2 -2 1.5 -2.5t4.5 2.5zM594 772l4 -4q0 4 -4 4zM1153 750h-12q-5 -5 -2 -5q4 -2 8 -2zM219 748v-5h4l2 5h-6zM561 698l-4 -6q0 -5 6 -2q5 0 8 0.5t2 3.5q0 2 -2.5 5t-3.5 3zM1141 692q-2 2 -4 0q0 -5 4 -8l2 2q0 4 -2 6zM547 676q-4 0 -8 -5 t-4 -9q1 -2 2 -7t2 -6l6 2l2 2q4 0 4 9zM1085 655l-2 2q-2 0 -6 -4q0 -6 2 -6zM528 653l-2 -12q0 -6 3 -10.5t6 -3.5q5 0 0 8zM535 500l-3 2q-6 0 -6 -4l2 -2h4zM475 459l-2 -2l4 -4q1 -1 2 -3l2 -1q1 1 -0.5 5.5t-3.5 4.5h-2zM266 446h-2l-2 -2q0 -4 2 -4q4 -4 4 0 q4 0 -2 6zM528 442h-4q-2 0 -2 -2t2 -4l2 -2l2 2q3 3 0 6zM477 426h-6q3 -3 6 0zM496 406q-2 -2 -1 -4t5 1q2 0 0 4q-3 3 -4 -1zM274 377l-2 2l-4 -2v-4h2q4 0 4 4zM231 362q-6 0 -4 -2t4 0v2zM225 356q-1 -2 0 -4.5t3 -3.5t3 0h2l3 2l-7 4q-3 3 -4 2zM449 352q-2 -8 0 -12 q0 -4 2 -2q2 4 2 6q-1 2 -2 5zM520 334l-10 2q-4 -2 -4 -6q4 -2 8 -2zM440 299l6 8q-2 1 -4 0.5t-2 -2.5v-6zM229 291l7 -6q4 5 -3 12l-2.5 2.5t-1.5 -0.5v-8zM899 242l-8 12q-1 2 -3.5 2t-2.5 -2q0 -6 4 -8zM932 254l2 -8q4 -4 4 0q4 4 0 4q0 3 -2 4.5t-4 -0.5zM971 233 l-4 -16q5 -19 12 -6l1 29q-1 8 -9 -7zM877 236q-3 3 -4 0q0 -1 1 -3l4 1zM279 227q-2 -2 1 -3.5t3 1.5q2 3 0.5 4t-4.5 -2zM920 209q-7 0 -7 -4q-2 -4 2 -4q5 0 7 4l2 2q-4 4 -4 2zM881 205l-2 -2q0 -4 6 -4l-2 6h-2zM838 201l-2 -6q5 0 4 4q0 2 -2 2zM893 201q0 -6 2 -6 q4 -8 8 -7q-2 7 -4 7v2q-4 4 -6 4zM1030 186q-9 14 -21 10.5t-12 -26.5q0 -14 3.5 -21t8.5 -6.5t9 4.5q24 16 12 39zM324 182q-5 2 -7 0l-6 -8l13 4q4 4 0 4zM897 154q-4 0 -4 -7l6 -8q7 7 4 11q0 4 -6 4zM256 137l2 -2q2 0 6 4q-1 1 -2 4l-2 2zM870 131q-9 -1 -10 -4l14 -8 l3 2q1 3 -1.5 6.5t-5.5 3.5zM883 113l-13 -2q0 -5 7 -9q9 -9 12 -6v15q-1 0 -3 1t-3 1z" />
<glyph unicode="x" horiz-adv-x="765" d="M604 1102h33q60 0 88 -45t0 -99l-174 -350q-25 -55 0 -110l176 -355q26 -54 -2 -98.5t-88 -44.5h-31q-47 0 -67 41l-125 264q-12 23 -29 23t-29 -23l-125 -264q-20 -41 -67 -41h-37q-59 0 -87 42.5t-3 96.5l166 359q23 56 -2 110l-164 355q-23 53 4.5 96t85.5 43h39 q47 0 65 -41l125 -254q12 -25 29 -25t29 25l125 254q18 41 65 41zM205 1020q-12 0 -12 -8t12 -8t12 8t-12 8zM600 1006v2h-4q-4 0 -4 -2l6 -2zM602 991q-8 2 -12 0l-6 -14q0 5 -9 2h-2l-2 -4q0 -1 4.5 -6t4.5 -6l6 4l2 8q4 0 8 4zM571 938l7 8q-3 2 -9 0q-10 0 -10 -2l8 -10 zM494 901l-2 -4q2 -4 6 -4q1 -1 5.5 0.5t4.5 3.5zM502 868h2q2 0 1.5 2.5t-3.5 1.5v-4zM530 864v-4q-2 -2 -2 -8q1 -1 3 -3.5t3.5 -4t2.5 -3t2 -1.5q6 3 6 18q-1 2 -3.5 4.5t-2.5 3.5zM635 866q-4 0 -8 -4t-4 -6q0 -10 4 -10q0 -2 8 -2q6 0 8 2q4 4 4 10q0 2 -4 6t-8 4z M518 788q-3 0 -4 -6v-22l6 12l2 6q6 0 2 4h-2q0 6 -4 6zM532 750v-2q5 -2 7 0v2l-4 2zM483 684h-6q-6 3 -6 0t3.5 -4.5t4.5 0.5zM467 674q-4 -4 -4 -6v-9q2 0 3.5 5t0.5 8v2zM471 645v-4v-2q1 1 1 3.5t-1 2.5zM258 514q-4 4 -12 -4l14 -6l4 4zM326 487v-2q0 -2 4 -2l4 2 l-4 4zM313 467l-2 2l-4 -2v-14l4 -4l6 8q4 -4 11 -2q12 0 12 4q0 2 -3.5 5t-6.5 3q-1 -1 -3 -2t-5.5 -2t-4.5 -2q2 1 0.5 3.5t-4.5 2.5zM240 393l4 -4q3 0 2 4q0 1 -2 2l-2 2zM295 381h-8q-4 0 2 -6q0 -2 3.5 -4.5t4.5 -1.5q6 6 2 10q-2 2 -4 2zM244 307l12 -4q16 -3 16 4 q0 6 -8 2zM254 281q-2 -1 -4.5 -4t-3.5 -3l4 -8l2 2q3 -6 10 -2q3 1 6.5 6t3.5 7q-1 3 -7.5 3.5t-10.5 -1.5zM258 276q3 3 3 0q1 -4 -1 -4q-10 0 -2 4zM270 252l-2 -4v-4l4 2q2 4 0 4zM215 172q-4 4 -4 0q0 -6 4 -2v2zM211 164q-1 1 -3.5 -2.5t-2.5 -5.5l2 -2h2l2 6l1 4h-1z M197 121l-9 4q0 -3 7 -10l2.5 -2.5t1.5 0.5q0 6 -2 8zM113 88q-5 3 -13 0.5t-10 -6.5q-2 -2 2 -14q18 -9 19 -9q12 -3 26 0q15 0 21 9q0 1 2 3q3 7 0 9h-17q-3 0 -14 4t-16 4zM92 51q-14 0 -14 -10q0 -8 14 -8t14 8q0 10 -14 10z" />
<glyph unicode="y" horiz-adv-x="862" d="M694 1102h56q49 0 75.5 -36t12.5 -83l-361 -1216q-26 -82 -94.5 -130.5t-153.5 -48.5h-71q-40 0 -64.5 26.5t-21.5 66.5l4 53q3 34 25.5 55t56.5 21h22q39 0 73 26t46 68l25 90l-299 989q-15 47 11 83t77 36h53q27 0 47.5 -15t28.5 -40l190 -680l186 677q8 26 28 42 t48 16zM748 1008q-11 3 -19 0l-7 -4q-6 -5 -7 -9q-3 -10 0 -20q1 -8 8 -14.5t12 -6.5q0 -4 -2 -6q-5 -5 -8 -14q-6 -19 12 -19q16 0 11 25l-5 14q11 4 15 17q3 17 2 20q-2 7 -12 17zM696 854l-2 -2v-2q4 -4 4 2l2 4zM662 844q-15 0 -15 -6q0 -3 6.5 -6.5t10.5 -2.5 q2 0 5.5 1t4.5 1v9l-4 2q0 6 -8 2zM621 784l-5 4l-2 -8h2zM688 774q-10 0 -12 -4q-2 -2 -2 -12q0 2 -3 2t-5 -2l-2 -2l-2 -4q9 -9 12 -9l6 2l-2 11q4 0 6 6zM594 686l-6 2q-2 -1 -2 -6q0 -3 3 -6.5t5 -3.5v14zM639 631q-4 0 -4 -4v-9q0 -3 6 3l8 6q-9 5 -10 4zM627 627 q-4 8 -4 0q0 -3 3 -2q4 0 1 2zM586 602l4 -4q3 -3 4 -2t-0.5 5.5t-3.5 4.5zM621 496h-3q-4 0 -4 -7l4 -2l3 5v4zM567 475q-4 4 -8 0q-1 -1 -5 -3l-1 -1q0 -1 4.5 -0.5t7.5 2.5zM586 430q-4 0 -6 -6l-7 -18l11 8q9 12 2 16zM317 379l-1 1q-1 0 -1 -3q0 -2 3 -1q2 0 -1 3z M295 367l-6 -2l-6 -3h2q0 -3 4.5 -3.5t5.5 1.5v7zM543 305q-8 0 -4 -4q4 2 4 4zM344 303q-4 -4 -4 -10q1 0 2.5 -1.5t3.5 -2.5h8q0 6 -2 8q0 2 -3.5 4.5t-4.5 1.5zM313 217q0 3 -5 -2q-3 -2 -3 -4q-4 -4 -2 -4q4 0 8 4q0 1 2 5v1zM520 180h2l4 2q-2 2 -4 2l-4 2zM371 176 l-4 -2l2 -4l2 -2l2 2zM508 160q-6 -3 -6 -6l6 -9q-4 0 -4 -8v-12q2 0 6 2.5t4 5.5q0 8 -2 12q3 -3 8 2l2 3l-2 6q-10 2 -12 4zM467 115q-5 -5 2 -19q6 -6 10 -6l4 4v4q2 1 1.5 4t-3.5 4q-9 9 -14 9zM483 80q-4 -4 -4 -10l4 -4h11q0 4 -2 6q-6 11 -9 8zM434 53v6q0 3 -4 -1 q-2 -1 -2 -3v-2h6zM461 33q-2 -3 -0.5 -4t4.5 2q-1 0 -4 2zM420 12l-2 4q-6 0 -6 -4v-12zM403 -121q-1 0 -1 -4.5t1 -5.5h5v6q-1 1 -2 3q-2 4 -3 1zM414 -137q-1 -1 -1 -2.5t2 -2.5t5 -1l18 -4l-8 8q-6 3 -11 4t-5 -2zM440 -166v-4q4 -2 6 -2v2l-2 4h-4zM381 -209h-4 q0 -6 2 -6l8 -4q-4 8 -6 10zM379 -281l-2 -2h6l-2.5 2.5t-1.5 -0.5zM152 -315q-14 0 -17 -7q-4 -2 -4 -14q0 -10 4 -14q6 -6 17 -6q6 0 12 6q8 8 8 14t-8 14q-7 7 -12 7z" />
<glyph unicode="z" horiz-adv-x="833" d="M166 1102h522q37 0 60.5 -23.5t23.5 -60.5v-107q0 -20 -10 -37l-430 -634q-14 -20 -6.5 -35t32.5 -15h330q37 0 60.5 -23.5t23.5 -60.5v-22q0 -37 -23.5 -60.5t-60.5 -23.5h-543q-37 0 -60.5 23.5t-23.5 60.5v106q0 19 11 37l430 635q14 20 6 34.5t-33 14.5h-309 q-37 0 -60.5 23.5t-23.5 60.5v23q0 37 23.5 60.5t60.5 23.5zM223 1055q-14 0 -14 -13q0 -10 14 -10q15 0 15 10q0 6 -5 9.5t-10 3.5zM221 1024q-8 -8 -8 -14q0 -11 6 -17q2 -2 17 -2q10 0 14 4q6 6 6 15q0 8 -8 12q-2 3 -13 4t-14 -2zM692 971v6h-10q-5 -5 -2 -12zM502 721 v-8l4 -4q-2 -2 2 -3q2 -1 4 -1l16 2q0 9 -14 14h-12zM461 682l4 4q0 2 -3 2.5t-3 -2.5zM535 686v-4q0 -4 2 -4l2 6v2h-4zM526 684h-6l-2 -12q-4 4 -8 -2q-2 0 -5.5 -5t-0.5 -6q0 -2 12 -2q6 12 6 13l8 -4l2 2l3 4q0 3 -9 12zM459 674q-2 2 -4 -3q-1 -2 0 -3l2 -4h2v6l1 6z M424 655l-2 -4q2 -4 6 -4q2 0 6.5 3t5.5 3zM481 649q0 2 -3 3l-2 -1q0 -1 1 -2q0 -2 1 -3q2 -2 3 1v2zM477 625q-4 0 -4 -4l4 -11l4 4q2 2 4.5 5.5t1.5 3.5zM403 489l-2 -2v-4l2 -2l3 2q-1 4 -3 6zM326 467q-4 0 -2 -2l4 -4l10 2q-8 4 -12 4zM281 383v-2q-3 -1 -2 -4l6 -1v1 zM324 319v-4l4 9l-6 6zM322 322l-5 4h-4q0 -7 4 -7q-1 -1 1 -1l1 -1q3 3 3 5zM283 299q-5 4 -9 0l-20 -2l12 -4q17 0 17 6zM197 215q-2 -2 -2 -4h2q1 0 1 2t-1 2zM324 147l-2 -2q7 -4 10 -2q-1 0 -4 2t-4 2zM627 131l-4 -4q0 -2 4 -2t4 2q0 4 -4 4zM365 115q1 -2 2 -3t4 1 q2 3 -2 3q-2 0 -4 -1zM254 90h2q2 1 4.5 3.5t4.5 4t3 0.5q-5 15 -8 15zM389 104q-6 4 -8 -2l4 -12l10 10q-4 4 -6 4zM340 102h-2q-4 -1 -4 -4l2 2l4 -2v4zM659 102q-26 0 -26 -12q0 -6 8.5 -11t17.5 -5q10 0 16.5 5t6.5 11q0 12 -23 12zM248 86l-2 10l-4 -2q-4 -2 -6 -6 q-6 -6 0 -14q10 1 10 2q8 4 2 10zM334 90q1 1 0 1q-4 0 0 -7q-3 2 -6 -6l8 4v2q4 0 -2 6zM614 82q-14 0 -14 -8q0 -6 14 -6q13 0 13 6q0 8 -13 8zM293 80q-2 -1 -5 -1q-1 0 -1 -1q-2 -2 -8 -2l12 -6q0 1 1 2q2 2 1 8zM344 70q-1 -1 -1 -3.5t1.5 -4t5.5 0.5h2q-1 2 -1 3 q1 1 0.5 1.5t-3.5 0.5l-1 2q-1 1 -3 -2q1 3 0 4v-2zM397 59q-3 1 -8 -2q-2 -2 -2 -6q3 1 5.5 1t4.5 1q-1 4 0 6v0z" />
<glyph unicode="{" horiz-adv-x="589" d="M328 1499h204q41 0 41 -41v-37q0 -41 -41 -41h-73q-37 0 -62 17q-2 2 -10 2q-28 3 -42 -10q-6 -6 -1 -13q11 -11 2 -24q-14 -25 -14 -74v-377q0 -90 -43.5 -146.5t-98.5 -80.5q-12 -5 -15.5 -8t0 -6t15.5 -7q55 -22 98.5 -78.5t43.5 -152.5v-377q0 -102 74 -102h126 q41 0 41 -41v-37q0 -41 -41 -41h-204q-193 0 -193 217v401q0 96 -65 142q-18 12 -25 32q0 7 -2 9q-4 8 -25 12q-18 7 -18 29v22q0 18 8.5 27.5t28.5 15.5q41 13 69.5 53.5t28.5 104.5v393q0 54 7.5 90t27.5 67t59 45.5t99 14.5zM199 1407q-9 3 -15 0q-11 -5 -12 -8 q-4 -7 0 -15q1 -5 6.5 -9.5t9.5 -4.5q0 -2 -2 -4t-6 -10q-6 -13 10 -13q7 0 9 5.5t0 11.5l-4 10q7 2 12 12q4 11 2 15q-3 7 -10 10zM270 1262l-8 -9l-18 -4l-4 -4q2 -2 10 -2q20 7 20 10q0 1 1 3q0 6 -1 6zM205 1262l-8 -7q0 -2 -2.5 -5.5t-5 -6.5t-1.5 -4q0 -1 4.5 0 t9.5 3.5t7 4.5q9 5 2 8zM180 1233q-1 -1 -2.5 -2t-2.5 -2t-1 -2q2 -2 8 -4h19l-2 2h-11q0 3 -3 5.5t-5 2.5zM221 807l-2 2q-4 4 -10 -2q0 -1 -0.5 -4.5t0 -5t2.5 -0.5zM233 793h-14q0 -1 -1.5 -3t-2.5 -3.5t-2 -3.5t-1 -3t1 -2q0 -3 8 -1.5t10 3.5q4 11 2 13zM276 786 q-2 -4 1 -4q2 0 4 2q3 3 -3 4zM160 768q-6 6 -6 -4q-2 -3 -2.5 -12t0.5 -11q5 -5 10 -2q3 3 2.5 14.5t-4.5 14.5zM63 684q-6 0 -6 -4h4q2 0 2 4zM70 678q-3 0 -11 -8q-2 -3 -2.5 -8t0.5 -5l17 -6l16 -4q0 -2 2 -2l2 2h2l2 2q-4 6 -8 10l-6.5 6.5t-8 8.5t-5.5 4zM195 590 l4 -2q1 -1 4 -2.5t5.5 -2t2.5 0.5l-4 4q-8 4 -10 4zM213 569l4 -2q4 0 2 2l-6 2v-2zM221 494h-2q-4 0 -6 -2t0.5 -8t5.5 -7q6 -6 14 -2l7 4q3 3 1 5t-10 8zM176 489h-8q-2 0 -4 -2v-4q0 -6 8 -10h6q2 0 2 4q-1 1 -2 6t-2 6zM213 375l-8 -4q-3 0 -2.5 -3.5t2.5 -5.5 q0 -3 3.5 -4.5t6.5 0.5q9 9 -2 17zM270 367l2 4l-7 -2h1zM260 350h-16q-8 0 -8 -4t4 -12t16 0q9 5 7 13q0 3 -3 3zM492 -104l-5 -2q0 -3 5 -3q2 0 2 3q0 2 -2 2zM516 -125q-20 0 -20 -10q0 -5 6 -8.5t14 -3.5q16 0 16 12q0 10 -16 10zM481 -141q-10 0 -10 -6q0 -5 10 -5 q11 0 11 5q0 6 -11 6z" />
<glyph unicode="}" horiz-adv-x="589" d="M57 1499h205q60 0 99 -14.5t59 -45.5t27.5 -67t7.5 -90v-100q0 -42 -21 -76q-8 -13 -8.5 -22.5t2.5 -13.5l4 -3q23 -13 23 -39v-139q0 -64 28.5 -104.5t69.5 -53.5q20 -6 28.5 -15.5t8.5 -27.5v-45q0 -18 -8.5 -27.5t-28.5 -15.5q-41 -13 -69.5 -53.5t-28.5 -104.5v-401 q0 -217 -193 -217h-205q-41 0 -41 41v37q0 41 41 41h127q74 0 74 102v377q0 96 43 152.5t98 78.5q12 4 15.5 7t0 6t-15.5 8q-55 24 -98 80t-43 147v377q0 102 -74 102h-127q-41 0 -41 41v37q0 41 41 41zM336 1432q-5 0 -14 -9q-7 -7 -7 -12q0 -13 7 -16q2 -4 14 -4 q10 0 14 4q6 6 6 16q0 6 -6 12q-9 9 -14 9zM356 1315q-6 0 -12 -6q-4 -7 -4 -9q0 -8 4 -12q2 -4 12 -4q7 0 11 4t4 12q0 5 -4 9q-6 6 -11 6zM311 1004q-6 0 -6 -5h4q2 0 2 5zM317 997q-2 0 -10 -8q-2 -3 -2.5 -7.5t0.5 -4.5l17 -6l16 -4q0 -2 2 -2l2 2h2l2 2q-4 6 -8 10 q-2 2 -7 6.5t-8.5 8t-5.5 3.5zM422 862q-6 6 -6 -4q-2 -3 -2.5 -11.5t0.5 -10.5q5 -5 10 -2q3 3 2.5 14t-4.5 14zM391 758l-2 2q-4 4 -10 -2q0 -1 -0.5 -4.5t0 -5t2.5 -0.5zM403 743h-14q-1 -1 -3.5 -5t-3 -5.5t0.5 -3.5q0 -3 8 -1.5t10 3.5q3 11 2 12zM446 737q-2 -4 1 -4 q2 0 4 2q3 3 -3 4zM346 -43l-2 -6q1 -3 4 -3.5t4 1.5l1 10q-1 3 -7 -2zM385 -59q-6 5 -14.5 3t-8.5 -10q0 -13 15 -8q15 8 8 15z" />
<glyph unicode="&#xa1;" horiz-adv-x="561" d="M244 1102h73q80 0 80 -80v-74q0 -84 -80 -84h-73q-40 0 -62 22t-22 62v74q0 80 84 80zM201 969l-4 -2q0 -2 4 -2q2 0 2 2t-2 2zM225 948q-20 0 -20 -10q0 -4 6.5 -8t13.5 -4q17 0 17 12q0 10 -17 10zM190 932q-10 0 -10 -6q0 -4 10 -4q11 0 11 4q0 6 -11 6zM274 668h13 q38 0 60.5 -21t23.5 -59l35 -881q3 -84 -80 -84h-90q-83 0 -80 84l12 303q0 38 22 74q12 16 15 27q-1 1 0 5.5t-5 9t-18 1.5q-6 0 -6 2q-4 4 -4 6l18 453q1 38 23.5 59t60.5 21zM242 -301q-6 0 -6 -4t6 -4t6 4t-6 4z" />
<glyph unicode="&#xa2;" horiz-adv-x="847" d="M575 1348h11q42 0 61.5 -23t11.5 -65l-32 -183q139 -79 182 -264q7 -39 -14.5 -62.5t-63.5 -23.5h-63q-37 0 -57 19t-29 57q-9 27 -13 37q-6 13 -15 11.5t-11 -15.5l-123 -643q-6 -22 10 -25h16q100 0 127 117q15 75 86 75h66q41 0 61.5 -22.5t16.5 -63.5v-2 q0 -14 -4 -34q-6 -26 -29 -43q-28 -16 -25 -25q0 -4 13 -4q8 -4 10 -8q3 -6 0 -13q-79 -168 -317 -168q-29 0 -56 3l-20 -121q-12 -74 -88 -74h-11q-42 0 -61.5 23.5t-11.5 64.5l28 168q-170 127 -170 512q0 268 96 416.5t294 148.5h8l28 156q12 74 88 74zM209 952 q0 -2 1 -5.5t1 -4.5q4 -1 4 2q3 6 0 6q0 2 -2.5 2.5t-3.5 -0.5zM242 948l-4 4l-9 -2q-2 -4 0 -4l7 -4zM430 926q-94 -11 -119 -154q-4 -18 -12 -29q-15 -16 -18 -28.5t1 -16.5l5 -4q14 -10 14 -26q-2 -35 -2 -115q0 -167 12 -240q2 -15 12 -14t13 16l113 590q2 11 -3.5 16.5 t-15.5 4.5zM279 924l-11 -2l11 -4l4 2zM217 868l6 -6l4 2l-2 4h-8zM250 827l-8 -6q0 -2 4.5 -3.5t5.5 -0.5q4 4 4 8q-4 4 -6 2zM207 813q-8 0 -8 -6q-2 -6 2 -6q10 0 14 4zM164 786l-10 -2q0 -6 4 -8q9 -9 12 -6l2 12q-4 4 -8 4zM162 721q0 3 -1 3t-1 -3h2zM195 711h-5 q0 -4 5 -4h2zM176 672h-2q0 2 -2 2t-4 -2l-8 -6q2 -2 6 -2.5t6 0.5l8 4z" />
<glyph unicode="&#xa3;" horiz-adv-x="1036" d="M522 1499q145 0 242.5 -74.5t124.5 -191.5q9 -39 -11 -62t-61 -28l-90 -8q-34 -3 -52.5 12t-37.5 53q-16 31 -45.5 50.5t-67.5 19.5q-78 0 -114.5 -49.5t-36.5 -153.5q0 -68 47 -203q8 -35 45 -35h209q82 0 82 -79v-35q0 -40 -21 -62t-61 -22h-154q-44 0 -41 -15v-16 q0 -152 -51 -285q-12 -34 12 -55q59 -49 127 -49q102 0 142 78q19 39 37.5 53t54.5 10l90 -10q39 -5 59 -29t13 -61q-13 -62 -58 -127q-7 -7 -14 -4q-9 0 -12 10q-8 33 -19 33q-9 -1 -11.5 -27.5t5.5 -38.5q10 -17 -8 -32q-107 -86 -275 -86q-142 0 -249 86q-29 20 -58 -3 q-54 -48 -112 -65q-38 -13 -62.5 9t-26.5 65l-2 78q0 31 12 53.5t38 48.5q119 110 122 340q-2 4 -5 10.5t-13.5 17.5t-21.5 11h-41q-40 0 -61 22t-21 62v35q0 81 82 81q27 0 14 48q-39 133 -39 215q0 170 80 276q13 14 31 10q20 -7 26 2q2 5 6 23q7 33 31 45q88 49 221 49z M451 1374q-11 0 -13 -4l-4 -6l2 -4l6 4q0 -1 2 -1q3 0 5 -1q2 2 2 12zM500 1366l-2 -4l6 -4v4zM637 1337q-6 3 -8 -4l6 -4q7 3 2 8zM381 1335q-2 2 -3.5 -0.5t1.5 -3.5q4 0 2 4zM260 1190q0 3 -4 2q-1 0 -2 -2l4 -8h4q0 6 -2 8zM201 1174q-2 2 -7.5 2.5t-5.5 -2.5 q0 -13 5 -13h6l10 6q0 4 -8 7zM289 1112q-8 -8 -6 -8q0 -2 4.5 -2.5t5.5 0.5q4 0 4 6q-4 4 -8 4zM248 1092q-8 0 -4 -9q0 -5 0.5 -5t3.5 1q10 10 10 11q0 2 -10 2zM272 1051l-10 -2q-2 -5 0 -7l6 -2l6 7zM322 1044h-11l8 -8l5 2q0 2 -1 3.5t-1 2.5zM258 1012h4q0 4 -2 6 l-6 2zM236 918l2 -5h4q0 5 -4 5h-2zM223 899q0 1 -4.5 1t-7.5 -1l-6 -6l4 -2h2q3 -3 6 0q6 3 6 8zM272 874l-2 3q-1 0 -4.5 -4.5t-3.5 -6.5q0 -6 2 -4h6q0 -4 4 -6l11 -4q0 8 -2 10q-4 4 -11 4q2 0 2 2t-2 4v2zM289 739l-4 -2l-4 -8q0 -4 6 -4l6 4q-2 8 -4 10zM311 696v-2 q-2 -1 2 -4l2 2zM248 690l4 -2h2q-4 4 -6 2zM293 664v4q-4 4 -4 -2l-1 -9h1q2 5 2 7h2zM311 664h-4q-3 0 0 -3q2 -2 4 -2v5zM297 662v-9q6 0 2 4q0 4 -2 5zM436 588q0 2 -2 0q-2 2 -3 0.5t-1 -4.5q0 -2 2 0q4 0 4 4zM373 555q-2 2 -2 0q-2 0 -2 -6h2l2 2q2 4 0 4zM313 537 q0 1 -2 1t-4.5 -1t-3.5 -2q-2 0 -2 -7q4 -4 8 0zM346 496q-2 0 -4 -2t-3 -4l-1 -1q0 -6 2 -6q0 -1 2 -1t4 1l2 9zM369 481h2h4q1 0 -1 1t-3 1zM319 389q-1 1 -1 -1q1 -2 1 -3q3 -3 3 0zM326 324v-2q-2 -1 -2 -5q1 -1 2 2q1 1 1 1.5t1 1.5zM760 158l-4 -6q6 -12 10 -5l2 14 q-3 1 -8 -3zM811 137q-9 5 -20 3.5t-11 -11.5q0 -9 7 -11.5t12 1.5q20 7 12 18z" />
<glyph unicode="&#xa4;" horiz-adv-x="868" d="M434 1155q103 0 191 -45q49 -27 86 10l14 15q44 44 88 0l18 -19q41 -45 -2 -88l-12 -12q-37 -34 -12 -86q47 -86 47 -191q0 -104 -47 -190q-25 -51 10 -86l14 -12q44 -44 2 -89l-18 -18q-44 -44 -86 -2l-16 16q-37 37 -86 11q-88 -45 -191 -45q-104 0 -192 45 q-49 26 -86 -11l-15 -14q-41 -45 -86 0l-18 18q-42 45 2 89l12 12q37 34 12 86q-47 86 -47 190q0 105 47 191q25 51 -10 86l-14 12q-43 43 -2 88l18 19q45 45 86 0l15 -15q37 -37 86 -10q88 45 192 45zM434 952q-85 0 -145 -61.5t-60 -151.5t60 -151.5t145 -61.5t145 61.5 t60 151.5t-60 151.5t-145 61.5z" />
<glyph unicode="&#xa5;" d="M795 1479h71q47 0 65 -27t-1 -70l-197 -432q-11 -20 -2.5 -33.5t33.5 -13.5h51q47 0 47 -80v-14q0 -84 -80 -84h-118q-38 0 -50 -27l-2 -2q-10 -22 -10 -51v-6q0 -43 43 -43h14q21 0 25 -18l6 -11q17 -10 32 -12t17 4q2 2 6 19q7 18 25 18h12q80 0 80 -80v-14 q0 -84 -80 -84h-137q-43 0 -43 -39v-295q0 -84 -80 -84h-82q-40 0 -62 22t-22 62v295q0 39 -39 39h-139q-40 0 -62 22t-22 62v14q0 80 84 80h139q39 0 39 39v10q0 26 -10 49q-16 31 -45 31h-123q-40 0 -62 22t-22 62v14q0 80 53 80h52q24 0 32.5 13.5t-2.5 33.5l-137 299 q-4 11 0 21q8 20 8 28q0 3 -0.5 6t-6 8.5t-17.5 -1.5q-9 -3 -13 4l-30 67q-19 43 -1.5 70t64.5 27h72q67 0 96 -62l191 -416q11 -25 27 -25t26 25l190 416q29 62 97 62zM805 1393q-5 0 -14 -9q-7 -7 -7 -12q0 -12 7 -16q2 -4 14 -4q10 0 14 4q6 6 6 16q0 6 -6 12q-9 9 -14 9 zM766 1325h-4q-6 -6 -2 -6q5 -5 8 -2zM760 1219q-11 -4 -8 -9q4 -4 6 -2q1 -2 3 -1.5t3 1.5l2 2q0 3 -6 9zM643 1194l-10 -8l8 -4l7.5 -3t4.5 1q4 8 -2 14h-8zM760 1141l-4 -2v-4q0 -1 8 -9zM702 1126l-4 4q-6 -6 -6 -8l10 -2q2 -2 2 0.5t-2 5.5zM670 1090q-1 -2 -7 -5 t-6 -4t9 -6l4 -4l-2 4q6 6 6 10q2 5 0 6q-1 0 -4 -1zM668 1075h-2l-2 2l2 2h2v-4zM641 1028l-4 4q-2 -2 -2 -6l2 -2zM596 993h-6q-6 0 -6 -8q0 -1 2 -2t5 -0.5t5 2.5l4 2v4zM571 969l2 -2q1 3 0.5 3.5t-2.5 -1.5zM518 889l-2 2l-4 -2v-4h2q4 0 4 4zM473 856q0 -8 2 -10 q4 -4 10 -4q-2 0 -2 -6v-5h4q1 0 2.5 2.5t3.5 5t3 3.5q0 4 -2 4h-7q0 2 -4 6q-7 6 -10 4zM483 791l-10 -3q0 -8 10 -8q2 0 5 1t4 1v4h-5q0 5 -4 5zM575 756q-6 0 -6 -4q0 -7 6 -7q9 5 9 7zM489 713l-2 -2l-2 -2l2 -2h2q3 3 0 6zM471 657l4 -2q3 0 0 5q0 1 -2 2zM463 616 q-2 -2 0 -4q1 -3 4 -4q0 4 -2 4q0 2 -2 4zM453 594l-4 -6l6 -8q2 0 4 2v8q0 4 -6 4zM459 580l-2 -7h-2l-2 -4q4 -4 4 2q1 1 2 3t1 4t-1 2zM313 518q-2 -2 0 -4h2q0 3 -2 4zM463 494l-2 -2q0 -5 2 -5h2v5zM539 446q-5 2 -9 -2q0 -6 5 -6q10 0 10 2t-2.5 4.5t-3.5 1.5z M399 395v-4l4 -2q5 0 3 2q0 3 -5 4h-2zM502 365l-4 -7q2 -6 6 -8q2 0 4 2v10q0 3 -6 3zM524 356l-2 -6l2 1q2 1 2 3t-2 2zM469 307q-2 2 -4 0l-2 -2l2 -2q2 0 3.5 1.5t0.5 2.5zM453 150q-4 0 -7.5 -2.5t-3.5 -4.5q0 -6 11 -6q8 0 8 6q0 7 -8 7z" />
<glyph unicode="&#xa6;" horiz-adv-x="436" d="M205 1499h26q82 0 82 -82v-483q0 -82 -82 -82h-26q-82 0 -82 82v483q0 82 82 82zM205 627h26q82 0 82 -82v-484q0 -81 -82 -81h-26q-82 0 -82 81v484q0 82 82 82z" />
<glyph unicode="&#xa7;" horiz-adv-x="937" d="M518 1499q155 0 230 -127q19 -36 5.5 -63t-51.5 -43l-8 -2q-19 -10 -39.5 -6t-33.5 11t-35 25q-39 25 -76 25q-50 0 -78 -33t-22 -80q7 -35 34 -71t66.5 -68t85.5 -66t92.5 -71t86.5 -76t69.5 -89t38.5 -103q6 -41 6 -74q0 -142 -105 -209q-32 -20 -39 -41.5t7 -56.5 q26 -61 26 -140q0 -59 -20 -105.5t-51.5 -75.5t-74 -47.5t-83.5 -26t-84 -7.5q-91 0 -159 46t-107 128q-16 37 -3.5 64.5t50.5 42.5l18 6q36 13 58 2.5t45 -47.5q45 -64 116 -64q53 0 83.5 38.5t19.5 74.5q-8 45 -35.5 86t-66.5 73.5t-84.5 64.5t-91 66t-85 70t-69 84.5 t-39.5 102.5q-6 41 -6 74q0 137 108 208q32 20 39 43t-8 58q-29 71 -29 139q0 70 28 122.5t73.5 81t95.5 42.5t102 14zM377 870q-80 -34 -80 -94q0 -54 60.5 -119.5t135 -108t119.5 -42.5q30 0 51 18.5t29 44.5q13 38 -10 95q-27 63 -90 117.5t-124.5 79t-90.5 9.5zM692 459 q-14 0 -14 -13q0 -10 14 -10q15 0 15 10q0 6 -5 9.5t-10 3.5zM690 428q-8 -8 -8 -14q0 -11 6 -17q2 -2 17 -2q10 0 14 4q6 6 6 15q0 8 -8 12q-2 3 -13 4t-14 -2z" />
<glyph unicode="&#xa8;" horiz-adv-x="483" d="M39 1479h53q37 0 60.5 -23.5t23.5 -60.5v-54q0 -37 -23.5 -60.5t-60.5 -23.5h-53q-37 0 -60.5 23.5t-23.5 60.5v54q0 37 23.5 60.5t60.5 23.5zM391 1479h53q37 0 60.5 -23.5t23.5 -60.5v-54q0 -37 -23.5 -60.5t-60.5 -23.5h-53q-37 0 -60.5 23.5t-23.5 60.5v54 q0 37 23.5 60.5t60.5 23.5zM387 1444q-4 0 -8 -4t-4 -6q0 -9 4 -9q0 -2 8 -2t10 2t2 9q0 4 -2 6q-8 4 -10 4zM72 1352q-6 0 -15 -9q-6 -6 -6 -12q0 -13 6 -16q2 -4 15 -4q10 0 14 4q6 6 6 16q0 6 -6 12q-9 9 -14 9z" />
<glyph unicode="&#xa9;" horiz-adv-x="1562" d="M780 1499q155 0 296.5 -60.5t243.5 -162.5t162 -242.5t60 -294.5q0 -208 -102 -382.5t-277 -275.5t-383 -101q-155 0 -295.5 59.5t-242.5 161t-162 242.5t-60 296q0 154 60 294.5t162 242.5t242.5 162.5t295.5 60.5zM780 1321q-158 0 -292 -78t-211.5 -212t-77.5 -292 q0 -119 46 -227t123.5 -185.5t185 -123t226.5 -45.5q160 0 294.5 77t213 211t78.5 293q0 158 -78.5 292t-213.5 212t-294 78zM1325 1194l-4 -2q0 -2 4 -2q2 0 2 2t-2 2zM1350 1174q-21 0 -21 -11q0 -4 6.5 -8t14.5 -4q16 0 16 12q0 11 -16 11zM782 1159q114 0 180.5 -66.5 t88.5 -162.5q6 -29 -10.5 -46.5t-47.5 -17.5h-49q-50 0 -63 58q-10 41 -34.5 66.5t-62.5 25.5q-67 0 -90.5 -66.5t-23.5 -212.5q0 -53 1 -85.5t4.5 -69.5t10.5 -58t19 -40t30.5 -27t44.5 -8q79 0 99 88q15 55 65 55h47q32 0 46.5 -17.5t9.5 -48.5q-9 -48 -25.5 -84 t-45.5 -68.5t-78 -49.5t-116 -17q-154 0 -222 111t-68 319q0 200 71.5 311t218.5 111zM1315 1157q-10 0 -10 -6q0 -4 10 -4t10 4q0 6 -10 6zM573 1010q-14 0 -10 -25q1 -5 4 -9t5 -6l3 -1l-4 -11q-3 -14 4 -14q3 0 5 1.5t2.5 4.5t0.5 6t-0.5 7t-0.5 6q1 3 5.5 8t4.5 8 q0 25 -19 25zM991 545q-2 0 -14 -6q-6 -6 -6 -11q0 -11 6 -14q2 -4 14 -4q11 0 15 4q6 6 6 14q0 5 -6 11q-12 6 -15 6z" />
<glyph unicode="&#xab;" horiz-adv-x="958" d="M403 866h23q51 0 65.5 -29.5t-16.5 -70.5l-141 -186q-25 -28 -2 -58l139 -186q31 -41 16 -70.5t-67 -29.5h-17q-60 0 -98 49l-80 108q-10 17 -10 33q-1 3 -2 7.5t-2 6.5q0 2 -1.5 4t-5.5 5.5t-9 -0.5q-11 0 -13 4l-32 43q-42 57 0 114l155 207q38 49 98 49zM752 866h22 q51 0 65.5 -29.5t-16.5 -70.5l-141 -186q-25 -28 -2 -58l139 -186q31 -41 16 -70.5t-67 -29.5h-16q-61 0 -99 49l-155 211q-42 57 0 114l149 197q4 4 8 4q7 0 9 -4q7 -10 27 -8q11 2 11 8q0 12 -10 35q-4 8 4 12q24 12 56 12zM373 813q-3 0 -4.5 -2.5t0.5 -3.5 q0 -1 3.5 -4.5t4.5 -3.5q0 1 1 3.5t1.5 4.5t-0.5 4q0 5 -6 2zM340 778q-3 0 -4 -2l2 -2h2l2 2q2 0 1 1t-3 1zM633 459l2 -15q6 -3 6 0q2 5 2 7l-6 8h-4zM641 385q-4 0 -4 -6v-12q2 -2 4 0l2 14zM692 362l-2 -4l2 -4v-4q0 -2 2 -2.5t4 0.5l9 2v4q-5 6 -7 4q-1 0 -3 -1t-3 -1 l2 2q0 4 -4 4zM684 334l-6 -8q0 -4 2 -4q1 0 4.5 4t3.5 6q-2 4 -4 2zM371 307q-14 0 -24.5 -5.5t-10.5 -12.5q0 -6 11 -11.5t24 -5.5q10 0 18 5.5t8 11.5q0 7 -7.5 12.5t-18.5 5.5z" />
<glyph unicode="&#xad;" horiz-adv-x="753" d="M174 727h406q37 0 60.5 -23.5t23.5 -60.5v-22q0 -37 -23.5 -60.5t-60.5 -23.5h-406q-37 0 -60.5 23.5t-23.5 60.5v22q0 37 23.5 60.5t60.5 23.5z" />
<glyph unicode="&#xae;" horiz-adv-x="1562" d="M780 1499q155 0 296.5 -60.5t243.5 -162.5t162 -242.5t60 -294.5q0 -208 -102 -382.5t-277 -275.5t-383 -101q-155 0 -295.5 59.5t-242.5 161t-162 242.5t-60 296q0 154 60 294.5t162 242.5t242.5 162.5t295.5 60.5zM780 1321q-158 0 -292 -78t-211.5 -212t-77.5 -292 q0 -119 46 -227t123.5 -185.5t185 -123t226.5 -45.5q160 0 294.5 77t213 211t78.5 293q0 158 -78.5 292t-213.5 212t-294 78zM635 1192h203q98 0 146 -68t48 -221q0 -161 -57 -227q-37 -43 -23 -82l72 -227q10 -32 -3.5 -51t-47.5 -19h-21q-54 0 -69 51l-72 219 q-15 51 -51 51q-35 0 -35 -61v-199q0 -61 -61 -61h-29q-29 0 -45.5 16t-16.5 45v772q0 29 16.5 45.5t45.5 16.5zM803 1055h-17q-61 0 -61 -62v-176q0 -61 61 -61h17q82 0 82 147q0 152 -82 152zM623 377q-3 2 -13.5 -0.5t-13.5 -5.5q-4 -8 -4 -15q4 -12 8 -14q2 -2 5 -2 t6.5 1t4.5 1q11 4 13 8q6 6 2 15q0 8 -8 12zM1325 317q-9 3 -16 -4q-1 -3 2 -10q6 -6 12 -6q9 -3 18 0q12 0 15 6q6 6 2 8h-12q-2 0 -10 3t-11 3zM1311 291q-11 0 -11 -6t11 -6q10 0 10 6t-10 6z" />
<glyph unicode="&#xaf;" horiz-adv-x="454" d="M-4 1456h463q61 0 61 -61v-29q0 -61 -61 -61h-463q-62 0 -62 61v29q0 61 62 61zM418 1401q-3 -3 0 -10q3 -6 10 -2q3 1 3.5 5t-1.5 5q-5 9 -12 2zM408 1380q-4 7 -11 0q-9 -5 -4 -10q2 -2 6 -2l2 -2q13 0 15 4q0 3 -6 6q0 2 -2 4z" />
<glyph unicode="&#xb0;" horiz-adv-x="692" d="M346 1499q113 0 168 -85t55 -240q0 -160 -52 -245t-171 -85t-171 85t-52 245q0 155 55 240t168 85zM344 1389q-27 0 -44.5 -16.5t-26.5 -48t-12 -66.5t-3 -84q0 -51 3 -87.5t12 -69t26.5 -49t44.5 -16.5t44.5 16.5t25.5 49.5t11 68.5t3 87.5q0 50 -3 84t-11 66.5 t-25.5 48.5t-44.5 16z" />
<glyph unicode="&#xb1;" horiz-adv-x="1228" d="M573 1247h66q82 0 82 -82v-215h246q82 0 82 -82v-55q0 -82 -82 -82h-246v-215q0 -82 -82 -82h-66q-81 0 -81 82v215h-246q-82 0 -82 82v55q0 82 82 82h246v215q0 82 81 82zM246 315h721q82 0 82 -82v-26q0 -82 -82 -82h-721q-82 0 -82 82v26q0 82 82 82z" />
<glyph unicode="&#xb2;" horiz-adv-x="628" d="M315 1493q138 0 211.5 -74t73.5 -186q0 -159 -72 -236l-268 -282h277q61 0 61 -62v-59q0 -62 -61 -62h-447q-61 0 -61 62v76q0 45 30 78l308 319q57 60 57 152q0 37 -30.5 70.5t-78.5 33.5q-49 0 -79.5 -32.5t-30.5 -71.5v-21q0 -61 -62 -61h-53q-61 0 -61 61v35 q0 111 76 185.5t210 74.5zM516 664q-4 -4 0 -15q3 -6 14 -2q3 1 3.5 6.5t-1.5 8.5q-2 4 -6.5 5t-9.5 -3zM502 637q-2 3 -6.5 2.5t-6.5 -2.5q-4 -3 -6 -7.5t0 -6.5t9 -2l2 -5q15 0 20 7q0 4 -8 8q0 2 -4 6z" />
<glyph unicode="&#xb3;" horiz-adv-x="632" d="M315 1493q136 0 206.5 -66.5t70.5 -189.5q0 -27 -2 -48.5t-3.5 -37t-8 -30t-9 -21.5t-13.5 -18.5t-14.5 -15t-19 -16t-20.5 -16.5q34 -19 49 -30.5t32 -35.5t23 -60.5t6 -94.5q0 -143 -67.5 -213t-220.5 -70q-132 0 -207.5 68.5t-75.5 161.5q0 59 61 59h54q61 0 61 -61 v24q0 -36 28.5 -64t80.5 -28q116 0 116 123q0 106 -149 123q-62 10 -62 63v50q0 55 64 61q74 6 99.5 30t25.5 79q0 114 -107 114q-40 0 -65 -28t-25 -58q0 -43 -61 -43h-53q-62 0 -62 62q0 91 73.5 159t194.5 68zM147 1403l-2 -4q3 -6 7 -2q1 1 0.5 6t-5.5 0zM176 1391 q-4 3 -10 2t-6 -7q0 -11 10 -6q13 4 6 11zM567 920q-3 1 -13 -1.5t-13 -5.5q-4 -8 -4 -14q4 -12 8 -14q2 -2 5 -2t6.5 1t4.5 1q10 3 12 8q6 6 2 14q0 9 -8 13zM76 750l-4 -2q0 -3 4 -3q2 0 2 3q0 2 -2 2zM100 729q-20 0 -20 -10q0 -4 6 -8t14 -4q17 0 17 12q0 10 -17 10z M66 713q-11 0 -11 -6q0 -5 11 -5q10 0 10 5q0 6 -10 6z" />
<glyph unicode="&#xb4;" horiz-adv-x="356" d="M279 1520h71q55 0 68.5 -30.5t-23.5 -70.5l-139 -147q-33 -33 -76 -33h-43q-37 0 -49.5 21t6.5 53l86 149q33 58 99 58zM342 1460q-4 0 -8 -4t-4 -8q0 -6 4 -10q0 -2 8 -2t10 2t2 10q0 6 -2 8q-8 4 -10 4z" />
<glyph unicode="&#xb7;" horiz-adv-x="446" d="M223 645q55 0 94 -38.5t39 -94.5t-39 -94.5t-94 -38.5t-94 38.5t-39 94.5t39 94.5t94 38.5zM279 545q-7 -4 0 -15q3 -9 14 -2q4 1 4.5 6.5t-2.5 8.5q-2 5 -7.5 5.5t-8.5 -3.5zM262 516q-2 4 -7 3t-7 -3q-11 -7 -6 -16q2 -2 8 -2l4 -4q18 0 20 6q0 5 -8 10q0 2 -4 6z M170 481q-10 0 -10 -6t10 -6q8 0 8 6t-8 6z" />
<glyph unicode="&#xb8;" horiz-adv-x="440" d="M279 0l-48 -70q-29 -42 -19 -50q1 -1 3 -1q8 2 23 2q75 -3 130.5 -43.5t55.5 -111.5q0 -94 -75.5 -151.5t-178.5 -57.5q-73 0 -147 24q-27 9 -37 29t-2 45q17 47 75 29q58 -13 76 -13q53 0 87 24t34 60q0 33 -23 51.5t-54 19.5t-62 -3q-33 -6 -54 10q-20 17 3 51l114 156 h99zM272 -395q-6 0 -14 -8q-6 -6 -6 -13q0 -13 6 -16q2 -4 14 -4q11 0 15 4q6 6 6 16q0 7 -6 13q-8 8 -15 8z" />
<glyph unicode="&#xb9;" horiz-adv-x="573" d="M317 1479h39q62 0 62 -62v-807q0 -61 -62 -61h-59q-61 0 -61 61v588h-89q-29 0 -45 16.5t-16 45.5v4q0 27 13 42.5t42 26.5q68 30 105 99q27 47 71 47zM379 1438q-3 2 -13.5 -0.5t-13.5 -5.5q-4 -8 -4 -15q4 -12 8 -14q2 -2 5 -2t7 1t5 1q10 3 12 8q6 6 2 14q0 9 -8 13z M291 774q-16 3 -27 -8q-2 -5 4 -16q1 -1 4.5 -4t8 -5t8.5 -2q14 -3 28 0q19 0 23 11q10 10 4 14q-1 0 -4.5 -1t-7.5 -1t-8 2q-2 0 -15 5t-18 5zM268 731q-16 0 -16 -10t16 -10q17 0 17 10t-17 10z" />
<glyph unicode="&#xbb;" d="M184 866h23q60 0 98 -49l156 -207q42 -57 0 -114l-156 -211q-38 -49 -98 -49h-17q-52 0 -67 29.5t16 70.5l140 186q23 29 -3 58l-141 186q-31 41 -16.5 70.5t65.5 29.5zM532 866h23q60 0 98 -49l84 -112q6 -9 6 -21q-1 -6 1 -10.5t4 -5.5l2 -2q6 -6 12 -9q15 -6 24 -18 l23 -29q42 -57 0 -114l-156 -211q-38 -49 -98 -49h-16q-52 0 -67.5 29.5t15.5 70.5l140 186q23 30 -2 58l-142 186q-31 41 -16.5 70.5t65.5 29.5zM209 793l4 -5q4 -4 6 -2q7 6 4 9l-2 2h-4l-10 4zM188 782h-4q-2 -2 0 -4l2 -2zM252 776v-14l2 -4q4 0 4 6q-2 4 -2 14z M565 778q-14 0 -24.5 -5.5t-10.5 -12.5q0 -6 11 -11.5t24 -5.5q10 0 18.5 5.5t8.5 11.5q0 7 -8 12.5t-19 5.5zM295 340q-6 0 -6 -4t6 -4t6 4t-6 4z" />
<glyph unicode="&#xbc;" horiz-adv-x="1302" d="M1016 1499h49q37 0 49.5 -21t-4.5 -53l-702 -1400q-23 -45 -72 -45h-49q-37 0 -49.5 20.5t4.5 52.5l702 1401q23 45 72 45zM309 1479h13q61 0 61 -62v-743q0 -62 -61 -62h-31q-29 0 -45.5 16.5t-16.5 45.5v528q0 41 -41 41h-24q-62 0 -62 62q0 31 50 55q58 27 84 74 q31 45 73 45zM1016 1356q-4 0 -8 -4q0 -1 -1 -3t-1 -3q0 -7 2 -9t8 -2q1 0 3 1t3 1q2 2 2 9q0 4 -2 6q-4 4 -6 4zM293 993q-3 3 -8 0q-2 -1 -6 -2t-5 -2q-4 -4 -6 -8t4 -10q2 -2 9 -2q3 2 4.5 3.5t3 4.5t4.5 6q5 5 0 10zM326 979q-6 6 -9 0q-4 -4 0 -8q1 -1 4 -1t5 1 q5 3 0 8zM1061 872h72q61 0 61 -61v-463q2 -3 13 -3.5t18.5 -12.5t7.5 -45v-29q0 -24 -7.5 -36t-15.5 -12l-8 -1q-8 -4 -8 -62v-86q0 -61 -61 -61h-29q-29 0 -45.5 16t-16.5 45v107q0 41 -41 41h-190q-61 0 -61 61v37q0 43 18 78l221 442q23 45 72 45zM1155 791q-5 3 -8 -3 q-8 -4 -8 -8q0 -10 2 -14q6 -12 14 -12v-4q-1 -1 -2 -5t-2 -6q0 -10 10 -10q9 3 2 16l-4 11q6 3 6 12q0 10 -2 14q-3 7 -8 9zM993 551l-73 -154q-9 -22 -1 -35.5t31 -13.5h51q41 0 41 41v152q0 31 -18 35t-31 -25zM559 535q-5 0 -14 -9q-6 -6 -6 -12q0 -13 6 -16q2 -4 14 -4 q10 0 14 4q7 7 7 16q0 5 -7 12q-9 9 -14 9zM473 272q-8 3 -14 0q-12 -6 -13 -8q-4 -7 0 -14q1 -5 7 -9.5t10 -4.5q0 -3 -2 -5t-6 -10q-6 -12 10 -12q13 0 8 16l-4 11q7 2 12 12q4 11 2 14q-3 7 -10 10z" />
<glyph unicode="&#xbd;" horiz-adv-x="1468" d="M1012 1499h49q37 0 49.5 -21t-4.5 -53l-703 -1400q-23 -45 -71 -45h-49q-37 0 -49.5 20.5t4.5 52.5l702 1401q23 45 72 45zM305 1479h12q62 0 62 -62v-743q0 -62 -62 -62h-30q-29 0 -45.5 16.5t-16.5 45.5v528q0 41 -41 41h-24q-62 0 -62 62q0 18 11.5 30t37.5 25 q58 27 84 74q31 45 74 45zM969 1413q-4 0 -8 -4q0 -1 -1.5 -3t-1.5 -3q0 -5 3 -8q2 -2 8 -2q1 0 3 1t3 1q2 2 2 8q0 4 -2 6q-4 4 -6 4zM313 1403q-9 3 -16 -4q-1 -3 2 -10q7 -7 12 -7q10 -3 19 0q10 0 14 7q6 6 2 8l-2 -1h-4.5t-5.5 1q-2 0 -10 3t-11 3zM299 1376 q-10 0 -10 -6t10 -6t10 6t-10 6zM1159 901q120 0 184 -65.5t64 -163.5q0 -60 -8.5 -95.5t-40.5 -74.5l-234 -295q-17 -20 -10 -34.5t33 -14.5h196q62 0 62 -62v-35q0 -61 -62 -61h-374q-29 0 -45.5 16t-16.5 45v54q0 41 27 75l270 338q51 64 51 131q0 32 -28 61.5t-68 29.5 q-43 0 -70.5 -28.5t-27.5 -62.5v-10q0 -61 -62 -61h-30q-29 0 -45.5 16t-16.5 45v23q0 97 67 163t185 66zM549 457q-6 0 -14 -8q-7 -7 -7 -13q0 -12 7 -16q2 -4 14 -4q10 0 14 4q6 6 6 16q0 7 -6 13q-8 8 -14 8zM391 168q-14 0 -14 -12q0 -4 4.5 -7.5t9.5 -3.5t10 3.5t5 7.5 q0 12 -15 12zM389 137q-8 -8 -8 -14q0 -11 6 -17q2 -2 16 -2q10 0 15 5q6 6 6 14t-8 12q-2 3 -13 4t-14 -2zM993 61q-9 3 -16 -4q-1 -3 2 -10q6 -6 12 -6q9 -3 19 0q11 0 14 6q6 6 2 8h-12q-2 0 -10 3t-11 3zM979 35q-10 0 -10 -6t10 -6t10 6t-10 6z" />
<glyph unicode="&#xbe;" horiz-adv-x="1323" d="M1065 1499h49q37 0 49.5 -21t-4.5 -53l-702 -1400q-23 -45 -72 -45h-49q-37 0 -49.5 20.5t4.5 52.5l702 1401q23 45 72 45zM287 1491q112 0 169.5 -62.5t57.5 -173.5q0 -44 -3.5 -72.5t-16 -48.5t-21.5 -29.5t-33 -29.5q50 -28 71 -66t21 -128q0 -146 -55 -208.5 t-184 -62.5q-110 0 -171 59t-61 144q0 49 62 49h20q62 0 62 -61v30q0 -38 23 -63t67 -25q59 0 77.5 30.5t18.5 107.5q0 52 -26.5 78t-88.5 34q-61 9 -61 64v20q0 56 64 62q56 6 75 28t19 74q0 60 -21 88.5t-67 28.5q-34 0 -55 -24.5t-21 -57.5q0 -37 -62 -37h-18 q-61 0 -61 51q0 85 59.5 143t159.5 58zM975 1356q-4 0 -8 -4q0 -1 -1 -3t-1 -3q0 -7 2 -9t8 -2q1 0 3 1t3 1q2 2 2 9q0 4 -2 6q-4 4 -6 4zM1081 872h72q61 0 61 -61v-463q2 -3 13 -3.5t18.5 -12.5t7.5 -45v-29q0 -24 -7.5 -36t-15.5 -12l-7 -1q-9 -5 -9 -62v-86 q0 -61 -61 -61h-29q-61 0 -61 61v107q0 41 -41 41h-191q-61 0 -61 61v37q0 43 18 78l222 442q23 45 71 45zM121 791q-3 3 -8 0q-1 -1 -5.5 -2.5t-5.5 -2.5q-4 -4 -6 -8t4 -10q2 -2 9 -2q4 2 6.5 6t5.5 8q5 6 0 11zM154 776q-6 6 -9 0q-4 -4 0 -8q5 -4 9 0q5 3 0 8zM1133 733 q-3 -3 0 -10q3 -6 10 -2q3 1 3.5 5t-1.5 5q-5 9 -12 2zM1122 713q-3 7 -10 0q-3 -1 -4.5 -5.5t0.5 -5.5q2 -2 6 -2l2 -2q12 0 14 4q0 4 -6 7q0 2 -2 4zM1014 551l-74 -154q-9 -22 -0.5 -35.5t31.5 -13.5h51q41 0 41 41v152q0 31 -17.5 35t-31.5 -25zM555 399q-6 0 -14 -8 q-6 -6 -6 -12q0 -14 6 -17q2 -4 14 -4q10 0 14 4q6 6 6 17q0 6 -6 12q-8 8 -14 8z" />
<glyph unicode="&#xbf;" horiz-adv-x="851" d="M442 1065h70q37 0 60.5 -23.5t23.5 -60.5v-70q0 -37 -23.5 -60.5t-60.5 -23.5h-70q-37 0 -60.5 23.5t-23.5 60.5v70q0 37 23.5 60.5t60.5 23.5zM408 1020q-7 0 -15 -8q-6 -6 -6 -13q0 -13 6 -16q2 -4 15 -4q10 0 14 4q6 6 6 16q0 7 -6 13q-8 8 -14 8zM451 659h59 q37 0 61 -25t23 -63q-4 -74 -22 -139t-43 -111t-54.5 -87t-58.5 -74t-52.5 -64t-38 -66t-14.5 -71q0 -71 27 -111q13 -26 16 -49q1 -2 2 -5.5t2 -4.5q1 -2 2.5 -4.5t8.5 -5.5t16 8q14 11 31 8h18q38 0 74.5 19.5t60.5 56.5q29 54 80 45l66 -12q37 -6 57 -35t10 -64 q-34 -112 -124 -175.5t-224 -63.5q-368 0 -368 405q0 79 28 143.5t70 111.5t84.5 93t76.5 111.5t42 144.5q5 38 27 61t57 23zM262 172l-4 -2l-4 -8l2 -4q6 0 8 2v8q0 4 -2 4zM270 162l-2 -4l2 -4l2 2q2 4 0 4zM207 154v-4q0 -11 4 -11q0 1 2 6t2 7q0 4 -4 4zM238 127h-7 q-6 0 -6 -4l6 -4q-6 0 -6 -2h2h4v2q2 0 2 2zM279 84v4l-5 -4h5zM186 66l-2 4q-2 -2 -6 -2v-9q0 -2 4 -2q6 6 4 9zM184 -23l-4 3q-7 3 -10 0q0 -5 4 -5h12zM219 -119h-4q0 -1 -2 -3t-2 -3l2 -6q4 -2 4 0q2 4 2 12zM639 -121q-8 3 -14 0q-12 -6 -13 -8q-4 -7 0 -14q1 -5 7 -10 t10 -5q0 -2 -2 -4t-6 -10q-6 -12 10 -12q13 0 8 16l-4 10q7 2 12 13q4 11 2 14q-3 7 -10 10zM197 -147v-11h4q6 0 6 4l-2 4l-2 7l-4 2zM223 -156l-6 -6z" />
<glyph unicode="&#xc0;" horiz-adv-x="983" d="M322 1933h71q67 0 99 -57l86 -150q19 -32 6.5 -52.5t-49.5 -20.5h-43q-43 0 -76 33l-140 147q-37 40 -23 70t69 30zM498 1790q-7 0 -15 -8q-6 -6 -6 -13q0 -13 6 -16q2 -4 15 -4q10 0 14 4q6 6 6 16q0 7 -6 13q-8 8 -14 8zM430 1481l119 -2q49 -2 73.5 -22t36.5 -71 l101 -434q1 -5 -0.5 -13t-1.5 -13.5t4 -7.5q1 -2 -0.5 -11.5t2.5 -11.5q4 -4 7.5 -10t4.5 -11l2 -4l178 -759q11 -45 -15 -78t-73 -33h-67q-28 0 -49 16.5t-27 42.5l-27 113q-15 72 -90 72h-229q-75 0 -90 -72l-29 -113q-6 -27 -27 -43t-49 -16h-67q-46 0 -72 32.5t-16 78.5 l288 1263q26 110 113 107zM360 1329l-4 -4v-6h4q2 0 4 3.5t1 4.5zM461 1243q-11 0 -15 -4q0 -5 5 -2zM430 1229q-4 0 -4 -6q6 -6 8 -4zM420 1227q-11 4 -14 -2q-1 -1 -2.5 -5.5l-2.5 -7.5t0 -4q1 -2 10 -0.5t9 4.5q8 8 0 15zM612 1208q-6 0 -14 -8q-6 -6 -6 -12q0 -14 6 -17 q2 -4 14 -4q11 0 15 4q6 6 6 17q0 6 -6 12q-8 8 -15 8zM453 1202l-7 -8q0 -1 3 -4l12 6v6h-8zM373 1200q-6 -6 -4 -8q0 -3 2.5 -6t5.5 -2q2 4 2 14q-3 5 -6 2zM473 1196l-2 2q-2 -2 -4 -2v-2zM326 1196l-2 -4q-7 0 -7 -10q0 -12 7 -19q4 0 9 7t5 12q0 4 -1 9l-1 5h-10z M399 1182h-2l-6 -6h6zM420 1182q-6 -4 -6 -6h-2q-4 -4 -4 -7q4 -2 6 2q6 4 6 11zM434 1176q-10 -3 -14 -5q0 -4 2 -6l12 -4q2 0 4 2.5t2 3.5zM373 1163q-2 -2 -2.5 -7.5t2.5 -8.5q12 -6 16 -6q-2 0 -2.5 -4t0.5 -7v-4l6 -2q2 0 15 13q0 8 -2 8h-13q0 6 -6 10zM389 1120 l-2 -4q0 -2 6 -2t6 2l-6 4h-4zM602 563l-65 275q-9 39 -30 53.5t-41.5 0t-29.5 -53.5l-61 -275q-12 -51 16 -76q12 -8 17 -18q5 -9 14 0q2 1 6 2t6 2h96q43 0 62 24.5t10 65.5zM313 868q-1 0 -2 1t-2.5 1t-3.5 -2h-2q-1 -1 2 -4q8 1 8 4zM332 809q-4 0 -4 -2q-3 -3 0 -6 q0 -6 4 -2q6 0 2 8zM365 791h-3q1 -1 2 -3q3 -3 3 -2q1 4 -2 5zM313 752l-2 14q-6 0 -10 -6q-3 -2 -7 -8t-1 -7q12 -6 16 -2t4 9zM264 618q-5 -2 -11.5 -6.5t-6.5 -7.5l6 -6q0 -8 12 -4q4 2 8 6.5t6 8.5t1 5q-2 4 -15 4zM193 606q-1 0 -2 -1t-0.5 -3t2.5 -4l10 -18v12 q-2 8 -4.5 11.5t-5.5 2.5zM299 563q-4 0 -10 -4.5t-6 -7.5v-8q1 -6 4 -6l12 4q0 2 4 10q0 12 -4 12zM270 526l-12 -6q-2 -2 -2 -4t2 -2q6 0 8 2zM135 242q-14 0 -14 -13q0 -10 14 -10q15 0 15 10q0 6 -5 9.5t-10 3.5zM133 211q-8 -8 -8 -14q0 -11 6 -17q2 -2 16 -2 q11 0 15 4q6 6 6 15q0 8 -8 12q-2 3 -13 4t-14 -2z" />
<glyph unicode="&#xc1;" horiz-adv-x="983" d="M580 1933h71q55 0 68.5 -30t-23.5 -70l-139 -147q-33 -33 -76 -33h-43q-37 0 -49.5 20.5t6.5 52.5l86 150q32 57 99 57zM643 1874q-4 0 -8 -4t-4 -8q0 -7 4 -11q0 -2 8 -2t10 2t2 11q0 6 -2 8q-8 4 -10 4zM430 1481l119 -2q49 -2 73.5 -22t36.5 -71l101 -434 q1 -5 -0.5 -13t-1.5 -13.5t4 -7.5q1 -2 -0.5 -11.5t2.5 -11.5q4 -4 7.5 -10t4.5 -11l2 -4l178 -759q11 -45 -15 -78t-73 -33h-67q-28 0 -49 16.5t-27 42.5l-27 113q-15 72 -90 72h-229q-75 0 -90 -72l-29 -113q-6 -27 -27 -43t-49 -16h-67q-46 0 -72 32.5t-16 78.5l288 1263 q26 110 113 107zM360 1329l-4 -4v-6h4q2 0 4 3.5t1 4.5zM461 1243q-11 0 -15 -4q0 -5 5 -2zM430 1229q-4 0 -4 -6q6 -6 8 -4zM420 1227q-11 4 -14 -2q-1 -1 -2.5 -5.5l-2.5 -7.5t0 -4q1 -2 10 -0.5t9 4.5q8 8 0 15zM612 1208q-6 0 -14 -8q-6 -6 -6 -12q0 -14 6 -17 q2 -4 14 -4q11 0 15 4q6 6 6 17q0 6 -6 12q-8 8 -15 8zM453 1202l-7 -8q0 -1 3 -4l12 6v6h-8zM373 1200q-6 -6 -4 -8q0 -3 2.5 -6t5.5 -2q2 4 2 14q-3 5 -6 2zM473 1196l-2 2q-2 -2 -4 -2v-2zM399 1182h-2l-6 -6h6zM420 1182q-6 -4 -6 -6h-2q-4 -4 -4 -7q4 -2 6 2q6 4 6 11z M434 1176q-10 -3 -14 -5q0 -4 2 -6l12 -4q2 0 4 2.5t2 3.5zM373 1163q-2 -2 -2.5 -7.5t2.5 -8.5q12 -6 16 -6q-2 0 -2.5 -4t0.5 -7v-4l6 -2q2 0 15 13q0 8 -2 8h-13q0 6 -6 10zM389 1120l-2 -4q0 -2 6 -2t6 2l-6 4h-4zM346 991l-2 -4q-6 0 -6 -10q0 -13 6 -19q4 0 9 7t5 12 q0 4 -1 9l-1 5h-10zM602 563l-65 275q-9 39 -30 53.5t-41.5 0t-29.5 -53.5l-61 -275q-12 -51 16 -76q12 -8 17 -18q5 -9 14 0q2 1 6 2t6 2h96q43 0 62 24.5t10 65.5zM313 868q-1 0 -2 1t-2.5 1t-3.5 -2h-2q-1 -1 2 -4q8 1 8 4zM332 809q-4 0 -4 -2q-3 -3 0 -6q0 -6 4 -2 q6 0 2 8zM365 791h-3q1 -1 2 -3q3 -3 3 -2q1 4 -2 5zM313 752l-2 14q-6 0 -10 -6q-3 -2 -7 -8t-1 -7q12 -6 16 -2t4 9zM264 618q-5 -2 -11.5 -6.5t-6.5 -7.5l6 -6q0 -8 12 -4q4 2 8 6.5t6 8.5t1 5q-2 4 -15 4zM193 606q-1 0 -2 -1t-0.5 -3t2.5 -4l10 -18v12q-2 8 -4.5 11.5 t-5.5 2.5zM299 563q-4 0 -10 -4.5t-6 -7.5v-8q1 -6 4 -6l12 4q0 2 4 10q0 12 -4 12zM270 526l-12 -6q-2 -2 -2 -4t2 -2q6 0 8 2zM135 242q-14 0 -14 -13q0 -10 14 -10q15 0 15 10q0 6 -5 9.5t-10 3.5zM133 211q-8 -8 -8 -14q0 -11 6 -17q2 -2 16 -2q11 0 15 4q6 6 6 15 q0 8 -8 12q-2 3 -13 4t-14 -2z" />
<glyph unicode="&#xc2;" horiz-adv-x="983" d="M428 1933h131q48 0 74 -39l117 -168q23 -31 11.5 -52t-50.5 -21h-49q-48 0 -74 39l-51 69q-20 28 -43 28t-43 -28l-52 -69q-26 -39 -73 -39h-52q-37 0 -48 21t12 52l116 168q26 39 74 39zM584 1864q-6 0 -15 -9q-6 -6 -6 -12q0 -13 6 -16q2 -4 15 -4q10 0 14 4q6 6 6 16 q0 6 -6 12q-9 9 -14 9zM430 1481l119 -2q49 -2 73.5 -22t36.5 -71l101 -434q1 -5 -0.5 -13t-1.5 -13.5t4 -7.5q1 -2 -0.5 -11.5t2.5 -11.5q4 -4 7.5 -10t4.5 -11l2 -4l178 -759q11 -45 -15 -78t-73 -33h-67q-28 0 -49 16.5t-27 42.5l-27 113q-15 72 -90 72h-229 q-75 0 -90 -72l-29 -113q-6 -27 -27 -43t-49 -16h-67q-46 0 -72 32.5t-16 78.5l288 1263q26 110 113 107zM360 1329l-4 -4v-6h4q2 0 4 3.5t1 4.5zM461 1243q-11 0 -15 -4q0 -5 5 -2zM430 1229q-4 0 -4 -6q6 -6 8 -4zM420 1227q-11 4 -14 -2q-1 -1 -2.5 -5.5l-2.5 -7.5t0 -4 q1 -2 10 -0.5t9 4.5q8 8 0 15zM612 1208q-6 0 -14 -8q-6 -6 -6 -12q0 -14 6 -17q2 -4 14 -4q11 0 15 4q6 6 6 17q0 6 -6 12q-8 8 -15 8zM453 1202l-7 -8q0 -1 3 -4l12 6v6h-8zM373 1200q-6 -6 -4 -8q0 -3 2.5 -6t5.5 -2q2 4 2 14q-3 5 -6 2zM473 1196l-2 2q-2 -2 -4 -2v-2z M326 1196l-2 -4q-7 0 -7 -10q0 -12 7 -19q4 0 9 7t5 12q0 4 -1 9l-1 5h-10zM399 1182h-2l-6 -6h6zM420 1182q-6 -4 -6 -6h-2q-4 -4 -4 -7q4 -2 6 2q6 4 6 11zM434 1176q-10 -3 -14 -5q0 -4 2 -6l12 -4q2 0 4 2.5t2 3.5zM373 1163q-2 -2 -2.5 -7.5t2.5 -8.5q12 -6 16 -6 q-2 0 -2.5 -4t0.5 -7v-4l6 -2q2 0 15 13q0 8 -2 8h-13q0 6 -6 10zM389 1120l-2 -4q0 -2 6 -2t6 2l-6 4h-4zM602 563l-65 275q-9 39 -30 53.5t-41.5 0t-29.5 -53.5l-61 -275q-12 -51 16 -76q12 -8 17 -18q5 -9 14 0q2 1 6 2t6 2h96q43 0 62 24.5t10 65.5zM313 868q-1 0 -2 1 t-2.5 1t-3.5 -2h-2q-1 -1 2 -4q8 1 8 4zM332 809q-4 0 -4 -2q-3 -3 0 -6q0 -6 4 -2q6 0 2 8zM365 791h-3q1 -1 2 -3q3 -3 3 -2q1 4 -2 5zM313 752l-2 14q-6 0 -10 -6q-3 -2 -7 -8t-1 -7q12 -6 16 -2t4 9zM264 618q-5 -2 -11.5 -6.5t-6.5 -7.5l6 -6q0 -8 12 -4q4 2 8 6.5 t6 8.5t1 5q-2 4 -15 4zM193 606q-1 0 -2 -1t-0.5 -3t2.5 -4l10 -18v12q-2 8 -4.5 11.5t-5.5 2.5zM299 563q-4 0 -10 -4.5t-6 -7.5v-8q1 -6 4 -6l12 4q0 2 4 10q0 12 -4 12zM270 526l-12 -6q-2 -2 -2 -4t2 -2q6 0 8 2zM135 242q-14 0 -14 -13q0 -10 14 -10q15 0 15 10 q0 6 -5 9.5t-10 3.5zM133 211q-8 -8 -8 -14q0 -11 6 -17q2 -2 16 -2q11 0 15 4q6 6 6 15q0 8 -8 12q-2 3 -13 4t-14 -2z" />
<glyph unicode="&#xc3;" horiz-adv-x="983" d="M768 1915h2q27 0 38.5 -19t2.5 -49q-54 -174 -195 -174q-46 0 -128.5 40t-127.5 40q-57 0 -75 -37q-14 -28 -27 -40.5t-39 -12.5q-28 0 -40 18.5t-3 49.5q54 174 195 174q48 0 134.5 -40t121.5 -40q57 0 75 37q14 28 27 40.5t39 12.5zM719 1784q-6 0 -14 -8q-7 -7 -7 -13 q0 -13 7 -16q2 -4 14 -4q10 0 14 4q6 6 6 16q0 7 -6 13q-8 8 -14 8zM430 1481l119 -2q49 -2 73.5 -22t36.5 -71l101 -434q1 -5 -0.5 -13t-1.5 -13.5t4 -7.5q1 -2 -0.5 -11.5t2.5 -11.5q4 -4 7.5 -10t4.5 -11l2 -4l178 -759q11 -45 -15 -78t-73 -33h-67q-28 0 -49 16.5 t-27 42.5l-27 113q-15 72 -90 72h-229q-75 0 -90 -72l-29 -113q-6 -27 -27 -43t-49 -16h-67q-46 0 -72 32.5t-16 78.5l288 1263q26 110 113 107zM360 1329l-4 -4v-6h4q2 0 4 3.5t1 4.5zM461 1243q-11 0 -15 -4q0 -5 5 -2zM430 1229q-4 0 -4 -6q6 -6 8 -4zM420 1227 q-11 4 -14 -2q-1 -1 -2.5 -5.5l-2.5 -7.5t0 -4q1 -2 10 -0.5t9 4.5q8 8 0 15zM612 1208q-6 0 -14 -8q-6 -6 -6 -12q0 -14 6 -17q2 -4 14 -4q11 0 15 4q6 6 6 17q0 6 -6 12q-8 8 -15 8zM453 1202l-7 -8q0 -1 3 -4l12 6v6h-8zM373 1200q-6 -6 -4 -8q0 -3 2.5 -6t5.5 -2 q2 4 2 14q-3 5 -6 2zM473 1196l-2 2q-2 -2 -4 -2v-2zM326 1196l-2 -4q-7 0 -7 -10q0 -12 7 -19q4 0 9 7t5 12q0 4 -1 9l-1 5h-10zM399 1182h-2l-6 -6h6zM420 1182q-6 -4 -6 -6h-2q-4 -4 -4 -7q4 -2 6 2q6 4 6 11zM434 1176q-10 -3 -14 -5q0 -4 2 -6l12 -4q2 0 4 2.5t2 3.5z M373 1163q-2 -2 -2.5 -7.5t2.5 -8.5q12 -6 16 -6q-2 0 -2.5 -4t0.5 -7v-4l6 -2q2 0 15 13q0 8 -2 8h-13q0 6 -6 10zM389 1120l-2 -4q0 -2 6 -2t6 2l-6 4h-4zM602 563l-65 275q-9 39 -30 53.5t-41.5 0t-29.5 -53.5l-61 -275q-12 -51 16 -76q12 -8 17 -18q5 -9 14 0q2 1 6 2 t6 2h96q43 0 62 24.5t10 65.5zM313 868q-1 0 -2 1t-2.5 1t-3.5 -2h-2q-1 -1 2 -4q8 1 8 4zM332 809q-4 0 -4 -2q-3 -3 0 -6q0 -6 4 -2q6 0 2 8zM365 791h-3q1 -1 2 -3q3 -3 3 -2q1 4 -2 5zM313 752l-2 14q-6 0 -10 -6q-3 -2 -7 -8t-1 -7q12 -6 16 -2t4 9zM264 618 q-5 -2 -11.5 -6.5t-6.5 -7.5l6 -6q0 -8 12 -4q4 2 8 6.5t6 8.5t1 5q-2 4 -15 4zM193 606q-1 0 -2 -1t-0.5 -3t2.5 -4l10 -18v12q-2 8 -4.5 11.5t-5.5 2.5zM299 563q-4 0 -10 -4.5t-6 -7.5v-8q1 -6 4 -6l12 4q0 2 4 10q0 12 -4 12zM270 526l-12 -6q-2 -2 -2 -4t2 -2q6 0 8 2z M135 242q-14 0 -14 -13q0 -10 14 -10q15 0 15 10q0 6 -5 9.5t-10 3.5zM133 211q-8 -8 -8 -14q0 -11 6 -17q2 -2 16 -2q11 0 15 4q6 6 6 15q0 8 -8 12q-2 3 -13 4t-14 -2z" />
<glyph unicode="&#xc4;" horiz-adv-x="983" d="M291 1892h53q37 0 60.5 -23.5t23.5 -60.5v-53q0 -37 -23.5 -60.5t-60.5 -23.5h-53q-37 0 -60.5 23.5t-23.5 60.5v53q0 37 23.5 60.5t60.5 23.5zM643 1892h53q37 0 60.5 -23.5t23.5 -60.5v-53q0 -37 -23.5 -60.5t-60.5 -23.5h-53q-37 0 -60.5 23.5t-23.5 60.5v53 q0 37 23.5 60.5t60.5 23.5zM639 1858q-3 0 -8 -5q-4 -4 -4 -6q0 -8 4 -8q0 -2 8 -2t10 2t2 8q0 4 -2 6zM324 1765q-7 0 -15 -8q-6 -6 -6 -12q0 -13 6 -16q3 -5 15 -5q9 0 14 5q6 6 6 16q0 6 -6 12q-8 8 -14 8zM430 1481l119 -2q49 -2 73.5 -22t36.5 -71l101 -434 q1 -5 -0.5 -13t-1.5 -13.5t4 -7.5q1 -2 -0.5 -11.5t2.5 -11.5q4 -4 7.5 -10t4.5 -11l2 -4l178 -759q11 -45 -15 -78t-73 -33h-67q-28 0 -49 16.5t-27 42.5l-27 113q-15 72 -90 72h-229q-75 0 -90 -72l-29 -113q-6 -27 -27 -43t-49 -16h-67q-46 0 -72 32.5t-16 78.5l288 1263 q26 110 113 107zM360 1329l-4 -4v-6h4q2 0 4 3.5t1 4.5zM461 1243q-11 0 -15 -4q0 -5 5 -2zM430 1229q-4 0 -4 -6q6 -6 8 -4zM420 1227q-11 4 -14 -2q-1 -1 -2.5 -5.5l-2.5 -7.5t0 -4q1 -2 10 -0.5t9 4.5q8 8 0 15zM612 1208q-6 0 -14 -8q-6 -6 -6 -12q0 -14 6 -17 q2 -4 14 -4q11 0 15 4q6 6 6 17q0 6 -6 12q-8 8 -15 8zM453 1202l-7 -8q0 -1 3 -4l12 6v6h-8zM373 1200q-6 -6 -4 -8q0 -3 2.5 -6t5.5 -2q2 4 2 14q-3 5 -6 2zM473 1196l-2 2q-2 -2 -4 -2v-2zM326 1196l-2 -4q-7 0 -7 -10q0 -12 7 -19q4 0 9 7t5 12q0 4 -1 9l-1 5h-10z M399 1182h-2l-6 -6h6zM420 1182q-6 -4 -6 -6h-2q-4 -4 -4 -7q4 -2 6 2q6 4 6 11zM434 1176q-10 -3 -14 -5q0 -4 2 -6l12 -4q2 0 4 2.5t2 3.5zM373 1163q-2 -2 -2.5 -7.5t2.5 -8.5q12 -6 16 -6q-2 0 -2.5 -4t0.5 -7v-4l6 -2q2 0 15 13q0 8 -2 8h-13q0 6 -6 10zM389 1120 l-2 -4q0 -2 6 -2t6 2l-6 4h-4zM602 563l-65 275q-9 39 -30 53.5t-41.5 0t-29.5 -53.5l-61 -275q-12 -51 16 -76q12 -8 17 -18q5 -9 14 0q2 1 6 2t6 2h96q43 0 62 24.5t10 65.5zM313 868q-1 0 -2 1t-2.5 1t-3.5 -2h-2q-1 -1 2 -4q8 1 8 4zM332 809q-4 0 -4 -2q-3 -3 0 -6 q0 -6 4 -2q6 0 2 8zM365 791h-3q1 -1 2 -3q3 -3 3 -2q1 4 -2 5zM313 752l-2 14q-6 0 -10 -6q-3 -2 -7 -8t-1 -7q12 -6 16 -2t4 9zM264 618q-5 -2 -11.5 -6.5t-6.5 -7.5l6 -6q0 -8 12 -4q4 2 8 6.5t6 8.5t1 5q-2 4 -15 4zM193 606q-1 0 -2 -1t-0.5 -3t2.5 -4l10 -18v12 q-2 8 -4.5 11.5t-5.5 2.5zM299 563q-4 0 -10 -4.5t-6 -7.5v-8q1 -6 4 -6l12 4q0 2 4 10q0 12 -4 12zM270 526l-12 -6q-2 -2 -2 -4t2 -2q6 0 8 2zM135 242q-14 0 -14 -13q0 -10 14 -10q15 0 15 10q0 6 -5 9.5t-10 3.5zM133 211q-8 -8 -8 -14q0 -11 6 -17q2 -2 16 -2 q11 0 15 4q6 6 6 15q0 8 -8 12q-2 3 -13 4t-14 -2z" />
<glyph unicode="&#xc5;" horiz-adv-x="983" d="M494 2064q86 0 147 -61.5t61 -147.5t-61 -147t-147 -61t-147.5 61t-61.5 147t61.5 147.5t147.5 61.5zM494 1962q-44 0 -75.5 -31.5t-31.5 -75.5t31.5 -75t75.5 -31t75 31t31 75t-31 75.5t-75 31.5zM338 1829q-6 0 -14 -8q-7 -7 -7 -13q0 -12 7 -16q2 -4 14 -4q10 0 14 4 q6 6 6 16q0 7 -6 13q-8 8 -14 8zM430 1481l119 -2q49 -2 73.5 -22t36.5 -71l101 -434q1 -5 -0.5 -13t-1.5 -13.5t4 -7.5q1 -2 -0.5 -11.5t2.5 -11.5q4 -4 7.5 -10t4.5 -11l2 -4l178 -759q11 -45 -15 -78t-73 -33h-67q-28 0 -49 16.5t-27 42.5l-27 113q-15 72 -90 72h-229 q-75 0 -90 -72l-29 -113q-6 -27 -27 -43t-49 -16h-67q-46 0 -72 32.5t-16 78.5l288 1263q26 110 113 107zM360 1329l-4 -4v-6h4q2 0 4 3.5t1 4.5zM461 1243q-11 0 -15 -4q0 -5 5 -2zM430 1229q-4 0 -4 -6q6 -6 8 -4zM420 1227q-11 4 -14 -2q-1 -1 -2.5 -5.5l-2.5 -7.5t0 -4 q1 -2 10 -0.5t9 4.5q8 8 0 15zM612 1208q-6 0 -14 -8q-6 -6 -6 -12q0 -14 6 -17q2 -4 14 -4q11 0 15 4q6 6 6 17q0 6 -6 12q-8 8 -15 8zM453 1202l-7 -8q0 -1 3 -4l12 6v6h-8zM373 1200q-6 -6 -4 -8q0 -3 2.5 -6t5.5 -2q2 4 2 14q-3 5 -6 2zM473 1196l-2 2q-2 -2 -4 -2v-2z M326 1196l-2 -4q-7 0 -7 -10q0 -12 7 -19q4 0 9 7t5 12q0 4 -1 9l-1 5h-10zM399 1182h-2l-6 -6h6zM420 1182q-6 -4 -6 -6h-2q-4 -4 -4 -7q4 -2 6 2q6 4 6 11zM434 1176q-10 -3 -14 -5q0 -4 2 -6l12 -4q2 0 4 2.5t2 3.5zM373 1163q-2 -2 -2.5 -7.5t2.5 -8.5q12 -6 16 -6 q-2 0 -2.5 -4t0.5 -7v-4l6 -2q2 0 15 13q0 8 -2 8h-13q0 6 -6 10zM389 1120l-2 -4q0 -2 6 -2t6 2l-6 4h-4zM602 563l-65 275q-9 39 -30 53.5t-41.5 0t-29.5 -53.5l-61 -275q-12 -51 16 -76q12 -8 17 -18q5 -9 14 0q2 1 6 2t6 2h96q43 0 62 24.5t10 65.5zM313 868q-1 0 -2 1 t-2.5 1t-3.5 -2h-2q-1 -1 2 -4q8 1 8 4zM332 809q-4 0 -4 -2q-3 -3 0 -6q0 -6 4 -2q6 0 2 8zM365 791h-3q1 -1 2 -3q3 -3 3 -2q1 4 -2 5zM313 752l-2 14q-6 0 -10 -6q-3 -2 -7 -8t-1 -7q12 -6 16 -2t4 9zM264 618q-5 -2 -11.5 -6.5t-6.5 -7.5l6 -6q0 -8 12 -4q4 2 8 6.5 t6 8.5t1 5q-2 4 -15 4zM193 606q-1 0 -2 -1t-0.5 -3t2.5 -4l10 -18v12q-2 8 -4.5 11.5t-5.5 2.5zM299 563q-4 0 -10 -4.5t-6 -7.5v-8q1 -6 4 -6l12 4q0 2 4 10q0 12 -4 12zM270 526l-12 -6q-2 -2 -2 -4t2 -2q6 0 8 2zM135 242q-14 0 -14 -13q0 -10 14 -10q15 0 15 10 q0 6 -5 9.5t-10 3.5zM133 211q-8 -8 -8 -14q0 -11 6 -17q2 -2 16 -2q11 0 15 4q6 6 6 15q0 8 -8 12q-2 3 -13 4t-14 -2z" />
<glyph unicode="&#xc6;" horiz-adv-x="1480" d="M526 1479h793q37 0 60.5 -23.5t23.5 -60.5v-62q0 -37 -23.5 -60.5t-60.5 -23.5h-330q-82 0 -82 -82v-209q0 -81 82 -81h277q37 0 60.5 -23.5t23.5 -60.5v-62q0 -37 -23.5 -60.5t-60.5 -23.5h-277q-82 0 -82 -82v-254q0 -82 82 -82h330q37 0 60.5 -23.5t23.5 -60.5v-61 q0 -37 -23.5 -60.5t-60.5 -23.5h-574q-37 0 -60 23.5t-23 60.5v78q0 82 -82 82h-187q-71 0 -94 -66l-45 -129q-19 -49 -72 -49h-63q-51 0 -78 37t-12 86l426 1302q16 54 71 54zM981 1337q-3 2 -13.5 -0.5t-13.5 -5.5q-4 -8 -4 -14q4 -12 8 -14q2 -2 5 -2t7 1t5 1q10 3 12 8 q6 6 2 14q0 8 -8 12zM569 1047l-157 -480q-14 -43 4.5 -68.5t62.5 -25.5h101q82 0 82 82v475q0 28 -11 45.5t-26 20t-31 -10t-25 -38.5zM1257 721q-3 3 -8 0q-2 -1 -5.5 -2t-4.5 -2q-4 -4 -6 -8q-2 -5 4 -11q2 -2 8 -2q4 2 6 6.5t6 8.5q5 5 0 10zM1290 707q-5 5 -8 0 q-4 -5 0 -9t8 0q6 3 0 9zM758 502l-4 -4v-6h4q2 0 3.5 3.5t0.5 4.5zM803 397q-1 -1 -2.5 -5t-2 -7t0.5 -4l4 12v4zM770 373q-6 -6 -4 -8q0 -3 2.5 -6.5t5.5 -2.5q2 4 2 15q-3 5 -6 2zM797 354h-2l-7 -6h7zM770 336q-2 -2 -2.5 -8t2.5 -9q12 -6 16 -6q-2 0 -2.5 -3.5 t0.5 -6.5v-4q2 0 11 4.5t10 5.5q0 8 -2 8h-12q0 6 -7 11zM782 150q-5 -2 -11.5 -7t-6.5 -8l6 -6q0 -8 12 -4q4 2 8 6.5t6 8.5t1 5q-3 5 -15 5zM711 137q-1 0 -2 -1t-0.5 -3t2.5 -4l10 -18v12q-2 8 -4.5 11.5t-5.5 2.5zM90 96q-9 3 -16 -4q-2 -3 2 -10q6 -6 12 -6q9 -3 18 0 q12 0 15 6q6 6 2 8h-12q-2 0 -10 3t-11 3zM817 94q-4 0 -10 -4.5t-6 -7.5v-8q1 -6 4 -6l12 4q0 2 4 10q0 12 -4 12zM76 70q-10 0 -10 -7q0 -6 10 -6t10 6q0 7 -10 7zM788 57l-12 -6q-2 -1 -2 -3.5t2 -2.5q6 0 8 2z" />
<glyph unicode="&#xc7;" horiz-adv-x="1069" d="M526 1499q101 0 181 -36t128.5 -95.5t73.5 -131.5t25 -149q0 -26 -23.5 -42.5t-60.5 -16.5h-78q-37 0 -60.5 23.5t-23.5 60.5q0 39 -44 98.5t-116 59.5q-44 0 -77 -19.5t-50 -50t-24.5 -60.5t-7.5 -59v-133q0 -1 -2 -4t-2 -4l-5 -7q-4 -7 -4 -24q0 -3 -5 -10t-5 -10 q1 -4 6 -10t6 -9q11 -29 11 -47v-428q0 -27 8.5 -57t25.5 -60t49.5 -49.5t75.5 -19.5q55 0 93.5 34t52.5 74t14 78v31q0 37 23.5 60.5t60.5 23.5h78q37 0 60.5 -23.5t23.5 -60.5v-43q0 -75 -39 -172q-11 -26 -29.5 -48t-31.5 -31l-13 -9l-12 -6q-11 -8 -14.5 -26t-8.5 -23 q-77 -64 -186 -82l-37 -56q-29 -42 -19 -50q1 -1 3 -1q8 2 22 2q75 -3 131 -43.5t56 -111.5q0 -94 -75.5 -151.5t-178.5 -57.5q-74 0 -148 24q-27 9 -37 29t-2 45q17 47 76 29q59 -13 76 -13q53 0 87 24t34 60q0 33 -23 51.5t-54 19.5t-62 -3q-33 -6 -54 10q-21 18 2 51 l101 136q-90 6 -163 44t-118 96.5t-69.5 128t-24.5 142.5v690q0 59 16 121q1 1 2.5 2t2.5 2t1 2q1 3 2.5 12.5t2.5 12.5q41 117 137.5 191.5t238.5 74.5zM803 1274q-8 0 -8 -10q0 -11 8 -11t8 11q0 10 -8 10zM780 1272q-4 0 -12 -4v-13q0 -6 2 -10q4 -4 10 -4q2 0 8 6 q2 2 3 10t0 9q-1 0 -5 3t-6 3zM272 932l-2 6h-6q0 -4 2 -4q4 -4 6 -2zM203 928h-6q-2 -4 -2 -8l8 2v6zM299 922l6 -7q4 3 4 5l-4 2h-6zM248 854h-2q-2 -2 -2 -6t6 -10q3 0 4.5 4t-0.5 6q0 2 -1 4.5t-1 3.5zM270 813h-2h-4v-4q6 0 6 4zM274 797q-4 0 -4 -4q0 -2 2 -2h2 q3 0 0 6zM319 766l-8 6q-6 -2 -6 -6q-2 -3 2 -4q8 0 12 4zM299 770q-2 0 -2 -2l-2 -2q8 4 4 4zM297 748q-1 2 -3.5 1t-2.5 -4l-2 -8q8 0 8 2q4 7 0 9zM272 707l2 6q0 8 -4 0q-11 -1 -10 -4q7 -7 8 -7zM303 711l-6 -4q-2 0 -2 -2q2 -2 2 0q6 4 6 6zM248 684q-1 -3 -0.5 -3.5 t2.5 1.5zM285 676h-9v-6h5zM211 670h-2q-4 0 -6 -2q1 -1 1 -3q2 -4 3 -1zM213 647l2 -6h2l2 2l-4 2q0 1 -2 2zM205 637q-1 0 -1.5 -2t0.5 -5t3 -5q0 -4 2 -2q2 6 0 6q-1 2 -2 5q-2 4 -2 3zM238 602q-2 -2 0 -6l6 -8v6q0 8 -6 8zM203 588q-6 0 -6 -2l2 -2v-2l6 4q2 2 -2 2z M258 586q0 2 -4.5 2t-7.5 -2l-2 -4l-6 -2l-5 -5q3 -2 5 -2h6l-2 2q5 0 8 3q6 0 2 4v2q5 -3 8 0q2 2 -2 2zM250 584h-4l4 2v-2zM238 580l4 -5q-4 0 -4 5zM199 526q-4 0 -4 -4v-8l10 -2h10v2l2 2l-6 4q-9 9 -12 6zM279 522l-3 -4l-8 -6h2q3 0 7 2t4 4v4q-1 1 -2 0zM190 512 q-3 3 -8 0q-2 -1 -5.5 -2t-4.5 -2q-4 -4 -6 -8q-2 -5 4 -11q2 -2 8 -2q4 2 6 6.5t6 8.5q5 5 0 10zM223 498q-5 5 -8 0q-1 -2 -1 -5t1 -4q4 -4 8 0q6 3 0 9zM813 442q-4 0 -2 -2q-4 -4 0 -4q3 -3 6 0q0 1 -2 3t-2 3zM745 430h-4q-2 -2 -2 -8l9 4zM844 426v-4l6 -2q4 0 4 2 l-2 4h-8zM223 391q-2 3 -8.5 1t-9.5 -5q-2 -2 -2.5 -4.5t-0.5 -4t-1 -1.5l4 -4l2 2q4 -4 10 4q6 3 6 12zM248 391l-2 -2q-4 0 4 -4q0 -4 2 0l-2 6h-2zM258 381q-2 1 -8 0.5t-8 -2.5q-2 -6 0 -8l6 -2q-4 -5 0 -9q-2 -4 4 -12q1 -1 3 0.5t3.5 4.5t1.5 5q-1 2 -8 9q1 0 2 1.5 t2 3.5t2 3l2 2zM827 377l2 -2l5 2l-5 2zM793 358l-2 -2q-3 -3 -3 -6q3 -6 7 -10q7 7 4 12l-2 6h-4zM823 352l-10 2q0 -6 2 -8t10 -2q-2 -4 0 -6v-2h4l7 8q0 4 -2 4l-7 -2q0 4 -4 6zM211 322l-2 4q0 2 -2 0.5t-2 -4.5l2 -3zM250 324q0 1 -2 -2q3 -3 4 -2t-2 4zM217 317 q-3 -1 1 -5t5 -1h2l2 2l-8 2zM809 313l2 -2l4 4l-2 2zM276 315q-1 0 -4.5 -4t-3.5 -6l4 -6l9 -2q4 4 0 8zM817 299v-2v-4h2q3 3 -2 6zM225 287l-8 -11l2 -4q3 0 5 2t3 2q-1 1 -1 3.5v5t-1 2.5zM856 274q-6 0 -6 -4q-3 -6 2 -6q12 0 12 4q0 1 -3 3.5t-5 2.5zM844 272 q-2 0 -2 -2v-2q4 4 2 4zM842 250q-2 2 -4 2t-2 -2l-2 -8q0 -1 2 -1.5t4 0.5t2 3q3 3 0 6zM817 209l2 8q-2 2 -6 0q-2 0 -5.5 -2.5t-2.5 -3.5q6 -6 8 -6zM844 211h-2l-2 -2q0 -2 1 -2l1 2l6 4zM829 178l-6 -2l-2 -2h4zM356 172v2q0 8 -4 0q-1 0 -2 -2l4 -2zM754 172l-4 -2 q0 -6 2 -4l4 6h-2zM340 104q0 3 -7 -4q-1 -1 -1 -2l-2.5 -2.5t0.5 -1.5q6 0 8 2q0 2 2 7v1zM604 -395q-6 0 -14 -8q-6 -6 -6 -13q0 -13 6 -16q2 -4 14 -4q10 0 14 4q7 7 7 16q0 6 -7 13q-8 8 -14 8z" />
<glyph unicode="&#xc8;" horiz-adv-x="942" d="M414 1686l-140 147q-37 40 -23.5 70t68.5 30h72q66 0 98 -57l86 -150q19 -32 6.5 -52.5t-49.5 -20.5h-43q-42 0 -75 33zM481 1782q-6 -6 -6 -13q0 -13 6 -16q2 -4 15 -4q10 0 14 4q6 6 6 16q0 7 -6 13q-8 8 -14 8q-7 0 -15 -8zM782 1249h-329q-84 0 -84 -80v-208 q0 -40 22 -62t62 -22h276q37 0 59.5 -22.5t22.5 -59.5v-62q0 -37 -23 -61.5t-59 -24.5h-276q-84 0 -84 -80v-254q0 -40 22 -62t62 -22h329q37 0 59.5 -22.5t22.5 -59.5v-61q0 -37 -23 -61.5t-59 -24.5h-573q-37 0 -61.5 24.5t-24.5 61.5v1051q0 20 5 36t5 44q0 14 -5 30 t-5 45v105q0 36 24.5 59t61.5 23h573q37 0 59.5 -22.5t22.5 -59.5v-62q0 -37 -23 -61.5t-59 -24.5zM350 1376l-2 2q-6 0 -6 -4l2 -2l2 2zM227 1360v-12q1 0 11 10v8h-5l-2 -2q-4 0 -4 -4zM367 1296q6 -6 6 0q-1 1 -1.5 3l-1 4t-1.5 2q-1 1 -7 -5zM231 1288l5 6q-1 2 -3 4 l-4 -4q0 -4 2 -6zM330 1284l-4 2l-2 -4q0 -2 3.5 -6t4.5 -4h4l2 8q4 -2 6 2l8 6q-2 2 -6 2.5t-6 -0.5l-6 -8q1 1 -0.5 1.5t-3.5 0.5zM240 1286v-3q-1 -4 0 -3l8 6h-2q0 2 -2 2t-4 -2zM309 1274v-2v4l-6 4h-6l2 -6q-2 0 -4 -4q1 -1 -1 -4l1 -2q0 -2 2.5 -2t3.5 2l2 8q2 0 6 2 zM270 1268l-2 -4l6 -2v2zM346 1266q2 2 0 2h-4v-2q-2 -2 2 -2q2 0 2 2zM221 1260v6q-4 -4 -6 -4l2 -2q1 1 3 0h1zM330 1260l-2 2h-2v-2l4 -3v3zM299 1243q0 -4 6 2q0 4 -10 4q-2 0 -6 -4l4 -4q4 -2 6 2zM287 1202l-8 2q2 2 -1 3q-1 0 -2 -1l-7 -1l1 -1q-2 -4 2 -6l2 2l7 -4 q6 0 8 2q0 2 -2 4zM227 1198l6 -2l-4 8l-4 -2q0 -1 1 -2t1 -2zM229 1130l-4 5v-7zM213 1065v4q2 2 -2 2h-2q-2 -2 2 -6h2zM188 1071q-4 -4 0 -4q2 -2 2.5 1t-2.5 3zM338 995v6l-2 -4zM186 991q10 -10 11 -10q4 0 4 10q-6 6 -11 4q-6 0 -4 -4zM170 975q2 0 5 1.5t4.5 3.5 t0.5 3l-12 6q-4 0 -4 -4l-2 -12q6 0 8 2zM158 889v-4l4 4v2zM193 877v2l-7 -2q4 -3 7 0zM272 877l-6 -7q1 -2 3.5 -3t4.5 -0.5t2 1.5q5 0 5 9q-1 1 -4 1t-5 -1zM358 805q7 7 7 16q0 6 -7 13q-8 8 -14 8t-14 -8q-6 -6 -6 -13q0 -13 6 -16q2 -4 14 -4q10 0 14 4zM377 838v-4h4 l4 6zM238 817h2l2 2l-2 2q-2 -2 -2 -4zM195 817l8 -4h4l-4 6zM604 799l-4 4q0 -2 2 -2v-2q0 -2 2 -2q2 2 0 2zM567 801q-4 -4 0 -8l8 -2q0 8 -2 8zM631 780l4 4l-4 4v-8zM768 784q-1 0 -3 1l-1 -1h4l4 -10l2 -2v4q-1 1 -2 3t-2 3.5t-2 1.5zM602 776l-6 4v-6q0 -8 4 -8 q6 6 6 8q-2 2 -4 2zM711 766q-3 0 -3.5 -4.5t1.5 -7.5h2l4 -6l2 -5q2 3 2 7l2 4l-2 -2h-2v6q-3 3 -4 2h-2v8q-2 0 0 -2zM707 754h-7q-6 -3 -6 -6q2 -2 4 2zM662 731l-5 -2l-2.5 -2.5t0.5 -1.5q7 2 7 4v2zM766 725l-6 -12l4 -4q6 1 6 2l2 8v10h-2q0 -2 -4 -4zM637 717 q1 1 2.5 1.5l1.5 0.5l-6 4q-2 -2 2 -6zM672 721l-8 -4q8 0 10 2q4 0 2 2q0 1 -2 1t-2 -1zM709 719q-2 0 -2 -2q0 -4 2 -4q0 -4 2 0q2 2 -2 6zM254 653v-8q4 -4 6 -8l4 4l-4 10q-4 2 -6 2zM264 606v2q1 2 0.5 4t-2.5 2l-2 -2v-4zM287 530h4q1 0 4.5 4.5t3.5 6.5q0 6 -2 8 l-6 -4q-1 1 -2.5 4t-3.5 4q-8 7 -11 6q-2 -1 -2 -6t2 -8q9 0 13 -4q-1 1 -1 -1q-1 -3 1 -8v-2zM246 522l4 -6v6l-2 2zM268 270h11q0 6 -5 11q-6 0 -6 -5q-2 -2 -2 -4t2 -2zM174 258v2q-1 2 -3.5 3.5t-4.5 1.5t-2 -1l6 -4l-2 -2h6zM739 168q-4 -4 -4 -14q0 -3 7.5 -12 t11.5 -9q10 0 16 4q6 6 6 17q0 3 -1.5 5t-4.5 4t-4 3q-4 8 -12 8q-9 0 -15 -6zM729 133q-10 -10 0 -20q13 -8 21 0q6 5 -5 16q-10 10 -16 4z" />
<glyph unicode="&#xc9;" horiz-adv-x="942" d="M479 1653h-43q-37 0 -49.5 20.5t6.5 52.5l86 150q32 57 99 57h71q55 0 68.5 -30t-23.5 -70l-139 -147q-33 -33 -76 -33zM633 1870q-4 -4 -4 -8q0 -7 4 -11q0 -2 8 -2t10 2t2 11q0 6 -2 8q-8 4 -10 4q-4 0 -8 -4zM782 1249h-329q-84 0 -84 -80v-208q0 -40 22 -62t62 -22 h276q37 0 59.5 -22.5t22.5 -59.5v-62q0 -37 -23 -61.5t-59 -24.5h-276q-84 0 -84 -80v-254q0 -40 22 -62t62 -22h329q37 0 59.5 -22.5t22.5 -59.5v-61q0 -37 -23 -61.5t-59 -24.5h-573q-37 0 -61.5 24.5t-24.5 61.5v1051q0 20 5 36t5 44q0 14 -5 30t-5 45v105q0 36 24.5 59 t61.5 23h573q37 0 59.5 -22.5t22.5 -59.5v-62q0 -37 -23 -61.5t-59 -24.5zM350 1376l-2 2q-6 0 -6 -4l2 -2l2 2zM227 1360v-12q1 0 11 10v8h-5l-2 -2q-4 0 -4 -4zM367 1296q6 -6 6 0q-1 1 -1.5 3l-1 4t-1.5 2q-1 1 -7 -5zM231 1288l5 6q-1 2 -3 4l-4 -4q0 -4 2 -6zM330 1284 l-4 2l-2 -4q0 -2 3.5 -6t4.5 -4h4l2 8q4 -2 6 2l8 6q-2 2 -6 2.5t-6 -0.5l-6 -8q1 1 -0.5 1.5t-3.5 0.5zM240 1286v-3q-1 -4 0 -3l8 6h-2q0 2 -2 2t-4 -2zM309 1274v-2v4l-6 4h-6l2 -6q-2 0 -4 -4q1 -1 -1 -4l1 -2q0 -2 2.5 -2t3.5 2l2 8q2 0 6 2zM270 1268l-2 -4l6 -2v2z M346 1266q2 2 0 2h-4v-2q-2 -2 2 -2q2 0 2 2zM221 1260v6q-4 -4 -6 -4l2 -2q1 1 3 0h1zM330 1260l-2 2h-2v-2l4 -3v3zM299 1243q0 -4 6 2q0 4 -10 4q-2 0 -6 -4l4 -4q4 -2 6 2zM287 1202l-8 2q2 2 -1 3q-1 0 -2 -1l-7 -1l1 -1q-2 -4 2 -6l2 2l7 -4q6 0 8 2q0 2 -2 4z M227 1198l6 -2l-4 8l-4 -2q0 -1 1 -2t1 -2zM229 1130l-4 5v-7zM213 1065v4q2 2 -2 2h-2q-2 -2 2 -6h2zM188 1071q-4 -4 0 -4q2 -2 2.5 1t-2.5 3zM338 995v6l-2 -4zM186 991q10 -10 11 -10q4 0 4 10q-6 6 -11 4q-6 0 -4 -4zM170 975q2 0 5 1.5t4.5 3.5t0.5 3l-12 6 q-4 0 -4 -4l-2 -12q6 0 8 2zM158 889v-4l4 4v2zM193 877v2l-7 -2q4 -3 7 0zM272 877l-6 -7q1 -2 3.5 -3t4.5 -0.5t2 1.5q5 0 5 9q-1 1 -4 1t-5 -1zM358 805q7 7 7 16q0 6 -7 13q-8 8 -14 8t-14 -8q-6 -6 -6 -13q0 -13 6 -16q2 -4 14 -4q10 0 14 4zM377 838v-4h4l4 6z M238 817h2l2 2l-2 2q-2 -2 -2 -4zM195 817l8 -4h4l-4 6zM604 799l-4 4q0 -2 2 -2v-2q0 -2 2 -2q2 2 0 2zM567 801q-4 -4 0 -8l8 -2q0 8 -2 8zM631 780l4 4l-4 4v-8zM768 784q-1 0 -3 1l-1 -1h4l4 -10l2 -2v4q-1 1 -2 3t-2 3.5t-2 1.5zM602 776l-6 4v-6q0 -8 4 -8q6 6 6 8 q-2 2 -4 2zM711 766q-3 0 -3.5 -4.5t1.5 -7.5h2l4 -6l2 -5q2 3 2 7l2 4l-2 -2h-2v6q-3 3 -4 2h-2v8q-2 0 0 -2zM707 754h-7q-6 -3 -6 -6q2 -2 4 2zM662 731l-5 -2l-2.5 -2.5t0.5 -1.5q7 2 7 4v2zM766 725l-6 -12l4 -4q6 1 6 2l2 8v10h-2q0 -2 -4 -4zM637 717q1 1 2.5 1.5 l1.5 0.5l-6 4q-2 -2 2 -6zM672 721l-8 -4q8 0 10 2q4 0 2 2q0 1 -2 1t-2 -1zM709 719q-2 0 -2 -2q0 -4 2 -4q0 -4 2 0q2 2 -2 6zM254 653v-8q4 -4 6 -8l4 4l-4 10q-4 2 -6 2zM264 606v2q1 2 0.5 4t-2.5 2l-2 -2v-4zM287 530h4q1 0 4.5 4.5t3.5 6.5q0 6 -2 8l-6 -4 q-1 1 -2.5 4t-3.5 4q-8 7 -11 6q-2 -1 -2 -6t2 -8q9 0 13 -4q-1 1 -1 -1q-1 -3 1 -8v-2zM246 522l4 -6v6l-2 2zM268 270h11q0 6 -5 11q-6 0 -6 -5q-2 -2 -2 -4t2 -2zM174 258v2q-1 2 -3.5 3.5t-4.5 1.5t-2 -1l6 -4l-2 -2h6zM739 168q-4 -4 -4 -14q0 -3 7.5 -12t11.5 -9 q10 0 16 4q6 6 6 17q0 3 -1.5 5t-4.5 4t-4 3q-4 8 -12 8q-9 0 -15 -6zM729 133q-10 -10 0 -20q13 -8 21 0q6 5 -5 16q-10 10 -16 4z" />
<glyph unicode="&#xca;" horiz-adv-x="942" d="M324 1653h-52q-37 0 -48 21t12 52l116 168q26 39 74 39h131q48 0 74 -39l117 -168q23 -31 11.5 -52t-50.5 -21h-50q-47 0 -73 39l-51 69q-20 28 -43 28t-43 -28l-52 -69q-26 -39 -73 -39zM567 1855q-6 -6 -6 -12q0 -13 6 -16q2 -4 15 -4q10 0 14 4q6 6 6 16q0 6 -6 12 q-9 9 -14 9q-6 0 -15 -9zM782 1249h-329q-84 0 -84 -80v-208q0 -40 22 -62t62 -22h276q37 0 59.5 -22.5t22.5 -59.5v-62q0 -37 -23 -61.5t-59 -24.5h-276q-84 0 -84 -80v-254q0 -40 22 -62t62 -22h329q37 0 59.5 -22.5t22.5 -59.5v-61q0 -37 -23 -61.5t-59 -24.5h-573 q-37 0 -61.5 24.5t-24.5 61.5v1051q0 20 5 36t5 44q0 14 -5 30t-5 45v105q0 36 24.5 59t61.5 23h573q37 0 59.5 -22.5t22.5 -59.5v-62q0 -37 -23 -61.5t-59 -24.5zM350 1376l-2 2q-6 0 -6 -4l2 -2l2 2zM227 1360v-12q1 0 11 10v8h-5l-2 -2q-4 0 -4 -4zM367 1296q6 -6 6 0 q-1 1 -1.5 3l-1 4t-1.5 2q-1 1 -7 -5zM231 1288l5 6q-1 2 -3 4l-4 -4q0 -4 2 -6zM330 1284l-4 2l-2 -4q0 -2 3.5 -6t4.5 -4h4l2 8q4 -2 6 2l8 6q-2 2 -6 2.5t-6 -0.5l-6 -8q1 1 -0.5 1.5t-3.5 0.5zM240 1286v-3q-1 -4 0 -3l8 6h-2q0 2 -2 2t-4 -2zM309 1274v-2v4l-6 4h-6 l2 -6q-2 0 -4 -4q1 -1 -1 -4l1 -2q0 -2 2.5 -2t3.5 2l2 8q2 0 6 2zM270 1268l-2 -4l6 -2v2zM346 1266q2 2 0 2h-4v-2q-2 -2 2 -2q2 0 2 2zM221 1260v6q-4 -4 -6 -4l2 -2q1 1 3 0h1zM330 1260l-2 2h-2v-2l4 -3v3zM299 1243q0 -4 6 2q0 4 -10 4q-2 0 -6 -4l4 -4q4 -2 6 2z M287 1202l-8 2q2 2 -1 3q-1 0 -2 -1l-7 -1l1 -1q-2 -4 2 -6l2 2l7 -4q6 0 8 2q0 2 -2 4zM227 1198l6 -2l-4 8l-4 -2q0 -1 1 -2t1 -2zM229 1130l-4 5v-7zM213 1065v4q2 2 -2 2h-2q-2 -2 2 -6h2zM188 1071q-4 -4 0 -4q2 -2 2.5 1t-2.5 3zM338 995v6l-2 -4zM186 991 q10 -10 11 -10q4 0 4 10q-6 6 -11 4q-6 0 -4 -4zM170 975q2 0 5 1.5t4.5 3.5t0.5 3l-12 6q-4 0 -4 -4l-2 -12q6 0 8 2zM158 889v-4l4 4v2zM193 877v2l-7 -2q4 -3 7 0zM272 877l-6 -7q1 -2 3.5 -3t4.5 -0.5t2 1.5q5 0 5 9q-1 1 -4 1t-5 -1zM358 805q7 7 7 16q0 6 -7 13 q-8 8 -14 8t-14 -8q-6 -6 -6 -13q0 -13 6 -16q2 -4 14 -4q10 0 14 4zM377 838v-4h4l4 6zM238 817h2l2 2l-2 2q-2 -2 -2 -4zM195 817l8 -4h4l-4 6zM604 799l-4 4q0 -2 2 -2v-2q0 -2 2 -2q2 2 0 2zM567 801q-4 -4 0 -8l8 -2q0 8 -2 8zM631 780l4 4l-4 4v-8zM768 784q-1 0 -3 1 l-1 -1h4l4 -10l2 -2v4q-1 1 -2 3t-2 3.5t-2 1.5zM602 776l-6 4v-6q0 -8 4 -8q6 6 6 8q-2 2 -4 2zM711 766q-3 0 -3.5 -4.5t1.5 -7.5h2l4 -6l2 -5q2 3 2 7l2 4l-2 -2h-2v6q-3 3 -4 2h-2v8q-2 0 0 -2zM707 754h-7q-6 -3 -6 -6q2 -2 4 2zM662 731l-5 -2l-2.5 -2.5t0.5 -1.5 q7 2 7 4v2zM766 725l-6 -12l4 -4q6 1 6 2l2 8v10h-2q0 -2 -4 -4zM637 717q1 1 2.5 1.5l1.5 0.5l-6 4q-2 -2 2 -6zM672 721l-8 -4q8 0 10 2q4 0 2 2q0 1 -2 1t-2 -1zM709 719q-2 0 -2 -2q0 -4 2 -4q0 -4 2 0q2 2 -2 6zM254 653v-8q4 -4 6 -8l4 4l-4 10q-4 2 -6 2zM264 606v2 q1 2 0.5 4t-2.5 2l-2 -2v-4zM287 530h4q1 0 4.5 4.5t3.5 6.5q0 6 -2 8l-6 -4q-1 1 -2.5 4t-3.5 4q-8 7 -11 6q-2 -1 -2 -6t2 -8q9 0 13 -4q-1 1 -1 -1q-1 -3 1 -8v-2zM246 522l4 -6v6l-2 2zM268 270h11q0 6 -5 11q-6 0 -6 -5q-2 -2 -2 -4t2 -2zM174 258v2q-1 2 -3.5 3.5 t-4.5 1.5t-2 -1l6 -4l-2 -2h6zM739 168q-4 -4 -4 -14q0 -3 7.5 -12t11.5 -9q10 0 16 4q6 6 6 17q0 3 -1.5 5t-4.5 4t-4 3q-4 8 -12 8q-9 0 -15 -6zM729 133q-10 -10 0 -20q13 -8 21 0q6 5 -5 16q-10 10 -16 4z" />
<glyph unicode="&#xcb;" horiz-adv-x="942" d="M342 1671h-53q-37 0 -60.5 23.5t-23.5 60.5v53q0 37 23.5 60.5t60.5 23.5h53q37 0 60.5 -23.5t23.5 -60.5v-53q0 -37 -23.5 -60.5t-60.5 -23.5zM694 1671h-53q-37 0 -60.5 23.5t-23.5 60.5v53q0 37 23.5 60.5t60.5 23.5h53q37 0 60.5 -23.5t23.5 -60.5v-53 q0 -37 -23.5 -60.5t-60.5 -23.5zM629 1853q-4 -4 -4 -6q0 -8 4 -8q0 -2 8 -2t10 2t2 8q0 4 -2 6l-10 5q-3 0 -8 -5zM307 1757q-6 -6 -6 -12q0 -13 6 -16q3 -5 15 -5q9 0 14 5q6 6 6 16q0 6 -6 12q-8 8 -14 8q-7 0 -15 -8zM782 1249h-329q-84 0 -84 -80v-208q0 -40 22 -62 t62 -22h276q37 0 59.5 -22.5t22.5 -59.5v-62q0 -37 -23 -61.5t-59 -24.5h-276q-84 0 -84 -80v-254q0 -40 22 -62t62 -22h329q37 0 59.5 -22.5t22.5 -59.5v-61q0 -37 -23 -61.5t-59 -24.5h-573q-37 0 -61.5 24.5t-24.5 61.5v1051q0 20 5 36t5 44q0 14 -5 30t-5 45v105 q0 36 24.5 59t61.5 23h573q37 0 59.5 -22.5t22.5 -59.5v-62q0 -37 -23 -61.5t-59 -24.5zM350 1376l-2 2q-6 0 -6 -4l2 -2l2 2zM227 1360v-12q1 0 11 10v8h-5l-2 -2q-4 0 -4 -4zM367 1296q6 -6 6 0q-1 1 -1.5 3l-1 4t-1.5 2q-1 1 -7 -5zM231 1288l5 6q-1 2 -3 4l-4 -4 q0 -4 2 -6zM330 1284l-4 2l-2 -4q0 -2 3.5 -6t4.5 -4h4l2 8q4 -2 6 2l8 6q-2 2 -6 2.5t-6 -0.5l-6 -8q1 1 -0.5 1.5t-3.5 0.5zM240 1286v-3q-1 -4 0 -3l8 6h-2q0 2 -2 2t-4 -2zM309 1274v-2v4l-6 4h-6l2 -6q-2 0 -4 -4q1 -1 -1 -4l1 -2q0 -2 2.5 -2t3.5 2l2 8q2 0 6 2z M270 1268l-2 -4l6 -2v2zM346 1266q2 2 0 2h-4v-2q-2 -2 2 -2q2 0 2 2zM221 1260v6q-4 -4 -6 -4l2 -2q1 1 3 0h1zM330 1260l-2 2h-2v-2l4 -3v3zM299 1243q0 -4 6 2q0 4 -10 4q-2 0 -6 -4l4 -4q4 -2 6 2zM287 1202l-8 2q2 2 -1 3q-1 0 -2 -1l-7 -1l1 -1q-2 -4 2 -6l2 2l7 -4 q6 0 8 2q0 2 -2 4zM227 1198l6 -2l-4 8l-4 -2q0 -1 1 -2t1 -2zM229 1130l-4 5v-7zM213 1065v4q2 2 -2 2h-2q-2 -2 2 -6h2zM188 1071q-4 -4 0 -4q2 -2 2.5 1t-2.5 3zM338 995v6l-2 -4zM186 991q10 -10 11 -10q4 0 4 10q-6 6 -11 4q-6 0 -4 -4zM170 975q2 0 5 1.5t4.5 3.5 t0.5 3l-12 6q-4 0 -4 -4l-2 -12q6 0 8 2zM158 889v-4l4 4v2zM193 877v2l-7 -2q4 -3 7 0zM272 877l-6 -7q1 -2 3.5 -3t4.5 -0.5t2 1.5q5 0 5 9q-1 1 -4 1t-5 -1zM358 805q7 7 7 16q0 6 -7 13q-8 8 -14 8t-14 -8q-6 -6 -6 -13q0 -13 6 -16q2 -4 14 -4q10 0 14 4zM377 838v-4h4 l4 6zM238 817h2l2 2l-2 2q-2 -2 -2 -4zM195 817l8 -4h4l-4 6zM604 799l-4 4q0 -2 2 -2v-2q0 -2 2 -2q2 2 0 2zM567 801q-4 -4 0 -8l8 -2q0 8 -2 8zM631 780l4 4l-4 4v-8zM768 784q-1 0 -3 1l-1 -1h4l4 -10l2 -2v4q-1 1 -2 3t-2 3.5t-2 1.5zM602 776l-6 4v-6q0 -8 4 -8 q6 6 6 8q-2 2 -4 2zM711 766q-3 0 -3.5 -4.5t1.5 -7.5h2l4 -6l2 -5q2 3 2 7l2 4l-2 -2h-2v6q-3 3 -4 2h-2v8q-2 0 0 -2zM707 754h-7q-6 -3 -6 -6q2 -2 4 2zM662 731l-5 -2l-2.5 -2.5t0.5 -1.5q7 2 7 4v2zM766 725l-6 -12l4 -4q6 1 6 2l2 8v10h-2q0 -2 -4 -4zM637 717 q1 1 2.5 1.5l1.5 0.5l-6 4q-2 -2 2 -6zM672 721l-8 -4q8 0 10 2q4 0 2 2q0 1 -2 1t-2 -1zM709 719q-2 0 -2 -2q0 -4 2 -4q0 -4 2 0q2 2 -2 6zM254 653v-8q4 -4 6 -8l4 4l-4 10q-4 2 -6 2zM264 606v2q1 2 0.5 4t-2.5 2l-2 -2v-4zM287 530h4q1 0 4.5 4.5t3.5 6.5q0 6 -2 8 l-6 -4q-1 1 -2.5 4t-3.5 4q-8 7 -11 6q-2 -1 -2 -6t2 -8q9 0 13 -4q-1 1 -1 -1q-1 -3 1 -8v-2zM246 522l4 -6v6l-2 2zM268 270h11q0 6 -5 11q-6 0 -6 -5q-2 -2 -2 -4t2 -2zM174 258v2q-1 2 -3.5 3.5t-4.5 1.5t-2 -1l6 -4l-2 -2h6zM739 168q-4 -4 -4 -14q0 -3 7.5 -12 t11.5 -9q10 0 16 4q6 6 6 17q0 3 -1.5 5t-4.5 4t-4 3q-4 8 -12 8q-9 0 -15 -6zM729 133q-10 -10 0 -20q13 -8 21 0q6 5 -5 16q-10 10 -16 4z" />
<glyph unicode="&#xcc;" horiz-adv-x="489" d="M41 1933h72q66 0 98 -57l86 -150q19 -32 6.5 -52.5t-49.5 -20.5h-43q-43 0 -76 33l-139 147q-37 40 -23.5 70t68.5 30zM217 1790q-6 0 -14 -8q-6 -6 -6 -13q0 -13 6 -16q2 -4 14 -4q10 0 14 4q7 7 7 16q0 6 -7 13q-8 8 -14 8zM176 1479h78q37 0 59.5 -22.5t22.5 -59.5 v-400q0 -20 -14 -34q-9 -9 -9 -21q3 -30 9 -55q3 -17 10 -27q4 -12 4 -22v-752q0 -37 -23 -61.5t-59 -24.5h-78q-37 0 -61.5 24.5t-24.5 61.5v1311q0 36 24.5 59t61.5 23zM283 1176l-4 2q-1 1 -7 -2v-5h7zM289 1139q-1 0 -2 -1.5t-0.5 -3.5t2.5 -4l2 -2q4 0 2 2q3 4 0 7 q0 6 -4 2zM156 1047q-5 0 -11 -3l-6 -12q0 -6 11 -2q2 -1 6 -1t7.5 1.5t2.5 3.5q-6 13 -10 13zM244 981q-2 -2 2 -2h2q-1 0 -3 2h-1zM145 969l13 -2q4 4 4 6l-8 2zM135 702h-20q0 -1 -1.5 -3t-2 -3.5t1.5 -1.5l8 4l16 -2l4 2q0 1 -3 2q-2 1 -3 2zM252 549q-4 -4 -2 -6 q0 -2 9 -5t13 -3q3 3 2 4h-2l-8 2q-8 8 -12 8zM297 322q-13 8 -21 0q-6 -6 5 -17q10 -10 16 -4q4 5 3.5 11.5t-3.5 9.5zM272 301q-10 0 -16 -4q-6 -6 -6 -16q0 -3 10 -13q4 -8 12 -8q9 0 15 6q4 4 4 15q0 3 -7.5 11.5t-11.5 8.5z" />
<glyph unicode="&#xcd;" horiz-adv-x="475" d="M348 1933h72q55 0 68.5 -30t-23.5 -70l-139 -147q-33 -33 -76 -33h-43q-37 0 -49.5 20.5t6.5 52.5l86 150q32 57 98 57zM412 1874q-5 0 -9 -4t-4 -8q0 -7 4 -11q0 -2 9 -2q8 0 10 2t2 11q0 6 -2 8q-8 4 -10 4zM225 1479h78q37 0 59.5 -22.5t22.5 -59.5v-400 q0 -20 -14 -34q-9 -9 -9 -21q3 -30 9 -55q3 -17 10 -27q4 -12 4 -22v-752q0 -37 -23 -61.5t-59 -24.5h-78q-37 0 -61.5 24.5t-24.5 61.5v1311q0 36 24.5 59t61.5 23zM332 1176l-4 2q-2 1 -6 -2v-5h6zM338 1139q-1 0 -2 -1.5t-0.5 -3.5t2.5 -4l2 -2q4 0 2 2q4 4 0 7q0 6 -4 2 zM205 1047q-4 0 -10 -3l-7 -12q0 -6 11 -2q2 -1 6 -1t7.5 1.5t2.5 3.5q-7 13 -10 13zM293 981q-2 -2 2 -2h2q-1 0 -3 2h-1zM195 969l12 -2q4 4 4 6l-8 2zM184 702h-20q0 -1 -1.5 -3t-2 -3.5t1.5 -1.5l8 4l16 -2l4 2q0 1 -3 2q-2 1 -3 2zM301 549q-4 -4 -2 -6q0 -2 9.5 -5 t13.5 -3q3 3 2 4h-2l-9 2q-8 8 -12 8zM346 322q-12 8 -20 0q-6 -6 4 -17q10 -10 16 -4q10 11 0 21zM322 301q-11 0 -17 -4q-6 -6 -6 -16q0 -3 10 -13q4 -8 13 -8q8 0 14 6q4 4 4 15q0 3 -7 11.5t-11 8.5z" />
<glyph unicode="&#xce;" horiz-adv-x="485" d="M178 1933h131q48 0 74 -39l117 -168q23 -31 11.5 -52t-50.5 -21h-49q-48 0 -74 39l-51 69q-20 28 -43 28t-43 -28l-51 -69q-26 -39 -74 -39h-51q-37 0 -48.5 21t11.5 52l116 168q26 39 74 39zM334 1864q-6 0 -15 -9q-6 -6 -6 -12q0 -13 6 -16q2 -4 15 -4q10 0 14 4 q6 6 6 16q0 6 -6 12q-9 9 -14 9zM207 1479h78q37 0 59.5 -22.5t22.5 -59.5v-400q0 -19 -15 -34q-8 -8 -8 -21q2 -30 8 -55q3 -17 10 -27q5 -15 5 -22v-752q0 -37 -23 -61.5t-59 -24.5h-78q-37 0 -61.5 24.5t-24.5 61.5v1311q0 36 24.5 59t61.5 23zM313 1176l-4 2q-2 1 -6 -2 v-5h6zM319 1139q-1 0 -2 -1.5t-0.5 -3.5t2.5 -4l3 -2q4 0 2 2q4 4 0 7q0 2 -2 2.5t-3 -0.5zM186 1047q-4 0 -10 -3l-6 -12q0 -5 10 -2q2 -1 6.5 -1t8 1.5t2.5 3.5q-7 13 -11 13zM274 981q-2 -2 2 -2h3q-1 0 -3 2h-2zM176 969l12 -2q5 5 5 6l-9 2zM166 702h-21q0 -1 -1.5 -3 t-2 -3.5t1.5 -1.5l9 4l16 -2l4 2q0 1 -3 2q-2 1 -3 2zM283 549q-4 -4 -2 -6q0 -2 9 -5t13 -3q3 3 2 4h-2l-8 2q-8 8 -12 8zM328 322q-13 8 -21 0q-7 -6 4 -17t17 -4q10 11 0 21zM303 301q-10 0 -16 -4q-6 -6 -6 -16q0 -3 10 -13q4 -8 12 -8t14 6q5 5 5 15q0 3 -7.5 11.5 t-11.5 8.5z" />
<glyph unicode="&#xcf;" horiz-adv-x="561" d="M78 1892h53q37 0 60.5 -23.5t23.5 -60.5v-53q0 -37 -23.5 -60.5t-60.5 -23.5h-53q-37 0 -60.5 23.5t-23.5 60.5v53q0 37 23.5 60.5t60.5 23.5zM430 1892h53q37 0 60.5 -23.5t23.5 -60.5v-53q0 -37 -23.5 -60.5t-60.5 -23.5h-53q-37 0 -60.5 23.5t-23.5 60.5v53 q0 37 23.5 60.5t60.5 23.5zM426 1858q-3 0 -8 -5q-4 -4 -4 -6q0 -8 4 -8q0 -2 8 -2t10 2t2 8q0 4 -2 6zM111 1765q-7 0 -15 -8q-6 -6 -6 -12q0 -13 6 -16q2 -5 15 -5q9 0 14 5q6 6 6 16q0 6 -6 12q-8 8 -14 8zM244 1479h78q37 0 59 -22.5t22 -59.5v-400q0 -20 -14 -34 q-8 -8 -8 -21q2 -30 8 -55q3 -17 10 -27q4 -12 4 -22v-752q0 -37 -22.5 -61.5t-58.5 -24.5h-78q-37 0 -61.5 24.5t-24.5 61.5v1311q0 36 24.5 59t61.5 23zM350 1176l-4 2q-2 1 -6 -2v-5h6zM356 1139q-1 0 -2 -1.5t-0.5 -3.5t2.5 -4l2 -2q4 0 2 2q4 4 0 7q0 6 -4 2zM223 1047 q-4 0 -10 -3l-6 -12q0 -5 10 -2q2 -1 6 -1t7.5 1.5t2.5 3.5q-7 13 -10 13zM311 981q-2 -2 2 -2h2q-1 0 -3 2h-1zM213 969l12 -2q4 4 4 6l-8 2zM203 702h-21q0 -1 -1.5 -3t-2 -3.5t1.5 -1.5l8 4l17 -2l4 2q0 1 -3 2q-2 1 -3 2zM319 549q-4 -4 -2 -6q0 -2 9.5 -5t13.5 -3 q3 3 2 4h-2l-8 2q-8 8 -13 8zM365 322q-13 8 -21 0q-6 -6 4 -17t17 -4q4 5 3.5 11.5t-3.5 9.5zM340 301q-10 0 -16 -4q-7 -7 -7 -16q0 -3 1.5 -5t5 -4.5t4.5 -3.5q4 -8 12 -8t14 6q4 4 4 15q0 3 -7 11.5t-11 8.5z" />
<glyph unicode="&#xd0;" horiz-adv-x="1036" d="M227 1479h365q130 0 225.5 -95.5t95.5 -226.5v-852q-6 -126 -99 -215.5t-222 -89.5h-365q-37 0 -60.5 23.5t-23.5 60.5v537q0 20 -20 20q-34 0 -58 24.5t-24 59.5v23q0 37 23.5 60t60.5 23q18 0 18 21v543q0 37 23.5 60.5t60.5 23.5zM762 1280q10 5 10 10q-1 3 -7 4.5 t-9 -0.5q-11 -4 -11 -6l3 -6h4q2 -5 10 -2zM791 1276v-4q2 -4 4 -4v8h-4zM776 1249v-12q5 -5 10 4v14q2 -1 5 -1t4 1l2 2v5q0 1 -3 2.5l-6 3t-4 2.5l-6 -4l4 -9q-5 -5 -6 -8zM668 352v776q0 53 -38.5 87t-92.5 34h-66q-82 0 -82 -82v-315q0 -9 6 -15t15 -6h8q37 0 60.5 -23 t23.5 -60v-23q0 -37 -23.5 -60.5t-60.5 -23.5h-8q-21 0 -21 -20v-310q0 -41 23 -61q-4 0 -6 -2q0 -6 2 -6l8 -4v8q24 -17 55 -17h66q53 0 92 35.5t39 87.5zM291 1243l-2 -2l2 -2l4 2v2q-4 2 -4 0zM723 1235h4l2 4q0 3 -4 1q-2 -1 -2 -3v-2zM735 1219l-2 6q-1 1 -2 3l-2 1 q-1 -1 -1 -5.5t1 -4.5h6zM246 1227q3 -6 4 -6q6 -6 6 0l-6 8zM758 1214q3 -3 4.5 -1.5t-0.5 4.5q-2 2 -4.5 0t0.5 -3zM174 1210q0 -2 3.5 -5t6.5 -3h9v4l-3 2q0 1 -6 4q-2 0 -5.5 -1t-4.5 -1zM709 1194v-6h8q6 3 6 12zM770 1192v-6l6 -6l4 6v10q-10 0 -10 -4zM295 1159 q8 4 8 8q0 7 -4 11q3 -3 8 2l2 2l-2 4h-12l-4 -4l6 -4q-4 -4 -4 -9q0 -10 2 -10zM256 1147l10 2q0 4 -2 6l-6 2q-4 0 -4 -4zM236 1145l4 -4v4l-4 2v-2zM201 1126v-2q0 -2 4 -6q1 1 5 3l1 1zM193 1075q1 0 0 1q-2 2 -3 2q-1 -1 0 -3q-1 -1 -1 -2q2 -2 4 2zM213 1059l4 -2h2v2 l-2 2zM774 1036l2 -4h2l2 2l-4 4zM182 991q-5 -11 -2 -14q13 0 13 4q3 3 0 6l-7 10q-4 -2 -4 -6zM723 977l8 4q0 1 -5.5 1t-6.5 -1l-2 -2q0 -2 2.5 -2.5t3.5 0.5zM801 936q4 4 4 12q0 4 -4 8q-5 5 -8 5q-6 0 -11 -5q-4 -4 -4 -8q0 -8 4 -12q2 -2 11 -2zM215 958q-4 0 -6 -6 h4q2 0 2 4v2zM201 934q0 -4 10 -4q6 0 6 8q0 4 -0.5 4.5t-3.5 -0.5q-2 0 -7 -2.5t-5 -5.5zM350 915v-2v5q-4 2 -4 0q0 -3 4 -3zM227 901q-4 0 -4 -2q4 -4 4 2zM305 860q7 -3 10 0q0 6 -2 8h-10q-1 0 -1 -2t1 -4t2 -2zM197 786l-4 2q-1 2 -1 0t1 -4zM414 758l10 -4l4 4l-4 4 q-10 0 -10 -4zM248 729l2 8q-1 3 -4 2q-2 -2 -2 -4zM281 729h6q2 0 4 2q-2 2 -4 0zM823 692q0 -10 15 -10q14 0 14 10q0 13 -14 13q-5 0 -10 -3.5t-5 -9.5zM864 645q6 6 6 14q0 9 -8 13q-2 3 -12.5 4t-13.5 -2q-9 -9 -9 -15q0 -9 7 -16q2 -2 16 -2q10 0 14 4zM328 616h10 q2 5 2 7l-6 4l-8 -6q0 -5 2 -5zM238 580l2 -2l4 2q0 10 -4 14t-4 2l-7 -6q-4 2 -8 0q-10 -1 -10 -4q0 -6 10 -6q4 0 10 6q0 -6 7 -6zM344 475l-4 -2l2 -4h2q2 4 0 6zM346 412h2q0 2 -2 2t-3.5 -1.5t-0.5 -2.5q3 0 4 2zM311 223q1 -1 2 0t0 2q1 3 0.5 7t-2.5 4v-9q-4 -4 0 -4 z" />
</font>
</defs>
</svg>
