<?xml version="1.0" encoding="utf-8"?>
<!DOCTYPE svg PUBLIC "-//W3C//DTD SVG 1.1//EN" "http://www.w3.org/Graphics/SVG/1.1/DTD/svg11.dtd">
<svg version="1.1" xmlns="http://www.w3.org/2000/svg" xmlns:xlink="http://www.w3.org/1999/xlink" x="0px" y="0px" viewBox="0 0 1000 1000" enable-background="new 0 0 1000 1000" xml:space="preserve">
<metadata> Svg Vector Icons : http://www.onlinewebfonts.com/icon </metadata>
<g><g transform="translate(0.000000,511.000000) scale(0.100000,-0.100000)"><path d="M7330.9,4250.6c-130.8-80-124.9-33.2-124.9-1040.5v-913.6h-488h-490l-46.9-48.8c-93.7-91.8-72.2-140.6,171.8-404.1c119.1-130.8,466.6-505.6,769.2-833.6c302.6-328,579.8-613,614.9-630.6c74.2-41,177.6-42.9,253.8-9.8c48.8,21.5,304.5,290.9,1296.2,1364.6c351.4,380.7,370.9,415.8,271.4,513.4l-46.9,48.8h-490h-488V3212c0,898,0,915.6-41,966.3c-82,103.5-113.2,109.3-626.7,109.3C7432.4,4287.7,7385.6,4283.8,7330.9,4250.6z M8221.1,3048c0-946.8,3.9-1003.4,76.1-1038.6c17.6-7.8,201.1-19.5,410-25.4l376.8-9.8l-597.4-644.2c-328-353.3-605.2-644.2-616.9-644.2c-11.7,0-288.9,290.9-616.9,644.2l-595.4,644.2l382.6,9.8l384.6,9.8l46.8,54.7l46.9,54.7v937.1v935.1h351.4h351.4V3048z"/><path d="M470.9,2161.7c-152.3-46.9-306.5-193.3-347.5-329.9c-17.6-56.6-23.4-767.2-23.4-2797.5c0-2590.6,2-2725.3,37.1-2799.5c54.7-119.1,136.7-205,246-255.7l97.6-46.9H4307h3826.3l97.6,46.9c54.7,25.4,113.2,62.4,132.7,83.9C8410.5-3884.2,9900-50.1,9900,18.2c0,60.5-54.7,124.9-121,140.6c-25.4,5.9-1801.9,7.8-3949.3,5.9l-3904.4-5.9l-82-43c-89.8-48.8-183.5-154.2-240.1-269.4c-21.5-42.9-290.9-749.6-601.3-1571.5c-310.4-821.9-570-1507.1-575.9-1522.7c-5.9-15.6-11.7,1104.9-11.7,2491c-2,2455.9,0,2522.2,35.1,2567.1l37.1,46.9l1153.8,5.9L2794,1867l894.1-449l896.1-449h999.5c839.4,0,1009.3,3.9,1054.2,29.3c93.7,46.9,109.3,158.1,31.2,234.3l-46.9,48.8h-987.8h-987.8l-886.3,449l-886.3,449l-1177.2-2C1048.8,2177.4,498.2,2169.6,470.9,2161.7z M9503.7-178.9c-25.4-95.7-1368.5-3531.5-1388-3553c-17.6-17.6-790.6-23.4-3783.3-19.5l-3759.9,5.9l650.1,1719.9c357.2,944.9,663.7,1747.2,681.3,1782.4c19.5,33.2,52.7,70.3,76.1,78.1c23.4,9.8,1727.7,17.6,3787.3,17.6C9253.8-147.7,9513.5-149.6,9503.7-178.9z"/></g></g>
</svg>