<svg xmlns="http://www.w3.org/2000/svg" enable-background="new 0 0 24 24" viewBox="0 0 24 24"><polygon points="23.849 11.066 23.851 11.071 23.852 11.071"/><polygon points="12.183 6.521 12.185 6.522 12.185 6.522"/><polygon points="11.815 17.644 11.813 17.643 11.815 17.644"/><path fill="#8080F2" d="M7.309,9.012l4.554-2.629c0.114-0.066,0.255-0.066,0.368,0l4.554,2.629c0.114,0.066,0.184,0.188,0.184,0.319v5.258c0,0.132-0.07,0.254-0.184,0.319l-4.554,2.629c-0.114,0.066-0.254,0.066-0.368,0l-4.554-2.629c-0.114-0.066-0.184-0.188-0.184-0.319V9.331C7.125,9.199,7.195,9.078,7.309,9.012L7.309,9.012z"/><path fill="#4B32C3" d="M23.851,11.529l-5.446-9.475c-0.198-0.343-0.563-0.595-0.959-0.595H6.554c-0.395,0-0.761,0.252-0.959,0.595l-5.446,9.454c-0.198,0.343-0.198,0.775,0,1.118l5.446,9.397c0.198,0.343,0.563,0.518,0.959,0.518h10.893c0.396,0,0.761-0.17,0.959-0.512l5.446-9.413C24.049,12.273,24.049,11.871,23.851,11.529L23.851,11.529z M19.342,16.086c0,0.139-0.084,0.268-0.205,0.338L12.2,20.426c-0.121,0.07-0.271,0.07-0.392,0l-6.942-4.002c-0.121-0.07-0.205-0.198-0.205-0.338V8.08c0-0.139,0.083-0.268,0.204-0.338L11.8,3.74c0.122-0.07,0.271-0.07,0.393,0l6.943,4.002c0.121,0.07,0.206,0.198,0.206,0.338V16.086L19.342,16.086z"/><polygon points="11.813 17.643 11.815 17.644 11.813 17.643"/><path fill="#6F6FD3" d="M12,6.337c-0.048,0.006-0.094,0.022-0.137,0.047L7.309,9.012C7.195,9.078,7.125,9.199,7.125,9.331v5.258c0,0.132,0.07,0.254,0.184,0.319l4.554,2.629c0.043,0.025,0.09,0.04,0.137,0.047V6.337L12,6.337z"/><path fill="#412CAA" d="M12,1.459H6.554c-0.395,0-0.761,0.252-0.959,0.595l-5.446,9.454c-0.198,0.343-0.198,0.775,0,1.118l5.446,9.397c0.198,0.343,0.563,0.518,0.959,0.518H12v-2.063c-0.067-0.001-0.133-0.018-0.193-0.052l-6.942-4.002c-0.121-0.07-0.205-0.198-0.205-0.338V8.08c0-0.139,0.083-0.268,0.204-0.338L11.8,3.74c0.061-0.035,0.129-0.052,0.196-0.052c0.001,0,0.002,0,0.003,0V1.459L12,1.459z"/></svg>