<?xml version="1.0" encoding="utf-8"?>
<!-- Svg Vector Icons : http://www.onlinewebfonts.com/icon -->
<!DOCTYPE svg PUBLIC "-//W3C//DTD SVG 1.1//EN" "http://www.w3.org/Graphics/SVG/1.1/DTD/svg11.dtd">
<svg version="1.1" xmlns="http://www.w3.org/2000/svg" xmlns:xlink="http://www.w3.org/1999/xlink" x="0px" y="0px" viewBox="0 0 1000 1000" enable-background="new 0 0 1000 1000" xml:space="preserve">
<metadata> Svg Vector Icons : http://www.onlinewebfonts.com/icon </metadata>
<g><path d="M412.3,347.5l-87.7,151.9l87.7,151.9h175.4l87.7-151.9l-87.7-151.9H412.3z"/><path d="M414.6,311.5l0.4,0.5c1.1,1.5,2.9,2.6,5,2.6l160.1,0.4c2,0,4-1,5.3-2.7l0.4-0.5l92.7-131.4c3.9-5.6,4.5-13.2,0.9-19.6l-0.9-1.5L598.3,20.6c-3.7-6.3-10.5-10.6-18.3-10.6H419.9c-7.3,0-14.4,3.8-18.3,10.6l-80.1,138.7l-0.9,1.6c-3.4,5.9-3.3,13.6,0.9,19.5L414.6,311.5z M432.1,52.2h135.7l68.5,118.7l-60.5,131l-152,0.4L363.6,171L432.1,52.2z"/><path d="M585.7,688.3l-0.4-0.6c-1.2-1.6-3.1-2.7-5.3-2.7l-160.1,0.4c-1.9,0-3.8,0.9-5,2.6l-0.4,0.5l-93,131.2c-4,5.6-4.6,13.2-0.9,19.5l0.9,1.6l80.1,138.7c3.7,6.3,10.5,10.6,18.3,10.6h160.1c7.3,0,14.4-3.8,18.3-10.6l80.1-138.7l0.9-1.6c3.4-5.9,3.3-13.6-0.9-19.6L585.7,688.3z M567.9,947.8H432.1L363.6,829l60.3-131.3l152,0.4l60.5,131L567.9,947.8z"/><path d="M115.7,484.1l0.9,1.6c3.4,5.9,10.1,9.6,17.4,9l160.1-14.9l0.6-0.1c1.9-0.2,3.7-1.3,4.7-3l80.4-138.5c1-1.8,1.2-4,0.3-5.9l-0.3-0.6l-67.4-145.9c-2.9-6.2-9.2-10.6-16.5-10.6h-1.8l-160.1,0c-7.3,0-14.4,3.8-18.3,10.6L35.6,324.3c-3.6,6.3-3.9,14.4,0,21.1L115.7,484.1z M146.1,217.3l137.1,0l83.2,117.9l-75.7,131.8l-143.8-13.4L78.3,334.9L146.1,217.3z"/><path d="M964.4,654.6l-80.1-138.7l-0.9-1.6c-3.4-5.9-10.1-9.7-17.4-9l-160.1,14.6l-0.7,0.1c-2,0.2-3.9,1.3-5,3.2L620.5,662c-0.9,1.7-1.1,3.8-0.3,5.6l0.3,0.6l67.1,146.1c2.9,6.2,9.2,10.6,16.5,10.6h1.8H866c7.3,0,14.4-3.8,18.3-10.6l80.1-138.7C968,669.4,968.3,661.3,964.4,654.6z M853.9,782.7H716.7l-83.5-117.9l76.3-131.5l143.7,13.1l68.5,118.7L853.9,782.7z"/><path d="M379.7,667.6c0.8-1.7,0.7-3.8-0.3-5.6l-79.7-138.8c-1-1.7-2.9-3-5-3.2l-0.7-0.1L134,505.3c-6.8-0.6-13.7,2.7-17.4,9l-0.9,1.5L35.6,654.6c-3.6,6.3-3.9,14.4,0,21.1l80.1,138.7c3.7,6.3,10.5,10.6,18.3,10.6l160.1,0l1.8,0c6.9,0,13.4-3.9,16.4-10.6l67.1-146.1L379.7,667.6z M283.3,782.7l-137.1,0L78.3,665.1l68.5-118.7l143.7-13.1l76.3,131.5L283.3,782.7z"/><path d="M619.9,332.2c-0.8,1.8-0.8,4,0.3,5.9l80.4,138.5c1,1.6,2.7,2.8,4.7,3l0.6,0.1L866,494.7c6.8,0.6,13.7-2.7,17.4-9l0.9-1.6l80.1-138.7c3.6-6.3,3.9-14.4,0-21.1l-80.1-138.7c-3.7-6.3-10.5-10.6-18.3-10.6H705.9l-1.8,0c-6.9,0-13.4,3.9-16.5,10.6l-67.4,145.9L619.9,332.2z M716.8,217.3h137.1l67.9,117.5l-68.6,118.8l-143.8,13.4l-75.7-131.8L716.8,217.3z"/></g>
</svg>