<svg xmlns="http://www.w3.org/2000/svg" width="64" height="64" viewBox="0 0 64 64"><path d="M61.076 16.184C55.586 1.652 34.89-1.19 28.66.39c-4.022 1.02-17.318 2-23.865 14.215C-1.753 26.82-2.703 44.51 9.018 55.04s28.616 12.425 42.238 2.21 15.31-26.535 9.82-41.066zm-.238 20.35c-.08.236-1.11 2.526-1.11 2.526s-4.91-6.24-5.147-6.24-.552.95-.394 1.186c.158.237 5.07 6.24 5.07 6.24l-1.347 2.21s-4.278-5.765-4.594-5.844c-.317-.08-.95.474-.713.71.238.238 4.752 5.766 4.514 6.24s-1.98 2.053-1.98 2.053-3.643-5.37-3.88-5.45c-.24-.078-1.11.712-.872 1.186.238.476 3.8 5.37 3.564 5.688-.24.316-1.98 2.132-1.98 2.132s-2.93-4.976-3.248-5.055c-.316-.08-1.187.948-.95 1.106.24.16 3.565 4.74 3.406 5.056-.158.316-1.98 1.58-1.98 1.58l-2.93-4.503-1.11 1.027s2.614 4.185 2.535 4.58c-.078.395-2.296 1.58-2.296 1.58l-2.613-4.58s-1.108.552-1.108.79c0 .236 2.613 4.738 2.613 4.738l-1.98.87s-2.377-4.74-2.614-4.818c-.238-.08-1.11-.158-.95.474s2.138 4.975 2.138 4.975l-1.98.63s-2.138-4.344-2.376-4.5c-.238-.16-1.267.235-1.11.472.16.237 2.377 4.74 2.06 4.817s-2.772.315-2.772.315-1.82-4.186-2.06-4.265c-.237-.078-1.03.16-.95.554.08.395 1.506 3.87 1.506 3.87H31.06s-1.426-2.922-1.742-3.238c-.317-.316-1.346.237-1.11.474.24.237 1.427 2.922 1.19 3-.24.08-10.138.79-18.85-6.633S.49 33.61 1.678 26.74C2.87 19.87 8.412 8.023 19.024 4.31 22.76 3.005 29.557-.27 40.486 2.416S56.958 12.84 57.908 14.42s1.663 4.344 1.663 4.344-3.64-4.66-4.195-4.74c-.554-.078-.87.79-.634 1.186.24.395 4.83 4.896 5.15 5.45.316.552.95 3.87.95 3.87s-4.12-5.37-4.594-5.45c-.475-.08-.792.79-.634 1.027.16.237 5.386 5.923 5.466 6.24.08.315.475 3.553.475 3.553s-4.988-5.923-5.305-6.002c-.317-.08-.554 1.106-.554 1.106s5.465 6.002 5.545 6.318c.08.316.157 3.396.157 3.396S56.167 28.4 55.77 28.4s-.475 1.343-.475 1.343 5.623 6.553 5.543 6.79zM14.43 13.708c2.772-3.713 6.494-5.055 6.494-5.055s-.475-1.027-.792-1.106c-.317-.08-3.168.947-6.652 4.66s-4.375 6.43-4.198 6.87c.158.395 1.11.87 1.584.632.475-.238.792-2.29 3.564-6.004v.002zM43.257 16c-1.82.158-26.61 11.45-29.857 13.426-3.247 1.974-2.613 4.107-1.822 5.212s8.553 3 8.553 3c.556.396 4.99 9.636 5.704 9.715.713.08 5.544-6.555 6.02-6.713.474-.158 2.93.87 4.592 1.422 1.663.553 5.465 2.21 6.81 1.106 1.347-1.106 3.644-17.61 4.198-22.192.556-4.58-2.375-5.134-4.196-4.976zm1.505 3.396c-.053.21-1.426 1.685-1.426 1.685l-.21-1.367 1.425-1.422s.265.896.213 1.107zM12.687 32.11c.38-1.434 3.722-2.526 7.365-4.5S42.94 17.42 43.494 17.34s.158.632.158.632S21.24 36.138 20.845 36.138c-.396 0-8.87-1.342-8.158-4.028zm29.857-10.03c-.106.16-1.848 2.107-1.848 2.107s-.528-2-.422-2.264c0 0 1.742-1.58 1.795-1.422.05.16.58 1.424.473 1.58zm-2.534 3.476L38.584 27.4l-1.003-3.213s1.64-1.474 1.69-1.316c.054.16.74 2.687.74 2.687zm-7.392 2.79c.158-.105 1.32-1.316 1.426-1.158.106.158 1.584 4.317 1.478 4.528-.106.21-1.056 1.37-1.056 1.37l-1.848-4.74zm1.162 5.79l-1.003 1.107-2.06-5.265c.16-.158 1.004-.895 1.004-.895l2.06 5.054zm1.16-8c.212-.16 1.268-1.16 1.268-1.16l1.32 3.634-1.162 1.58-1.425-4.055zm-9.133 19.48s-3.96-8.32-3.907-8.478l1.848-1.264s3.38 8.055 3.273 8.424c-.103.37-1.212 1.317-1.212 1.317zm2.165-2.317s-3.326-8.005-3.22-8.32c.05-.15 1.055-1.107 1.213-1.107.158 0 3.22 7.845 3.168 8.055s-1.16 1.37-1.16 1.37zm1.742-2.424c-.106-.21-2.957-7.424-2.798-7.687.174-.29.95-.79.95-.79l2.534 7.423s-.58 1.263-.686 1.053zm1.11-3.265s-2.113-5.74-1.955-6.106c.086-.205.843-.843 1.054-.843.21 0 2.217 5.108 2.165 5.32-.054.21-1.268 1.63-1.268 1.63h.002zm10.77 4.135c-1.11.553-9.503-2.685-9.503-3 0-.317 13.228-18.402 13.703-18.876.28-.28-3.09 21.322-4.2 21.875z"/></svg>