<?xml version="1.0" encoding="utf-8"?>
<!-- Svg Vector Icons : http://www.onlinewebfonts.com/icon -->
<!DOCTYPE svg PUBLIC "-//W3C//DTD SVG 1.1//EN" "http://www.w3.org/Graphics/SVG/1.1/DTD/svg11.dtd">
<svg version="1.1" xmlns="http://www.w3.org/2000/svg" xmlns:xlink="http://www.w3.org/1999/xlink" x="0px" y="0px" viewBox="0 0 1000 1000" enable-background="new 0 0 1000 1000" xml:space="preserve">
<metadata> Svg Vector Icons : http://www.onlinewebfonts.com/icon </metadata>
<g><g transform="translate(0.000000,511.000000) scale(0.100000,-0.100000)"><path d="M4731,4981.8c-575.3-123.1-990.8-673.4-956.2-1267.9c17.3-288.6,117.4-527.2,317.5-758c80.8-96.2,80.8-96.2,80.8-250.1v-155.8h-304h-304l-94.3,98.1c-638.8,650.3-1748.9,198.2-1748.9-713.8c0-565.6,452.1-1019.7,1012-1019.7c286.7,0,500.2,84.7,708,280.9l128.9,123.1h302h300.1V-636.2c0-1775.8-3.9-1960.5-30.8-2022.1c-50-102-103.9-128.9-246.3-117.3c-254,21.2-692.6,265.5-1019.7,569.5l-88.5,80.8l77,153.9c82.7,163.5,96.2,254,48.1,321.3c-15.4,23.1-115.4,98.1-219.3,165.4c-556,365.6-1175.5,858.1-1677.7,1337.1C752.3,102.6,715.7,121.9,592.6,56.4c-100-50-119.3-130.8-103.9-429c26.9-573.3,96.2-994.7,221.3-1369.9c152-456,375.2-802.3,623.4-967.7c100-65.4,111.6-69.2,275.1-69.2h169.3l71.2-132.8c246.3-452.1,634.9-802.3,1202.5-1087c288.6-144.3,509.9-228.9,1098.6-423.3c279-90.4,536.8-180.8,573.3-200.1c36.6-19.2,80.8-63.5,100-100l32.7-67.3h144.3h144.3l32.7,67.3c19.2,36.6,63.5,80.8,100,100c36.6,19.2,294.4,109.7,573.4,200.1c586.8,192.4,810,279,1092.8,421.3c575.3,286.7,979.3,656.1,1212.1,1100.5l63.5,121.2h171.2c165.5,0,177,1.9,277,69.2c248.2,165.5,471.4,511.8,623.4,967.7c127,377.1,194.3,798.4,221.3,1369.9c13.5,300.1-3.8,379-103.9,429c-121.2,63.5-163.5,44.3-396.3-178.9c-506-484.8-1144.7-994.7-1704.6-1362.2c-103.9-67.3-203.9-142.4-219.3-165.4c-48.1-67.3-34.6-157.8,48.1-321.3l77-153.9l-88.5-80.8c-325.2-302.1-765.8-548.3-1017.8-567.6c-138.5-11.5-186.6,7.7-240.5,96.2c-36.5,59.7-38.5,115.4-38.5,2029.8v1966.3h300.1h302.1l128.9-123.1c207.8-194.3,421.4-280.9,704.2-280.9c565.7,0,1015.9,452.1,1015.9,1019.7c0,565.6-452.1,1019.7-1012,1019.7c-286.7,0-500.2-84.7-708-280.9l-128.9-123.1h-302.1h-300.1v155.8c0,153.9,0,153.9,82.8,250.1c198.1,230.9,298.2,469.4,315.5,758C6272.1,4522,5529.4,5153,4731,4981.8z M5281.2,4548.9c213.6-80.8,365.6-221.3,459.8-427.1c150.1-325.2,80.8-663.8-190.5-938.9c-69.3-71.2-130.8-148.1-136.6-175.1c-7.7-25-9.6-205.9-5.8-398.3l5.8-352.1l63.5-55.8l61.6-55.8h550.2h550.3l51.9,59.6c161.6,190.5,209.7,232.8,307.8,280.9c90.4,46.2,132.8,53.9,261.7,53.9c128.9,0,171.2-7.7,263.6-53.9c119.3-57.7,221.3-159.7,288.6-286.7c36.5-69.3,44.2-111.6,44.2-265.5s-7.7-196.2-44.2-265.5c-67.3-127-169.3-229-288.6-286.7c-92.4-46.2-132.8-53.9-263.6-53.9c-246.2,1.9-325.2,48.1-569.5,334.8l-51.9,59.6h-550.3h-550.2l-61.6-55.8L5414,1611V-532.3v-2141.4l59.6-127c78.9-165.5,177-273.2,311.7-338.6c96.2-48.1,130.8-53.9,273.2-52c265.5,5.8,542.6,107.8,885,330.9c282.8,182.8,663.8,515.6,706.1,615.7c30.8,77,15.4,146.2-75,304l-55.8,100l217.4,150.1c388.6,265.5,823.4,608,1185.2,927.4l157.8,140.4v-63.5c0-34.6-13.4-150.1-28.9-255.9c-84.7-598.4-255.9-1046.6-496.4-1310.2l-113.5-123.1h-200.1c-269.4,0-298.2-15.4-384.8-205.9C7609.2-3120,7116.7-3520.2,6326-3826.1c-121.2-46.2-413.7-146.2-652.2-223.2c-236.6-77-486.7-163.5-552.2-196.2l-121.2-55.8l-121.2,55.8c-65.4,32.7-315.5,119.3-552.2,196.2c-238.6,77-531,177-652.2,223.2c-792.7,305.9-1285.2,706.1-1531.5,1246.7c-84.7,188.6-115.4,203.9-382.9,203.9h-200.1l-113.5,123.1C1208.2-1992.6,1037-1548.1,952.3-969c-17.3,113.5-30.8,236.7-30.8,275.1v71.2l169.3-150.1c342.5-307.8,888.9-733,1231.3-958.1c75-50,138.5-98.1,138.5-105.8c0-9.6-30.8-80.8-69.3-163.5c-65.4-136.6-69.3-152-48.1-221.3c15.4-52,63.5-111.6,161.6-203.9c482.9-448.3,923.5-700.3,1329.5-759.9c327.1-48.1,579.1,100,708,419.4l44.2,111.6l5.8,2077.9c3.8,1439.1,0,2099-15.4,2149.1c-11.6,38.5-42.3,88.5-71.2,109.7c-48.1,38.5-73.1,40.4-598.3,40.4h-546.4l-52-59.6c-161.6-190.5-209.7-232.8-307.8-280.9c-90.4-46.2-132.7-53.9-261.7-53.9s-171.2,7.7-263.6,53.9c-119.3,57.7-221.3,159.7-288.6,286.7c-36.6,69.3-44.2,111.6-44.2,265.5s7.7,196.3,44.2,265.5c67.3,127,169.3,229,288.6,286.7c92.3,46.2,134.7,53.9,263.6,53.9c192.4,0,330.9-61.6,450.2-198.2c42.3-50,98.1-113.5,125.1-142.4l48.1-53.9h544.5c606,0,609.9,0,661.8,127c32.7,78.9,38.5,669.5,5.8,752.3c-9.6,28.9-71.2,103.9-132.7,163.5c-198.2,192.4-290.5,452.1-252.1,702.2c67.3,436.7,448.3,742.6,877.3,704.2C5131.2,4589.3,5227.4,4568.1,5281.2,4548.9z"/><path d="M4806,4141c-46.2-25-109.6-82.7-142.4-127c-51.9-75-57.7-96.2-57.7-232.8c0-136.6,5.8-157.8,57.7-232.8c86.6-123.1,200.1-175.1,359.8-167.4c157.7,7.7,267.4,75,338.6,207.8c38.5,73.1,44.2,107.7,38.5,215.5c-5.8,107.7-17.3,142.4-67.3,211.6C5212,4181.4,4986.9,4235.3,4806,4141z"/></g></g>
</svg>